<svg width="33" height="33" viewBox="0 0 33 33" fill="none" xmlns="http://www.w3.org/2000/svg">
<path d="M17 33C25.8366 33 33 25.8366 33 17C33 8.16344 25.8366 1 17 1C8.16344 1 1 8.16344 1 17C1 25.8366 8.16344 33 17 33Z" fill="#111827"/>
<path d="M6.95179 17.7838C8.83979 16.7598 10.9198 15.8798 12.8718 15.0318C16.2211 13.6025 19.5971 12.2318 22.9998 10.9198C23.6558 10.7118 24.8558 10.4878 24.9678 11.4638C24.9038 12.8558 24.6478 14.2478 24.4558 15.6238C23.9865 18.6638 23.4851 21.6931 22.9518 24.7118C22.7918 25.7198 21.5118 26.2478 20.7118 25.5918C18.7598 24.2905 16.8185 22.9731 14.8878 21.6398C14.2478 20.9998 14.8398 20.0878 15.3998 19.6398C16.9998 18.0398 18.6958 16.7118 20.2158 15.0638C20.6318 14.0718 19.4158 14.9038 19.0158 15.1598C16.8238 16.6638 14.6958 18.2638 12.3918 19.5918C11.2078 20.2318 9.83179 19.6878 8.64779 19.3358C7.59179 18.8878 6.03979 18.4558 6.95179 17.7838Z" fill="white"/>
</svg>
