<svg width="33" height="33" viewBox="0 0 33 33" fill="none" xmlns="http://www.w3.org/2000/svg">
<path d="M17 33C25.8366 33 33 25.8366 33 17C33 8.16344 25.8366 1 17 1C8.16344 1 1 8.16344 1 17C1 25.8366 8.16344 33 17 33Z" fill="#111827"/>
<path d="M21.0001 6.32812H13.0001C11.2306 6.32813 9.53355 7.03107 8.28231 8.28231C7.03107 9.53355 6.32813 11.2306 6.32812 13.0001V21.0001C6.32812 24.6801 9.32013 27.6721 13.0001 27.6721H21.0001C24.6801 27.6721 27.6721 24.6801 27.6721 21.0001V13.0001C27.6721 9.32013 24.6801 6.32812 21.0001 6.32812ZM25.6721 21.0001C25.6721 23.5601 23.5761 25.6721 21.0001 25.6721H13.0001C11.7623 25.6679 10.5764 25.1743 9.70118 24.2991C8.82592 23.4238 8.33234 22.2379 8.32812 21.0001V13.0001C8.32812 10.4401 10.4241 8.32812 13.0001 8.32812H21.0001C23.5601 8.32812 25.6721 10.4241 25.6721 13.0001V21.0001Z" fill="white"/>
<path d="M16.9999 11.6721C15.5868 11.6721 14.2316 12.2335 13.2324 13.2327C12.2332 14.2319 11.6719 15.5871 11.6719 17.0001C11.6719 18.4132 12.2332 19.7684 13.2324 20.7676C14.2316 21.7668 15.5868 22.3281 16.9999 22.3281C18.4129 22.3281 19.7681 21.7668 20.7673 20.7676C21.7665 19.7684 22.3279 18.4132 22.3279 17.0001C22.3279 15.5871 21.7665 14.2319 20.7673 13.2327C19.7681 12.2335 18.4129 11.6721 16.9999 11.6721ZM16.9999 20.3281C16.1172 20.3281 15.2707 19.9775 14.6466 19.3534C14.0225 18.7293 13.6719 17.8828 13.6719 17.0001C13.6719 16.1175 14.0225 15.271 14.6466 14.6469C15.2707 14.0228 16.1172 13.6721 16.9999 13.6721C17.8825 13.6721 18.729 14.0228 19.3531 14.6469C19.9772 15.271 20.3279 16.1175 20.3279 17.0001C20.3279 17.8828 19.9772 18.7293 19.3531 19.3534C18.729 19.9775 17.8825 20.3281 16.9999 20.3281ZM22.9999 11.6721C23.1781 11.6721 23.349 11.6013 23.4751 11.4753C23.6011 11.3493 23.6719 11.1784 23.6719 11.0001C23.6719 10.8219 23.6011 10.651 23.4751 10.5249C23.349 10.3989 23.1781 10.3281 22.9999 10.3281C22.8216 10.3281 22.6507 10.3989 22.5247 10.5249C22.3987 10.651 22.3279 10.8219 22.3279 11.0001C22.3279 11.1784 22.3987 11.3493 22.5247 11.4753C22.6507 11.6013 22.8216 11.6721 22.9999 11.6721Z" fill="white"/>
</svg>
