<svg width="33" height="33" viewBox="0 0 33 33" fill="none" xmlns="http://www.w3.org/2000/svg">
<path d="M17 33C25.8366 33 33 25.8366 33 17C33 8.16344 25.8366 1 17 1C8.16344 1 1 8.16344 1 17C1 25.8366 8.16344 33 17 33Z" fill="#111827"/>
<path d="M23.2414 21.6402L23.9454 17.0002H19.4974V14.0082C19.4974 12.7282 20.1214 11.4962 22.1054 11.4962H24.1374V7.56023C24.1374 7.56023 22.2974 7.24023 20.5534 7.24023C16.8894 7.24023 14.5054 9.48023 14.5054 13.4802V17.0002H10.4414V21.6402H14.5054V32.8082C16.1592 33.0694 17.8437 33.0694 19.4974 32.8082V21.6242L23.2414 21.6402Z" fill="white"/>
</svg>
