<svg width="33" height="33" viewBox="0 0 33 33" fill="none" xmlns="http://www.w3.org/2000/svg">
<path d="M1 17C1 12.7565 2.68571 8.68687 5.68629 5.68629C8.68687 2.68571 12.7565 1 17 1C21.2435 1 25.3131 2.68571 28.3137 5.68629C31.3143 8.68687 33 12.7565 33 17C33 21.2435 31.3143 25.3131 28.3137 28.3137C25.3131 31.3143 21.2435 33 17 33C12.7565 33 8.68687 31.3143 5.68629 28.3137C2.68571 25.3131 1 21.2435 1 17Z" fill="#111827"/>
<path d="M25.1767 13.0479C25.0772 12.6834 24.8872 12.3499 24.6242 12.0785C24.3612 11.8072 24.0339 11.6068 23.6727 11.4959C22.3287 11.1279 17.0007 11.1279 17.0007 11.1279C17.0007 11.1279 11.6567 11.1279 10.3287 11.4959C9.59266 11.7039 9.01666 12.2959 8.82466 13.0479C8.47266 14.4079 8.47266 17.2719 8.47266 17.2719C8.47266 17.2719 8.47266 20.1199 8.82466 21.4799C9.01666 22.2319 9.59266 22.8239 10.3287 23.0319C11.6567 23.3999 17.0007 23.3999 17.0007 23.3999C17.0007 23.3999 22.3287 23.3999 23.6727 23.0319C24.4087 22.8239 24.9847 22.2319 25.1767 21.4799C25.5287 20.1199 25.5287 17.2719 25.5287 17.2719C25.5287 17.2719 25.5287 14.4079 25.1767 13.0479Z" fill="white"/>
<path d="M15.3984 20.2001V14.8721L19.6704 17.5281L15.3984 20.2001Z" fill="#111827"/>
</svg>
