<svg width="33" height="33" viewBox="0 0 33 33" fill="none" xmlns="http://www.w3.org/2000/svg">
<path d="M17 33C25.8366 33 33 25.8366 33 17C33 8.16344 25.8366 1 17 1C8.16344 1 1 8.16344 1 17C1 25.8366 8.16344 33 17 33Z" fill="#111827"/>
<path fill-rule="evenodd" clip-rule="evenodd" d="M10.872 7.67225H23.128C24.152 7.67225 25 8.52025 25 9.59225V26.3283L23.032 24.5683L21.928 23.5122L20.76 22.3923L21.24 24.1363H10.872C10.3711 24.1237 9.89503 23.9159 9.54528 23.5572C9.19553 23.1985 8.99984 22.7173 9 22.2163V9.57625C9 8.52025 9.848 7.65625 10.872 7.65625M19 19.0803L19.592 19.8323C20.872 19.7843 21.64 18.4243 21.64 18.4243C21.64 15.4163 20.328 12.9843 20.328 12.9843C19.016 11.9763 17.768 12.0083 17.768 12.0083L18.376 12.1522C19.928 12.6322 20.664 13.3363 20.664 13.3363C19.2651 12.5481 17.6469 12.2391 16.056 12.4563L15.928 12.4723C15.0064 12.5681 14.1165 12.8629 13.32 13.3363C13.32 13.3363 14.072 12.6003 15.72 12.1043L15.608 11.9922C15.608 11.9922 14.344 11.9763 13.032 12.9843C13.032 12.9843 11.72 15.4163 11.72 18.4243C11.72 18.4243 12.488 19.7683 14.504 19.8323L15.112 19.0642C13.96 18.7123 13.512 17.9603 13.512 17.9603L13.768 18.1202L13.816 18.1523L13.848 18.1683L13.896 18.2003L13.928 18.2163C14.1627 18.3443 14.3867 18.4509 14.6 18.5363C14.9733 18.6963 15.4213 18.8296 15.944 18.9363C17.5875 19.2474 19.2874 18.9028 20.68 17.9762C20.68 17.9762 20.232 18.7603 19.032 19.0963L19 19.0803Z" fill="white"/>
<path fill-rule="evenodd" clip-rule="evenodd" d="M14.6797 16.7279C14.6797 16.1519 15.0797 15.6719 15.6077 15.6719C16.1357 15.6719 16.5357 16.1519 16.5357 16.7279C16.5357 17.3039 16.1197 17.7999 15.6077 17.7999C15.0957 17.7999 14.6797 17.3199 14.6797 16.7279ZM17.9917 16.7279C17.9917 16.1519 18.3917 15.6719 18.9197 15.6719C19.4477 15.6719 19.8477 16.1519 19.8477 16.7279C19.8477 17.3039 19.4317 17.7999 18.9197 17.7999C18.4077 17.7999 17.9917 17.3199 17.9917 16.7279Z" fill="white"/>
</svg>
