<svg width="33" height="33" viewBox="0 0 33 33" fill="none" xmlns="http://www.w3.org/2000/svg">
<path d="M17 33C25.8366 33 33 25.8366 33 17C33 8.16344 25.8366 1 17 1C8.16344 1 1 8.16344 1 17C1 25.8366 8.16344 33 17 33Z" fill="#111827"/>
<path d="M23.3984 17.5916V22.0076H20.8224V17.8636C20.8224 16.8396 20.4384 16.1356 19.5264 16.1356C18.8224 16.1356 18.4064 16.6156 18.2464 17.0636C18.1718 17.2236 18.1291 17.4369 18.1184 17.7036V22.0076H15.5584C15.5584 22.0076 15.6064 15.0156 15.5584 14.3116H18.1344V15.3836C18.4544 14.8556 19.1104 14.1036 20.4544 14.1036C22.1184 14.1036 23.4144 15.2236 23.4144 17.5916H23.3984ZM12.8384 10.5996C11.9904 10.5996 11.3984 11.1916 11.3984 11.9436C11.3984 12.6956 11.9424 13.2876 12.7904 13.2876C13.7184 13.2876 14.2464 12.6956 14.2464 11.9436C14.3104 11.1436 13.7664 10.5996 12.8544 10.5996M11.5744 22.0076H14.1664V14.3116H11.5584L11.5744 22.0076Z" fill="white"/>
</svg>
