<svg width="111" height="99" viewBox="0 0 111 99" fill="none" xmlns="http://www.w3.org/2000/svg">
<path d="M62.0022 10.9492C49.6499 8.93484 50.0191 8.37196 44.1646 10.1491C38.3101 11.9263 19.7189 19.7784 20.0995 21.6547C20.4802 23.5309 40.438 25.4922 40.438 25.4922" fill="#4966FF"/>
<path d="M62.0022 10.9492C49.6499 8.93484 50.0191 8.37196 44.1646 10.1491C38.3101 11.9263 19.7189 19.7784 20.0995 21.6547C20.4802 23.5309 40.438 25.4922 40.438 25.4922" stroke="#161616" stroke-width="2" stroke-linecap="round" stroke-linejoin="round"/>
<path d="M68.8047 57.8499C68.8047 57.8499 69.8667 65.7409 70.3045 74.9772C70.3692 76.3826 90.7267 52.575 92.6147 49.1233C94.5028 45.6717 93.7262 34.1768 93.7262 34.1768" fill="#4966FF"/>
<path d="M68.8047 57.8499C68.8047 57.8499 69.8667 65.7409 70.3045 74.9772C70.3692 76.3826 90.7267 52.575 92.6147 49.1233C94.5028 45.6717 93.7262 34.1768 93.7262 34.1768" stroke="#161616" stroke-width="2" stroke-linecap="round" stroke-linejoin="round"/>
<path d="M68.1478 7.57565C59.1795 12.2557 51.3418 17.4102 45.5063 21.6549C48.9855 32.1869 56.3969 41.8197 66.0123 48.9956C68.6578 50.971 70.1614 52.0437 73.1534 53.527C70.1576 52.0437 68.6578 50.971 66.0123 48.9956C56.3969 41.8197 48.9855 32.1869 45.5063 21.6549C40.0173 25.6482 36.2983 28.8343 35.1068 30.0451C24.0716 41.2497 5.97518 63.2518 5.08445 68.2081C12.1913 66.7212 13.9652 65.2343 13.9652 65.2343C13.9652 65.2343 4.37261 80.5986 3.30678 82.5811C2.24094 84.5636 8.28196 82.5811 8.28196 82.5811C8.28196 82.5811 1 94.6425 1 96.9542C1 99.2659 14.8559 87.371 21.7838 79.1118C12.1913 93.1556 10.4136 94.6212 10.4136 94.6212C10.4136 94.6212 27.2881 90.019 42.3888 70.5233L35.4608 82.7475C35.4608 82.7475 48.1595 74.0033 62.0002 63.2412C74.4552 53.5553 87.8391 42.2339 93.7279 34.1764C106.164 17.1589 109.183 1.46532 109.183 1.46532C109.183 1.46532 85.5552 -1.50841 68.1478 7.5792V7.57565Z" fill="#4966FF"/>
<path d="M45.5063 21.6549C51.3418 17.4102 59.1795 12.2558 68.1478 7.57565V7.5792C85.5552 -1.50841 109.183 1.46532 109.183 1.46532C109.183 1.46532 106.164 17.1589 93.7279 34.1764C87.8391 42.2339 74.4552 53.5553 62.0002 63.2412M45.5063 21.6549C48.9855 32.1869 56.3969 41.8197 66.0123 48.9956M45.5063 21.6549C40.0173 25.6482 36.2983 28.8343 35.1068 30.0451C24.0716 41.2497 5.97518 63.2518 5.08445 68.2081C12.1913 66.7212 13.9652 65.2343 13.9652 65.2343C13.9652 65.2343 4.37261 80.5986 3.30678 82.5811C2.24094 84.5636 8.28196 82.5811 8.28196 82.5811C8.28196 82.5811 1 94.6425 1 96.9542C1 99.2659 14.8559 87.371 21.7838 79.1118C12.1913 93.1556 10.4136 94.6212 10.4136 94.6212C10.4136 94.6212 27.2881 90.019 42.3888 70.5233L35.4608 82.7475C35.4608 82.7475 48.1595 74.0033 62.0002 63.2412M66.0123 48.9956C68.6578 50.971 70.1614 52.0437 73.1534 53.527C70.1576 52.0437 68.6578 50.971 66.0123 48.9956ZM62.0002 63.2412C59.0539 61.6942 56.4388 60.3666 53.8427 58.3487C44.3377 50.9639 37.2918 41.9613 34.6881 30.6221" stroke="#161616" stroke-width="2" stroke-linecap="round" stroke-linejoin="round"/>
<path d="M76.5283 31.3407C81.4498 31.3407 85.4395 27.6302 85.4395 23.0532C85.4395 18.4761 81.4498 14.7656 76.5283 14.7656C71.6068 14.7656 67.6172 18.4761 67.6172 23.0532C67.6172 27.6302 71.6068 31.3407 76.5283 31.3407Z" fill="white" stroke="#161616" stroke-width="2" stroke-linecap="round" stroke-linejoin="round"/>
<path d="M62.0002 63.241C59.0539 61.694 56.4388 60.3664 53.8427 58.3485C44.3377 50.9638 37.7105 41.3805 35.1068 30.0449C24.0716 41.2495 5.97518 63.2517 5.08445 68.2079C12.1913 66.721 13.9652 65.2342 13.9652 65.2342C13.9652 65.2342 4.37261 80.5985 3.30678 82.581C2.24094 84.5635 8.28196 82.581 8.28196 82.581C8.28196 82.581 1 94.6423 1 96.954C1 99.2658 14.8559 87.3708 21.7838 79.1116C12.1913 93.1554 10.4136 94.6211 10.4136 94.6211C10.4136 94.6211 27.2881 90.0189 42.3888 70.5232L35.4608 82.7473C35.4608 82.7473 48.1595 74.0031 62.0002 63.241Z" fill="#FF6B57" stroke="#161616" stroke-width="2" stroke-linecap="round" stroke-linejoin="round"/>
</svg>
