<svg width="92" height="82" viewBox="0 0 92 82" fill="none" xmlns="http://www.w3.org/2000/svg">
<path d="M67.1172 58.0749C65.3185 58.7616 63.5647 59.5604 61.866 60.4664C61.2596 60.8204 60.6991 61.2189 60.1117 61.5847C58.0104 62.8145 56.1084 64.357 54.4711 66.159C53.798 66.9792 53.2294 67.8798 52.7785 68.8402C52.4498 69.4417 52.2866 70.0992 51.9579 70.7006C51.817 71.0187 51.6671 71.3258 51.5144 71.6628C51.3617 71.9998 51.2416 72.3098 51.0808 72.626C50.92 72.9421 50.6005 72.9216 50.312 72.4722C49.911 71.8101 49.7381 71.035 49.8196 70.2653C49.9202 69.4675 50.1642 68.6945 50.5398 67.9835L51.0834 66.9204L51.7227 65.9065C52.6169 64.607 53.6993 63.4476 54.9344 62.4664C56.382 61.2987 57.7893 60.0268 59.3539 59.0009C61.0655 57.9087 62.8374 56.9142 64.6613 56.0221C65.7195 55.4602 66.8924 54.9594 68.0165 54.444C69.7044 53.6007 71.4481 53.0138 73.0833 52.1956C74.2995 51.5419 75.4731 50.8119 76.5971 50.0098L77.2694 49.4914C78.1195 48.8996 78.3324 48.8797 79.1192 49.2663C79.2917 49.3531 79.4761 49.4209 79.6377 49.5167C79.9111 49.6595 80.073 49.9517 80.049 50.2592C80.0134 50.6883 79.8331 51.0926 79.5376 51.4058C78.5839 52.4601 77.4818 53.3701 76.266 54.1069C75.0884 54.7735 73.8772 55.3787 72.6371 55.9201C70.8398 56.7529 68.9879 57.4199 67.1963 58.193L67.1172 58.0749Z" fill="#111827" fill-opacity="0.7"/>
<path d="M79.2594 24.5477C79.104 24.2818 78.9586 24.0167 78.7922 23.7597L78.2487 23.0348L77.109 21.6099L75.8214 20.2614L75.1836 19.5776L74.4793 18.9579L73.0509 17.7164C72.5556 17.3276 72.0267 16.9757 71.5134 16.565C70.4788 15.8133 69.3965 15.1294 68.2734 14.5176C63.6504 12.0756 58.6491 10.4296 53.4794 9.64878C49.6842 9.11826 45.8407 9.02412 42.0241 9.36822C35.2445 9.89995 28.6425 11.7979 22.6156 14.9479C19.6658 16.5023 16.9888 18.5266 14.6898 20.9414C12.4459 23.3161 10.7949 26.1874 9.87109 29.3212C9.08959 32.0411 9.12802 34.9312 9.98156 37.6293C10.8381 40.4452 12.2318 43.0685 14.0856 45.3546C17.7222 49.8741 22.4167 53.4278 27.7536 55.7012C28.6438 56.0574 29.542 56.4346 30.453 56.7828C31.3734 57.1249 32.311 57.419 33.2619 57.6639C35.4985 59.5 35.9985 59 32.9985 59C31.4411 59.2111 30.0189 59.1179 28.449 59.0425C26.1928 58.8433 23.9886 58.252 21.9357 57.2952C19.907 56.3648 17.969 55.2481 16.1466 53.9596C15.2035 53.317 14.3456 52.6223 13.4907 51.8977C12.6476 51.1285 11.8468 50.3143 11.0917 49.4585C7.86742 46.0326 5.57092 41.8404 4.41968 37.2789C3.85003 34.8339 3.7981 32.2968 4.26725 29.8306C4.52464 28.6371 4.8717 27.4647 5.30545 26.3234L5.59628 25.4873L5.98475 24.6806L6.76975 23.088C9.03843 19.0438 12.259 15.6137 16.1525 13.095C20.6175 10.1546 25.4916 7.88854 30.6175 6.36997C33.1736 5.60779 35.7743 5.00407 38.4047 4.56227L40.4404 4.28458L42.4655 4.1164C43.7953 3.97219 45.1387 4.00006 46.4978 3.96916C52.3458 4.03098 58.1474 5.01573 63.6882 6.88704C66.4593 7.84069 69.135 9.05143 71.6806 10.5034C74.2621 11.9431 76.675 13.6662 78.8747 15.6408C81.572 18.1332 83.8259 21.066 85.5401 24.3139C87.3097 27.595 88.3348 31.2256 88.5426 34.9476C88.7374 37.8109 88.3364 40.6834 87.365 43.3839C86.3219 46.0959 84.7138 48.555 82.6476 50.598C78.6266 54.6239 73.6617 56.9623 69.1107 59.2801C65.7933 60.8553 62.6973 62.8595 59.9021 65.2414C58.6297 66.3699 57.5355 67.6845 56.6566 69.1405C56.4712 69.5045 56.2379 69.8439 56.0813 70.2207L55.9257 70.5875C55.8498 70.7511 55.7749 70.9046 55.707 71.089C55.5463 71.4609 55.4347 71.852 55.3749 72.2527L55.1607 73.5482L55.097 74.2152L55.0209 75.0116C54.9163 76.1066 54.8136 77.1817 54.8456 78.3199L54.0141 78.4012C53.9456 78.3929 53.877 78.4159 53.8273 78.4637L53.7083 78.5528L53.4712 78.721L53.3531 78.8001C53.3531 78.8001 53.2834 78.7935 53.2038 78.7859L53.0104 78.7071C52.7393 78.6009 52.5497 78.4823 52.3184 78.3798C51.4246 77.9472 50.5824 77.4152 49.8078 76.7939C49.3945 76.428 49.0058 76.0352 48.6444 75.618C48.2615 75.2097 47.9151 74.7346 47.572 74.3301C46.9124 73.4534 46.3087 72.6223 45.8017 71.8305L45.452 71.2848L45.2435 70.9434L44.8744 70.2853C44.6427 69.8714 44.4589 69.4821 44.3021 69.1256C44.0351 68.5324 43.8582 67.9027 43.7774 67.2573C43.7319 66.7316 43.7825 66.202 43.9266 65.6944C44.0076 65.2476 44.1268 64.8086 44.283 64.3823C44.57 63.7969 45.326 63.9797 46.3284 64.7384C46.9414 65.2032 47.5004 65.7351 47.9952 66.3241C48.3042 66.665 48.6094 67.0458 48.8956 67.4147L49.387 68.0543L49.6462 68.3905L49.7372 68.4896C50.0256 68.81 50.3574 69.0886 50.723 69.3171C50.8424 69.3285 50.9623 69.4404 51.0714 69.3503C51.1804 69.2603 51.0355 68.8848 51.0346 68.6838C51.0337 68.4828 51.0593 68.425 51.0688 68.3254L51.0831 68.1761C51.0916 68.0865 51.0831 68.1761 51.1059 67.9372C51.8033 66.3726 52.7067 64.9082 53.7921 63.5829C55.8289 61.1519 58.2287 59.0499 60.9069 57.3512C63.4706 55.6473 66.0825 54.2795 68.5522 52.9282C71.0219 51.5769 73.3915 50.3266 75.427 48.8936C77.3355 47.6432 78.986 46.0378 80.2887 44.1645C80.8935 43.2662 81.3965 42.3035 81.7885 41.2941C82.1741 40.2693 82.4314 39.2006 82.5545 38.1125C82.8234 35.7975 82.6626 33.4527 82.08 31.1961C81.7944 30.0374 81.383 28.9135 80.8532 27.8442C80.5841 27.2962 80.3567 26.732 80.0767 26.1929L79.1105 24.634L79.2594 24.5477Z" fill="#111827" fill-opacity="0.7"/>
<path d="M52.6311 35.6862C52.6893 36.5067 52.5098 37.3266 52.1142 38.0477C51.9596 38.365 51.7693 38.6637 51.547 38.9378C51.4232 39.0767 51.3402 39.2094 51.1965 39.3464C51.0529 39.4833 50.8774 39.6373 50.7148 39.7624C50.4692 39.9729 50.1991 40.1529 49.9102 40.2983C49.6194 40.4752 49.2883 40.575 48.9483 40.5882C47.9921 40.6606 47.0474 40.342 46.3304 39.7052C45.8004 39.2452 45.3627 38.6886 45.0405 38.0652C44.7211 37.5434 44.4774 36.979 44.3166 36.3887C44.2681 36.1765 44.2316 35.9617 44.2073 35.7454C44.2291 35.5165 44.252 35.2775 44.2748 35.0386C44.3258 34.8226 44.393 34.6108 44.476 34.4049C44.6088 34.2139 44.7897 34.0613 45.0004 33.9628C45.2664 33.8073 45.7772 34.3484 46.3298 34.8733C46.6799 35.2393 47.0993 35.5321 47.5635 35.7345C47.6754 35.6146 47.8305 35.5692 47.8423 35.7611C47.8541 35.9531 47.9469 36.2433 48.017 36.5614C48.0351 36.6926 48.1257 36.8023 48.251 36.8449C48.2339 36.9234 48.2262 37.0036 48.2282 37.0838C48.2167 37.1157 48.2134 37.1499 48.2187 37.1834C48.2125 37.2026 48.2106 37.223 48.213 37.2431L48.1689 37.1786C48.1689 37.1786 48.0932 36.9203 48.1031 36.9212C48.1008 36.8944 48.1034 36.8674 48.1107 36.8416L48.198 36.7695L48.2592 36.6548C48.2668 36.5752 48.3749 36.4951 48.3678 36.4643C48.3607 36.4335 48.4787 36.3544 48.4603 36.232C48.2764 35.9389 47.9377 35.7807 47.5948 35.8279C47.5262 35.8566 47.4618 35.8944 47.4032 35.9402C47.3705 35.9885 47.3421 36.0396 47.3183 36.0928C47.3089 36.0536 47.2957 36.0153 47.279 35.9786C47.2333 35.8816 47.1742 35.7914 47.1037 35.7107C47.0847 35.6535 47.0516 35.602 47.0075 35.5609C47.0075 35.5609 46.8568 35.4561 46.8957 35.4698L46.9753 35.4774C47.0571 35.5115 47.1473 35.5202 47.2341 35.5021C47.3721 35.4987 47.509 35.478 47.6418 35.4406L47.5721 35.434L47.3327 35.5216C47.1549 35.595 46.9454 35.6855 46.6922 35.812C46.439 35.9385 46.2276 36.0489 46.0052 36.1683C45.2608 36.5995 44.4602 36.6737 43.9446 35.9715C43.7858 35.5865 43.6957 35.1767 43.6785 34.7607C43.7287 34.2625 43.8738 33.7785 44.106 33.3349C44.3481 32.9506 44.6487 32.6065 44.9971 32.315C45.2826 32.0791 45.5987 31.8829 45.9368 31.7317C47.0033 31.2626 48.2119 31.2337 49.2997 31.6511C50.1108 31.9065 50.8472 32.3562 51.4448 32.961C52.163 33.6959 52.6193 34.6468 52.7434 35.6668L52.6311 35.6862Z" fill="#111827" fill-opacity="0.7"/>
<path d="M34.8021 36.1826C35.0003 37.1939 34.8469 38.2426 34.3675 39.1548C33.8955 40.0137 33.2107 40.737 32.3788 41.2552C31.842 41.6572 31.226 41.9408 30.5715 42.0871C30.2916 42.1268 30.0075 42.1267 29.7277 42.0869C29.4327 42.0631 29.1441 41.9879 28.8749 41.8648C28.2743 41.6422 27.7554 41.2423 27.3872 40.7181C26.8191 39.9392 26.4729 39.0209 26.3854 38.0608C26.3137 37.3128 26.3519 36.5583 26.4988 35.8214C26.6116 34.8012 27.2535 33.9159 28.188 33.4915C28.49 33.3797 28.7359 33.8552 28.9932 34.4223C29.1277 34.6963 29.2703 34.9912 29.4087 35.2254C29.5214 35.3984 29.6217 35.5792 29.7086 35.7664C29.7952 36.1289 29.9272 36.479 30.1013 36.8085C30.0937 36.8881 30.1866 36.9673 30.1681 37.0559C30.1545 37.1416 30.1462 37.2281 30.1433 37.3148C30.1301 37.4005 30.1219 37.4869 30.1186 37.5736L30.0948 37.8224C30.0768 37.8838 30.0706 37.948 30.0768 38.0116C30.0439 38.0429 30.0194 38.082 30.0056 38.1253C29.98 38.1715 29.9586 38.2199 29.9416 38.2699C30.1375 37.7964 29.954 38.1405 30.0341 38.0376C30.0341 38.0376 30.1137 38.0452 30.1934 38.0529L30.4091 38.0031C30.8039 37.9119 31.1196 37.6163 31.2365 37.2283C31.2811 36.9215 31.1808 36.6114 30.9651 36.3887C30.6265 35.9702 30.1002 35.7501 29.5645 35.8029C29.3702 35.8459 29.2163 35.9941 29.1662 36.1867L29.1567 36.2863L29.087 36.2796L29.2206 36.3527C29.3102 36.3612 29.3202 36.3622 29.3405 36.4646C29.3609 36.567 29.4306 36.5736 29.4258 36.6234C29.4391 36.6868 29.4328 36.7528 29.4078 36.8125C29.3271 36.8855 29.2402 36.9512 29.1479 37.0087C28.8349 37.1812 28.5051 37.3213 28.1637 37.427L27.5497 37.6496C26.8882 37.9015 26.1399 37.7224 25.6641 37.1983C25.3469 36.6662 25.1859 36.0555 25.1996 35.4361C25.2052 35.0272 25.302 34.6246 25.4829 34.2577C25.6435 33.8946 25.8551 33.5562 26.1113 33.2529C27.0641 32.2255 28.457 31.7253 29.8457 31.912C31.0031 32.0458 32.1006 32.4984 33.0158 33.2193C33.9248 33.9389 34.5738 34.9356 34.8642 36.058L34.8021 36.1826Z" fill="#111827" fill-opacity="0.7"/>
<path d="M27.9063 38.2066C28.0059 37.9651 28.0932 37.7186 28.1677 37.4682C28.1763 37.3786 28.1104 37.3321 28.1886 37.2492C28.3273 36.9327 28.4487 36.6089 28.5525 36.2794C28.5679 36.1563 28.5189 36.0339 28.4227 35.9555C28.3028 35.8436 28.035 35.808 28.3332 35.5251C28.6315 35.2422 31.5808 34.1276 31.74 34.3537C32.0157 34.7328 31.9911 35.2524 31.6809 35.6038C31.4713 35.9052 31.7068 36.0684 31.7148 36.3002C31.706 36.5502 31.6822 36.7995 31.6435 37.0468C31.6191 37.1949 31.6048 37.3446 31.6007 37.4947C31.5798 37.7137 31.557 37.9526 31.6404 38.1314C31.7237 38.3101 32.0105 38.3576 32.212 38.4572C32.2617 38.462 32.3414 38.4696 32.3712 38.4724C32.4011 38.4753 32.3617 38.572 32.1512 38.6724L31.7658 38.8164L31.1428 39.0281L30.6033 39.2076C30.0495 39.3998 29.4743 39.5237 28.8905 39.5764C28.114 39.5023 27.9217 39.2026 27.789 38.9087C27.7442 38.6763 27.75 38.437 27.8058 38.2071L27.9063 38.2066Z" fill="#111827" fill-opacity="0.7"/>
<path d="M68.7744 35.8819C68.4905 36.5936 68.0593 37.2371 67.5091 37.7702C67.1941 38.0781 66.8304 38.3318 66.4328 38.5212C66.2223 38.6217 66.0227 38.7131 65.8141 38.7936C65.6058 38.8525 65.3935 38.896 65.1788 38.9238C64.6137 39.0539 64.027 39.0596 63.4594 38.9404C63.1834 38.8535 62.915 38.7438 62.657 38.6126C62.4333 38.4737 62.2198 38.319 62.0181 38.1498C61.6974 37.8325 61.4273 37.4679 61.2173 37.0687C60.8861 36.4233 60.6772 35.7222 60.6011 35.0007C60.467 34.3749 60.474 33.7269 60.6216 33.1041C60.657 32.8901 60.6776 32.6739 60.6834 32.457C60.7594 32.2594 60.8686 32.0762 61.0064 31.9153C61.3255 31.6243 61.5778 31.2968 62.1324 31.3799C62.3795 31.4583 62.5915 31.6207 62.7314 31.839L63.0887 32.3051L63.3991 32.7365C63.6915 33.1555 64.0453 33.528 64.4488 33.8414C64.3326 34.0546 64.2341 34.277 64.1542 34.5064C64.0636 34.7187 64.1295 34.7652 64.1247 34.815C64.0338 34.9343 63.9604 35.066 63.9066 35.206C63.9066 35.206 63.9018 35.2558 63.899 35.2856C63.9227 35.0368 63.7841 35.8573 63.9532 34.7182C63.9518 34.7582 63.948 34.7981 63.9418 34.8377C63.931 34.8697 63.9277 34.9037 63.9323 34.9372C63.9323 34.9372 64.0086 34.8742 64.0821 34.841C64.2439 34.6566 64.3492 34.4295 64.3857 34.1869C64.4237 33.7887 64.4703 33.301 64.2219 33.1667C63.9736 33.0325 63.9464 33.4217 63.9046 33.6488C63.9046 33.6488 63.8913 33.7881 63.8951 33.7483C63.8989 33.7085 63.7226 33.6615 63.5843 33.4273C63.4459 33.1931 63.2744 32.8854 63.0266 32.4297L62.6926 31.8252C62.2972 31.2197 62.2595 30.4479 62.5941 29.8067C62.7269 29.5924 62.8981 29.4044 63.0991 29.2522C63.3323 29.1102 63.5863 29.0057 63.8519 28.9424C63.9814 28.9548 64.1103 28.8666 64.2525 28.8501C64.4159 28.8554 64.5789 28.8709 64.7403 28.8967C65.0748 28.8879 65.409 28.9199 65.7358 28.9918C66.986 29.4115 67.9947 30.3499 68.5035 31.5666C69.1756 32.9078 69.3116 34.4545 68.8839 35.8924L68.7744 35.8819Z" fill="#111827" fill-opacity="0.7"/>
</svg>
