<svg width="56" height="63" viewBox="0 0 56 63" fill="none" xmlns="http://www.w3.org/2000/svg">
<path d="M45.5911 1.59264C46.1781 1.49316 46.7777 1.67454 47.2111 2.08264C47.702 2.53487 48.079 3.09684 48.3111 3.72264C48.4911 4.16264 48.1711 5.30264 47.8211 5.41264C47.1511 5.63264 46.4911 5.85264 45.8211 5.99264C45.7311 5.99264 45.2811 6.04264 44.6511 6.07264L43.5711 6.13264L42.3211 6.28264C41.4511 6.36264 40.5511 6.59264 39.7511 6.74264C38.9511 6.89264 38.2611 7.16264 37.8011 7.29264C36.0111 7.91264 34.2911 8.48264 32.5211 8.99264C31.6211 9.22264 30.7611 9.60264 29.8811 9.91264C29.0011 10.2226 28.1911 10.6726 27.4111 11.0926C25.7338 11.9444 24.1227 12.9204 22.5911 14.0126C21.9211 14.5126 21.1911 14.9226 20.4611 15.3626C17.9463 16.8556 15.7783 18.8668 14.1011 21.2626C13.7502 21.6088 13.5011 22.0446 13.3811 22.5226C13.3211 22.9426 12.0911 24.6926 11.0811 26.5826C10.0711 28.4726 9.17111 30.4626 8.92111 30.9026C7.64394 33.1092 6.72899 35.5063 6.21111 38.0026C6.11111 38.3626 6.21111 38.7526 5.93111 39.0726C5.65672 39.4094 5.47721 39.8133 5.41111 40.2426C5.41111 40.6426 5.41111 41.0526 5.34111 41.4526C5.21111 42.5926 5.29111 43.7126 5.13111 44.9026C5.0468 45.5092 4.92659 46.1103 4.77111 46.7026C4.73534 46.8826 4.60385 47.0286 4.42855 47.0828C4.25324 47.1371 4.06231 47.0909 3.93111 46.9626C3.62111 46.4726 3.42111 46.9626 3.18111 47.0826C3.09691 47.1244 3.00498 47.1482 2.91111 47.1526C2.68258 46.8109 2.47873 46.4534 2.30111 46.0826C1.85413 45.2829 1.4761 44.4466 1.17111 43.5826C0.827054 42.6718 0.529996 41.7439 0.281111 40.8026C0.14032 40.2561 0.0565393 39.6964 0.0311111 39.1326C0.0311111 39.0826 -0.0388889 38.3426 0.0311111 37.2426C0.0311111 36.6926 0.0811111 36.0526 0.111111 35.3526C0.141111 34.6526 0.271111 33.9326 0.351111 33.1926C0.670165 30.9482 1.16162 28.7316 1.82111 26.5626C2.01844 25.9178 2.32636 25.3121 2.73111 24.7726C2.73111 24.7026 2.99111 24.1226 3.32111 23.2826C3.65111 22.4426 4.12111 21.3826 4.68111 20.3626L5.41111 18.8226L6.19111 17.5126C6.45425 17.0362 6.74474 16.5755 7.06111 16.1326C7.65111 15.4126 8.16111 14.6226 8.82111 13.9526C9.43044 13.2339 10.1701 12.6368 11.0011 12.1926C11.3191 11.9928 11.6028 11.7429 11.8411 11.4526C14.1063 9.22565 16.6751 7.33021 19.4711 5.82264L21.5611 4.61264C22.2511 4.19264 22.9711 3.82264 23.7011 3.47264C23.974 3.36173 24.2547 3.27148 24.5411 3.20264C24.9007 3.1138 25.2546 3.00361 25.6011 2.87264C29.1417 1.38083 32.8811 0.413967 36.7011 0.00264135C37.7039 -0.0133722 38.7065 0.0434438 39.7011 0.172641L41.5311 0.402641C41.9447 0.475608 42.362 0.525684 42.7811 0.552641C43.2799 0.657741 43.7613 0.832806 44.2111 1.07264C44.6307 1.33857 45.1004 1.51556 45.5911 1.59264Z" fill="#111827" fill-opacity="0.7"/>
<path d="M53.2412 23.9925C54.0312 23.5625 54.8313 23.9925 55.5513 24.9925C55.8009 25.4788 55.8407 26.0461 55.6612 26.5625C55.2936 26.9211 54.9028 27.2552 54.4912 27.5625C54.3712 27.6625 53.2812 27.9525 52.1213 28.4425C51.0973 28.8745 50.096 29.3585 49.1213 29.8925C48.0012 30.6425 46.7913 31.1125 45.7113 31.8225C44.5859 32.4772 43.5006 33.1985 42.4613 33.9825C41.9486 34.3788 41.4578 34.8028 40.9913 35.2525C40.4936 35.6844 40.0351 36.1596 39.6213 36.6725C39.2326 37.1088 38.8004 37.5041 38.3313 37.8525C37.5937 38.5327 36.9239 39.2829 36.3313 40.0925C35.7681 40.9454 35.2733 41.8416 34.8512 42.7725C34.685 43.0804 34.5926 43.4227 34.5813 43.7725C34.5224 44.1667 34.408 44.5505 34.2413 44.9125C34.0712 45.4925 33.8412 46.2325 33.5912 46.9125C33.3412 47.5925 33.1712 48.4025 32.9812 49.0025C32.8732 49.4236 32.7396 49.8377 32.5813 50.2425C32.2513 51.0925 31.9713 51.9725 31.5813 52.8425C31.1913 53.7125 31.0612 54.6425 30.8012 55.5525C30.7112 55.8225 30.8012 56.1025 30.5613 56.3425C30.1887 56.839 30.0076 57.4532 30.0512 58.0725C29.9412 58.8825 29.8112 59.7125 29.6512 60.5425C29.5325 60.973 29.3821 61.3941 29.2013 61.8025C29.0512 62.1925 28.5612 62.0325 28.4913 61.9125C28.3012 61.5425 28.0812 61.9125 27.8712 61.9125C27.7986 61.9265 27.7239 61.9265 27.6513 61.9125C27.5913 61.9125 27.1612 60.6825 26.6513 59.3525C26.3925 58.7349 26.2014 58.0912 26.0813 57.4325C25.9833 57.0577 25.9098 56.6768 25.8612 56.2925C25.8612 56.2225 25.7912 54.2925 25.7812 52.2325C25.8449 50.6831 26.0119 49.1396 26.2812 47.6125C26.3873 47.1579 26.5485 46.718 26.7613 46.3025C26.7613 46.3025 26.8413 45.8325 27.0113 45.2325L27.6213 43.0725C27.8202 42.3448 28.064 41.6301 28.3512 40.9325C28.5812 40.3425 28.7413 39.9325 28.7713 39.8725C29.048 39.2739 29.3551 38.6898 29.6913 38.1225C30.0171 37.5823 30.4216 37.0936 30.8913 36.6725C31.0791 36.4864 31.2437 36.2782 31.3812 36.0525C31.9834 35.0988 32.6623 34.1958 33.4113 33.3525C34.2213 32.5525 34.9812 31.7125 35.8512 30.9925C36.7212 30.2725 37.5312 29.4125 38.4712 28.7425C38.6551 28.6372 38.8455 28.5436 39.0413 28.4625C39.2837 28.3573 39.5177 28.2336 39.7413 28.0925C40.8354 27.2897 42.0202 26.6184 43.2712 26.0925L44.1712 25.6425L45.1112 25.2825C45.7313 25.0325 46.3512 24.7725 46.9613 24.4925C47.2195 24.389 47.4875 24.3119 47.7612 24.2625L49.0212 24.0925C49.7356 24.0287 50.4443 23.9117 51.1413 23.7425C51.5413 23.5925 52.9412 24.1825 53.2412 23.9925Z" fill="#111827" fill-opacity="0.7"/>
</svg>
