<svg width="77" height="80" viewBox="0 0 77 80" fill="none" xmlns="http://www.w3.org/2000/svg">
<path d="M54.2861 6.95135C54.0137 6.83385 53.7164 6.78588 53.4209 6.81177C53.1314 6.80306 52.8524 6.92028 52.6559 7.13311C51.8552 8.0168 51.3765 9.14513 51.2975 10.335C51.2628 11.2388 51.4212 12.1395 51.7622 12.9772C52.0168 13.7618 52.4337 14.4841 52.9858 15.0971C54.2066 16.4211 55.9494 17.1391 57.7486 17.0592C58.6896 17.0017 59.6058 16.7344 60.4301 16.2768C61.998 15.3128 63.2228 13.8799 63.9311 12.1811C64.4043 11.0563 64.7488 9.88163 64.9581 8.67943C65.1024 8.00519 65.2582 7.42021 65.3459 6.85417C65.4398 6.39477 65.4467 5.92184 65.3663 5.4599C65.3046 5.25829 65.3572 5.0391 65.5036 4.88741C65.774 4.63976 66.1706 4.58818 66.4953 4.75844C67.1152 5.10067 67.5792 5.66884 67.7906 6.34462C68.0764 7.10681 68.1828 7.92457 68.1015 8.73449C68.0387 9.33762 67.9509 10.1356 67.8032 10.8607C67.6594 11.6088 67.462 12.3455 67.2126 13.0653C66.7034 14.5701 65.9295 15.9719 64.9273 17.2046C63.8529 18.5307 62.4797 19.5836 60.9201 20.2771C59.3069 20.986 57.5243 21.2179 55.7834 20.9451C53.7245 20.6351 51.7873 19.7758 50.1757 18.4576C48.5027 17.1269 47.3133 15.2832 46.7907 13.2103C46.7546 12.9326 46.6577 12.6528 46.6104 12.3665L46.4995 11.5137C46.4431 10.947 46.4431 10.3761 46.4997 9.80943C46.5993 8.68887 46.8677 7.58981 47.2959 6.54951C47.7378 5.42945 48.4097 4.41452 49.2682 3.57027C50.229 2.63429 51.4671 2.03458 52.7972 1.86087C54.3551 1.6985 55.9204 2.09132 57.2171 2.97009C58.4625 3.80308 59.4029 5.01879 59.8962 6.4335C60.2658 7.51468 60.3228 8.67824 60.0605 9.79035C59.7942 10.8692 59.2525 11.8604 58.4884 12.6671C57.0775 14.0683 55.2984 15.041 53.3573 15.4723C51.8822 15.8648 50.3457 15.9722 48.8303 15.7888C47.2147 15.5931 45.6929 14.9245 44.4559 13.8669C43.8902 13.4498 43.398 12.9412 42.9997 12.3621C42.4832 11.6703 42.1429 10.8631 42.0081 10.0104C41.9774 9.75401 41.9985 9.49409 42.07 9.24601C42.1735 9.00451 42.3025 8.77475 42.4549 8.56065C42.5601 8.37826 42.6752 8.20171 42.7995 8.03178C43.0816 7.64215 44.3844 7.96685 45.4558 8.9166C45.8626 9.23059 46.2937 9.51172 46.745 9.75735C47.1692 9.99463 47.5153 10.2521 47.8386 10.4118C48.1749 10.5685 48.5285 10.6849 48.8921 10.7588C49.2331 10.843 49.5783 10.9092 49.9263 10.9571C50.3029 10.9963 50.6819 11.0076 51.0602 10.9911C51.4539 10.9748 51.8455 10.9239 52.2303 10.8389C53.0102 10.6771 53.7565 10.3822 54.4363 9.96717C54.7895 9.7605 55.0967 9.48376 55.339 9.15396C55.4674 8.92956 55.5084 8.66569 55.4544 8.41289C55.3261 7.78562 54.8759 7.27281 54.2706 7.0643L54.2861 6.95135Z" fill="#231F20" fill-opacity="0.7"/>
<path d="M16.5436 30.7071C15.6543 29.9121 14.4954 29.4858 13.3028 29.5151C12.9166 29.5435 12.5683 29.7581 12.3692 30.0903L12.2558 30.2261L12.1699 30.4188L11.9697 30.8179C11.9106 31.1382 11.7474 31.5124 11.7129 31.7892C11.5952 32.4933 11.8157 33.2117 12.308 33.7286C12.9319 34.3836 13.7177 34.8623 14.586 35.1164C15.5749 35.4408 16.6199 35.5589 17.6563 35.4633C19.9336 35.2621 22.0881 34.3427 23.8091 32.8379C25.3927 31.4061 26.6278 29.6312 27.4201 27.6489C28.5423 25.0956 28.9506 22.2856 28.6014 19.5186C28.4905 18.6658 28.7099 18.6473 29.2602 19.3119C30.1246 20.46 30.6054 21.8511 30.6345 23.2879C30.6844 26.58 29.8452 29.8245 28.2054 32.6796C27.3553 34.1861 26.2192 35.5123 24.861 36.5835C23.4827 37.6823 21.9047 38.5039 20.2142 39.003C18.0874 39.624 15.8376 39.6945 13.676 39.2079C12.553 38.9535 11.4766 38.5253 10.4857 37.9388C9.33307 37.2669 8.39645 36.2796 7.78617 35.0932C7.16294 33.7674 6.99 32.2743 7.29369 30.8412C7.53026 29.5174 8.0761 28.2682 8.88678 27.1953C9.81896 26.0246 11.1586 25.249 12.638 25.0233C13.9554 24.84 15.2979 25.0137 16.5253 25.5262C17.8974 26.0867 19.1392 26.9242 20.1731 27.9863C21.2112 29.0475 22.0093 30.3193 22.5136 31.7156C23.2467 33.7925 23.2892 36.0507 22.6349 38.1537C22.0174 40.1956 20.8636 42.0346 19.2938 43.4791C16.9284 45.7325 13.9011 47.1657 10.6589 47.5669C9.97429 47.6969 9.27692 47.747 8.58078 47.7161C6.02209 47.5043 5.31006 46.9919 4.95825 45.8376C4.86186 45.5954 4.78553 45.3456 4.73004 45.0908C4.62944 44.3173 5.69672 43.6844 7.33165 43.4617C7.93656 43.383 8.54146 43.3043 9.11364 43.1291C9.68582 42.9538 10.254 42.9808 10.8003 42.8391C11.8411 42.6531 12.8571 42.3484 13.8285 41.931C15.6431 41.144 17.1435 39.7743 18.0921 38.0386C18.4137 37.4143 18.6327 36.7423 18.7408 36.0483C18.8196 35.3795 18.7827 34.702 18.6317 34.0457C18.3239 32.7323 17.5499 31.5753 16.4535 30.7894L16.5436 30.7071Z" fill="#231F20" fill-opacity="0.7"/>
<path d="M48.5788 54.5651C50.2775 55.0568 51.6218 56.3591 52.1671 58.0414C52.4394 58.8516 52.5506 59.7073 52.4947 60.5602C52.4478 61.2282 52.3203 61.8881 52.115 62.5256C51.7547 63.6494 51.2344 64.7156 50.5704 65.6912C49.9351 66.6591 49.1703 67.5356 48.2973 68.2961C46.9725 69.5524 45.3065 70.3899 43.5079 70.7039C41.8014 70.9411 40.0664 70.5585 38.618 69.6256C37.3752 68.8146 36.3189 67.7489 35.5189 66.4991C33.9489 64.2149 33.0426 61.5404 32.9005 58.7723C32.7571 56.373 33.2339 53.9773 34.2848 51.8157C35.5565 49.1165 37.6494 46.8888 40.264 45.4514C41.0518 44.996 41.2943 45.6199 41.1405 46.608C40.8797 47.8547 40.343 49.0271 39.5699 50.0392C38.0706 51.8275 37.1186 54.01 36.8277 56.3254C36.678 57.4352 36.702 58.5616 36.8989 59.6641C37.0834 60.8194 37.4332 61.9422 37.9375 62.998C38.509 64.2829 39.4506 65.3682 40.6421 66.1152C41.6218 66.6901 42.8247 66.7344 43.8441 66.2332C45.221 65.596 46.3726 64.5568 47.1472 63.2523C47.5723 62.59 47.8965 61.8681 48.109 61.1104C48.1889 60.8002 48.2389 60.483 48.2581 60.1633C48.2759 59.9516 48.2482 59.7386 48.1769 59.5385C48.0017 58.9918 47.469 58.6412 46.8976 58.6965C46.2412 58.761 45.6727 59.1793 45.4158 59.7867C44.1039 62.1052 45.345 65.7557 47.6504 67.6643C49.3198 69.1227 51.6896 69.4659 53.704 68.5409C54.1236 68.3552 54.4807 68.0768 54.9102 67.8899C55.4699 67.548 56.0731 67.283 56.7035 67.102C57.2368 67.0982 57.7667 67.1862 58.2702 67.3621C58.5038 67.4528 58.762 67.4998 58.9547 67.5857C59.1474 67.6716 59.4025 68.0821 59.3458 68.6542C59.3056 69.4613 58.9663 70.2244 58.3939 70.7948C58.1422 71.072 57.8729 71.3326 57.5878 71.5753C57.2977 71.8346 56.9924 72.0763 56.6736 72.2993C55.993 72.7662 55.2499 73.1344 54.4662 73.3931C52.7946 73.9222 51.0099 73.9834 49.3059 73.5701C45.9557 72.6785 43.1658 70.3611 41.6747 67.2313C41.0963 66.0874 40.7049 64.8582 40.5155 63.5904C40.3153 62.2296 40.4099 60.8417 40.7929 59.5207C41.0033 58.8028 41.3072 58.1156 41.6969 57.477C42.147 56.7162 42.7472 56.0549 43.4609 55.5333C44.9449 54.4089 46.8562 54.0122 48.6651 54.4531L48.5788 54.5651Z" fill="#231F20" fill-opacity="0.7"/>
</svg>
