<svg width="73" height="108" viewBox="0 0 73 108" fill="none" xmlns="http://www.w3.org/2000/svg">
<path d="M66.4517 49.7739C64.986 42.7558 63.9872 35.2428 63.6993 30.8534C63.1278 22.0665 59.9785 1.8316 47.0932 1.03243C34.2122 0.233256 27.6256 14.3466 22.1862 27.6567C16.7468 40.9709 1 55.1329 1 55.1329C1 55.1329 13.1874 63.5871 31.6212 68.3538C35.6211 69.3882 39.7388 69.9683 43.8914 70.1022C51.5118 70.3456 64.3274 70.0089 71.9958 65.729C69.8453 63.3315 67.913 56.8002 66.4473 49.7699" fill="#FFE600"/>
<path d="M66.4517 49.774C64.986 42.7558 63.9872 35.2428 63.6993 30.8534C63.1279 22.0665 59.9785 1.8316 47.0932 1.03243C34.2122 0.233256 27.6256 14.3466 22.1862 27.6567C16.7468 40.9709 1 55.1329 1 55.1329C1 55.1329 13.1874 63.5871 31.6212 68.3538C35.6211 69.3882 39.7388 69.9683 43.8914 70.1022C51.5118 70.3456 64.3274 70.0089 71.9958 65.7291C69.8453 63.3315 67.913 56.8002 66.4473 49.7699" stroke="#161616" stroke-width="2" stroke-linecap="round" stroke-linejoin="round"/>
<path d="M45.6982 69.7767C46.52 64.8393 42.2669 60.1284 36.1985 59.2547C30.1301 58.381 24.5444 61.6753 23.7225 66.6128C22.9006 71.5502 27.1538 76.261 33.2222 77.1347C39.2906 78.0084 44.8763 74.7141 45.6982 69.7767Z" fill="#FFE600" stroke="#161616" stroke-width="2" stroke-linecap="round" stroke-linejoin="round"/>
<path d="M66.5952 50.4717C40.5236 56.2687 22.9839 47.3967 13.7801 41.3359C7.63846 49.1654 1.00391 55.1369 1.00391 55.1369C1.00391 55.1369 13.1913 63.5911 31.6251 68.3578C35.625 69.3922 39.7427 69.9724 43.8954 70.1062C51.5158 70.3496 64.3313 70.0129 71.9997 65.7331C69.9234 63.4126 68.0477 57.2302 66.5952 50.4717Z" fill="#FF6B57" stroke="#161616" stroke-width="2" stroke-linecap="round" stroke-linejoin="round"/>
<path d="M18.3877 77.9639C18.3877 77.9639 5.27124 88.6249 1.70312 90.0448L18.3877 77.9639Z" fill="#FFE600"/>
<path d="M18.3877 77.9639C18.3877 77.9639 5.27124 88.6249 1.70312 90.0448" stroke="#161616" stroke-width="2" stroke-linecap="round" stroke-linejoin="round"/>
<path d="M30.4807 84.0049C30.4807 84.0049 26.1493 99.6395 27.0435 106.033L30.4807 84.0049Z" fill="#FFE600"/>
<path d="M30.4807 84.0049C30.4807 84.0049 26.1493 99.6395 27.0435 106.033" stroke="#161616" stroke-width="2" stroke-linecap="round" stroke-linejoin="round"/>
<path d="M42.7109 83.2949C42.7109 83.2949 48.9529 96.2034 53.6639 102.601L42.7109 83.2949Z" fill="#FFE600"/>
<path d="M42.7109 83.2949C42.7109 83.2949 48.9529 96.2034 53.6639 102.601" stroke="#161616" stroke-width="2" stroke-linecap="round" stroke-linejoin="round"/>
</svg>
