<svg width="82" height="95" viewBox="0 0 82 95" fill="none" xmlns="http://www.w3.org/2000/svg">
<path d="M26.0214 73.6919C24.0262 73.4822 22.0862 72.9093 20.2971 72.0015C18.5653 71.0294 17.0341 69.737 15.7849 68.1931C13.5848 65.4131 12.1108 62.1293 11.4959 58.6377C10.9784 56.1559 10.9267 53.5995 11.3433 51.0988C11.5481 50.0151 11.8386 48.9494 12.2121 47.9117C12.4113 47.4205 12.6327 46.8517 12.8752 46.4116L13.44 45.1414C14.1785 43.4719 14.8267 41.7639 15.3817 40.0248C16.5575 36.6853 16.8381 33.0962 16.1956 29.6146C15.886 28.0897 15.3269 26.6264 14.541 25.2835C13.7789 23.9205 12.8388 22.665 11.7456 21.55C10.3387 20.1686 8.67327 19.0781 6.84455 18.341C6.39452 18.142 5.92009 17.9697 5.44803 17.807C4.97597 17.6443 4.50911 17.4186 4.01525 17.251C3.05193 16.8892 2.04218 16.5902 1.02272 16.2935C-0.248643 15.9349 -0.049488 15.4436 1.18302 14.9265C2.01065 14.5892 2.87724 14.3569 3.76259 14.2348C4.35131 14.1461 4.94577 14.1007 5.54115 14.0991L6.51836 14.1384C6.84538 14.213 7.17478 14.2972 7.50891 14.4009C9.94367 15.162 12.1933 16.4216 14.1148 18.0995C15.9951 19.7842 17.5616 21.7891 18.7414 24.0211C19.9286 26.2892 20.6692 28.7642 20.9231 31.3117C21.164 33.7801 21.0004 36.2713 20.4387 38.687C19.8015 41.4609 19.0165 44.1988 18.0872 46.8889L17.7422 47.879C17.6167 48.2082 17.5056 48.5544 17.4242 48.8111C17.2417 49.3671 17.0912 49.9331 16.9735 50.5064C16.7457 51.6537 16.6272 52.82 16.6196 53.9897C16.6141 56.5604 17.2327 59.094 18.4224 61.3728C19.0066 62.4976 19.7418 63.5371 20.6077 64.4626C21.3745 65.3313 22.3263 66.0169 23.3932 66.4692C25.9481 67.6158 29.3502 67.2998 32.7167 66.4161C37.8654 65.1589 43.1141 62.9199 48.874 61.6782C51.1828 61.1617 53.5462 60.9303 55.9114 60.9892C58.4672 61.0807 60.9651 61.7759 63.2007 63.0181C63.7015 63.2726 64.1823 63.5647 64.639 63.8918C65.1213 64.1817 65.5729 64.5198 65.9868 64.9009C66.3608 65.2522 66.7107 65.5889 67.0121 65.8961C67.2668 66.1948 67.4962 66.5141 67.6981 66.8506C68.0219 67.3421 68.2768 67.8755 68.4559 68.4362C68.6563 69.298 68.4764 70.2044 67.962 70.9243C67.7549 71.2909 67.516 71.6386 67.248 71.9633C66.7358 72.4333 66.0033 72.5763 65.3518 72.3337C64.4446 72.0271 63.588 71.5875 62.8099 71.0294L62.3122 70.6774C62.1356 70.5867 61.9761 70.4816 61.8069 70.3788C61.6377 70.276 61.1665 69.9484 60.8352 69.7719C60.5039 69.5955 60.1797 69.4482 59.8605 69.2791C59.5413 69.11 59.2045 69.0378 58.8851 68.9099C57.5969 68.4797 56.2444 68.2737 54.8865 68.301C53.3405 68.3385 51.8035 68.5481 50.304 68.9259C48.6719 69.3244 46.8946 69.676 45.0775 70.202C42.3375 70.9534 39.4924 71.8643 36.4079 72.638C34.7915 73.0544 33.1543 73.3854 31.5032 73.6298C29.6786 73.8869 27.8325 73.9548 25.994 73.8324L26.0214 73.6919Z" fill="#111827" fill-opacity="0.7"/>
<path d="M71.3863 75.5443C71.9703 75.4367 72.5476 75.2957 73.1155 75.122C73.2126 75.0983 73.2224 75.096 73.3001 75.077C73.3778 75.058 73.4069 75.0509 73.4458 75.0414C73.4847 75.0319 73.6242 74.8023 73.6885 74.5601C73.6875 74.0619 73.6184 73.5662 73.4832 73.0867C73.2635 71.8714 72.8851 70.6902 72.3577 69.5734C71.8145 68.3087 71.1724 67.0887 70.4374 65.9248C69.7474 64.8768 68.9416 63.9099 68.0351 63.0424C66.8364 61.9694 65.7933 60.7342 64.9362 59.3727C64.684 58.9299 65.2042 58.2779 66.1258 57.8367C67.129 57.2922 68.3196 57.2119 69.3868 57.6169C69.7832 57.8495 70.1918 58.0894 70.5954 58.3512L71.1803 58.723L71.6944 59.1843C72.3644 59.7946 72.9974 60.4444 73.5901 61.1301C74.8129 62.4751 75.843 63.9835 76.6506 65.6121C77.13 66.6479 77.6409 67.6864 78.1928 68.7663C78.7959 69.9032 79.2319 71.1211 79.4875 72.3824C79.8121 74.0769 79.6077 75.8302 78.9021 77.4046C78.0867 78.9568 76.742 80.1653 75.1119 80.8108C73.6079 81.3913 72.0425 81.7977 70.4461 82.0222C68.1862 82.2857 65.9133 82.4214 63.6382 82.4287C61.9279 82.5066 60.2377 82.8781 58.5462 83.075C58.183 83.1473 57.8145 83.1891 57.4443 83.1999C56.0866 83.1197 55.7014 82.5961 55.5408 80.9265C55.5089 80.5432 55.4553 80.1548 55.4452 79.7764C55.3382 78.6188 55.9898 77.5242 57.0584 77.0664C58.4785 76.5525 59.9686 76.258 61.4774 76.1932C62.9235 76.0872 64.3327 76.0828 65.6985 76.0272C67.6003 76.0319 69.4965 75.821 71.3507 75.3986L71.3863 75.5443Z" fill="#111827" fill-opacity="0.7"/>
</svg>
