<svg width="29" height="30" viewBox="0 0 29 30" fill="none" xmlns="http://www.w3.org/2000/svg">
<path opacity="0.4" fill-rule="evenodd" clip-rule="evenodd" d="M17.7629 10.65L13.1954 16.653L11.2234 14.13C11.1263 14.0053 11.0055 13.9009 10.8681 13.8228C10.7306 13.7448 10.5792 13.6946 10.4223 13.675C10.1055 13.6356 9.78601 13.7236 9.53412 13.9198C9.28224 14.1159 9.11857 14.404 9.07914 14.7208C9.03972 15.0376 9.12775 15.3571 9.32387 15.609L12.2529 19.379C12.5042 19.669 12.8232 19.8188 13.2099 19.8285C13.5965 19.8285 13.9155 19.669 14.1669 19.35L19.6914 12.1C19.8837 11.8443 19.9665 11.5226 19.9216 11.2058C19.8767 10.889 19.7079 10.603 19.4521 10.4108C19.1964 10.2185 18.8747 10.1357 18.558 10.1805C18.2412 10.2254 17.9552 10.3943 17.7629 10.65ZM14.5004 24.6715C11.9334 24.6677 9.47311 23.6443 7.66071 21.8264C5.84831 20.0086 4.83228 17.5452 4.83613 14.9783C4.83997 12.4113 5.86338 9.95099 7.68122 8.1386C9.49906 6.3262 11.9624 5.31016 14.5294 5.31401C15.8004 5.31591 17.0586 5.56815 18.2322 6.05631C19.4057 6.54447 20.4716 7.259 21.369 8.1591C22.2664 9.0592 22.9778 10.1272 23.4624 11.3023C23.9471 12.4773 24.1955 13.7362 24.1936 15.0073C24.1917 16.2783 23.9395 17.5365 23.4513 18.7101C22.9632 19.8836 22.2486 20.9495 21.3485 21.8469C20.4484 22.7443 19.3804 23.4557 18.2054 23.9403C17.0304 24.4249 15.7714 24.6734 14.5004 24.6715ZM14.5004 2.92151C11.297 2.92151 8.22474 4.19406 5.95959 6.45922C3.69443 8.72438 2.42188 11.7966 2.42188 15C2.42188 18.2034 3.69443 21.2756 5.95959 23.5408C8.22474 25.806 11.297 27.0785 14.5004 27.0785C17.7038 27.0785 20.776 25.806 23.0412 23.5408C25.3063 21.2756 26.5789 18.2034 26.5789 15C26.5789 11.7966 25.3063 8.72438 23.0412 6.45922C20.776 4.19406 17.7038 2.92151 14.5004 2.92151Z" fill="#111827"/>
</svg>
