<svg width="172" height="28" viewBox="0 0 172 28" fill="none" xmlns="http://www.w3.org/2000/svg">
<path fill-rule="evenodd" clip-rule="evenodd" d="M13.2174 24.4584L7.16326 27.7927C6.34037 28.2379 5.33275 27.9103 4.89611 27.0537C4.71483 26.7143 4.65555 26.3229 4.72818 25.945L5.88694 18.8901C5.93482 18.6143 5.91639 18.3311 5.83317 18.0638C5.74994 17.7965 5.60431 17.5529 5.40832 17.3531L0.504569 12.3643C0.185243 12.0324 0.00477618 11.591 9.34521e-05 11.1304C-0.00458928 10.6699 0.166866 10.2249 0.479379 9.88663C0.734158 9.61765 1.0707 9.44048 1.43662 9.38271L8.21286 8.34966C8.48529 8.30585 8.74272 8.19556 8.9624 8.02857C9.18208 7.86157 9.35724 7.64301 9.47239 7.39221L12.4952 0.975568C12.6248 0.685105 12.8357 0.438394 13.1024 0.265265C13.3691 0.0921349 13.6803 0 13.9983 0C14.3163 0 14.6274 0.0921349 14.8942 0.265265C15.1609 0.438394 15.3718 0.685105 15.5013 0.975568L18.5242 7.39221C18.6393 7.64301 18.8145 7.86157 19.0342 8.02857C19.2538 8.19556 19.5113 8.30585 19.7837 8.34966L26.5599 9.38271C27.0091 9.46092 27.4096 9.71252 27.675 10.0833C27.9405 10.454 28.0496 10.9143 27.979 11.3648C27.9348 11.7436 27.7631 12.0961 27.492 12.3643L22.5882 17.3531C22.3897 17.5547 22.2426 17.8011 22.1593 18.0715C22.076 18.342 22.0589 18.6285 22.1096 18.9069L23.26 25.9618C23.3352 26.4082 23.2359 26.8664 22.9827 27.2417C22.7295 27.6169 22.3417 27.8803 21.8997 27.9775C21.5345 28.0379 21.1596 27.9759 20.8333 27.8011L14.7792 24.4668C14.5407 24.3329 14.2718 24.2626 13.9983 24.2626C13.7248 24.2626 13.4559 24.3329 13.2174 24.4668M11.8739 22.0144C12.5259 21.6601 13.2562 21.4745 13.9983 21.4745C14.7403 21.4745 15.4706 21.6601 16.1227 22.0144L20.1448 24.2233L19.3471 19.352C19.2317 18.6414 19.284 17.9136 19.4997 17.2268C19.7155 16.54 20.0888 15.9131 20.5898 15.3962L24.0829 11.8351L19.3639 11.1212C18.6368 11.0097 17.9486 10.7197 17.361 10.2771C16.7734 9.83443 16.3047 9.25302 15.9967 8.58483L13.9983 4.35186L11.9998 8.58483C11.6897 9.24988 11.22 9.82792 10.6326 10.2675C10.0451 10.7071 9.35811 10.9946 8.6327 11.1044L3.91368 11.8267L7.40677 15.3878C7.90902 15.9056 8.28303 16.5339 8.49884 17.2223C8.71464 17.9107 8.76624 18.6401 8.6495 19.352L7.8518 24.2233L11.8739 22.0144Z" fill="#111827"/>
<path fill-rule="evenodd" clip-rule="evenodd" d="M49.2174 24.4584L43.1633 27.7927C42.3404 28.2379 41.3327 27.9103 40.8961 27.0537C40.7148 26.7143 40.6555 26.3229 40.7282 25.945L41.8869 18.8901C41.9348 18.6143 41.9164 18.3311 41.8332 18.0638C41.7499 17.7965 41.6043 17.5529 41.4083 17.3531L36.5046 12.3643C36.1852 12.0324 36.0048 11.591 36.0001 11.1304C35.9954 10.6699 36.1669 10.2249 36.4794 9.88663C36.7342 9.61765 37.0707 9.44048 37.4366 9.38271L44.2129 8.34966C44.4853 8.30585 44.7427 8.19556 44.9624 8.02857C45.1821 7.86157 45.3572 7.64301 45.4724 7.39221L48.4952 0.975568C48.6248 0.685105 48.8357 0.438394 49.1024 0.265265C49.3691 0.0921349 49.6803 0 49.9983 0C50.3163 0 50.6274 0.0921349 50.8942 0.265265C51.1609 0.438394 51.3718 0.685105 51.5013 0.975568L54.5242 7.39221C54.6393 7.64301 54.8145 7.86157 55.0342 8.02857C55.2538 8.19556 55.5113 8.30585 55.7837 8.34966L62.5599 9.38271C63.0091 9.46092 63.4096 9.71252 63.675 10.0833C63.9405 10.454 64.0496 10.9143 63.979 11.3648C63.9348 11.7436 63.7631 12.0961 63.492 12.3643L58.5882 17.3531C58.3897 17.5547 58.2426 17.8011 58.1593 18.0715C58.076 18.342 58.0589 18.6285 58.1096 18.9069L59.26 25.9618C59.3352 26.4082 59.2359 26.8664 58.9827 27.2417C58.7295 27.6169 58.3417 27.8803 57.8997 27.9775C57.5345 28.0379 57.1596 27.9759 56.8333 27.8011L50.7792 24.4668C50.5407 24.3329 50.2718 24.2626 49.9983 24.2626C49.7248 24.2626 49.4559 24.3329 49.2174 24.4668M47.8739 22.0144C48.5259 21.6601 49.2562 21.4745 49.9983 21.4745C50.7403 21.4745 51.4706 21.6601 52.1227 22.0144L56.1448 24.2233L55.3471 19.352C55.2317 18.6414 55.284 17.9136 55.4997 17.2268C55.7155 16.54 56.0888 15.9131 56.5898 15.3962L60.0829 11.8351L55.3639 11.1212C54.6368 11.0097 53.9486 10.7197 53.361 10.2771C52.7734 9.83443 52.3047 9.25302 51.9967 8.58483L49.9983 4.35186L47.9998 8.58483C47.6897 9.24988 47.22 9.82792 46.6326 10.2675C46.0451 10.7071 45.3581 10.9946 44.6327 11.1044L39.9137 11.8267L43.4068 15.3878C43.909 15.9056 44.283 16.5339 44.4988 17.2223C44.7146 17.9107 44.7662 18.6401 44.6495 19.352L43.8518 24.2233L47.8739 22.0144Z" fill="#111827"/>
<path fill-rule="evenodd" clip-rule="evenodd" d="M85.2174 24.4584L79.1633 27.7927C78.3404 28.2379 77.3327 27.9103 76.8961 27.0537C76.7148 26.7143 76.6555 26.3229 76.7282 25.945L77.8869 18.8901C77.9348 18.6143 77.9164 18.3311 77.8332 18.0638C77.7499 17.7965 77.6043 17.5529 77.4083 17.3531L72.5046 12.3643C72.1852 12.0324 72.0048 11.591 72.0001 11.1304C71.9954 10.6699 72.1669 10.2249 72.4794 9.88663C72.7342 9.61765 73.0707 9.44048 73.4366 9.38271L80.2129 8.34966C80.4853 8.30585 80.7427 8.19556 80.9624 8.02857C81.1821 7.86157 81.3572 7.64301 81.4724 7.39221L84.4952 0.975568C84.6248 0.685105 84.8357 0.438394 85.1024 0.265265C85.3691 0.0921349 85.6803 0 85.9983 0C86.3163 0 86.6274 0.0921349 86.8942 0.265265C87.1609 0.438394 87.3718 0.685105 87.5013 0.975568L90.5242 7.39221C90.6393 7.64301 90.8145 7.86157 91.0342 8.02857C91.2538 8.19556 91.5113 8.30585 91.7837 8.34966L98.5599 9.38271C99.0091 9.46092 99.4096 9.71252 99.675 10.0833C99.9405 10.454 100.05 10.9143 99.979 11.3648C99.9348 11.7436 99.7631 12.0961 99.492 12.3643L94.5882 17.3531C94.3897 17.5547 94.2426 17.8011 94.1593 18.0715C94.076 18.342 94.0589 18.6285 94.1096 18.9069L95.26 25.9618C95.3352 26.4082 95.2359 26.8664 94.9827 27.2417C94.7295 27.6169 94.3417 27.8803 93.8997 27.9775C93.5345 28.0379 93.1596 27.9759 92.8333 27.8011L86.7792 24.4668C86.5407 24.3329 86.2718 24.2626 85.9983 24.2626C85.7248 24.2626 85.4559 24.3329 85.2174 24.4668M83.8739 22.0144C84.5259 21.6601 85.2562 21.4745 85.9983 21.4745C86.7403 21.4745 87.4706 21.6601 88.1227 22.0144L92.1448 24.2233L91.3471 19.352C91.2317 18.6414 91.284 17.9136 91.4997 17.2268C91.7155 16.54 92.0888 15.9131 92.5898 15.3962L96.0829 11.8351L91.3639 11.1212C90.6368 11.0097 89.9486 10.7197 89.361 10.2771C88.7734 9.83443 88.3047 9.25302 87.9967 8.58483L85.9983 4.35186L83.9998 8.58483C83.6897 9.24988 83.22 9.82792 82.6326 10.2675C82.0451 10.7071 81.3581 10.9946 80.6327 11.1044L75.9137 11.8267L79.4068 15.3878C79.909 15.9056 80.283 16.5339 80.4988 17.2223C80.7146 17.9107 80.7662 18.6401 80.6495 19.352L79.8518 24.2233L83.8739 22.0144Z" fill="#111827"/>
<path fill-rule="evenodd" clip-rule="evenodd" d="M121.217 24.4584L115.163 27.7927C114.34 28.2379 113.333 27.9103 112.896 27.0537C112.715 26.7143 112.656 26.3229 112.728 25.945L113.887 18.8901C113.935 18.6143 113.916 18.3311 113.833 18.0638C113.75 17.7965 113.604 17.5529 113.408 17.3531L108.505 12.3643C108.185 12.0324 108.005 11.591 108 11.1304C107.995 10.6699 108.167 10.2249 108.479 9.88663C108.734 9.61765 109.071 9.44048 109.437 9.38271L116.213 8.34966C116.485 8.30585 116.743 8.19556 116.962 8.02857C117.182 7.86157 117.357 7.64301 117.472 7.39221L120.495 0.975568C120.625 0.685105 120.836 0.438394 121.102 0.265265C121.369 0.0921349 121.68 0 121.998 0C122.316 0 122.627 0.0921349 122.894 0.265265C123.161 0.438394 123.372 0.685105 123.501 0.975568L126.524 7.39221C126.639 7.64301 126.814 7.86157 127.034 8.02857C127.254 8.19556 127.511 8.30585 127.784 8.34966L134.56 9.38271C135.009 9.46092 135.41 9.71252 135.675 10.0833C135.94 10.454 136.05 10.9143 135.979 11.3648C135.935 11.7436 135.763 12.0961 135.492 12.3643L130.588 17.3531C130.39 17.5547 130.243 17.8011 130.159 18.0715C130.076 18.342 130.059 18.6285 130.11 18.9069L131.26 25.9618C131.335 26.4082 131.236 26.8664 130.983 27.2417C130.729 27.6169 130.342 27.8803 129.9 27.9775C129.535 28.0379 129.16 27.9759 128.833 27.8011L122.779 24.4668C122.541 24.3329 122.272 24.2626 121.998 24.2626C121.725 24.2626 121.456 24.3329 121.217 24.4668M119.874 22.0144C120.526 21.6601 121.256 21.4745 121.998 21.4745C122.74 21.4745 123.471 21.6601 124.123 22.0144L128.145 24.2233L127.347 19.352C127.232 18.6414 127.284 17.9136 127.5 17.2268C127.716 16.54 128.089 15.9131 128.59 15.3962L132.083 11.8351L127.364 11.1212C126.637 11.0097 125.949 10.7197 125.361 10.2771C124.773 9.83443 124.305 9.25302 123.997 8.58483L121.998 4.35186L120 8.58483C119.69 9.24988 119.22 9.82792 118.633 10.2675C118.045 10.7071 117.358 10.9946 116.633 11.1044L111.914 11.8267L115.407 15.3878C115.909 15.9056 116.283 16.5339 116.499 17.2223C116.715 17.9107 116.766 18.6401 116.649 19.352L115.852 24.2233L119.874 22.0144Z" fill="#111827"/>
<path fill-rule="evenodd" clip-rule="evenodd" d="M157.217 24.4584L151.163 27.7927C150.34 28.2379 149.333 27.9103 148.896 27.0537C148.715 26.7143 148.656 26.3229 148.728 25.945L149.887 18.8901C149.935 18.6143 149.916 18.3311 149.833 18.0638C149.75 17.7965 149.604 17.5529 149.408 17.3531L144.505 12.3643C144.185 12.0324 144.005 11.591 144 11.1304C143.995 10.6699 144.167 10.2249 144.479 9.88663C144.734 9.61765 145.071 9.44048 145.437 9.38271L152.213 8.34966C152.485 8.30585 152.743 8.19556 152.962 8.02857C153.182 7.86157 153.357 7.64301 153.472 7.39221L156.495 0.975568C156.625 0.685105 156.836 0.438394 157.102 0.265265C157.369 0.0921349 157.68 0 157.998 0C158.316 0 158.627 0.0921349 158.894 0.265265C159.161 0.438394 159.372 0.685105 159.501 0.975568L162.524 7.39221C162.639 7.64301 162.814 7.86157 163.034 8.02857C163.254 8.19556 163.511 8.30585 163.784 8.34966L170.56 9.38271C171.009 9.46092 171.41 9.71252 171.675 10.0833C171.94 10.454 172.05 10.9143 171.979 11.3648C171.935 11.7436 171.763 12.0961 171.492 12.3643L166.588 17.3531C166.39 17.5547 166.243 17.8011 166.159 18.0715C166.076 18.342 166.059 18.6285 166.11 18.9069L167.26 25.9618C167.335 26.4082 167.236 26.8664 166.983 27.2417C166.729 27.6169 166.342 27.8803 165.9 27.9775C165.535 28.0379 165.16 27.9759 164.833 27.8011L158.779 24.4668C158.541 24.3329 158.272 24.2626 157.998 24.2626C157.725 24.2626 157.456 24.3329 157.217 24.4668M155.874 22.0144C156.526 21.6601 157.256 21.4745 157.998 21.4745C158.74 21.4745 159.471 21.6601 160.123 22.0144L164.145 24.2233L163.347 19.352C163.232 18.6414 163.284 17.9136 163.5 17.2268C163.716 16.54 164.089 15.9131 164.59 15.3962L168.083 11.8351L163.364 11.1212C162.637 11.0097 161.949 10.7197 161.361 10.2771C160.773 9.83443 160.305 9.25302 159.997 8.58483L157.998 4.35186L156 8.58483C155.69 9.24988 155.22 9.82792 154.633 10.2675C154.045 10.7071 153.358 10.9946 152.633 11.1044L147.914 11.8267L151.407 15.3878C151.909 15.9056 152.283 16.5339 152.499 17.2223C152.715 17.9107 152.766 18.6401 152.649 19.352L151.852 24.2233L155.874 22.0144Z" fill="#111827"/>
</svg>
