<svg width="175" height="32" viewBox="0 0 175 32" fill="none" xmlns="http://www.w3.org/2000/svg">
<path d="M29.6875 0H2.0625C0.957931 0 0.0625 0.895431 0.0625 2V29.63C0.0625 30.7346 0.957931 31.63 2.0625 31.63H29.6875C30.7921 31.63 31.6875 30.7346 31.6875 29.63V2C31.6875 0.895431 30.7921 0 29.6875 0Z" fill="#00B67A"/>
<path d="M15.9738 20.9222L20.7405 19.703L22.7321 25.8973L15.9738 20.9222ZM26.9438 12.9158H18.553L15.9738 4.94238L13.3946 12.9158H5.00391L11.7948 17.858L9.21557 25.8313L16.0064 20.8891L20.1855 17.858L26.9438 12.9158Z" fill="white"/>
<path d="M65.3125 0H37.6875C36.5829 0 35.6875 0.895431 35.6875 2V29.63C35.6875 30.7346 36.5829 31.63 37.6875 31.63H65.3125C66.4171 31.63 67.3125 30.7346 67.3125 29.63V2C67.3125 0.895431 66.4171 0 65.3125 0Z" fill="#00B67A"/>
<path d="M51.5988 20.9222L56.3655 19.703L58.3571 25.8973L51.5988 20.9222ZM62.5688 12.9158H54.178L51.5988 4.94238L49.0196 12.9158H40.6289L47.4198 17.858L44.8406 25.8313L51.6314 20.8891L55.8105 17.858L62.5688 12.9158Z" fill="white"/>
<path d="M100.938 0H73.3125C72.2079 0 71.3125 0.895431 71.3125 2V29.63C71.3125 30.7346 72.2079 31.63 73.3125 31.63H100.938C102.042 31.63 102.938 30.7346 102.938 29.63V2C102.938 0.895431 102.042 0 100.938 0Z" fill="#00B67A"/>
<path d="M87.2238 20.9222L91.9905 19.703L93.9821 25.8973L87.2238 20.9222ZM98.1938 12.9158H89.803L87.2238 4.94238L84.6446 12.9158H76.2539L83.0448 17.858L80.4656 25.8313L87.2564 20.8891L91.4355 17.858L98.1938 12.9158Z" fill="white"/>
<path d="M136.562 0H108.938C107.833 0 106.938 0.895431 106.938 2V29.63C106.938 30.7346 107.833 31.63 108.938 31.63H136.562C137.667 31.63 138.562 30.7346 138.562 29.63V2C138.562 0.895431 137.667 0 136.562 0Z" fill="#00B67A"/>
<path d="M122.849 20.9222L127.616 19.703L129.607 25.8973L122.849 20.9222ZM133.819 12.9158H125.428L122.849 4.94238L120.27 12.9158H111.879L118.67 17.858L116.091 25.8313L122.881 20.8891L127.06 17.858L133.819 12.9158Z" fill="white"/>
<path d="M172.188 0H144.562C143.458 0 142.562 0.895431 142.562 2V29.63C142.562 30.7346 143.458 31.63 144.563 31.63H172.188C173.292 31.63 174.188 30.7346 174.188 29.63V2C174.188 0.895431 173.292 0 172.188 0Z" fill="#00B67A"/>
<path d="M158.474 20.9222L163.241 19.703L165.232 25.8973L158.474 20.9222ZM169.444 12.9158H161.053L158.474 4.94238L155.895 12.9158H147.504L154.295 17.858L151.716 25.8313L158.506 20.8891L162.685 17.858L169.444 12.9158Z" fill="white"/>
</svg>
