<svg width="423" height="354" viewBox="0 0 423 354" fill="none" xmlns="http://www.w3.org/2000/svg">
<path d="M3.98243 120.803C-0.309059 179.618 10.849 349.225 10.849 349.225C10.849 349.225 335.382 354.337 344.823 349.225C354.265 344.112 344.823 120.803 344.823 120.803C226.99 119.781 112.943 119.685 3.98243 120.803Z" fill="white" stroke="#161616" stroke-width="5" stroke-linecap="round" stroke-linejoin="round"/>
<path d="M43.0914 163.045C48.8093 163.045 53.4448 158.444 53.4448 152.767C53.4448 147.091 48.8093 142.489 43.0914 142.489C37.3735 142.489 32.7383 147.091 32.7383 152.767C32.7383 158.444 37.3735 163.045 43.0914 163.045Z" stroke="#161616" stroke-width="4" stroke-linecap="round" stroke-linejoin="round"/>
<path d="M88.0878 163.045C93.8057 163.045 98.4409 158.444 98.4409 152.767C98.4409 147.091 93.8057 142.489 88.0878 142.489C82.3698 142.489 77.7344 147.091 77.7344 152.767C77.7344 158.444 82.3698 163.045 88.0878 163.045Z" stroke="#161616" stroke-width="4" stroke-linecap="round" stroke-linejoin="round"/>
<path d="M133.103 163.045C138.821 163.045 143.457 158.444 143.457 152.767C143.457 147.091 138.821 142.489 133.103 142.489C127.385 142.489 122.75 147.091 122.75 152.767C122.75 158.444 127.385 163.045 133.103 163.045Z" stroke="#161616" stroke-width="4" stroke-linecap="round" stroke-linejoin="round"/>
<path d="M307.33 158.199L211.115 286.278L231.886 170.682L114.707 309.06L123.826 215.182L42.0625 317.208" stroke="#0BBA11" stroke-width="5" stroke-linecap="round" stroke-linejoin="round"/>
<path d="M263.594 173.898L307.335 156.409L306.68 201.154" stroke="#0BBA11" stroke-width="5" stroke-linecap="round" stroke-linejoin="round"/>
<path d="M309.651 147.321C333.079 157.275 359.913 146.888 369.586 124.121C379.26 101.354 368.109 74.8279 344.682 64.8737C321.254 54.9195 294.42 65.3063 284.746 88.0734C275.073 110.84 286.223 137.366 309.651 147.321Z" fill="#FFD45C" stroke="black" stroke-width="2" stroke-linecap="round" stroke-linejoin="round"/>
<path d="M288.077 128.875C288.077 128.875 298.892 149.887 327.096 151.092C347.022 150.866 344.365 146.89 349.187 128.61C349.187 128.61 351.327 103.269 349.038 99.45C349.038 99.45 356.088 88.8421 351.803 84.9897C351.387 84.563 340.15 88.4807 340.15 88.4807L329.028 83.4076C329.028 83.4076 326.086 69.4667 324.708 72.3256C320.521 81.412 317.199 82.6842 317.199 82.6842C317.199 82.6842 291.39 87.1687 295.298 110.32L285.945 125.046L288.077 128.875Z" fill="white" stroke="black" stroke-width="2" stroke-linecap="round" stroke-linejoin="round"/>
<path d="M309.651 147.321C333.079 157.275 359.913 146.888 369.586 124.121C379.26 101.354 368.109 74.8279 344.682 64.8737C321.254 54.9195 294.42 65.3063 284.746 88.0734C275.073 110.84 286.223 137.366 309.651 147.321Z" stroke="black" stroke-width="2" stroke-linecap="round" stroke-linejoin="round"/>
<path d="M344.68 64.8823C374.729 77.65 384.192 103.455 374.521 126.216C364.85 148.977 340.651 160.49 311.42 148.07" stroke="black" stroke-width="2" stroke-linecap="round" stroke-linejoin="round"/>
<path d="M371.632 95.8821L376.37 96.7759" stroke="black" stroke-width="2" stroke-linecap="round" stroke-linejoin="round"/>
<path d="M373.051 105.785L378.133 107.402" stroke="black" stroke-width="2" stroke-linecap="round" stroke-linejoin="round"/>
<path d="M372.184 115.804L377.172 117.924" stroke="black" stroke-width="2" stroke-linecap="round" stroke-linejoin="round"/>
<path d="M368.973 125.587L373.897 127.68" stroke="black" stroke-width="2" stroke-linecap="round" stroke-linejoin="round"/>
<path d="M364.184 133.461L369.255 135.616" stroke="black" stroke-width="2" stroke-linecap="round" stroke-linejoin="round"/>
<path d="M354.352 142.898L359.773 145.201" stroke="black" stroke-width="2" stroke-linecap="round" stroke-linejoin="round"/>
<path d="M344.632 148.047L351.938 149.674" stroke="black" stroke-width="2" stroke-linecap="round" stroke-linejoin="round"/>
<path d="M319.956 67.8298C319.956 67.8298 331.294 63.955 351.349 75.0076" stroke="black" stroke-width="2" stroke-linecap="round" stroke-linejoin="round"/>
<path d="M365.67 117.351C365.67 117.351 362.35 129.283 354.147 137.032" stroke="black" stroke-width="2" stroke-linecap="round" stroke-linejoin="round"/>
<path d="M305.801 33.8564L309.742 49.5143" stroke="black" stroke-width="2" stroke-linecap="round" stroke-linejoin="round"/>
<path d="M299.855 43.6509L303.659 50.1453" stroke="black" stroke-width="2" stroke-linecap="round" stroke-linejoin="round"/>
<path d="M358.977 163.148L365.954 174.164" stroke="black" stroke-width="2" stroke-linecap="round" stroke-linejoin="round"/>
<path d="M353.766 162.764L354.467 170.472" stroke="black" stroke-width="2" stroke-linecap="round" stroke-linejoin="round"/>
<path d="M391.015 79.7746L384.49 82.4998" stroke="black" stroke-width="2" stroke-linecap="round" stroke-linejoin="round"/>
<path d="M402.235 81.8265L387.641 84.8501" stroke="black" stroke-width="2" stroke-linecap="round" stroke-linejoin="round"/>
<path d="M270.326 124.054L255.942 125.993" stroke="black" stroke-width="2" stroke-linecap="round" stroke-linejoin="round"/>
<path d="M275.687 126.513L269.892 129.386" stroke="black" stroke-width="2" stroke-linecap="round" stroke-linejoin="round"/>
<path d="M329.541 99.1842C329.541 99.1842 325.28 104.762 320.781 102.796C316.281 100.83 317.816 93.203 317.816 93.203L314.714 91.6566C314.714 91.6566 312.082 97.8507 308.516 96.1942C304.949 94.5378 305.567 92.4205 307.688 85.3574L343.292 100.703L342.19 103.603L329.541 99.1842Z" fill="black"/>
<path d="M304.208 98.0919C304.425 97.5161 304.823 97.0268 305.343 96.6986C305.863 96.3703 306.476 96.221 307.089 96.2734C308.195 96.4256 309.24 96.8697 310.117 97.56C313.407 100.045 312.334 101.088 311.208 101.87C310.083 102.652 306.255 103.862 305.081 103.504C303.908 103.147 303.079 100.98 304.208 98.0919Z" fill="black"/>
<path d="M301.616 104.857C301.616 104.857 304.947 104.099 306.583 106.848C308.078 109.287 309.045 110.132 311.171 111.035C313.297 111.939 317.042 111.563 317.042 111.563" stroke="black" stroke-width="2" stroke-miterlimit="10" stroke-linecap="round" stroke-linejoin="round"/>
<path d="M343.328 109.235C341.847 114.681 338.453 119.411 333.767 122.557C322.724 129.676 295.997 128.24 294.972 107.432C293.972 86.8739 317.21 82.6876 317.21 82.6876C319.719 81.8959 322.943 75.5621 324.208 72.8401C324.28 72.6717 324.393 72.524 324.537 72.4104C324.681 72.2969 324.851 72.221 325.031 72.1898C325.212 72.1586 325.397 72.173 325.571 72.2316C325.745 72.2904 325.901 72.3915 326.025 72.5258C327.075 73.765 327.625 75.3508 327.569 76.9736C327.599 82.017 329.285 83.6242 331.038 84.4342C332.79 85.2441 340.241 88.3447 341.01 88.454C342.245 88.6418 349.836 84.0224 351.829 84.9564C353.823 85.8903 355.111 92.5763 347.589 100.919" stroke="black" stroke-width="2" stroke-miterlimit="10" stroke-linecap="round" stroke-linejoin="round"/>
<path d="M349.281 98.8794C349.281 98.8794 353.747 132.71 342.26 148.853" stroke="black" stroke-width="2" stroke-miterlimit="10" stroke-linecap="round" stroke-linejoin="round"/>
<path d="M295.303 110.311C295.303 110.311 288.272 121.514 285.95 125.036" stroke="black" stroke-width="2" stroke-miterlimit="10" stroke-linecap="round" stroke-linejoin="round"/>
<path d="M352.738 86.0065C352.738 86.0065 344.06 90.2183 343.917 93.982" stroke="black" stroke-width="2" stroke-miterlimit="10" stroke-linecap="round" stroke-linejoin="round"/>
</svg>
