<svg width="110" height="115" viewBox="0 0 110 115" fill="none" xmlns="http://www.w3.org/2000/svg">
<path d="M40.3047 25.7236C59.6707 17.2145 76.0485 24.2157 82.4963 38.8904C88.9442 53.5651 83.6428 70.0833 64.7845 78.3694" stroke="#585D68" stroke-width="2" stroke-linecap="round" stroke-linejoin="round"/>
<path d="M57.5727 81.5088L57.2353 94.2133L57.2571 103.272L33.2115 107.825L32.636 104.786L44.8611 96.9218L41.1338 77.2356" fill="white"/>
<path d="M57.5727 81.5088L57.2353 94.2133L57.2571 103.272L33.2115 107.825L32.636 104.786L44.8611 96.9218L41.1338 77.2356" stroke="#585D68" stroke-width="2" stroke-linecap="round" stroke-linejoin="round"/>
<path d="M43.2734 88.541L57.3666 89.1164" stroke="#585D68" stroke-width="2" stroke-linecap="round" stroke-linejoin="round"/>
<path d="M44.0547 92.6621L57.2664 92.9909" stroke="#585D68" stroke-width="2" stroke-linecap="round" stroke-linejoin="round"/>
<path d="M42.7422 98.2852L46.2076 100.968" stroke="#585D68" stroke-width="2" stroke-linecap="round" stroke-linejoin="round"/>
<path d="M40.6875 99.6523L44.1529 102.335" stroke="#585D68" stroke-width="2" stroke-linecap="round" stroke-linejoin="round"/>
<path d="M39.2305 101.112L41.7642 103.073" stroke="#585D68" stroke-width="2" stroke-linecap="round" stroke-linejoin="round"/>
<path d="M78.3257 60.4855L90.7814 77.1846L104.858 73.5066L106.726 76.0111L87.084 90.6619L80.4324 84.514L70.2714 75.6339C70.2714 75.6339 75.7029 71.0661 78.3257 60.4855Z" fill="white" stroke="#585D68" stroke-width="2" stroke-linecap="round" stroke-linejoin="round"/>
<path d="M85.6833 70.3472L76.5859 81.1185" stroke="#585D68" stroke-width="2" stroke-linecap="round" stroke-linejoin="round"/>
<path d="M88.1899 73.7097L79.5025 83.6587" stroke="#585D68" stroke-width="2" stroke-linecap="round" stroke-linejoin="round"/>
<path d="M95.4464 76.122L95.0834 80.4954" stroke="#585D68" stroke-width="2" stroke-linecap="round" stroke-linejoin="round"/>
<path d="M97.8409 75.5439L97.4732 79.911" stroke="#585D68" stroke-width="2" stroke-linecap="round" stroke-linejoin="round"/>
<path d="M100.07 74.9748L99.8056 78.1736" stroke="#585D68" stroke-width="2" stroke-linecap="round" stroke-linejoin="round"/>
<path d="M63.6554 78.8665C78.7548 72.232 85.769 54.959 79.3219 40.2862C72.8749 25.6133 55.408 19.0969 40.3086 25.7314C25.2093 32.3658 18.1951 49.6388 24.6421 64.3117C31.0892 78.9845 48.5561 85.5009 63.6554 78.8665Z" fill="white" stroke="#585D68" stroke-width="2" stroke-linecap="round" stroke-linejoin="round"/>
<path d="M62.3477 24.6348L65.4322 22.8692" stroke="#585D68" stroke-width="2" stroke-linecap="round" stroke-linejoin="round"/>
<path d="M67.9296 27.2274L70.715 25.6151" stroke="#585D68" stroke-width="2" stroke-linecap="round" stroke-linejoin="round"/>
<path d="M73.0658 31.1833L75.6408 29.5024" stroke="#585D68" stroke-width="2" stroke-linecap="round" stroke-linejoin="round"/>
<path d="M77.0273 35.9814L80.0374 34.2586" stroke="#585D68" stroke-width="2" stroke-linecap="round" stroke-linejoin="round"/>
<path d="M79.9805 41.9023L83.1166 40.3683" stroke="#585D68" stroke-width="2" stroke-linecap="round" stroke-linejoin="round"/>
<path d="M81.5312 48.8027L84.805 47.4149" stroke="#585D68" stroke-width="2" stroke-linecap="round" stroke-linejoin="round"/>
<path d="M81.5977 55.2432L84.6797 53.9921" stroke="#585D68" stroke-width="2" stroke-linecap="round" stroke-linejoin="round"/>
<path d="M79.9258 62.1504L82.3663 60.7535" stroke="#585D68" stroke-width="2" stroke-linecap="round" stroke-linejoin="round"/>
<path d="M55.043 26.7852C55.043 26.7852 68.8182 29.1519 76.0937 41.5482" stroke="#585D68" stroke-width="2" stroke-linecap="round" stroke-linejoin="round"/>
<path d="M30.0469 66.3984C30.0469 66.3984 35.6462 74.687 43.2154 76.6367" stroke="#585D68" stroke-width="2" stroke-linecap="round" stroke-linejoin="round"/>
<path d="M6.19141 35.6221L15.0158 37.1029" stroke="#585D68" stroke-width="2" stroke-linecap="round" stroke-linejoin="round"/>
<path d="M11.6211 27.1338L15.9528 30.4095" stroke="#585D68" stroke-width="2" stroke-linecap="round" stroke-linejoin="round"/>
<path d="M69.4297 1.73558L67.2546 11.9315" stroke="#585D68" stroke-width="2" stroke-linecap="round" stroke-linejoin="round"/>
<path d="M77.4629 9.2997L72.7704 13.7079" stroke="#585D68" stroke-width="2" stroke-linecap="round" stroke-linejoin="round"/>
<path d="M45.7241 53.3628C47.0842 52.454 48.4137 51.2696 49.9088 50.1445C50.6718 49.5552 51.4743 49.019 52.3107 48.5394C52.7467 48.2924 53.1958 48.0692 53.6559 47.8707L54.0045 47.7199C54.1347 47.6768 54.2597 47.6261 54.3924 47.5868C54.6479 47.4992 54.9081 47.4259 55.1719 47.3673C56.6999 46.986 58.3034 47.0332 59.8063 47.5038C60.4967 47.7419 61.1406 48.0978 61.7094 48.5558C62.2995 49.0309 62.7759 49.6318 63.104 50.3147C63.2642 50.6498 63.3915 50.9997 63.4843 51.3594C63.5561 51.7056 63.6071 52.0558 63.637 52.4082C63.6708 53.0772 63.6137 53.7477 63.4673 54.4013C63.1813 55.6254 62.6959 56.7941 62.0304 57.8606C61.4039 58.8896 60.6773 59.8543 59.8611 60.7405C58.4319 62.2814 56.8179 63.6397 55.0556 64.7848C52.8432 66.2519 50.3967 67.3307 47.8214 67.9748C46.9988 68.097 47.0644 67.9327 47.6136 67.4342C48.4966 66.6763 49.4556 66.0116 50.4751 65.4507C51.0397 65.1392 51.5916 64.8088 52.1296 64.4657C52.6676 64.1226 53.2145 63.801 53.7385 63.4454C54.7849 62.7509 55.7735 61.9731 56.6945 61.1193C57.6054 60.2775 58.4378 59.3545 59.1811 58.3616C59.9119 57.393 60.5163 56.3354 60.9799 55.2141C61.2326 54.5786 61.3734 53.9042 61.396 53.2207C61.43 52.6027 61.2985 51.9868 61.0149 51.4367C60.4717 50.4351 59.2149 49.8993 57.8676 49.8187C57.1201 49.7696 56.3698 49.8551 55.6525 50.0713C55.4756 50.1182 55.3114 50.2006 55.1333 50.2538C54.9552 50.3071 54.7695 50.4147 54.5864 50.4933C54.217 50.6692 53.857 50.8641 53.5077 51.0771C52.048 52.0265 50.6583 53.0797 49.3495 54.2284C48.4683 54.9658 47.5445 55.6509 46.5829 56.28C46.076 56.5998 45.5519 56.8915 45.0129 57.1537C44.401 57.4373 43.7417 57.6048 43.0685 57.6474C41.9354 57.7519 40.8135 57.3535 40.0002 56.5576C39.2519 55.7669 38.8422 54.7153 38.8583 53.6269C38.8588 53.1537 38.8989 52.6815 38.9781 52.2151C39.0541 51.7689 39.154 51.3271 39.2774 50.8916C39.3995 50.463 39.5437 50.041 39.7095 49.6273C39.7902 49.42 39.8683 49.2089 39.9578 49.0066L40.2403 48.4123C41.4057 45.9379 43.117 43.7601 45.2455 42.0425C45.7174 41.6584 46.2134 41.305 46.7305 40.9844C47.1533 40.7487 47.5908 40.5406 48.0404 40.3612C48.3486 40.2576 48.6658 40.1832 48.988 40.139C49.4397 40.0605 49.9024 40.1937 50.2433 40.5003C50.3949 40.6178 50.5335 40.7511 50.657 40.8979C50.819 41.1404 50.7169 41.4388 50.4342 41.7373C50.2633 41.9082 50.0745 42.0601 49.871 42.1904C49.6249 42.3843 49.3639 42.5587 49.0906 42.7119C48.2037 43.2571 47.3688 43.8829 46.5967 44.5812C45.8283 45.3016 45.1219 46.0853 44.4849 46.924C43.8663 47.7757 43.3303 48.6844 42.8842 49.6378C42.4351 50.5473 42.1195 51.5168 41.947 52.5164C41.9093 52.6896 41.9146 52.8615 41.8895 53.0372L41.8645 53.295L41.8609 53.4947C41.8497 53.7106 41.8755 53.9269 41.9374 54.1341C41.9672 54.261 42.0302 54.3778 42.1198 54.4726C42.197 54.563 42.2997 54.628 42.4144 54.6593C42.5939 54.7097 42.7813 54.7258 42.9668 54.7067C43.219 54.6762 43.4652 54.6078 43.697 54.5037C43.8609 54.4346 44.0203 54.3555 44.1744 54.2669C44.345 54.1858 44.5129 54.0845 44.6809 53.9832C45.0219 53.7882 45.3439 53.5402 45.6849 53.3123L45.7241 53.3628Z" fill="#585D68"/>
<path d="M49.249 56.6405C48.1489 55.4079 47.0068 54.2034 45.8554 53.01C45.4362 52.5729 44.9625 52.1867 44.5394 51.7521C43.0687 50.2049 41.5637 48.6808 39.9912 47.2211C39.2896 46.5849 38.5835 45.942 37.819 45.377C37.3437 44.9967 36.8445 44.6469 36.3638 44.275C35.8831 43.9032 35.42 43.5245 34.9892 43.095C34.7199 42.8243 35 42.5402 35.5227 42.4041C36.2102 42.2331 36.9087 42.315 37.4724 42.6327C38.5803 43.2979 39.6392 44.0055 40.6482 44.7707C41.6413 45.5602 42.5653 46.4231 43.4131 47.3528C43.9373 47.9101 44.4971 48.4357 45.0898 48.9271C45.6706 49.4404 46.2705 49.941 46.836 50.4646C47.4328 51.0351 48.0619 51.6373 48.6531 52.2406L50.4234 54.0625L52.5528 56.3472C53.0919 56.9223 53.6256 57.5059 54.1441 58.0997C54.6625 58.6935 55.1978 59.2712 55.7255 59.8539C56.1431 60.297 56.5921 60.7288 57.0123 61.1508C57.4583 61.5705 57.8785 62.0143 58.2714 62.4807C58.4214 62.7051 58.6128 62.8923 58.7688 63.1175C58.9884 63.4189 59.1264 63.7725 59.1723 64.1516C59.185 64.4023 59.0934 64.6599 58.917 64.8699C58.8425 64.978 58.7602 65.0816 58.6707 65.1799C58.3709 65.4675 57.8421 65.3216 57.265 64.8882C55.4996 63.6446 54.1215 61.9629 52.6032 60.3361C51.4936 59.139 50.3756 57.8796 49.2099 56.6812L49.249 56.6405Z" fill="#585D68"/>
<path d="M50.329 46.0057C51.2536 47.3181 52.2157 48.6071 53.2152 49.8728C53.5741 50.3358 54.0081 50.7387 54.3707 51.1992C55.0092 52.0149 55.681 52.7984 56.3354 53.6133C56.9898 54.4282 57.6418 55.215 58.3509 55.9884C58.9732 56.6664 59.6342 57.31 60.3315 57.9167C60.7647 58.3102 61.2404 58.6605 61.6812 59.049C62.1205 59.4426 62.5331 59.8626 62.9172 60.3068C63.151 60.591 62.8725 60.8316 62.3732 60.9475C61.7065 61.0788 61.0362 60.9736 60.4897 60.652C58.486 59.1763 56.6912 57.464 55.1414 55.5495C54.6661 54.9862 54.1862 54.4159 53.666 53.8677C53.1459 53.3194 52.6394 52.7669 52.1519 52.2018C51.0817 50.9372 50.0646 49.6371 49.0665 48.3243C48.7511 47.9262 48.46 47.507 48.1598 47.0989C47.8596 46.6907 47.5487 46.2995 47.2675 45.8787C46.3881 44.6202 45.5573 43.3193 44.7067 42.0465C44.3775 41.5538 44.0505 41.0645 43.7213 40.5718C43.392 40.0791 43.0673 39.5932 42.7715 39.0683C42.6274 38.8528 42.5024 38.6245 42.3826 38.3878C41.9729 37.4787 41.992 37.1046 42.3266 36.7424C42.3999 36.6556 42.4787 36.5732 42.5626 36.4956C42.8587 36.2977 43.2658 36.5206 43.6545 37.0776C44.2511 37.8965 44.8926 38.7249 45.5417 39.5484C45.8511 39.9702 46.209 40.3744 46.5328 40.8015L46.9901 41.4858L47.4854 42.1447C48.4181 43.4418 49.4358 44.7019 50.3853 46.0077L50.329 46.0057Z" fill="#585D68"/>
</svg>
