<svg width="158" height="157" viewBox="0 0 158 157" fill="none" xmlns="http://www.w3.org/2000/svg">
<path d="M94.8594 47.6597C113.341 57.9491 117.659 75.2294 109.862 89.234C102.065 103.239 85.6998 108.995 67.7026 98.9758" stroke="#585D68" stroke-width="2" stroke-linecap="round" stroke-linejoin="round"/>
<path d="M60.8414 95.1246L50.5145 102.532L43.3095 108.023L25.1527 91.6146L27.2267 89.3196L40.8794 94.309L54.3134 79.444" fill="white"/>
<path d="M60.8414 95.1246L50.5145 102.532L43.3095 108.023L25.1527 91.6146L27.2267 89.3196L40.8794 94.309L54.3134 79.444" stroke="#585D68" stroke-width="2" stroke-linecap="round" stroke-linejoin="round"/>
<path d="M46.5977 87.9795L54.6548 99.5566" stroke="#585D68" stroke-width="2" stroke-linecap="round" stroke-linejoin="round"/>
<path d="M43.7852 91.0923L51.5061 101.818" stroke="#585D68" stroke-width="2" stroke-linecap="round" stroke-linejoin="round"/>
<path d="M38.5117 93.4443L38.4679 97.8267" stroke="#585D68" stroke-width="2" stroke-linecap="round" stroke-linejoin="round"/>
<path d="M36.1836 92.634L36.1397 97.0164" stroke="#585D68" stroke-width="2" stroke-linecap="round" stroke-linejoin="round"/>
<path d="M34.1367 92.3542L34.1052 95.558" stroke="#585D68" stroke-width="2" stroke-linecap="round" stroke-linejoin="round"/>
<path d="M90.1347 98.957L84.355 118.972L95.7911 127.966L94.9243 130.968L71.3821 124.169L72.2616 115.155L73.1977 101.692C73.1977 101.692 80.1193 103.26 90.1347 98.957Z" fill="white" stroke="#585D68" stroke-width="2" stroke-linecap="round" stroke-linejoin="round"/>
<path d="M86.7206 110.778L72.641 110.037" stroke="#585D68" stroke-width="2" stroke-linecap="round" stroke-linejoin="round"/>
<path d="M85.5576 114.807L72.3808 113.896" stroke="#585D68" stroke-width="2" stroke-linecap="round" stroke-linejoin="round"/>
<path d="M88.0222 122.047L84.3181 124.4" stroke="#585D68" stroke-width="2" stroke-linecap="round" stroke-linejoin="round"/>
<path d="M89.9285 123.606L86.2265 125.952" stroke="#585D68" stroke-width="2" stroke-linecap="round" stroke-linejoin="round"/>
<path d="M91.7288 125.037L89.02 126.759" stroke="#585D68" stroke-width="2" stroke-linecap="round" stroke-linejoin="round"/>
<path d="M66.6259 98.3756C81.0358 106.398 99.0373 101.55 106.833 87.5472C114.629 73.5443 109.267 55.6891 94.8572 47.6666C80.4473 39.6442 62.4458 44.4922 54.65 58.4951C46.8541 72.498 52.2159 90.3532 66.6259 98.3756Z" fill="white" stroke="#585D68" stroke-width="2" stroke-linecap="round" stroke-linejoin="round"/>
<path d="M109.047 64.564L112.318 65.955" stroke="#585D68" stroke-width="2" stroke-linecap="round" stroke-linejoin="round"/>
<path d="M110.353 70.5791L113.321 71.8242" stroke="#585D68" stroke-width="2" stroke-linecap="round" stroke-linejoin="round"/>
<path d="M110.305 77.0601L113.2 78.0962" stroke="#585D68" stroke-width="2" stroke-linecap="round" stroke-linejoin="round"/>
<path d="M108.875 83.1145L112.067 84.4719" stroke="#585D68" stroke-width="2" stroke-linecap="round" stroke-linejoin="round"/>
<path d="M105.941 89.0483L109.059 90.6203" stroke="#585D68" stroke-width="2" stroke-linecap="round" stroke-linejoin="round"/>
<path d="M101.379 94.4504L104.463 96.2204" stroke="#585D68" stroke-width="2" stroke-linecap="round" stroke-linejoin="round"/>
<path d="M96.2891 98.3982L99.1482 100.098" stroke="#585D68" stroke-width="2" stroke-linecap="round" stroke-linejoin="round"/>
<path d="M89.7773 101.239L92.3651 102.34" stroke="#585D68" stroke-width="2" stroke-linecap="round" stroke-linejoin="round"/>
<path d="M102.918 60.0403C102.918 60.0403 109.356 72.4465 103.874 85.7339" stroke="#585D68" stroke-width="2" stroke-linecap="round" stroke-linejoin="round"/>
<path d="M56.25 64.062C56.25 64.062 53.0289 73.5318 56.049 80.7411" stroke="#585D68" stroke-width="2" stroke-linecap="round" stroke-linejoin="round"/>
<path d="M66.3594 26.4563L70.5115 34.3824" stroke="#585D68" stroke-width="2" stroke-linecap="round" stroke-linejoin="round"/>
<path d="M76.4023 25.655L76.4096 31.0858" stroke="#585D68" stroke-width="2" stroke-linecap="round" stroke-linejoin="round"/>
<path d="M131.57 56.3695L122.131 60.7971" stroke="#585D68" stroke-width="2" stroke-linecap="round" stroke-linejoin="round"/>
<path d="M130.397 67.3412L124.049 66.2658" stroke="#585D68" stroke-width="2" stroke-linecap="round" stroke-linejoin="round"/>
<path d="M76.1089 68.6788C77.6549 69.2134 79.4019 69.5571 81.2018 70.0685C82.1324 70.3205 83.0446 70.6359 83.9321 71.0126C84.3924 71.2107 84.8416 71.4336 85.2777 71.6803L85.6085 71.867C85.7215 71.9447 85.8375 72.0137 85.949 72.0956C86.1732 72.2463 86.3888 72.4094 86.5948 72.5841C87.822 73.5712 88.7533 74.8774 89.2863 76.3593C89.5138 77.0533 89.6193 77.7814 89.5981 78.5113C89.5761 79.2686 89.3852 80.0114 89.0393 80.6854C88.869 81.0155 88.6672 81.3284 88.4366 81.6196C88.2041 81.886 87.9559 82.1383 87.6933 82.3751C87.1806 82.8062 86.6118 83.1658 86.0026 83.4442C84.8544 83.9559 83.6298 84.2753 82.378 84.3894C81.1794 84.512 79.9717 84.5159 78.7724 84.4011C76.6811 84.1933 74.6235 83.728 72.6463 83.0157C70.1405 82.1394 67.8026 80.8419 65.7333 79.179C65.1389 78.5975 65.3094 78.5504 66.0385 78.6867C67.1759 78.9325 68.285 79.2949 69.348 79.7684C69.9373 80.03 70.5341 80.2701 71.1325 80.4915C71.731 80.7129 72.3176 80.9543 72.9177 81.157C74.1033 81.5711 75.3204 81.8888 76.5572 82.1068C77.7784 82.324 79.0168 82.4295 80.2571 82.4219C81.4704 82.4189 82.6784 82.2614 83.8519 81.9533C84.511 81.7707 85.1334 81.4753 85.6917 81.0803C86.2047 80.7341 86.6159 80.2571 86.883 79.6987C87.3528 78.6607 87.0203 77.3356 86.2705 76.2133C85.8579 75.588 85.3364 75.0419 84.7307 74.6009C84.5865 74.4884 84.4216 74.4073 84.2716 74.2975C84.1215 74.1878 83.9235 74.1049 83.7503 74.0064C83.3869 73.8184 83.0141 73.6493 82.6334 73.4997C80.9948 72.9102 79.316 72.4393 77.6099 72.0906C76.4898 71.834 75.3857 71.5118 74.3034 71.1257C73.7423 70.915 73.1932 70.6737 72.6586 70.4027C72.0629 70.0865 71.5311 69.6623 71.0904 69.1517C70.3224 68.312 69.962 67.1773 70.1047 66.0483C70.2826 64.9744 70.873 64.0125 71.75 63.3676C72.1273 63.0822 72.5278 62.8287 72.9473 62.61C73.3487 62.401 73.7611 62.2137 74.1827 62.0488C74.598 61.8871 75.0214 61.7471 75.4512 61.6292C75.6651 61.5682 75.8805 61.5029 76.0958 61.452L76.74 61.3179C79.4158 60.7515 82.1851 60.7991 84.8398 61.4572C85.431 61.6012 86.0123 61.7828 86.5803 62.0012C87.0235 62.1957 87.4537 62.4185 87.8683 62.6683C88.137 62.8513 88.388 63.0592 88.6179 63.2891C88.9534 63.6016 89.1268 64.0508 89.0885 64.5077C89.0865 64.6995 89.064 64.8905 89.0216 65.0776C88.9263 65.3532 88.6269 65.4522 88.2182 65.4073C87.9788 65.3744 87.7437 65.3157 87.5169 65.2323C87.2137 65.1533 86.917 65.0508 86.6298 64.9255C85.6594 64.5483 84.6564 64.2612 83.6334 64.0679C82.5952 63.8909 81.5439 63.8016 80.4907 63.8008C79.4382 63.8226 78.3903 63.9445 77.361 64.1651C76.365 64.3569 75.4018 64.6912 74.5011 65.1578C74.3403 65.2324 74.2065 65.3404 74.0514 65.4265L73.8308 65.5624L73.6696 65.6802C73.4907 65.8018 73.334 65.9531 73.2063 66.1275C73.1232 66.228 73.0682 66.3487 73.0468 66.4774C73.0215 66.5936 73.0317 66.7147 73.0761 66.825C73.1443 66.9985 73.2447 67.1575 73.372 67.2937C73.5487 67.4763 73.752 67.6311 73.975 67.7529C74.1291 67.8418 74.2884 67.921 74.4522 67.9903C74.6199 68.0771 74.802 68.1498 74.9842 68.2224C75.3457 68.3763 75.7379 68.483 76.1255 68.617L76.1089 68.6788Z" fill="#585D68"/>
<path d="M75.6254 73.468C75.9428 71.8467 76.2124 70.2088 76.4677 68.5703C76.5626 67.9721 76.5841 67.3613 76.6748 66.7616C77.0189 64.6549 77.324 62.5347 77.5369 60.3997C77.6199 59.4563 77.7055 58.5053 77.6937 57.5546C77.7096 56.9461 77.6867 56.337 77.6926 55.7293C77.6984 55.1216 77.7203 54.5238 77.8022 53.9211C77.8552 53.5428 78.2508 53.5944 78.6751 53.9287C79.2268 54.3731 79.5836 54.9792 79.671 55.6204C79.8104 56.9051 79.8864 58.1764 79.8864 59.4427C79.8573 60.7111 79.7281 61.9686 79.4996 63.206C79.3723 63.9604 79.2917 64.7239 79.2583 65.4932C79.2002 66.2662 79.1638 67.0466 79.0883 67.8136C78.9944 68.6339 78.8947 69.499 78.7711 70.3346L78.3892 72.8461L77.8553 75.9232C77.7228 76.7003 77.5803 77.4782 77.4205 78.2501C77.2606 79.022 77.1237 79.7976 76.9782 80.5702C76.8776 81.1707 76.8047 81.7893 76.7224 82.3791C76.6575 82.9881 76.5577 83.5911 76.4235 84.1859C76.3353 84.4411 76.3018 84.7066 76.2167 84.9671C76.1092 85.3241 75.9108 85.6477 75.6365 85.9134C75.4444 86.075 75.1839 86.1577 74.9099 86.144C74.7787 86.15 74.6464 86.147 74.5141 86.1351C74.1038 86.0699 73.9005 85.5605 73.8971 84.8388C73.8213 82.6807 74.3286 80.5665 74.7074 78.3737C74.9908 76.7662 75.3188 75.1144 75.5693 73.4614L75.6254 73.468Z" fill="#585D68"/>
<path d="M84.753 67.9024C84.2659 69.4321 83.8201 70.9776 83.4156 72.5388C83.2635 73.1045 83.2047 73.6938 83.0569 74.261C82.7927 75.2625 82.5744 76.2713 82.3205 77.2851C82.0666 78.2989 81.8337 79.2939 81.6458 80.3262C81.4816 81.2317 81.3682 82.1473 81.3061 83.0695C81.2543 83.6525 81.2626 84.2432 81.2194 84.8291C81.1712 85.417 81.0859 85.9995 80.964 86.574C80.8788 86.932 80.5188 86.8555 80.1248 86.5276C79.6173 86.0758 79.2961 85.4781 79.2222 84.8483C79.1873 82.3602 79.4672 79.8954 80.0562 77.5037C80.2179 76.7845 80.3823 76.0576 80.5048 75.3118C80.6274 74.5661 80.7616 73.8287 80.9173 73.0988C81.2783 71.4819 81.6997 69.8859 82.1427 68.2974C82.2692 67.8056 82.4274 67.3203 82.5712 66.8345C82.715 66.3486 82.8389 65.8646 83.0043 65.3862C83.4757 63.9251 84.0102 62.4771 84.5105 61.0302C84.7041 60.4702 84.8964 59.914 85.0901 59.354C85.2837 58.7939 85.4747 58.2416 85.7142 57.6887C85.7989 57.4437 85.9052 57.2061 86.0215 56.9677C86.4982 56.0919 86.8079 55.8811 87.2987 55.9288C87.4121 55.9348 87.5254 55.9478 87.6379 55.9678C87.9745 56.0842 88.0429 56.5432 87.8339 57.1894C87.542 58.1596 87.2694 59.1714 87.0055 60.1861C86.8563 60.6875 86.7506 61.217 86.6059 61.733L86.337 62.5109L86.1112 63.3037C85.6412 64.8306 85.2521 66.4029 84.7854 67.9484L84.753 67.9024Z" fill="#585D68"/>
</svg>
