<svg width="70" height="92" viewBox="0 0 70 92" fill="none" xmlns="http://www.w3.org/2000/svg">
<path d="M30.5982 44.3155C30.5982 44.3155 19.0032 57.7932 18.7572 65.8576C18.5112 73.9219 24.8075 78.3754 39.6626 72.814C54.5178 67.2526 61.9722 61.0601 61.6664 53.8911C61.3606 46.7221 43.0088 41.2627 41.4666 40.0327" stroke="black" stroke-width="1.42857" stroke-linecap="round" stroke-linejoin="round"/>
<path d="M41.9157 39.7848C41.9157 39.7848 48.7257 32.8569 38.9736 32.6874C29.2216 32.5179 21.7672 39.9161 23.0619 43.9683C23.9499 46.7348 27.5643 45.6032 27.5643 45.6032" stroke="black" stroke-width="1.42857" stroke-linecap="round" stroke-linejoin="round"/>
<path d="M24.9191 32.375C24.9191 32.375 26.3825 33.3844 26.9439 31.4193C27.5053 29.4542 23.0615 24.6073 27.8757 22.3349C32.6899 20.0626 38.0875 19.5838 38.1957 22.1606C38.304 24.7374 37.819 26.3725 39.7007 25.5535C41.5823 24.7345 43.0379 26.6005 42.2062 28.7681C41.7443 30.0208 41.0774 31.2194 40.2318 32.3164" stroke="black" stroke-width="1.42857" stroke-linecap="round" stroke-linejoin="round"/>
<path d="M24.9058 37.6258C24.9058 37.6258 18.9224 34.5436 20.4434 32.4297C21.9644 30.3157 27.1496 28.9273 27.1496 28.9273" stroke="black" stroke-width="1.42857" stroke-linecap="round" stroke-linejoin="round"/>
<path d="M26.3331 43.1261C26.3331 43.1261 25.5629 40.3114 30.9028 37.4731C38.1704 33.6183 40.3086 36.3825 40.746 37.6083" stroke="black" stroke-width="1.42857" stroke-linecap="round" stroke-linejoin="round"/>
<path d="M36.2714 53.1537L30.4051 57.0547L32.969 49.5684L34.697 45.0348L36.2714 53.1537Z" fill="#FF5E8D" stroke="black" stroke-width="1.42857" stroke-linecap="round" stroke-linejoin="round"/>
<path d="M39.6194 63.2807L45.2101 57.8487L42.3799 65.9579L41.2804 68.9833L39.6194 63.2807Z" fill="#FF5E8D" stroke="black" stroke-width="1.42857" stroke-linecap="round" stroke-linejoin="round"/>
<path d="M39.6411 63.1101L41.6874 68.7754L34.988 64.1974L32.5117 62.4556L39.6411 63.1101Z" fill="#274AF2" stroke="black" stroke-width="1.42857" stroke-linecap="round" stroke-linejoin="round"/>
<path d="M35.9674 53.5425L34.5121 45.8559L40.6373 50.1068L43.1758 52.6705L35.9674 53.5425Z" fill="#274AF2" stroke="black" stroke-width="1.42857" stroke-linecap="round" stroke-linejoin="round"/>
<path d="M38.2914 58.6007L30.791 57.43L36.473 53.686L43.3706 52.8571L38.2914 58.6007Z" fill="#FED55C" stroke="black" stroke-width="1.42857" stroke-linecap="round" stroke-linejoin="round"/>
<path d="M31.8086 62.4089L39.5946 63.2336L45.5438 57.2169L41.3842 68.701L31.8086 62.4089Z" stroke="black" stroke-width="1.42857" stroke-linecap="round" stroke-linejoin="round"/>
<path d="M39.6278 63.1599L41.6345 68.9834" stroke="black" stroke-width="1.42857" stroke-linecap="round" stroke-linejoin="round"/>
<path d="M30.3936 57.2782L34.6712 45.2953L43.338 52.5283L38.1115 58.4942L30.3936 57.2782Z" stroke="black" stroke-width="1.42857" stroke-linecap="round" stroke-linejoin="round"/>
<path d="M43.1746 52.7865L36.3813 53.5862L30.7853 57.1986" stroke="black" stroke-width="1.42857" stroke-linecap="round" stroke-linejoin="round"/>
<path d="M36.1178 53.4548L34.4344 45.0348" stroke="black" stroke-width="1.42857" stroke-linecap="round" stroke-linejoin="round"/>
<path d="M7.6104 29.1239C7.6104 29.1239 7.82712 37.0669 11.1202 35.43C14.4133 33.7931 10.4926 30.0867 5.67613 33.4742" stroke="black" stroke-width="1.42857" stroke-linecap="round" stroke-linejoin="round"/>
<path d="M52.8747 25.9774C52.8747 25.9774 45.1247 23.9192 45.257 27.2251C45.3391 29.334 50.5111 28.2246 49.8059 23.0609" stroke="black" stroke-width="1.42857" stroke-linecap="round" stroke-linejoin="round"/>
</svg>
