<svg width="105" height="109" viewBox="0 0 105 109" fill="none" xmlns="http://www.w3.org/2000/svg">
<path d="M24.2323 76.2567C24.2323 76.2567 17.3123 78.5567 16.4023 90.1367C19.1509 90.2307 21.8747 89.5887 24.292 88.2767C26.7093 86.9654 28.7325 85.032 30.1523 82.6767" fill="#FED55C"/>
<path d="M24.2323 76.2567C24.2323 76.2567 17.3123 78.5567 16.4023 90.1367C19.1509 90.2307 21.8747 89.5887 24.292 88.2767C26.7093 86.9654 28.7325 85.032 30.1523 82.6767" stroke="black" stroke-width="2" stroke-linecap="round" stroke-linejoin="round"/>
<path d="M27.6506 68.8296L26.1406 71.1996L34.7206 80.5296L37.2706 79.5396" fill="white"/>
<path d="M27.6506 68.8296L26.1406 71.1996L34.7206 80.5296L37.2706 79.5396" stroke="black" stroke-width="2" stroke-linecap="round" stroke-linejoin="round"/>
<path d="M46.8984 77.9897C46.8984 77.9897 56.5284 87.6697 56.1084 107.5C56.1084 107.5 78.1084 94.2597 68.8084 63.9197" fill="#EC5F32"/>
<path d="M46.8984 77.9897C46.8984 77.9897 56.5284 87.6697 56.1084 107.5C56.1084 107.5 78.1084 94.2597 68.8084 63.9197" stroke="black" stroke-width="2" stroke-linecap="round" stroke-linejoin="round"/>
<path d="M29.29 60.3298C29.29 60.3298 20.14 50.1598 1 50.1798C1 50.1798 14.26 27.7298 43.37 37.9598" fill="#EC5F32"/>
<path d="M29.29 60.3298C29.29 60.3298 20.14 50.1598 1 50.1798C1 50.1798 14.26 27.7298 43.37 37.9598" stroke="black" stroke-width="2" stroke-linecap="round" stroke-linejoin="round"/>
<path d="M38.4719 80.8697C38.4719 80.8697 53.1019 82.4597 77.4719 57.1197C106.262 27.1197 106.172 5.81972 99.1819 2.28972C92.1919 -1.24028 78.8719 1.37972 54.5219 24.1297C29.2519 47.7197 26.1719 67.1297 26.1719 67.1297L38.4719 80.8697Z" fill="white" stroke="black" stroke-width="2" stroke-linecap="round" stroke-linejoin="round"/>
<path d="M73.2602 42.6897C78.4241 42.6897 82.6102 38.3603 82.6102 33.0197C82.6102 27.6791 78.4241 23.3497 73.2602 23.3497C68.0963 23.3497 63.9102 27.6791 63.9102 33.0197C63.9102 38.3603 68.0963 42.6897 73.2602 42.6897Z" fill="#513AFD"/>
<path d="M73.2619 45.7898C80.0771 45.7898 85.6019 40.0725 85.6019 33.0198C85.6019 25.9671 80.0771 20.2498 73.2619 20.2498C66.4467 20.2498 60.9219 25.9671 60.9219 33.0198C60.9219 40.0725 66.4467 45.7898 73.2619 45.7898Z" stroke="black" stroke-width="2" stroke-linecap="round" stroke-linejoin="round"/>
<path d="M26.7891 79.4298C26.7891 79.4298 41.8891 50.5298 55.9991 46.6298L58.5091 49.0398C58.5091 49.0398 51.6191 68.0898 26.7891 79.4298Z" fill="#EC5F32" stroke="black" stroke-width="2" stroke-linecap="round" stroke-linejoin="round"/>
<path d="M76.8906 6.80969L97.9006 28.1497" stroke="black" stroke-width="2" stroke-linecap="round" stroke-linejoin="round"/>
<path d="M73.5781 8.71973L96.4481 32.1797" stroke="black" stroke-width="2" stroke-linecap="round" stroke-linejoin="round"/>
<path d="M73.2589 41.6897C77.887 41.6897 81.6389 37.808 81.6389 33.0197C81.6389 28.2314 77.887 24.3497 73.2589 24.3497C68.6308 24.3497 64.8789 28.2314 64.8789 33.0197C64.8789 37.808 68.6308 41.6897 73.2589 41.6897Z" stroke="black" stroke-width="2" stroke-linecap="round" stroke-linejoin="round"/>
<path d="M28.4684 94.1501L13.8984 107.16" stroke="black" stroke-width="2" stroke-linecap="round" stroke-linejoin="round"/>
<path d="M40.29 89.2598L26 102.27" stroke="black" stroke-width="2" stroke-linecap="round" stroke-linejoin="round"/>
<path d="M48.9736 6.57629L34.6836 19.5863" stroke="black" stroke-width="2" stroke-linecap="round" stroke-linejoin="round"/>
<path d="M48.7744 13.7771L34.4844 26.7871" stroke="black" stroke-width="2" stroke-linecap="round" stroke-linejoin="round"/>
</svg>
