<svg width="318" height="418" viewBox="0 0 318 418" fill="none" xmlns="http://www.w3.org/2000/svg">
<path d="M200.083 125.63C203.673 125.63 207.543 125.09 211.643 124.86C213.754 124.715 215.872 124.715 217.983 124.86C219.08 124.941 220.171 125.081 221.253 125.28L222.073 125.43C222.363 125.51 222.653 125.57 222.943 125.66C223.516 125.812 224.08 125.995 224.633 126.21C227.886 127.377 230.754 129.419 232.923 132.11C233.892 133.386 234.633 134.821 235.113 136.35C235.61 137.936 235.747 139.614 235.513 141.26C235.396 142.067 235.202 142.86 234.933 143.63C234.642 144.349 234.308 145.05 233.933 145.73C233.179 146.992 232.257 148.146 231.193 149.16C229.178 151.045 226.867 152.585 224.353 153.72C221.955 154.834 219.453 155.708 216.883 156.33C212.396 157.399 207.795 157.909 203.183 157.85C197.357 157.829 191.577 156.815 186.093 154.85C184.443 154.07 184.763 153.85 186.373 153.61C188.908 153.304 191.468 153.26 194.013 153.48C195.423 153.6 196.833 153.67 198.233 153.7C199.633 153.73 201.023 153.81 202.413 153.8C205.169 153.809 207.921 153.595 210.643 153.16C213.331 152.735 215.976 152.065 218.543 151.16C221.057 150.284 223.45 149.091 225.663 147.61C226.899 146.759 227.978 145.7 228.853 144.48C229.668 143.394 230.179 142.11 230.333 140.76C230.563 138.27 228.923 135.76 226.563 133.97C225.259 132.969 223.785 132.21 222.213 131.73C221.833 131.6 221.433 131.55 221.043 131.43C220.653 131.31 220.183 131.28 219.753 131.2C218.864 131.071 217.97 130.987 217.073 130.95C213.251 130.902 209.432 131.13 205.643 131.63C203.136 131.901 200.615 132.025 198.093 132C196.778 131.965 195.466 131.859 194.163 131.68C192.7 131.451 191.293 130.953 190.013 130.21C187.818 129.019 186.256 126.924 185.743 124.48C185.342 122.125 185.876 119.706 187.233 117.74C187.811 116.877 188.46 116.064 189.173 115.31C189.856 114.588 190.577 113.904 191.333 113.26C192.078 112.627 192.856 112.033 193.663 111.48C194.063 111.2 194.463 110.91 194.873 110.65L196.113 109.91C201.256 106.816 207.035 104.929 213.013 104.39C214.342 104.264 215.678 104.224 217.013 104.27C218.072 104.355 219.124 104.509 220.163 104.73C220.851 104.917 221.521 105.168 222.163 105.48C223.083 105.887 223.765 106.695 224.013 107.67C224.146 108.069 224.237 108.481 224.283 108.9C224.283 109.54 223.733 109.96 222.853 110.16C222.333 110.263 221.803 110.31 221.273 110.3C220.587 110.354 219.898 110.354 219.213 110.3C216.93 110.213 214.643 110.337 212.383 110.67C210.102 111.047 207.858 111.616 205.673 112.37C203.506 113.17 201.419 114.174 199.443 115.37C197.514 116.482 195.756 117.866 194.223 119.48C193.943 119.75 193.743 120.07 193.483 120.36L193.123 120.8L192.873 121.16C192.589 121.54 192.373 121.966 192.233 122.42C192.132 122.688 192.105 122.978 192.153 123.26C192.184 123.519 192.292 123.763 192.463 123.96C192.729 124.271 193.051 124.529 193.413 124.72C193.91 124.972 194.443 125.147 194.993 125.24C195.376 125.314 195.763 125.364 196.153 125.39C196.563 125.45 196.993 125.47 197.423 125.49C198.283 125.55 199.173 125.49 200.073 125.49L200.083 125.63Z" fill="#585D68"/>
<path d="M202.475 141.37C201.975 137.31 201.365 133.25 200.725 129.2C200.495 127.72 200.105 126.27 199.865 124.79C199.075 119.57 198.195 114.35 197.115 109.17C196.615 106.89 196.115 104.59 195.415 102.37C195.015 100.93 194.535 99.52 194.115 98.09C193.695 96.66 193.315 95.24 193.055 93.76C192.895 92.83 193.745 92.63 194.855 93.07C196.305 93.665 197.469 94.7971 198.105 96.23C199.305 99.13 200.365 102.05 201.265 105.02C202.107 108.018 202.735 111.073 203.145 114.16C203.419 116.033 203.796 117.889 204.275 119.72C204.705 121.58 205.185 123.44 205.575 125.3C205.965 127.3 206.375 129.41 206.715 131.47L207.715 137.67L208.805 145.32C209.085 147.25 209.345 149.19 209.565 151.13C209.785 153.07 210.055 155 210.305 156.93C210.525 158.42 210.815 159.93 211.065 161.38C211.364 162.861 211.588 164.356 211.735 165.86C211.735 166.53 211.855 167.18 211.865 167.86C211.897 168.785 211.72 169.704 211.345 170.55C211.064 171.085 210.588 171.49 210.015 171.68C209.749 171.8 209.475 171.901 209.195 171.98C208.305 172.16 207.525 171.13 207.005 169.44C205.315 164.44 204.855 159.07 204.075 153.62C203.515 149.62 203.015 145.48 202.355 141.4L202.475 141.37Z" fill="#585D68"/>
<path d="M217.432 120.7C217.518 124.6 217.702 128.503 217.982 132.41C218.072 133.83 218.372 135.23 218.472 136.65C218.642 139.16 218.912 141.65 219.112 144.18C219.312 146.71 219.542 149.18 219.892 151.7C220.2 153.91 220.62 156.103 221.152 158.27C221.462 159.65 221.902 161 222.232 162.38C222.552 163.768 222.793 165.174 222.952 166.59C223.032 167.48 222.232 167.59 221.182 167.15C219.808 166.515 218.715 165.398 218.112 164.01C216.259 158.323 215.074 152.441 214.582 146.48C214.402 144.7 214.222 142.9 213.942 141.09C213.662 139.28 213.412 137.48 213.212 135.68C212.802 131.68 212.532 127.68 212.312 123.68C212.222 122.45 212.202 121.21 212.152 119.98C212.102 118.75 212.012 117.54 212.012 116.31C211.942 112.58 212.012 108.83 212.012 105.11C212.012 103.67 212.012 102.24 212.012 100.8C212.012 99.36 212.012 97.94 212.112 96.48C212.112 95.85 212.162 95.22 212.232 94.58C212.592 92.19 213.082 91.46 214.132 91.18C214.371 91.1035 214.614 91.0434 214.862 91C215.642 91 216.112 92 216.142 93.65C216.232 96.11 216.392 98.65 216.572 101.19C216.622 102.46 216.782 103.76 216.852 105.06V107.06L216.952 109.06C217.072 112.94 217.392 116.86 217.532 120.78L217.432 120.7Z" fill="#585D68"/>
<path d="M114.083 172.63C117.673 172.63 121.543 172.09 125.643 171.86C127.754 171.715 129.872 171.715 131.983 171.86C133.08 171.941 134.171 172.081 135.253 172.28L136.073 172.43C136.363 172.51 136.653 172.57 136.943 172.66C137.516 172.812 138.08 172.995 138.633 173.21C141.886 174.377 144.754 176.419 146.923 179.11C147.892 180.386 148.633 181.821 149.113 183.35C149.61 184.936 149.747 186.614 149.513 188.26C149.396 189.067 149.202 189.86 148.933 190.63C148.642 191.349 148.308 192.05 147.933 192.73C147.179 193.992 146.257 195.146 145.193 196.16C143.178 198.045 140.867 199.585 138.353 200.72C135.955 201.834 133.453 202.708 130.883 203.33C126.396 204.399 121.795 204.909 117.183 204.85C111.357 204.829 105.577 203.815 100.093 201.85C98.4428 201.07 98.7628 200.85 100.373 200.61C102.908 200.304 105.468 200.26 108.013 200.48C109.423 200.6 110.833 200.67 112.233 200.7C113.633 200.73 115.023 200.81 116.413 200.8C119.169 200.809 121.921 200.595 124.643 200.16C127.331 199.735 129.976 199.065 132.543 198.16C135.057 197.284 137.45 196.091 139.663 194.61C140.899 193.759 141.978 192.7 142.853 191.48C143.668 190.394 144.179 189.11 144.333 187.76C144.563 185.27 142.923 182.76 140.563 180.97C139.259 179.969 137.785 179.21 136.213 178.73C135.833 178.6 135.433 178.55 135.043 178.43C134.653 178.31 134.183 178.28 133.753 178.2C132.864 178.071 131.97 177.987 131.073 177.95C127.251 177.902 123.432 178.13 119.643 178.63C117.136 178.901 114.615 179.025 112.093 179C110.778 178.965 109.466 178.859 108.163 178.68C106.7 178.451 105.293 177.953 104.013 177.21C101.818 176.019 100.256 173.924 99.7428 171.48C99.3416 169.125 99.8762 166.706 101.233 164.74C101.811 163.877 102.46 163.064 103.173 162.31C103.856 161.588 104.577 160.904 105.333 160.26C106.078 159.627 106.856 159.033 107.663 158.48C108.063 158.2 108.463 157.91 108.873 157.65L110.113 156.91C115.256 153.816 121.035 151.929 127.013 151.39C128.342 151.264 129.678 151.224 131.013 151.27C132.072 151.355 133.124 151.509 134.163 151.73C134.851 151.917 135.521 152.168 136.163 152.48C137.083 152.887 137.765 153.695 138.013 154.67C138.146 155.069 138.237 155.481 138.283 155.9C138.283 156.54 137.733 156.96 136.853 157.16C136.333 157.263 135.803 157.31 135.273 157.3C134.587 157.354 133.898 157.354 133.213 157.3C130.93 157.213 128.643 157.337 126.383 157.67C124.102 158.047 121.858 158.616 119.673 159.37C117.506 160.17 115.419 161.174 113.443 162.37C111.514 163.482 109.756 164.866 108.223 166.48C107.943 166.75 107.743 167.07 107.483 167.36L107.123 167.8L106.873 168.16C106.589 168.54 106.373 168.966 106.233 169.42C106.132 169.688 106.105 169.978 106.153 170.26C106.184 170.519 106.292 170.763 106.463 170.96C106.729 171.271 107.051 171.529 107.413 171.72C107.91 171.972 108.443 172.147 108.993 172.24C109.376 172.314 109.763 172.364 110.153 172.39C110.563 172.45 110.993 172.47 111.423 172.49C112.283 172.55 113.173 172.49 114.073 172.49L114.083 172.63Z" fill="#585D68"/>
<path d="M116.523 182.912C116.019 179.321 115.403 175.731 114.757 172.149C114.525 170.84 114.132 169.558 113.89 168.249C113.093 163.633 112.205 159.017 111.116 154.436C110.611 152.419 110.107 150.385 109.4 148.422C108.997 147.149 108.513 145.902 108.089 144.637C107.665 143.372 107.282 142.117 107.02 140.808C106.858 139.985 107.716 139.808 108.836 140.198C110.299 140.724 111.473 141.725 112.114 142.992C113.325 145.557 114.394 148.139 115.302 150.766C116.152 153.417 116.786 156.118 117.199 158.849C117.476 160.505 117.856 162.146 118.339 163.766C118.773 165.411 119.257 167.055 119.65 168.7C120.044 170.469 120.458 172.335 120.801 174.157L121.809 179.64L122.909 186.405C123.191 188.112 123.454 189.828 123.676 191.543C123.898 193.259 124.17 194.966 124.422 196.672C124.644 197.99 124.937 199.326 125.189 200.608C125.491 201.918 125.717 203.24 125.865 204.57C125.865 205.162 125.986 205.737 125.996 206.338C126.029 207.156 125.85 207.97 125.472 208.717C125.189 209.19 124.708 209.549 124.13 209.717C123.862 209.823 123.585 209.912 123.302 209.982C122.405 210.141 121.618 209.23 121.093 207.736C119.388 203.314 118.924 198.565 118.137 193.745C117.572 190.208 117.068 186.547 116.402 182.938L116.523 182.912Z" fill="#585D68"/>
<path d="M131.463 164.823C131.55 168.345 131.733 171.87 132.014 175.399C132.104 176.681 132.405 177.945 132.505 179.228C132.675 181.495 132.946 183.744 133.146 186.029C133.347 188.313 133.577 190.544 133.928 192.82C134.237 194.816 134.658 196.796 135.191 198.754C135.501 200 135.942 201.219 136.273 202.465C136.594 203.719 136.835 204.989 136.994 206.268C137.075 207.071 136.273 207.171 135.221 206.773C133.844 206.2 132.749 205.191 132.144 203.938C130.287 198.802 129.1 193.489 128.607 188.106C128.426 186.498 128.246 184.873 127.965 183.238C127.685 181.603 127.434 179.978 127.234 178.352C126.823 174.739 126.552 171.127 126.332 167.514C126.242 166.403 126.222 165.284 126.171 164.173C126.121 163.062 126.031 161.969 126.031 160.858C125.961 157.49 126.031 154.103 126.031 150.743C126.031 149.443 126.031 148.151 126.031 146.851C126.031 145.55 126.031 144.268 126.131 142.949C126.131 142.38 126.181 141.811 126.252 141.233C126.612 139.075 127.103 138.415 128.156 138.163C128.395 138.094 128.64 138.039 128.887 138C129.669 138 130.14 138.903 130.17 140.393C130.26 142.615 130.421 144.909 130.601 147.203C130.651 148.35 130.811 149.524 130.881 150.698V152.504L130.982 154.311C131.102 157.815 131.423 161.355 131.563 164.895L131.463 164.823Z" fill="#585D68"/>
<path d="M108.358 59.444C111.608 57.9197 114.883 55.7875 118.497 53.8384C120.347 52.811 122.265 51.9116 124.237 51.1464C125.265 50.7539 126.312 50.4174 127.376 50.1382L128.182 49.9258C128.479 49.8751 128.767 49.8063 129.068 49.7647C129.651 49.6586 130.24 49.5853 130.831 49.5451C134.272 49.2206 137.736 49.8509 140.842 51.3668C142.262 52.1106 143.542 53.0948 144.625 54.2757C145.749 55.5008 146.585 56.9616 147.072 58.5513C147.309 59.3312 147.471 60.1323 147.553 60.9433C147.595 61.7182 147.591 62.4949 147.54 63.2692C147.393 64.7319 147.048 66.1679 146.515 67.5381C145.492 70.0999 144.054 72.4759 142.259 74.5709C140.561 76.5975 138.666 78.4515 136.604 80.1057C132.995 82.9786 129.046 85.3946 124.845 87.299C119.562 89.7541 113.899 91.2895 108.099 91.8394C106.274 91.8338 106.47 91.4988 107.826 90.5978C109.991 89.2442 112.291 88.1176 114.688 87.2362C116.015 86.7461 117.321 86.2108 118.602 85.6435C119.882 85.0762 121.174 84.5584 122.429 83.9592C124.928 82.7969 127.329 81.4345 129.608 79.8852C131.862 78.3586 133.972 76.6297 135.911 74.7201C137.816 72.859 139.475 70.7631 140.85 68.4828C141.608 67.1872 142.135 65.7701 142.409 64.2945C142.687 62.9648 142.604 61.5851 142.17 60.298C141.321 57.946 138.77 56.3699 135.874 55.7513C134.268 55.3987 132.612 55.3374 130.984 55.5703C130.585 55.6139 130.201 55.7385 129.797 55.7955C129.393 55.8524 128.955 56.0248 128.532 56.135C127.673 56.3952 126.827 56.6994 125.999 57.0466C122.519 58.6262 119.157 60.4539 115.939 62.5155C113.785 63.8255 111.555 65.0078 109.261 66.0562C108.056 66.5833 106.823 67.0437 105.567 67.4352C104.146 67.8493 102.66 67.9955 101.185 67.8664C98.6923 67.7203 96.3893 66.4864 94.8865 64.4917C93.5233 62.5299 92.9804 60.1131 93.3737 57.7568C93.5305 56.7304 93.7729 55.7189 94.0983 54.733C94.4102 53.7898 94.7724 52.8641 95.1835 51.9598C95.5895 51.07 96.0413 50.2019 96.5372 49.3589C96.7805 48.9355 97.0195 48.5031 97.2803 48.0936L98.0888 46.8972C101.432 41.912 105.862 37.7498 111.046 34.7236C112.196 34.0456 113.389 33.442 114.616 32.9166C115.611 32.5445 116.629 32.2368 117.664 31.9955C118.367 31.8723 119.079 31.8154 119.793 31.8253C120.799 31.8038 121.759 32.2451 122.398 33.0226C122.688 33.3275 122.945 33.6623 123.164 34.0216C123.436 34.601 123.117 35.2148 122.405 35.7695C121.978 36.084 121.518 36.3515 121.034 36.5672C120.436 36.9069 119.812 37.1994 119.169 37.4418C117.065 38.3329 115.047 39.4159 113.142 40.6769C111.238 41.987 109.447 43.4549 107.789 45.0651C106.166 46.7095 104.704 48.5048 103.422 50.4266C102.148 52.2523 101.144 54.252 100.441 56.3641C100.302 56.7275 100.257 57.1021 100.145 57.4751L100.006 58.0263L99.9322 58.4584C99.8367 58.9232 99.8217 59.401 99.8877 59.8709C99.9106 60.1562 100.009 60.4303 100.172 60.6654C100.31 60.887 100.511 61.062 100.75 61.1675C101.123 61.336 101.524 61.4326 101.933 61.4522C102.49 61.4692 103.047 61.4017 103.584 61.2522C103.962 61.1562 104.334 61.0371 104.698 60.8954C105.095 60.7757 105.492 60.6112 105.89 60.4467C106.694 60.1359 107.475 59.7037 108.289 59.3215L108.358 59.444Z" fill="#585D68"/>
<path d="M114.936 67.7169C112.955 64.6804 110.873 61.6909 108.768 58.7223C108.002 57.6358 107.101 56.6419 106.327 55.5597C103.645 51.7186 100.881 47.916 97.9493 44.2312C96.6365 42.6198 95.3161 40.9924 93.8431 39.5148C92.937 38.5332 91.9692 37.6098 91.0486 36.6448C90.128 35.6797 89.2477 34.7055 88.4544 33.6319C87.9591 32.9558 88.6604 32.4316 89.8394 32.3084C91.3875 32.1636 92.8761 32.5713 93.9946 33.4463C96.1796 35.2543 98.2443 37.1382 100.182 39.1307C102.077 41.1707 103.797 43.3471 105.331 45.6435C106.285 47.0253 107.326 48.3498 108.451 49.6112C109.542 50.9163 110.679 52.1999 111.733 53.5221C112.841 54.9564 114.008 56.4702 115.092 57.974L118.333 62.5098L122.201 68.168C123.182 69.5934 124.148 71.0353 125.077 72.4944C126.007 73.9535 126.978 75.3831 127.931 76.8213C128.691 77.9201 129.523 79.0049 130.296 80.0588C131.126 81.1163 131.892 82.2177 132.59 83.3588C132.842 83.8953 133.196 84.3643 133.46 84.9045C133.837 85.6306 134.02 86.4433 133.995 87.2811C133.94 87.8292 133.657 88.3579 133.205 88.7555C133.007 88.9656 132.795 89.1633 132.568 89.347C131.823 89.8724 130.724 89.3818 129.614 88.2514C126.193 84.972 123.757 80.8694 120.998 76.8398C118.984 73.877 116.973 70.7764 114.838 67.7923L114.936 67.7169Z" fill="#585D68"/>
<path d="M120.78 44.9962C122.355 48.1483 124.018 51.2619 125.77 54.3372C126.396 55.46 127.205 56.4771 127.84 57.5956C128.957 59.5756 130.157 61.4967 131.309 63.4804C132.46 65.464 133.616 67.3858 134.9 69.2974C136.027 70.9733 137.25 72.5874 138.563 74.1334C139.373 75.1298 140.29 76.0465 141.119 77.0345C141.942 78.0331 142.699 79.0802 143.386 80.1705C143.8 80.8642 143.117 81.2945 141.995 81.3816C140.505 81.4471 139.085 80.9983 138.006 80.1204C134.144 76.259 130.813 71.9528 128.081 67.2886C127.235 65.9097 126.381 64.5145 125.433 63.1536C124.485 61.7928 123.568 60.4273 122.696 59.0406C120.79 55.9444 119.011 52.7886 117.278 49.6115C116.724 48.6441 116.231 47.6386 115.714 46.6542C115.197 45.6697 114.651 44.7186 114.179 43.7129C112.685 40.6927 111.311 37.5967 109.884 34.5549C109.332 33.3775 108.784 32.2082 108.232 31.0307C107.679 29.8533 107.135 28.6922 106.666 27.4558C106.424 26.9407 106.228 26.4043 106.046 25.8512C105.456 23.7438 105.621 22.9384 106.466 22.2626C106.654 22.0984 106.852 21.9455 107.059 21.8048C107.767 21.4729 108.577 22.0906 109.237 23.427C110.262 25.4002 111.381 27.409 112.518 29.4093C113.051 30.4265 113.695 31.4214 114.257 32.4546L115.024 34.0899L115.881 35.6827C117.478 38.8042 119.272 41.8734 120.902 45.0191L120.78 44.9962Z" fill="#585D68"/>
<path d="M316.061 337.643L307.492 302.36C310.499 301.246 313.129 299.303 315.077 296.756C316.032 295.376 316.699 293.818 317.039 292.175C317.379 290.532 317.384 288.837 317.054 287.192L304.854 237.073C303.863 232.786 298.922 229.163 290.015 230.15L281.769 196.194C277.155 177.401 275.178 177.08 256.051 179.057H255.06C260.171 173.226 264.391 166.67 267.583 159.603C274.865 143.107 275.456 124.429 269.233 107.506C266.187 99.147 261.495 91.4839 255.435 84.9707C249.375 78.4574 242.069 73.2263 233.95 69.5873C228.166 67.0327 222.068 65.2594 215.816 64.3143C207.935 62.4262 199.848 61.5404 191.745 61.6779C191.364 55.8211 190.143 50.0497 188.118 44.5409C185.157 36.496 180.632 29.117 174.805 22.8295C168.978 16.542 161.964 11.4704 154.167 7.90728C148.611 5.35727 142.731 3.58303 136.691 2.63436C118.999 -1.62108 100.457 -0.705988 83.2701 5.27082C65.6472 11.8803 51.3211 25.1406 43.3717 42.201C39.6064 50.3272 37.5196 59.1295 37.236 68.0811C36.9525 77.0326 38.4782 85.9494 41.7217 94.2975C46.9946 107.48 57.881 119.027 72.3881 126.941C57.1655 134.573 44.966 147.121 37.767 162.553C35.2161 168.109 33.4418 173.989 32.4941 180.029C5.12326 189.603 -2.1314 205.422 0.505056 217.286L42.0535 390.398C43.272 394.875 45.392 399.056 48.2837 402.685C51.1753 406.314 54.7776 409.314 58.8697 411.501C66.5943 415.546 75.2109 417.587 83.9293 417.437C93.5109 417.358 103.002 415.573 111.957 412.165C154.821 397.326 246.487 375.234 290.342 369.298C304.52 367.321 311.434 364.684 314.743 359.736C319.688 354.129 318.04 346.216 316.061 337.643ZM312.106 288.512C312.303 289.486 312.288 290.491 312.06 291.459C311.833 292.426 311.399 293.333 310.788 294.117L309.799 295.106C307.316 297.319 304.204 298.701 300.897 299.06C299.906 299.06 298.919 299.39 297.929 299.39C282.953 301.928 268.185 305.565 253.744 310.272C250.448 311.59 249.789 311.261 249.457 311.261C248.422 310.226 237.593 263.989 237.593 263.78C241.787 259.586 279.207 252.27 284.746 251.257L289.692 250.266C290.984 249.913 292.309 249.692 293.646 249.607C295.46 249.256 297.229 248.704 298.919 247.959C300.141 247.383 301.256 246.602 302.215 245.65L312.106 288.512ZM47.9877 44.5079C51.5046 36.5918 56.5907 29.4714 62.9384 23.5773C69.286 17.6832 76.7633 13.1379 84.9179 10.2164C91.399 7.82909 98.1583 6.27863 105.032 5.60257C104.373 5.93213 104.043 5.93213 103.384 6.26169C85.7617 12.872 71.4359 26.132 63.4857 43.1919C59.7201 51.3183 57.6331 60.121 57.3496 69.073C57.0661 78.025 58.5919 86.9421 61.8357 95.2906C66.1408 106.406 73.4471 116.108 82.9406 123.316C81.4769 123.771 80.0449 124.322 78.6541 124.966C63.4945 117.382 51.9446 105.852 46.6695 92.9815C43.6136 85.2293 42.1552 76.9398 42.3817 68.6102C42.6082 60.2805 44.515 52.0825 47.9877 44.5079ZM247.48 179.699C246.162 179.699 244.512 180.029 243.193 180.029C228.355 182.006 211.209 184.976 193.072 188.931C193.191 182.025 192.303 175.138 190.436 168.487C190.106 167.169 189.445 165.521 189.117 164.203C188.426 162.832 187.874 161.396 187.47 159.915C180.774 144.871 168.812 132.792 153.833 125.953C149.378 123.973 144.743 122.428 139.991 121.339C139.942 120.874 140.059 120.407 140.321 120.021C141.304 115.706 142.742 111.509 144.61 107.497C148.311 99.2321 153.632 91.7928 160.258 85.6195C166.885 79.4461 174.681 74.664 183.188 71.5558C190.37 68.9415 197.954 67.6031 205.598 67.6011C218.499 67.4658 231.127 71.3219 241.752 78.6413C252.377 85.9606 260.48 96.3855 264.951 108.488C269.188 120.782 269.794 134.036 266.695 146.665C263.596 159.294 256.927 170.763 247.48 179.699ZM183.511 191.563C176.26 193.211 169.01 194.859 161.749 196.836C158.453 197.495 155.158 198.486 152.185 199.145C145.262 200.793 138.667 202.772 132.073 204.418C127.787 205.736 123.505 206.727 119.212 208.045C98.7791 213.652 79.9746 219.25 66.1244 223.205C65.4652 222.216 65.1357 220.896 64.4766 219.909L62.4992 215.955C59.3614 207.879 57.862 199.259 58.0883 190.598C58.3146 181.937 60.2622 173.407 63.8175 165.506C67.5211 157.244 72.8429 149.808 79.4685 143.638C86.0941 137.467 93.8892 132.687 102.393 129.58C109.58 126.964 117.169 125.626 124.816 125.625C137.718 125.49 150.345 129.346 160.97 136.666C171.595 143.985 179.697 154.41 184.167 166.512C186.92 174.233 188.26 182.387 188.122 190.583C186.477 190.922 184.829 191.223 183.511 191.563ZM181.19 67.5901C172.029 70.8998 163.628 76.0216 156.49 82.6498C149.352 89.278 143.623 97.2766 139.644 106.168C137.554 110.956 135.899 115.923 134.699 121.007C129.621 119.731 124.43 118.958 119.201 118.698C120.225 114.866 121.547 111.119 123.155 107.493C126.858 99.2277 132.179 91.7886 138.806 85.6153C145.432 79.442 153.229 74.6598 161.736 71.5514C168.938 68.8636 176.481 67.1989 184.146 66.6059L181.19 67.5901ZM180.861 62.3172C173.788 63.2627 166.828 64.9196 160.088 67.2628C156.923 68.4909 153.84 69.9227 150.86 71.5492C148.081 72.9575 145.434 74.6126 142.951 76.4948C136.59 81.0447 131.023 86.612 126.473 92.9727C123.963 96.5148 121.758 100.263 119.882 104.178C119.551 104.837 119.22 105.496 118.891 106.155C117.022 110.282 115.585 114.591 114.604 119.014C106.285 118.895 97.9817 119.78 89.8745 121.651C79.5141 115.04 71.6341 105.184 67.4646 93.623C62.7613 81.533 61.954 68.2754 65.1555 55.7041C66.0175 52.1838 67.2327 48.7595 68.7828 45.4834C72.299 37.5718 77.3824 30.4551 83.726 24.5631C90.0696 18.6712 97.5417 14.1262 105.691 11.2029C120.691 5.50043 137.34 5.97768 151.989 12.53C166.637 19.0823 178.09 31.1752 183.838 46.1579C185.72 51.2366 186.831 56.5687 187.133 61.9767C185.041 61.7501 182.917 61.8666 180.861 62.3172ZM103.714 123.975L100.745 124.964C91.5835 128.273 83.1824 133.394 76.0441 140.022C68.9058 146.651 63.1768 154.65 59.1992 163.542C55.2704 172.031 53.0989 181.227 52.8154 190.577C52.5318 199.927 54.1421 209.238 57.5493 217.95C58.5135 220.319 59.6138 222.63 60.8448 224.873C56.8901 225.861 53.5946 226.85 50.6242 227.841C49.965 228.17 49.3059 228.17 48.6468 228.5C45.5683 224.563 43.0185 220.24 41.0626 215.641C37.9254 207.564 36.4263 198.945 36.6526 190.284C36.8789 181.623 38.8261 173.093 42.3808 165.192C46.0826 156.926 51.4041 149.487 58.0307 143.314C64.6573 137.14 72.4544 132.358 80.961 129.25C88.2406 126.37 95.9093 124.592 103.714 123.975ZM32.1601 185.635C31.8306 189.916 31.8306 194.215 32.1601 198.495C26.8191 200.849 22.084 204.389 18.3136 208.845C14.5433 213.301 11.8365 218.556 10.3984 224.213C8.08927 221.9 -1.47229 196.515 32.1601 185.635ZM311.774 356.766C309.467 360.393 302.872 362.698 290.683 364.35C246.827 370.282 154.503 392.707 111.309 407.546C92.1945 414.137 74.7082 414.137 61.8467 407.215C54.2647 402.928 48.9874 396.669 47.3462 389.418L8.75058 229.489C9.4097 231.798 16.66 233.443 18.3121 234.102C22.8255 235.3 27.4851 235.856 32.1536 235.752C38.7733 235.705 45.3422 234.592 51.6084 232.457C55.5631 231.468 60.5109 229.82 65.786 228.17C108.982 215.647 198.67 189.263 250.778 184.315C256.051 183.656 266.596 180.688 271.551 183.985C273.528 185.304 274.846 188.931 276.824 197.168L288.365 245.307C271.217 248.603 254.071 251.239 237.914 257.831C232.309 260.14 231.65 261.458 232.968 267.717L242.855 308.604C242.994 309.971 243.418 311.292 244.099 312.485C244.78 313.677 245.703 314.714 246.81 315.527C247.758 315.902 248.76 316.125 249.778 316.186C254.064 316.186 258.346 313.879 262.637 312.559C267.251 311.241 271.865 309.923 276.479 308.934C284.722 306.957 293.295 304.979 301.868 303.661H302.857L311.425 338.614C313.424 347.863 314.083 353.47 311.774 356.766Z" fill="#585D68"/>
<path d="M281.767 276.971C281.39 275.352 280.663 273.834 279.638 272.524C278.614 271.214 277.316 270.144 275.835 269.387C272.683 267.715 269.025 267.261 265.559 268.112C262.093 268.963 259.062 271.059 257.042 274.001C256.075 275.308 255.424 276.821 255.138 278.422C254.851 280.022 254.938 281.667 255.392 283.228C257.042 290.153 264.956 293.774 271.549 292.133C277.81 290.49 283.415 283.894 281.767 276.971Z" fill="#585D68"/>
<path d="M264.953 235.095C265.151 235.692 265.566 236.192 266.115 236.497C266.665 236.802 267.309 236.89 267.919 236.743C268.226 236.662 268.513 236.519 268.763 236.324C269.013 236.13 269.221 235.886 269.375 235.609C269.529 235.332 269.625 235.027 269.659 234.712C269.692 234.397 269.662 234.078 269.569 233.775C268.09 224.994 265.429 216.453 261.66 208.386C260.012 205.418 255.728 208.056 257.374 211.022C261.031 218.646 263.584 226.752 264.953 235.095Z" fill="#585D68"/>
<path d="M239.235 200.808C228.353 201.467 218.13 204.763 207.58 207.399C204.611 208.059 205.93 213.004 208.898 212.013C218.785 209.377 229.012 206.081 239.235 205.422C239.582 205.427 239.928 205.362 240.25 205.232C240.572 205.101 240.864 204.907 241.11 204.661C241.356 204.415 241.55 204.123 241.681 203.801C241.812 203.478 241.876 203.133 241.871 202.786C241.679 202.231 241.325 201.746 240.856 201.394C240.386 201.041 239.821 200.837 239.235 200.808Z" fill="#585D68"/>
<path d="M152.191 228.829C162.737 225.861 172.964 222.897 183.517 219.927C186.485 218.938 185.164 214.322 182.198 215.313C171.976 218.281 161.425 221.245 150.873 224.216C147.898 224.872 149.218 229.488 152.191 228.829Z" fill="#585D68"/>
<path d="M92.8307 246.634C102.717 243.339 112.615 240.702 122.506 237.732C125.474 236.743 124.156 232.127 121.188 233.118C111.301 236.086 101.404 238.725 91.5125 242.02C91.1924 242.091 90.8902 242.227 90.6245 242.419C90.3588 242.611 90.1352 242.855 89.9675 243.137C89.7997 243.419 89.6913 243.732 89.649 244.057C89.6067 244.382 89.6313 244.712 89.7214 245.027C89.8114 245.343 89.965 245.636 90.1727 245.89C90.3804 246.143 90.6378 246.352 90.929 246.502C91.2202 246.653 91.5392 246.742 91.8662 246.765C92.1933 246.788 92.5215 246.743 92.8307 246.634Z" fill="#585D68"/>
<path d="M61.8344 249.932C56.5342 251.209 51.1252 251.982 45.6795 252.241C39.8207 252.624 33.9371 252.181 28.202 250.923C25.236 250.264 23.9156 254.878 26.8838 255.537C34.245 257.133 41.8093 257.578 49.3069 256.855C53.9687 256.408 58.5937 255.636 63.1483 254.546C66.4526 254.219 65.1322 249.273 61.8344 249.932Z" fill="#585D68"/>
<path d="M288.035 320.165C289.005 323.856 289.775 327.596 290.344 331.37C290.77 337.713 288.947 339.405 288.035 340.273C285.922 341.596 283.57 342.491 281.112 342.909C277.648 343.746 274.121 344.298 270.566 344.557C269.867 344.557 269.196 344.835 268.702 345.329C268.207 345.823 267.93 346.494 267.93 347.193C267.93 347.892 268.207 348.563 268.702 349.057C269.196 349.552 269.867 349.83 270.566 349.83C276.832 349.171 283.425 348.511 289.032 345.875C293.978 343.239 295.623 338.625 295.623 333.352C295.415 328.42 294.528 323.541 292.987 318.851C292.321 315.879 287.376 317.199 288.035 320.165Z" fill="#585D68"/>
<path d="M244.18 348.193C234.546 349.248 224.972 350.788 215.493 352.807C214.896 353.005 214.395 353.42 214.089 353.969C213.784 354.519 213.696 355.163 213.843 355.775C213.925 356.081 214.067 356.368 214.262 356.617C214.457 356.867 214.7 357.075 214.977 357.229C215.254 357.383 215.559 357.479 215.875 357.512C216.19 357.546 216.508 357.515 216.811 357.423C225.852 355.514 234.988 354.083 244.18 353.136C244.527 353.141 244.873 353.077 245.195 352.946C245.517 352.815 245.809 352.621 246.055 352.375C246.301 352.129 246.495 351.837 246.626 351.515C246.757 351.193 246.821 350.847 246.816 350.5C246.754 349.852 246.446 349.252 245.956 348.823C245.466 348.394 244.831 348.169 244.18 348.193Z" fill="#585D68"/>
<path d="M189.773 359.075C181.205 361.382 172.296 364.021 163.723 366.659C160.757 367.648 162.075 372.264 165.041 371.273C173.609 368.637 182.178 366 191.089 363.689C194.06 363.032 192.739 358.086 189.773 359.075Z" fill="#585D68"/>
<path d="M137.345 374.903C127.276 378.191 117.039 380.943 106.678 383.146C106.082 383.344 105.582 383.759 105.276 384.308C104.971 384.857 104.883 385.501 105.031 386.112C105.112 386.418 105.255 386.705 105.449 386.955C105.644 387.205 105.887 387.413 106.164 387.567C106.441 387.721 106.747 387.818 107.062 387.851C107.377 387.885 107.696 387.854 107.999 387.762C118.376 385.631 128.616 382.879 138.663 379.519C139 379.464 139.321 379.338 139.606 379.151C139.891 378.963 140.132 378.717 140.315 378.429C140.498 378.141 140.618 377.817 140.667 377.479C140.716 377.142 140.692 376.798 140.599 376.47C140.505 376.142 140.343 375.837 140.123 375.576C139.903 375.315 139.631 375.104 139.323 374.956C139.016 374.808 138.681 374.727 138.34 374.717C137.999 374.708 137.66 374.771 137.345 374.903Z" fill="#585D68"/>
<path d="M79.9737 385.782C75.4184 386.786 70.6918 386.712 66.1698 385.568C61.6478 384.424 57.4552 382.24 53.9255 379.191C53.6873 378.953 53.4045 378.764 53.0933 378.635C52.7822 378.506 52.4486 378.44 52.1118 378.44C51.775 378.44 51.4414 378.506 51.1302 378.635C50.8191 378.764 50.5363 378.953 50.2981 379.191C50.0599 379.429 49.871 379.712 49.7421 380.023C49.6132 380.334 49.5469 380.668 49.5469 381.005C49.5469 381.341 49.6132 381.675 49.7421 381.986C49.871 382.297 50.06 382.58 50.2981 382.818C54.4459 386.484 59.4221 389.086 64.7987 390.403C70.2308 391.555 75.8444 391.555 81.2765 390.403C81.8732 390.204 82.3738 389.789 82.6793 389.24C82.9848 388.69 83.0731 388.046 82.9265 387.434C82.9419 386.112 81.2919 385.453 79.9737 385.782Z" fill="#585D68"/>
</svg>
