<svg width="125" height="124" viewBox="0 0 125 124" fill="none" xmlns="http://www.w3.org/2000/svg">
<g clip-path="url(#clip0_478_24900)">
<path d="M103.713 8.97656C103.713 8.97656 109.132 20.487 103.713 20.9722C98.3086 21.444 100.694 12.8044 109.32 13.5322" stroke="#111827" stroke-width="1.34783" stroke-linecap="round" stroke-linejoin="round"/>
<path d="M104.953 74.05C104.953 74.05 103.08 81.7326 101.247 84.7922C99.4136 87.8517 55.9866 106.196 51.9162 106.6C50.813 106.771 49.684 106.586 48.6929 106.072C47.7018 105.558 46.8999 104.743 46.4036 103.743C46.4036 103.743 26.4288 60.5313 26.4288 57.0539C26.4288 53.5765 32.5479 47.7539 32.5479 47.7539" fill="white"/>
<path d="M104.953 74.05C104.953 74.05 103.08 81.7326 101.247 84.7922C99.4136 87.8517 55.9866 106.196 51.9162 106.6C50.813 106.771 49.684 106.586 48.6929 106.072C47.7018 105.558 46.8999 104.743 46.4036 103.743C46.4036 103.743 26.4288 60.5313 26.4288 57.0539C26.4288 53.5765 32.5479 47.7539 32.5479 47.7539M24.5149 104.147C24.5149 104.147 16.1179 114.202 13.7053 109.323C12.1688 106.209 19.7436 103.055 22.8301 111.156" stroke="#111827" stroke-width="1.34783" stroke-linecap="round" stroke-linejoin="round"/>
<path d="M35.0293 45.8796L78.4967 26.8753C79.2755 26.5353 80.1136 26.3521 80.9632 26.3361C81.8128 26.3201 82.6572 26.4716 83.4482 26.782C84.2393 27.0924 84.9614 27.5556 85.5734 28.1452C86.1854 28.7347 86.6752 29.439 87.0149 30.2179L104.523 70.2888C105.206 71.8601 105.237 73.6379 104.61 75.2322C103.984 76.8266 102.75 78.1073 101.181 78.7935L57.6997 97.7979C56.1284 98.4802 54.3506 98.5115 52.7563 97.8849C51.1619 97.2583 49.8812 96.0249 49.195 94.4553L31.6732 54.3844C30.9909 52.8131 30.9596 51.0353 31.5862 49.4409C32.2128 47.8466 33.4462 46.5658 35.0158 45.8796" fill="#4966FF"/>
<path fill-rule="evenodd" clip-rule="evenodd" d="M32.656 36.7014C31.6982 34.5165 31.1803 32.1642 31.1321 29.7791C31.0838 27.394 31.5061 25.0227 32.3749 22.8009C33.2436 20.579 34.5416 18.5502 36.1949 16.8303C37.8481 15.1104 39.8241 13.7332 42.0099 12.7775L42.2795 12.6562C46.6893 10.7352 51.6812 10.6427 56.1591 12.399C60.637 14.1553 64.235 17.6168 66.163 22.0236L70.0312 30.8788L65.1656 33.0218L61.2839 24.1531C59.9287 21.0399 57.3926 18.5923 54.2331 17.3488C51.0736 16.1052 47.5496 16.1674 44.436 17.5218L44.2069 17.6296L44.1395 17.6566C42.5925 18.3286 41.1936 19.2996 40.023 20.5139C38.8524 21.7282 37.9333 23.1617 37.3183 24.7323C36.7034 26.3028 36.4048 27.9793 36.4397 29.6656C36.4746 31.3518 36.8423 33.0146 37.5217 34.5583L41.3899 43.427L36.5243 45.5566L32.656 36.7014Z" fill="white"/>
<path d="M64.9766 32.2129L61.5666 24.3685C60.9018 22.8373 59.9411 21.4525 58.7395 20.2938C57.5379 19.1351 56.1192 18.2252 54.5649 17.6165C53.0105 17.0078 51.3513 16.7123 49.6823 16.7469C48.0134 16.7814 46.3678 17.1455 44.84 17.8181L44.6513 17.8989C43.1218 18.5637 41.7385 19.524 40.5809 20.7246C39.4234 21.9251 38.5142 23.3425 37.9056 24.8952C37.297 26.448 37.001 28.1057 37.0345 29.7731C37.068 31.4405 37.4304 33.0849 38.1009 34.612L41.5244 42.4563" stroke="#111827" stroke-width="1.34783" stroke-linecap="round" stroke-linejoin="round"/>
<path d="M70.0312 30.0024L66.163 21.1471C64.2374 16.7414 60.6428 13.2794 56.1678 11.5207C51.6928 9.76207 46.7029 9.85037 42.293 11.7663L42.0234 11.901C39.8381 12.8556 37.8622 14.2314 36.2087 15.9497C34.5552 17.6681 33.2564 19.6953 32.3865 21.9157C31.5166 24.1361 31.0927 26.5062 31.1389 28.8904C31.1852 31.2747 31.7007 33.6265 32.656 35.8115L36.5243 44.6667" stroke="#111827" stroke-width="1.34783" stroke-linecap="round" stroke-linejoin="round"/>
<path d="M73.1598 61.9052C73.1598 61.9052 76.7046 54.6 70.6394 49.7748C64.5742 44.9495 59.2368 49.9095 58.6437 53.3061C58.3068 55.3008 58.0507 60.9482 64.655 64.4121C64.655 64.4121 64.9785 77.6882 67.2024 79.0226C69.3994 80.3569 82.1363 75.4778 81.5298 72.7552C80.9233 70.0461 73.1598 61.9052 73.1598 61.9052Z" fill="white" stroke="#111827" stroke-width="1.34783" stroke-linecap="round" stroke-linejoin="round"/>
<path d="M63.3867 48.0906C63.3867 48.0906 64.9502 47.821 67.5649 50.3145C73.0371 55.8001 69.7484 62.984 69.7484 62.984C69.7484 62.984 79.1428 74.4001 79.1562 75.5053" stroke="#111827" stroke-width="1.34783" stroke-linecap="round" stroke-linejoin="round"/>
<path d="M35.0293 45.8796L78.4967 26.8753C79.2755 26.5353 80.1136 26.3521 80.9632 26.3361C81.8128 26.3201 82.6572 26.4716 83.4482 26.782C84.2393 27.0924 84.9614 27.5556 85.5734 28.1452C86.1854 28.7347 86.6752 29.439 87.0149 30.2179L104.523 70.2888C105.206 71.8601 105.237 73.6379 104.61 75.2322C103.984 76.8266 102.75 78.1073 101.181 78.7935L57.6997 97.7979C56.1284 98.4802 54.3506 98.5115 52.7563 97.8849C51.1619 97.2583 49.8812 96.0249 49.195 94.4553L31.6732 54.3844C30.9909 52.8131 30.9596 51.0353 31.5862 49.4409C32.2128 47.8466 33.4462 46.5658 35.0158 45.8796" stroke="#111827" stroke-width="1.34783" stroke-linecap="round" stroke-linejoin="round"/>
</g>
<defs>
<clipPath id="clip0_478_24900">
<rect width="124" height="124" fill="white" transform="matrix(-1 0 0 1 124.66 0)"/>
</clipPath>
</defs>
</svg>
