<svg width="42" height="42" viewBox="0 0 42 42" fill="none" xmlns="http://www.w3.org/2000/svg">
<mask id="mask0_478_24690" style="mask-type:alpha" maskUnits="userSpaceOnUse" x="0" y="0" width="42" height="42">
<g clip-path="url(#clip0_478_24690)">
<path d="M15.3286 19.0679C15.1404 19.2645 14.9144 19.4208 14.6642 19.5277C14.414 19.6345 14.1447 19.6896 13.8726 19.6896C13.6005 19.6896 13.3313 19.6345 13.081 19.5277C12.8308 19.4208 12.6048 19.2645 12.4166 19.0679C12.0264 18.6613 11.8086 18.1195 11.8086 17.5559C11.8086 16.9924 12.0264 16.4506 12.4166 16.0439L24.7926 3.24795C24.9753 3.05534 25.1941 2.9007 25.4367 2.7929C25.6793 2.68509 25.9407 2.62625 26.2061 2.61975C26.4714 2.61324 26.7355 2.6592 26.983 2.755C27.2306 2.85079 27.4568 2.99452 27.6486 3.17795L40.0106 14.9099C40.8506 15.7079 40.9206 17.066 40.1506 17.934C39.971 18.141 39.751 18.3092 39.5041 18.4283C39.2572 18.5474 38.9886 18.615 38.7147 18.6268C38.4409 18.6385 38.1675 18.5944 37.9113 18.4969C37.6551 18.3995 37.4214 18.2508 37.2246 18.0599L26.3046 7.69995L15.3286 19.0679Z" fill="#945CA4"/>
<path d="M28.882 13.9439C28.882 12.7679 27.958 11.8159 26.824 11.8159C25.69 11.8159 24.766 12.7679 24.766 13.9299V27.7479C24.7735 28.3025 24.5613 28.8375 24.1757 29.2362C23.7902 29.6349 23.2625 29.8649 22.708 29.8759H2.058C0.924 29.8759 0 30.8279 0 32.0039C0 33.1799 0.924 34.1179 2.058 34.1179H22.708C26.11 34.1179 28.868 31.2759 28.868 27.7479V13.9299L28.882 13.9439Z" fill="#945CA4"/>
</g>
</mask>
<g mask="url(#mask0_478_24690)">
<rect width="42" height="42" fill="#945CA4"/>
</g>
<defs>
<clipPath id="clip0_478_24690">
<rect width="42" height="42" fill="white"/>
</clipPath>
</defs>
</svg>
