<svg width="42" height="42" viewBox="0 0 42 42" fill="none" xmlns="http://www.w3.org/2000/svg">
<mask id="mask0_478_24710" style="mask-type:alpha" maskUnits="userSpaceOnUse" x="0" y="0" width="42" height="42">
<g clip-path="url(#clip0_478_24710)">
<path d="M16.156 1.77783H1.61C0.720821 1.77783 0 2.49865 0 3.38783V5.01183C0 5.90101 0.720821 6.62183 1.61 6.62183H16.156C17.0452 6.62183 17.766 5.90101 17.766 5.01183V3.38783C17.766 2.49865 17.0452 1.77783 16.156 1.77783Z" fill="#2563EB"/>
<path d="M17.78 11.396H1.61C0.720822 11.396 0 12.1168 0 13.006V14.63C0 15.5192 0.720822 16.24 1.61 16.24H17.78C18.6692 16.24 19.39 15.5192 19.39 14.63V13.006C19.39 12.1168 18.6692 11.396 17.78 11.396Z" fill="#2563EB"/>
<path d="M19.39 21.0142H1.61C0.720821 21.0142 0 21.735 0 22.6242V24.2482C0 25.1373 0.720821 25.8582 1.61 25.8582H19.39C20.2792 25.8582 21 25.1373 21 24.2482V22.6242C21 21.735 20.2792 21.0142 19.39 21.0142Z" fill="#2563EB"/>
<path d="M24.234 30.6318H1.61C0.720821 30.6318 0 31.3527 0 32.2418V33.8658C0 34.755 0.720821 35.4758 1.61 35.4758H24.234C25.1232 35.4758 25.844 34.755 25.844 33.8658V32.2418C25.844 31.3527 25.1232 30.6318 24.234 30.6318Z" fill="#2563EB"/>
</g>
</mask>
<g mask="url(#mask0_478_24710)">
<rect width="42" height="42" fill="#2563EB"/>
</g>
<defs>
<clipPath id="clip0_478_24710">
<rect width="42" height="42" fill="white"/>
</clipPath>
</defs>
</svg>
