<svg width="42" height="42" viewBox="0 0 42 42" fill="none" xmlns="http://www.w3.org/2000/svg">
<mask id="mask0_478_24700" style="mask-type:alpha" maskUnits="userSpaceOnUse" x="0" y="0" width="42" height="42">
<g clip-path="url(#clip0_478_24700)">
<path d="M23 7C23 5.89543 22.1046 5 21 5C19.8954 5 19 5.89543 19 7V35C19 36.1046 19.8954 37 21 37C22.1046 37 23 36.1046 23 35V7Z" fill="#029747"/>
<path d="M8.90032 22.34C8.46994 22.7644 7.88978 23.0024 7.28532 23.0024C6.68086 23.0024 6.1007 22.7644 5.67032 22.34C5.45928 22.1324 5.29166 21.885 5.17725 21.612C5.06283 21.339 5.00391 21.046 5.00391 20.75C5.00391 20.454 5.06283 20.161 5.17725 19.888C5.29166 19.615 5.45928 19.3675 5.67032 19.16L19.3803 5.65998C19.7983 5.24672 20.3587 5.00919 20.9464 4.99617C21.5341 4.98315 22.1044 5.19563 22.5403 5.58998L36.2603 17.97C37.1903 18.81 37.2603 20.23 36.4003 21.15C35.9873 21.5922 35.4166 21.8538 34.812 21.8781C34.2074 21.9025 33.6176 21.6875 33.1703 21.28L21.0703 10.36L8.90032 22.34Z" fill="#029747"/>
</g>
</mask>
<g mask="url(#mask0_478_24700)">
<rect width="42" height="42" fill="#029747"/>
</g>
<defs>
<clipPath id="clip0_478_24700">
<rect width="42" height="42" fill="white"/>
</clipPath>
</defs>
</svg>
