<svg width="42" height="42" viewBox="0 0 42 42" fill="none" xmlns="http://www.w3.org/2000/svg">
<mask id="mask0_478_24681" style="mask-type:alpha" maskUnits="userSpaceOnUse" x="0" y="0" width="42" height="42">
<g clip-path="url(#clip0_478_24681)">
<path fill-rule="evenodd" clip-rule="evenodd" d="M23.0811 7.54016V5.33016H25.1711C25.7241 5.33016 26.2544 5.11049 26.6454 4.71947C27.0364 4.32846 27.2561 3.79813 27.2561 3.24516C27.2561 2.69218 27.0364 2.16185 26.6454 1.77084C26.2544 1.37983 25.7241 1.16016 25.1711 1.16016H16.8311C16.2781 1.16016 15.7478 1.37983 15.3568 1.77084C14.9658 2.16185 14.7461 2.69218 14.7461 3.24516C14.7461 3.79813 14.9658 4.32846 15.3568 4.71947C15.7478 5.11049 16.2781 5.33016 16.8311 5.33016H18.9211V7.54016C20.3025 7.36985 21.6997 7.36985 23.0811 7.54016ZM33.8511 13.4702L36.2511 11.0702C36.4373 10.8828 36.5419 10.6293 36.5419 10.3652C36.5419 10.101 36.4373 9.84752 36.2511 9.66016L34.7011 8.13016C34.5137 7.94391 34.2603 7.83936 33.9961 7.83936C33.7319 7.83936 33.4785 7.94391 33.2911 8.13016L30.8011 10.6002C31.9281 11.425 32.9491 12.3856 33.8411 13.4602L33.8511 13.4702Z" fill="#2563EB"/>
<path fill-rule="evenodd" clip-rule="evenodd" d="M4.32813 24.0802C4.32812 26.2693 4.75931 28.437 5.59705 30.4595C6.4348 32.482 7.6627 34.3197 9.21066 35.8676C10.7586 37.4156 12.5963 38.6435 14.6188 39.4812C16.6413 40.319 18.809 40.7502 20.9981 40.7502C23.1873 40.7502 25.355 40.319 27.3775 39.4812C29.4 38.6435 31.2376 37.4156 32.7856 35.8676C34.3335 34.3197 35.5615 32.482 36.3992 30.4595C37.2369 28.437 37.6681 26.2693 37.6681 24.0802C37.6681 19.659 35.9118 15.4189 32.7856 12.2927C29.6594 9.16645 25.4193 7.41016 20.9981 7.41016C16.577 7.41016 12.3369 9.16645 9.21066 12.2927C6.08442 15.4189 4.32813 19.659 4.32813 24.0802ZM20.4281 12.6202C20.3006 12.6199 20.1777 12.6685 20.0848 12.7558C19.9918 12.8432 19.9358 12.9628 19.9281 13.0902L18.9581 25.6302C18.9526 25.6991 18.9614 25.7684 18.9841 25.8338C19.0067 25.8992 19.0426 25.9591 19.0896 26.0099C19.1366 26.0606 19.1936 26.1011 19.2571 26.1287C19.3205 26.1562 19.389 26.1704 19.4581 26.1702H22.5381C22.6073 26.1704 22.6758 26.1562 22.7392 26.1287C22.8026 26.1011 22.8596 26.0606 22.9066 26.0099C22.9536 25.9591 22.9896 25.8992 23.0122 25.8338C23.0348 25.7684 23.0437 25.6991 23.0381 25.6302L22.0781 13.0902C22.0705 12.9628 22.0144 12.8432 21.9215 12.7558C21.8285 12.6685 21.7057 12.6199 21.5781 12.6202H20.4181H20.4281Z" fill="#2563EB"/>
</g>
</mask>
<g mask="url(#mask0_478_24681)">
<rect width="42" height="42" fill="#2563EB"/>
</g>
<defs>
<clipPath id="clip0_478_24681">
<rect width="42" height="42" fill="white"/>
</clipPath>
</defs>
</svg>
