<svg width="42" height="42" viewBox="0 0 42 42" fill="none" xmlns="http://www.w3.org/2000/svg">
<mask id="mask0_478_24721" style="mask-type:alpha" maskUnits="userSpaceOnUse" x="0" y="0" width="42" height="42">
<g clip-path="url(#clip0_478_24721)">
<path d="M15.1185 24.6119C14.9615 24.7761 14.7734 24.9074 14.5651 24.998C14.3569 25.0886 14.1326 25.1367 13.9055 25.1396C13.6784 25.1425 13.453 25.1001 13.2425 25.0148C13.032 24.9295 12.8406 24.8031 12.6795 24.643C12.5185 24.4829 12.391 24.2922 12.3045 24.0822C12.218 23.8722 12.1742 23.647 12.1758 23.4199C12.1774 23.1928 12.2243 22.9683 12.3136 22.7595C12.403 22.5507 12.5332 22.3618 12.6964 22.2039L22.9584 11.9279C23.2675 11.6102 23.6896 11.4276 24.1328 11.4197C24.576 11.4118 25.0043 11.5794 25.3245 11.8859L35.5865 21.2939C35.9206 21.6003 36.1194 22.0268 36.1391 22.4797C36.1588 22.9326 35.9978 23.3748 35.6915 23.7089C35.3851 24.0431 34.9586 24.2419 34.5057 24.2616C34.0528 24.2813 33.6106 24.1203 33.2765 23.8139L24.2184 15.5119L15.1185 24.6119Z" fill="#0383D8"/>
<path d="M25.8873 20.8459C25.8873 20.391 25.7066 19.9548 25.385 19.6332C25.0633 19.3115 24.6271 19.1309 24.1723 19.1309C23.7174 19.1309 23.2812 19.3115 22.9596 19.6332C22.638 19.9548 22.4573 20.391 22.4573 20.8459V31.9619C22.4573 32.9139 21.7013 33.6839 20.7493 33.6839H3.57128C3.11829 33.6839 2.68385 33.8638 2.36354 34.1841C2.04323 34.5044 1.86328 34.9389 1.86328 35.3919C1.86328 35.8449 2.04323 36.2793 2.36354 36.5996C2.68385 36.9199 3.11829 37.0999 3.57128 37.0999H20.7493C21.424 37.0999 22.0921 36.967 22.7155 36.7088C23.3389 36.4505 23.9053 36.0721 24.3824 35.595C24.8595 35.1179 25.238 34.5515 25.4962 33.9281C25.7544 33.3047 25.8873 32.6366 25.8873 31.9619V20.8459Z" fill="#0383D8"/>
<path d="M37.7873 6.2998H10.4033C9.46001 6.2998 8.69531 7.0645 8.69531 8.0078C8.69531 8.95111 9.46001 9.7158 10.4033 9.7158H37.7873C38.7306 9.7158 39.4953 8.95111 39.4953 8.0078C39.4953 7.0645 38.7306 6.2998 37.7873 6.2998Z" fill="#0383D8"/>
</g>
</mask>
<g mask="url(#mask0_478_24721)">
<rect width="42" height="42" fill="#2563EB"/>
</g>
<defs>
<clipPath id="clip0_478_24721">
<rect width="42" height="42" fill="white"/>
</clipPath>
</defs>
</svg>
