<svg width="42" height="42" viewBox="0 0 42 42" fill="none" xmlns="http://www.w3.org/2000/svg">
<mask id="mask0_478_24732" style="mask-type:alpha" maskUnits="userSpaceOnUse" x="0" y="0" width="42" height="42">
<g clip-path="url(#clip0_478_24732)">
<path d="M22.932 14.014C22.932 12.947 22.0702 12.082 21.007 12.082C19.9439 12.082 19.082 12.947 19.082 14.014V37.1C19.082 38.167 19.9439 39.032 21.007 39.032C22.0702 39.032 22.932 38.167 22.932 37.1V14.014Z" fill="#E04515"/>
<path d="M10.8091 26.9082C10.4379 27.2061 9.96983 27.3564 9.49458 27.3305C9.01933 27.3045 8.57039 27.104 8.23384 26.7675C7.89729 26.4309 7.69681 25.982 7.67085 25.5067C7.64488 25.0315 7.79526 24.5634 8.09315 24.1922L19.6431 12.6422C19.9982 12.2999 20.4692 12.1041 20.9622 12.0937C21.4552 12.0833 21.934 12.2592 22.3031 12.5862L33.8531 23.1702C34.1898 23.5249 34.3794 23.9941 34.3837 24.4832C34.3879 24.9722 34.2066 25.4447 33.8762 25.8053C33.5458 26.1658 33.091 26.3877 32.6034 26.4261C32.1159 26.4645 31.6319 26.3166 31.2491 26.0122L21.0571 16.6602L10.8091 26.9082Z" fill="#E04515"/>
<path d="M36.4016 4.38184H5.61559C4.54858 4.38184 3.68359 5.24369 3.68359 6.30684C3.68359 7.36998 4.54858 8.23184 5.61559 8.23184H36.4016C37.4686 8.23184 38.3336 7.36998 38.3336 6.30684C38.3336 5.24369 37.4686 4.38184 36.4016 4.38184Z" fill="#E04515"/>
</g>
</mask>
<g mask="url(#mask0_478_24732)">
<rect width="42" height="42" fill="#E04515"/>
</g>
<defs>
<clipPath id="clip0_478_24732">
<rect width="42" height="42" fill="white"/>
</clipPath>
</defs>
</svg>
