<?xml version="1.0" encoding="UTF-8"?>
<svg version="1.1" xmlns="http://www.w3.org/2000/svg" width="208" height="442">
<path d="M0 0 C2.4375 0 2.4375 0 5 1 C6.8125 4.0625 6.8125 4.0625 8 7 C8.5775 6.484375 9.155 5.96875 9.75 5.4375 C12 4 12 4 13.9375 4.3125 C14.618125 4.539375 15.29875 4.76625 16 5 C16.86625 5 17.7325 5 18.625 5 C21 5 21 5 23 6 C26.05623236 5.95162798 29.09998103 5.80401071 32.15234375 5.64453125 C35 6 35 6 36.8671875 7.65234375 C38.26164257 10.54223167 38.30159234 12.55541453 38.1875 15.75 C38.14689453 17.22726563 38.14689453 17.22726563 38.10546875 18.734375 C38.07066406 19.48203125 38.03585938 20.2296875 38 21 C36.35 21.33 34.7 21.66 33 22 C32.34 20.35 31.68 18.7 31 17 C30.773125 17.639375 30.54625 18.27875 30.3125 18.9375 C29 21 29 21 26.5 21.8125 C24 22 24 22 22 21 C21.566875 22.2065625 21.566875 22.2065625 21.125 23.4375 C20 26 20 26 18 27 C12.78039324 27.42093603 12.78039324 27.42093603 10 27 C7.75 25.0625 7.75 25.0625 6 23 C3.98491642 22.26676204 3.98491642 22.26676204 2 22 C1.01 21.67 0.02 21.34 -1 21 C-1.33 17.04 -1.66 13.08 -2 9 C-1.87625 11.3821875 -1.87625 11.3821875 -1.75 13.8125 C-1.609375 16.51953125 -1.609375 16.51953125 -2 19 C-4.71598228 21.75195556 -5.98443219 21.99802313 -9.9375 22.5 C-13.53464121 22.39242195 -14.01550997 21.98707503 -17 19.5 C-17.66 18.675 -18.32 17.85 -19 17 C-18.505 15.515 -18.505 15.515 -18 14 C-17.34 14 -16.68 14 -16 14 C-16.350625 13.484375 -16.70125 12.96875 -17.0625 12.4375 C-18.39274773 8.9788559 -17.85607025 6.5559841 -17 3 C-13.29264337 0.52842891 -11.38852255 0.77300745 -7 1 C-6.071875 1.20625 -5.14375 1.4125 -4.1875 1.625 C-3.465625 1.74875 -2.74375 1.8725 -2 2 C-1.34 1.34 -0.68 0.68 0 0 Z M-12 6 C-11.67 6.66 -11.34 7.32 -11 8 C-10.01 7.34 -9.02 6.68 -8 6 C-9.32 6 -10.64 6 -12 6 Z M-11 8 C-8.18490007 10.2773501 -8.18490007 10.2773501 -5 10 C-5.33 9.34 -5.66 8.68 -6 8 C-7.65 8 -9.3 8 -11 8 Z M5 10 C6 12 6 12 6 12 Z M7 20 C7.33 20.66 7.66 21.32 8 22 C8.99 21.67 9.98 21.34 11 21 C9.68 20.67 8.36 20.34 7 20 Z " fill="#878784" transform="translate(71,6)"/>
<path d="M0 0 C2.9375 2.0625 2.9375 2.0625 5 4 C5 3.01 5 2.02 5 1 C6.98 1 8.96 1 11 1 C11 1.99 11 2.98 11 4 C11.66 4 12.32 4 13 4 C13 5.32 13 6.64 13 8 C12.34 8 11.68 8 11 8 C11 10.64 11 13.28 11 16 C11.66 16 12.32 16 13 16 C13.66 14.35 14.32 12.7 15 11 C18.465 10.505 18.465 10.505 22 10 C22 9.34 22 8.68 22 8 C19.36 8.33 16.72 8.66 14 9 C15.75 5.125 15.75 5.125 18 4 C21.19098556 3.72252299 23.30766246 3.64142375 26.1796875 5.12890625 C28 7 28 7 28.390625 9.91796875 C28.34421875 10.99691406 28.2978125 12.07585937 28.25 13.1875 C28.21390625 14.27417969 28.1778125 15.36085938 28.140625 16.48046875 C28.09421875 17.31191406 28.0478125 18.14335937 28 19 C26.2300132 19.19532961 24.45895721 19.38098882 22.6875 19.5625 C21.70136719 19.66691406 20.71523438 19.77132813 19.69921875 19.87890625 C17 20 17 20 14 19 C13.195625 19.20625 12.39125 19.4125 11.5625 19.625 C9 20 9 20 6.6875 19.125 C4.01081351 15.75435776 4.68702781 12.14688153 5 8 C4.34 8 3.68 8 3 8 C3 7.34 3 6.68 3 6 C2.2575 6.04125 1.515 6.0825 0.75 6.125 C-2.08758952 5.99601866 -3.58773938 5.42948778 -6 4 C-6 4.66 -6 5.32 -6 6 C-5.15115234 6.29003906 -5.15115234 6.29003906 -4.28515625 6.5859375 C-3.18494141 6.97652344 -3.18494141 6.97652344 -2.0625 7.375 C-1.33160156 7.63023437 -0.60070312 7.88546875 0.15234375 8.1484375 C2 9 2 9 3 11 C3.375 13.9375 3.375 13.9375 3 17 C0.75004168 19.17964712 -0.85679278 19.96663792 -4.0078125 20.05859375 C-7.04774798 19.79498311 -9.46484209 19.36792106 -12 17.625 C-13 16 -13 16 -13 13 C-9.32888586 12.79604921 -7.20238793 13.23316528 -4 15 C-3.34 15 -2.68 15 -2 15 C-4.06093368 12.45414074 -5.45538879 11.82726632 -8.625 10.625 C-12 9 -12 9 -13.125 6.5625 C-12.97001702 3.38534886 -12.23142857 2.23142857 -10 0 C-6.18323682 -1.27225439 -3.91280349 -0.87700768 0 0 Z M20 13 C19.67 13.99 19.34 14.98 19 16 C19.99 16 20.98 16 22 16 C22.33 15.01 22.66 14.02 23 13 C22.01 13 21.02 13 20 13 Z " fill="#818382" transform="translate(35,333)"/>
<path d="M0 0 C2.97 0.495 2.97 0.495 6 1 C6 5.95 6 10.9 6 16 C7.32 15.67 8.64 15.34 10 15 C10.33 10.38 10.66 5.76 11 1 C14 0 14 0 17 1 C18.1875 3.0625 18.1875 3.0625 19 5 C19.74765625 4.95359375 20.4953125 4.9071875 21.265625 4.859375 C29.22538383 4.56765609 29.22538383 4.56765609 32.6875 6.5 C34.5556713 10.05842152 34.78805733 13.06775475 34 17 C32.375 19.5625 32.375 19.5625 30 21 C26.75 20.75 26.75 20.75 24 20 C24.185625 20.804375 24.37125 21.60875 24.5625 22.4375 C24.706875 23.283125 24.85125 24.12875 25 25 C24 26 24 26 21.4375 26.0625 C20.633125 26.041875 19.82875 26.02125 19 26 C18.34 23.03 17.68 20.06 17 17 C16.01 17.99 15.02 18.98 14 20 C11.0080821 20.9356747 8.12606878 21.19743592 5 21 C2.07856583 19.23496686 0.52076183 18.04152365 -1 15 C-1.0969531 12.6474616 -1.1297905 10.2920305 -1.125 7.9375 C-1.12757812 6.66777344 -1.13015625 5.39804688 -1.1328125 4.08984375 C-1 1 -1 1 0 0 Z M17 7 C17 8.65 17 10.3 17 12 C17.33 12 17.66 12 18 12 C18 10.35 18 8.7 18 7 C17.67 7 17.34 7 17 7 Z M26 9 C25.67 9.66 25.34 10.32 25 11 C25.66 11 26.32 11 27 11 C27.33 12.32 27.66 13.64 28 15 C28 13.35 28 11.7 28 10 C27.34 9.67 26.68 9.34 26 9 Z M24 11 C24.33 12.32 24.66 13.64 25 15 C25.33 14.01 25.66 13.02 26 12 C25.34 11.67 24.68 11.34 24 11 Z M18 12 C17.67 12.99 17.34 13.98 17 15 C17.66 15 18.32 15 19 15 C18.67 14.01 18.34 13.02 18 12 Z " fill="#989791" transform="translate(117,7)"/>
<path d="M0 0 C1.19109375 0.00773437 1.19109375 0.00773437 2.40625 0.015625 C3.2003125 0.01046875 3.994375 0.0053125 4.8125 0 C6.90625 0.265625 6.90625 0.265625 8.90625 2.265625 C9.47235408 8.37954905 9.47235408 8.37954905 7.46875 11.515625 C6.953125 12.093125 6.4375 12.670625 5.90625 13.265625 C5.57625 14.255625 5.24625 15.245625 4.90625 16.265625 C5.23625 16.595625 5.56625 16.925625 5.90625 17.265625 C6.18767194 20.45507362 5.7987262 22.61349612 4.84375 25.703125 C3.86179488 29.43455444 4.04433471 31.55938926 4.90625 35.265625 C4.90625 35.925625 4.90625 36.585625 4.90625 37.265625 C5.1125 38.19375 5.31875 39.121875 5.53125 40.078125 C5.90625 43.265625 5.90625 43.265625 4.95556641 45.56518555 C3.72787866 48.72466766 3.58840188 51.2766173 3.4921875 54.66015625 C3.43417969 56.46323242 3.43417969 56.46323242 3.375 58.30273438 C3.3440625 59.54861328 3.313125 60.79449219 3.28125 62.078125 C3.22324219 63.97594727 3.22324219 63.97594727 3.1640625 65.91210938 C3.06994343 69.02980351 2.98430639 72.14749414 2.90625 75.265625 C1.58625 75.265625 0.26625 75.265625 -1.09375 75.265625 C-1.11856344 71.22714184 -1.1366636 67.18868853 -1.14868164 63.15014648 C-1.15369454 61.77774278 -1.16050658 60.40534438 -1.16918945 59.03295898 C-1.18138857 57.05454849 -1.18647248 55.0760982 -1.19140625 53.09765625 C-1.19664307 51.90889893 -1.20187988 50.7201416 -1.20727539 49.49536133 C-1.09375 46.265625 -1.09375 46.265625 -0.46264648 43.46362305 C-0.34091064 42.73828369 -0.2191748 42.01294434 -0.09375 41.265625 C-0.75375 40.605625 -1.41375 39.945625 -2.09375 39.265625 C-2.5078125 37.05859375 -2.5078125 37.05859375 -2.71875 34.453125 C-2.79351562 33.60105469 -2.86828125 32.74898437 -2.9453125 31.87109375 C-3.35618094 24.65927141 -3.35618094 24.65927141 -1.09375 21.265625 C-0.60371764 18.22286593 -0.62562579 15.31112274 -1.09375 12.265625 C-2.37437485 10.5581252 -3.7010211 8.88298759 -5.09375 7.265625 C-4.91747598 3.4757335 -4.2022054 0.53311561 0 0 Z M-2.09375 31.265625 C-1.09375 33.265625 -1.09375 33.265625 -1.09375 33.265625 Z " fill="#5C5C5C" transform="translate(101.09375,49.734375)"/>
<path d="M0 0 C0.99 0.66 1.98 1.32 3 2 C3.36076355 4.5942688 3.36076355 4.5942688 3.34057617 7.91845703 C3.34034958 9.15959259 3.34012299 10.40072815 3.33988953 11.67947388 C3.32456848 13.03892372 3.30892047 14.39836991 3.29296875 15.7578125 C3.28737427 17.1450047 3.28310347 18.53220283 3.28010559 19.91940308 C3.26864497 23.57249281 3.23916786 27.22522534 3.20599365 30.87817383 C3.17531867 34.60493131 3.16160579 38.33174645 3.14648438 42.05859375 C3.11429886 49.37255877 3.06308839 56.68622936 3 64 C1.35 64 -0.3 64 -2 64 C-2 43.21 -2 22.42 -2 1 C-1.34 0.67 -0.68 0.34 0 0 Z " fill="#565656" transform="translate(102,252)"/>
<path d="M0 0 C0.10812003 2.75105422 0.18734945 5.49785087 0.25 8.25 C0.30027344 9.41595703 0.30027344 9.41595703 0.3515625 10.60546875 C0.41605304 14.37816545 0.4453904 16.36203503 -1.76171875 19.5234375 C-5.40888027 21.92941839 -7.68931317 21.4105416 -12 21 C-12.99 20.34 -13.98 19.68 -15 19 C-14.67 18.01 -14.34 17.02 -14 16 C-11.36 16.33 -8.72 16.66 -6 17 C-6 16.34 -6 15.68 -6 15 C-7.3921875 15.061875 -7.3921875 15.061875 -8.8125 15.125 C-12 15 -12 15 -15 13 C-16.09192571 8.55950211 -16.49444903 6.24913439 -14.8125 2 C-10.27715292 -1.2251357 -5.38787267 -0.38121741 0 0 Z M-9 4 C-10.35618499 5.12534105 -10.35618499 5.12534105 -10.0625 8.0625 C-10.041875 9.031875 -10.02125 10.00125 -10 11 C-8.68 11 -7.36 11 -6 11 C-6 9.02 -6 7.04 -6 5 C-6.99 4.67 -7.98 4.34 -9 4 Z " fill="#474A4E" transform="translate(182,337)"/>
<path d="M0 0 C0.99386719 0.02707031 1.98773438 0.05414063 3.01171875 0.08203125 C4.15060547 0.13423828 4.15060547 0.13423828 5.3125 0.1875 C5.39339542 2.95891717 5.45294062 5.72797819 5.5 8.5 C5.53770508 9.67852539 5.53770508 9.67852539 5.57617188 10.88085938 C5.59067383 12.0168457 5.59067383 12.0168457 5.60546875 13.17578125 C5.62903442 14.22052612 5.62903442 14.22052612 5.65307617 15.28637695 C5.20827182 17.76930992 4.26443565 18.64323208 2.3125 20.1875 C-1.0830612 20.75230622 -4.57200128 20.74524936 -7.6875 19.1875 C-7.48125 18.445 -7.275 17.7025 -7.0625 16.9375 C-6.43342353 14.25505791 -6.43342353 14.25505791 -7.625 12.3125 C-9.1929983 9.17650339 -9.00093915 6.6353307 -8.6875 3.1875 C-6.30802276 -0.29388281 -4.02267049 -0.14197661 0 0 Z " fill="#171A2A" transform="translate(86.6875,12.8125)"/>
<path d="M0 0 C1.65 0 3.3 0 5 0 C5.02529705 6.51447727 5.04284444 13.02894193 5.05493164 19.54345703 C5.05996909 21.76090976 5.06679922 23.97835916 5.07543945 26.19580078 C5.08753072 29.37793805 5.0932341 32.56003151 5.09765625 35.7421875 C5.10281754 36.73805878 5.10797882 37.73393005 5.11329651 38.75997925 C5.11337204 39.68078278 5.11344757 40.6015863 5.11352539 41.55029297 C5.115746 42.3630368 5.11796661 43.17578064 5.12025452 44.01315308 C5 46 5 46 4 48 C2.68 47.67 1.36 47.34 0 47 C0 31.49 0 15.98 0 0 Z " fill="#717171" transform="translate(100,369)"/>
<path d="M0 0 C1.98 0 3.96 0 6 0 C6 0.99 6 1.98 6 3 C6.66 3 7.32 3 8 3 C8 4.32 8 5.64 8 7 C7.01 7.495 7.01 7.495 6 8 C6 10.31 6 12.62 6 15 C6.66 15 7.32 15 8 15 C8.33 11.04 8.66 7.08 9 3 C12.3 3 15.6 3 19 3 C19 4.32 19 5.64 19 7 C18.01 7.33 17.02 7.66 16 8 C15.67 11.3 15.34 14.6 15 18 C13.25285767 18.25002209 11.50200859 18.47423194 9.75 18.6875 C8.77546875 18.81511719 7.8009375 18.94273437 6.796875 19.07421875 C4 19 4 19 1.65625 17.8125 C0 16 0 16 -0.390625 13.73828125 C-0.34421875 12.93777344 -0.2978125 12.13726562 -0.25 11.3125 C-0.21390625 10.50425781 -0.1778125 9.69601562 -0.140625 8.86328125 C-0.09421875 8.24839844 -0.0478125 7.63351562 0 7 C-0.66 7 -1.32 7 -2 7 C-2 5.68 -2 4.36 -2 3 C-1.34 3 -0.68 3 0 3 C0 2.01 0 1.02 0 0 Z " fill="#897B73" transform="translate(92,334)"/>
<path d="M0 0 C1.98 0 3.96 0 6 0 C6 0.99 6 1.98 6 3 C6.99 3.33 7.98 3.66 9 4 C8.67 4.99 8.34 5.98 8 7 C7.34 7 6.68 7 6 7 C6 9.64 6 12.28 6 15 C6.99 15.33 7.98 15.66 9 16 C9 16.66 9 17.32 9 18 C6.75 18.75 6.75 18.75 4 19 C1.6875 17.5625 1.6875 17.5625 0 15 C-0.33107933 12.24100561 -0.18642023 9.79630351 0 7 C-1.65 7.33 -3.3 7.66 -5 8 C-5.33 11.3 -5.66 14.6 -6 18 C-7.65 18 -9.3 18 -11 18 C-11 13.05 -11 8.1 -11 3 C-7.37 3 -3.74 3 0 3 C0 2.01 0 1.02 0 0 Z " fill="#C2B896" transform="translate(76,334)"/>
<path d="M0 0 C1.98 0 3.96 0 6 0 C6 6.27 6 12.54 6 19 C-4.34263959 20.35439328 -4.34263959 20.35439328 -7.296875 18.76171875 C-9.71958083 16.25566295 -9.90198263 14.3898908 -10.1640625 11.0078125 C-10 9 -10 9 -8.375 6 C-6 4 -6 4 -3.25 3.6875 C-2.13625 3.8421875 -2.13625 3.8421875 -1 4 C-0.67 2.68 -0.34 1.36 0 0 Z M-3 8 C-4.35618499 9.12534105 -4.35618499 9.12534105 -4.0625 12.0625 C-4.041875 13.031875 -4.02125 14.00125 -4 15 C-2.68 15 -1.36 15 0 15 C0 13.02 0 11.04 0 9 C-0.99 8.67 -1.98 8.34 -3 8 Z " fill="#888079" transform="translate(136,333)"/>
<path d="M0 0 C2.8125 1.1875 2.8125 1.1875 5 3 C5.8125 5.6875 5.8125 5.6875 6 8 C4.35 8 2.7 8 1 8 C0.67 7.01 0.34 6.02 0 5 C-1.98 5.66 -3.96 6.32 -6 7 C-6 9.31 -6 11.62 -6 14 C-3.60280568 14.67958603 -3.60280568 14.67958603 -1 15 C-0.34 14.34 0.32 13.68 1 13 C3.625 12.875 3.625 12.875 6 13 C5.07739356 16.10331257 4.29502729 17.74711947 1.8125 19.875 C-1.9370631 21.37482524 -4.12834896 21.05590483 -8 20 C-11.2594483 17.76985117 -11.89543801 16.41077926 -12.875 12.5625 C-13.00401532 8.88556349 -12.86426763 7.1353592 -11 4 C-7.44492932 0.34617736 -5.07847471 -0.7406109 0 0 Z " fill="#676361" transform="translate(63,183)"/>
<path d="M0 0 C0.66 0.33 1.32 0.66 2 1 C2 2.32 2 3.64 2 5 C-0.64 4.67 -3.28 4.34 -6 4 C-6 4.66 -6 5.32 -6 6 C-5.15115234 6.29003906 -5.15115234 6.29003906 -4.28515625 6.5859375 C-3.18494141 6.97652344 -3.18494141 6.97652344 -2.0625 7.375 C-1.33160156 7.63023437 -0.60070312 7.88546875 0.15234375 8.1484375 C2 9 2 9 3 11 C3.375 13.9375 3.375 13.9375 3 17 C0.75004168 19.17964712 -0.85679278 19.96663792 -4.0078125 20.05859375 C-7.04774798 19.79498311 -9.46484209 19.36792106 -12 17.625 C-13 16 -13 16 -13 13 C-9.32888586 12.79604921 -7.20238793 13.23316528 -4 15 C-3.34 15 -2.68 15 -2 15 C-4.06093368 12.45414074 -5.45538879 11.82726632 -8.625 10.625 C-12 9 -12 9 -13.125 6.5625 C-12.97001702 3.38534886 -12.23142857 2.23142857 -10 0 C-6.27762318 -1.24079227 -3.82468076 -0.6953965 0 0 Z " fill="#2C2E35" transform="translate(35,333)"/>
<path d="M0 0 C1.32 0.33 2.64 0.66 4 1 C4.33 0.67 4.66 0.34 5 0 C8.4375 -0.25 8.4375 -0.25 12 0 C14.45122505 3.67683758 14.70497355 6.72717253 14 11 C12.25 13.5 12.25 13.5 10 15 C6 15 6 15 4.25 13.5 C3.8375 13.005 3.425 12.51 3 12 C3 14.31 3 16.62 3 19 C2.01 19 1.02 19 0 19 C0 12.73 0 6.46 0 0 Z M6 3 C5.67 3.66 5.34 4.32 5 5 C5.66 5 6.32 5 7 5 C7.33 6.32 7.66 7.64 8 9 C8 7.35 8 5.7 8 4 C7.34 3.67 6.68 3.34 6 3 Z M4 5 C4.33 6.32 4.66 7.64 5 9 C5.33 8.01 5.66 7.02 6 6 C5.34 5.67 4.68 5.34 4 5 Z " fill="#0A0405" transform="translate(137,13)"/>
<path d="M0 0 C0.97710937 -0.02578125 1.95421875 -0.0515625 2.9609375 -0.078125 C5.625 0.25 5.625 0.25 7.46484375 1.37890625 C9.1527301 4.10112026 8.91472537 6.26851356 8.8125 9.4375 C8.78542969 10.52417969 8.75835937 11.61085938 8.73046875 12.73046875 C8.69566406 13.56191406 8.66085938 14.39335937 8.625 15.25 C6.975 15.25 5.325 15.25 3.625 15.25 C3.295 11.62 2.965 7.99 2.625 4.25 C1.635 4.745 1.635 4.745 0.625 5.25 C0.15748212 7.60599235 0.15748212 7.60599235 0 10.3125 C-0.07476562 11.23160156 -0.14953125 12.15070313 -0.2265625 13.09765625 C-0.27554688 13.80792969 -0.32453125 14.51820313 -0.375 15.25 C-2.355 15.25 -4.335 15.25 -6.375 15.25 C-6.40185412 12.93756208 -6.42132841 10.6250373 -6.4375 8.3125 C-6.44910156 7.02472656 -6.46070313 5.73695313 -6.47265625 4.41015625 C-6.31476092 -0.69933668 -4.64476536 0.07314591 0 0 Z " fill="#BDAE86" transform="translate(156.375,336.75)"/>
<path d="M0 0 C0.97710937 -0.02578125 1.95421875 -0.0515625 2.9609375 -0.078125 C5.625 0.25 5.625 0.25 7.46484375 1.37890625 C9.1527301 4.10112026 8.91472537 6.26851356 8.8125 9.4375 C8.78542969 10.52417969 8.75835937 11.61085937 8.73046875 12.73046875 C8.69566406 13.56191406 8.66085938 14.39335937 8.625 15.25 C6.975 15.25 5.325 15.25 3.625 15.25 C3.295 11.62 2.965 7.99 2.625 4.25 C1.635 4.745 1.635 4.745 0.625 5.25 C0.15748212 7.60599235 0.15748212 7.60599235 0 10.3125 C-0.07476562 11.23160156 -0.14953125 12.15070313 -0.2265625 13.09765625 C-0.27554688 13.80792969 -0.32453125 14.51820313 -0.375 15.25 C-2.355 15.25 -4.335 15.25 -6.375 15.25 C-6.40185412 12.93756208 -6.42132841 10.6250373 -6.4375 8.3125 C-6.44910156 7.02472656 -6.46070312 5.73695313 -6.47265625 4.41015625 C-6.31476092 -0.69933668 -4.64476536 0.07314591 0 0 Z " fill="#BDAE83" transform="translate(92.375,187.75)"/>
<path d="M0 0 C9.1796875 -0.29296875 9.1796875 -0.29296875 12 0 C14.28062828 3.42094242 14.21925007 4.68187222 14.125 8.6875 C14.10695313 9.68136719 14.08890625 10.67523438 14.0703125 11.69921875 C14.03550781 12.83810547 14.03550781 12.83810547 14 14 C12.35 14.33 10.7 14.66 9 15 C8.34 13.35 7.68 11.7 7 10 C6.773125 10.639375 6.54625 11.27875 6.3125 11.9375 C5.879375 12.618125 5.44625 13.29875 5 14 C3.35 14.33 1.7 14.66 0 15 C0 10.05 0 5.1 0 0 Z " fill="#77787E" transform="translate(95,13)"/>
<path d="M0 0 C2.375 1.6875 2.375 1.6875 4 4 C4.25 6.75 4.25 6.75 4 9 C1.03 9 -1.94 9 -5 9 C-4.67 9.66 -4.34 10.32 -4 11 C-3.01 11.33 -2.02 11.66 -1 12 C-1 11.34 -1 10.68 -1 10 C0.65 10.33 2.3 10.66 4 11 C3.4375 12.9375 3.4375 12.9375 2 15 C-1.80051114 16.07561636 -4.12699321 16.30365454 -7.875 15 C-10 13 -10 13 -11 9.625 C-11 5.65208995 -10.44099676 4.07384778 -8 1 C-5.15916359 -0.42041821 -3.14522722 -0.31452272 0 0 Z M-5 4 C-5 4.66 -5 5.32 -5 6 C-3.68 5.67 -2.36 5.34 -1 5 C-2.32 4.67 -3.64 4.34 -5 4 Z " fill="#5C5247" transform="translate(129,188)"/>
<path d="M0 0 C2.1796875 1.12890625 2.1796875 1.12890625 4 3 C4.390625 5.91796875 4.390625 5.91796875 4.25 9.1875 C4.21390625 10.27417969 4.1778125 11.36085938 4.140625 12.48046875 C4.07101563 13.72763672 4.07101563 13.72763672 4 15 C2.23186888 15.24915939 0.46025018 15.47366632 -1.3125 15.6875 C-2.29863281 15.81511719 -3.28476563 15.94273437 -4.30078125 16.07421875 C-7 16 -7 16 -8.86328125 14.6796875 C-10 13 -10 13 -9.875 10.4375 C-9 8 -9 8 -6 6 C-3.3125 5.875 -3.3125 5.875 -1 6 C-1 5.34 -1 4.68 -1 4 C-5.455 4.495 -5.455 4.495 -10 5 C-7.3091163 -0.3817674 -5.79447792 -0.46355823 0 0 Z M-4 9 C-4.33 9.99 -4.66 10.98 -5 12 C-3.68 11.67 -2.36 11.34 -1 11 C-1 10.34 -1 9.68 -1 9 C-1.99 9 -2.98 9 -4 9 Z " fill="#323E4A" transform="translate(121,337)"/>
<path d="M0 0 C2.875 1.5625 2.875 1.5625 5 4 C5.52771588 7.69401119 5.4772351 9.99250368 3.875 13.375 C1.25065402 15.64943318 -0.54847562 15.93096951 -4 16 C-6.32731556 14.86220128 -8.16840714 13.83159286 -10 12 C-10.58230683 4.89585666 -10.58230683 4.89585666 -8.375 1.5 C-5.25991849 -0.4674199 -3.62829011 -0.5923739 0 0 Z M-4 4 C-4.33 4.33 -4.66 4.66 -5 5 C-4.71269945 7.33944736 -4.38063221 9.6739143 -4 12 C-2.68 11.34 -1.36 10.68 0 10 C-0.33 8.02 -0.66 6.04 -1 4 C-1.99 4 -2.98 4 -4 4 Z " fill="#6B6866" transform="translate(80,188)"/>
<path d="M0 0 C10.625 -0.25 10.625 -0.25 14 2 C14.29296875 5.0390625 14.29296875 5.0390625 14.1875 8.625 C14.16042969 9.81351563 14.13335937 11.00203125 14.10546875 12.2265625 C14.07066406 13.14179688 14.03585938 14.05703125 14 15 C12.35 15 10.7 15 9 15 C8.67 11.7 8.34 8.4 8 5 C7.34 5 6.68 5 6 5 C5.67 8.3 5.34 11.6 5 15 C3.35 15 1.7 15 0 15 C0 10.05 0 5.1 0 0 Z " fill="#A3A19D" transform="translate(103,188)"/>
<path d="M0 0 C3.54583849 0.67899035 4.76699181 1.72414313 6.9375 4.5625 C6.9375 5.2225 6.9375 5.8825 6.9375 6.5625 C3.89363276 6.64476668 1.86574652 6.53858217 -1.0625 5.5625 C-1.0625 7.5425 -1.0625 9.5225 -1.0625 11.5625 C-0.4025 11.5625 0.2575 11.5625 0.9375 11.5625 C1.2675 10.9025 1.5975 10.2425 1.9375 9.5625 C3.5875 9.8925 5.2375 10.2225 6.9375 10.5625 C6.60010373 13.092972 6.3313922 14.2443563 4.3125 15.875 C0.86109234 16.87409169 -1.60508755 16.44256862 -5.0625 15.5625 C-7.61328958 13.34084456 -7.99582671 11.95420557 -8.5625 8.625 C-7.72746421 3.51040581 -5.079319 0.93293614 0 0 Z " fill="#636A71" transform="translate(142.0625,187.4375)"/>
<path d="M0 0 C0.99 0.66 1.98 1.32 3 2 C3.36076355 4.5942688 3.36076355 4.5942688 3.34057617 7.91845703 C3.34034958 9.15959259 3.34012299 10.40072815 3.33988953 11.67947388 C3.32456848 13.03892372 3.30892047 14.39836991 3.29296875 15.7578125 C3.28737427 17.1450047 3.28310347 18.53220283 3.28010559 19.91940308 C3.26864497 23.57249281 3.23916786 27.22522534 3.20599365 30.87817383 C3.17531867 34.60493131 3.16160579 38.33174645 3.14648438 42.05859375 C3.11429886 49.37255877 3.06308839 56.68622936 3 64 C2.34 64 1.68 64 1 64 C1 46.51 1 29.02 1 11 C0.34 11 -0.32 11 -1 11 C-2.1577506 7.52674819 -2.06866652 4.63932552 -2 1 C-1.34 0.67 -0.68 0.34 0 0 Z " fill="#888888" transform="translate(102,252)"/>
<path d="M0 0 C1.19109375 0.00773437 1.19109375 0.00773437 2.40625 0.015625 C3.2003125 0.01046875 3.994375 0.0053125 4.8125 0 C6.90625 0.265625 6.90625 0.265625 8.90625 2.265625 C9.15625 5.765625 9.15625 5.765625 8.90625 9.265625 C6.50278621 11.66908879 5.76724805 11.58646247 2.46875 11.640625 C-1.7498443 11.53872659 -1.7498443 11.53872659 -4.21875 9.578125 C-5.31860924 6.67135414 -5.09240722 5.18477687 -4.09375 2.265625 C-2.09375 0.265625 -2.09375 0.265625 0 0 Z " fill="#6E6E6E" transform="translate(101.09375,49.734375)"/>
<path d="M0 0 C0.66 0.2475 1.32 0.495 2 0.75 C2.86625 0.75 3.7325 0.75 4.625 0.75 C7 0.75 7 0.75 9 1.75 C11.04055005 1.82065617 13.08334257 1.83421976 15.125 1.8125 C16.22070312 1.80347656 17.31640625 1.79445313 18.4453125 1.78515625 C19.28835937 1.77355469 20.13140625 1.76195312 21 1.75 C21 2.08 21 2.41 21 2.75 C16.79405774 3.47795155 14.19895255 3.79973814 10 2.75 C10 7.37 10 11.99 10 16.75 C9.34 16.75 8.68 16.75 8 16.75 C7.67 17.41 7.34 18.07 7 18.75 C7 13.47 7 8.19 7 2.75 C5.68 2.75 4.36 2.75 3 2.75 C2.67 3.41 2.34 4.07 2 4.75 C2 4.09 2 3.43 2 2.75 C-2.33229715 3.6104139 -2.33229715 3.6104139 -6 5.75 C-6.13568319 9.41344611 -6.16461426 12.25615721 -5 15.75 C-5.4375 18.4375 -5.4375 18.4375 -6 20.75 C-10 16.75 -10 16.75 -10.1953125 13.4921875 C-10.17210938 12.21601563 -10.14890625 10.93984375 -10.125 9.625 C-10.10695313 8.34367187 -10.08890625 7.06234375 -10.0703125 5.7421875 C-10.04710938 4.75476563 -10.02390625 3.76734375 -10 2.75 C-11.32 2.42 -12.64 2.09 -14 1.75 C-11.625 1.625 -11.625 1.625 -9 1.75 C-8.34 2.41 -7.68 3.07 -7 3.75 C-6.2575 3.069375 -5.515 2.38875 -4.75 1.6875 C-2 -0.25 -2 -0.25 0 0 Z M-9 5.75 C-8 7.75 -8 7.75 -8 7.75 Z " fill="#E3E3E3" transform="translate(85,10.25)"/>
<path d="M0 0 C1.65 0 3.3 0 5 0 C5 0.99 5 1.98 5 3 C5.99 3 6.98 3 8 3 C8 4.32 8 5.64 8 7 C7.01 7 6.02 7 5 7 C5 9.64 5 12.28 5 15 C5.99 15 6.98 15 8 15 C7.67 16.32 7.34 17.64 7 19 C1.125 18.125 1.125 18.125 0 17 C-0.07205511 15.31391034 -0.08386068 13.62499341 -0.0625 11.9375 C-0.05347656 11.01839844 -0.04445312 10.09929687 -0.03515625 9.15234375 C-0.02355469 8.44207031 -0.01195312 7.73179687 0 7 C-0.66 7 -1.32 7 -2 7 C-2 5.68 -2 4.36 -2 3 C-1.34 3 -0.68 3 0 3 C0 2.01 0 1.02 0 0 Z " fill="#7D7B7B" transform="translate(151,185)"/>
<path d="M0 0 C2.4375 1.875 2.4375 1.875 4 4 C4 4.66 4 5.32 4 6 C-0.455 5.01 -0.455 5.01 -5 4 C-4.34304975 7.01425856 -4.34304975 7.01425856 -2.40625 8.02734375 C-1.7771875 8.32769531 -1.148125 8.62804688 -0.5 8.9375 C2.86426868 10.75115925 2.86426868 10.75115925 4.125 13.0625 C4 15 4 15 2.5625 16.75 C2.046875 17.1625 1.53125 17.575 1 18 C0.67 17.34 0.34 16.68 0 16 C0.33 15.01 0.66 14.02 1 13 C-0.258125 12.731875 -1.51625 12.46375 -2.8125 12.1875 C-5.19408877 11.5762958 -6.90601547 11.05874033 -9 9.75 C-10.53229334 7.06848666 -10.38493881 5.01535399 -10 2 C-6.2794164 -0.48038907 -4.40203429 -0.46337203 0 0 Z " fill="#5E5653" transform="translate(64,7)"/>
<path d="M0 0 C3.3 0 6.6 0 10 0 C10 1.32 10 2.64 10 4 C9.01 4.33 8.02 4.66 7 5 C6.67 8.3 6.34 11.6 6 15 C3.69 15 1.38 15 -1 15 C-0.67 10.05 -0.34 5.1 0 0 Z " fill="#B3B3B0" transform="translate(101,337)"/>
<path d="M0 0 C2.00720923 0.28674418 4.0085944 0.61866701 6 1 C5.814375 1.639375 5.62875 2.27875 5.4375 2.9375 C5.293125 3.618125 5.14875 4.29875 5 5 C5.33 5.33 5.66 5.66 6 6 C6.38021934 10.3091525 5.2834998 13.9088444 4 18 C2.68 17.67 1.36 17.34 0 17 C0 16.01 0 15.02 0 14 C-0.66 14 -1.32 14 -2 14 C-2.33 15.32 -2.66 16.64 -3 18 C-3.20086443 14.28400809 -3.1519437 13.22791555 -1 10 C-0.79600471 7.74614216 -0.79600471 7.74614216 -0.9375 5.375 C-0.99174253 3.91752688 -1.02033542 2.45834036 -1 1 C-0.67 0.67 -0.34 0.34 0 0 Z " fill="#A2A2A2" transform="translate(101,61)"/>
<path d="M0 0 C5.28 0 10.56 0 16 0 C16 1.32 16 2.64 16 4 C14.35 4.33 12.7 4.66 11 5 C10.67 7.31 10.34 9.62 10 12 C9.01 12 8.02 12 7 12 C6 11 6 11 5.9375 7.9375 C5.958125 6.968125 5.97875 5.99875 6 5 C4.02 4.34 2.04 3.68 0 3 C0 2.01 0 1.02 0 0 Z " fill="#6E6E6E" transform="translate(94,219)"/>
<path d="M0 0 C0.33 0 0.66 0 1 0 C1.06058594 0.63808594 1.12117188 1.27617187 1.18359375 1.93359375 C1.26738281 2.75988281 1.35117187 3.58617187 1.4375 4.4375 C1.55931641 5.67306641 1.55931641 5.67306641 1.68359375 6.93359375 C1.78930815 8.98662025 1.78930815 8.98662025 3 10 C5.95817107 10.25005386 5.95817107 10.25005386 9 10 C9.66 9.34 10.32 8.68 11 8 C13.625 7.875 13.625 7.875 16 8 C15.07739356 11.10331257 14.29502729 12.74711947 11.8125 14.875 C8.04743572 16.38102571 5.86809993 16.14610368 2 15 C-0.9286084 11.97692036 -1.17907888 9.29895118 -1.25 5.25 C-1.16891892 1.16891892 -1.16891892 1.16891892 0 0 Z " fill="#262020" transform="translate(53,188)"/>
<path d="M0 0 C1.98 0 3.96 0 6 0 C6 4.95 6 9.9 6 15 C4.02 15 2.04 15 0 15 C0 10.05 0 5.1 0 0 Z " fill="#706D72" transform="translate(143,337)"/>
<path d="M0 0 C2.97 0.33 5.94 0.66 9 1 C9 1.99 9 2.98 9 4 C8.01 4.33 7.02 4.66 6 5 C5.67 8.3 5.34 11.6 5 15 C3.35 15 1.7 15 0 15 C0 10.05 0 5.1 0 0 Z " fill="#888687" transform="translate(65,337)"/>
<path d="M0 0 C1.32 0 2.64 0 4 0 C4 0.66 4 1.32 4 2 C4.721875 1.855625 5.44375 1.71125 6.1875 1.5625 C8.0625 1.1875 9.9375 0.8125 11.8125 0.4375 C12.534375 0.293125 13.25625 0.14875 14 0 C13.84518205 2.70931419 13.51827919 4.46584039 11.59765625 6.4453125 C10.10228292 7.67679642 8.5537076 8.8429837 7 10 C5.82174642 9.09827532 4.65768423 8.17798498 3.5 7.25 C2.8503125 6.73953125 2.200625 6.2290625 1.53125 5.703125 C0 4 0 4 0 0 Z " fill="#747474" transform="translate(95,416)"/>
<path d="M0 0 C4.4668008 -0.36217304 4.4668008 -0.36217304 6.65625 1.125 C8.59481574 3.82997545 8.2934299 5.90367323 8.1875 9.1875 C8.16042969 10.27417969 8.13335937 11.36085938 8.10546875 12.48046875 C8.07066406 13.31191406 8.03585938 14.14335937 8 15 C6.35 15 4.7 15 3 15 C2.67 11.04 2.34 7.08 2 3 C1.01 2.67 0.02 2.34 -1 2 C-0.67 1.34 -0.34 0.68 0 0 Z " fill="#332622" transform="translate(157,337)"/>
<path d="M0 0 C4.4668008 -0.36217304 4.4668008 -0.36217304 6.65625 1.125 C8.59481574 3.82997545 8.2934299 5.90367323 8.1875 9.1875 C8.16042969 10.27417969 8.13335937 11.36085937 8.10546875 12.48046875 C8.07066406 13.31191406 8.03585938 14.14335937 8 15 C6.35 15 4.7 15 3 15 C2.67 11.04 2.34 7.08 2 3 C1.01 2.67 0.02 2.34 -1 2 C-0.67 1.34 -0.34 0.68 0 0 Z " fill="#6A6D6F" transform="translate(93,188)"/>
<path d="M0 0 C0.66 0 1.32 0 2 0 C2 0.99 2 1.98 2 3 C2.9590625 3.3403125 2.9590625 3.3403125 3.9375 3.6875 C6 5 6 5 6.75 7.625 C6.8325 8.40875 6.915 9.1925 7 10 C6.01 10 5.02 10 4 10 C4.33 10.5775 4.66 11.155 5 11.75 C6 14 6 14 6 18 C5.34 18 4.68 18 4 18 C4 17.34 4 16.68 4 16 C3.360625 15.835 2.72125 15.67 2.0625 15.5 C0 14 0 14 -0.8125 10.25 C-1.09783497 6.69628262 -0.78534595 3.49042646 0 0 Z M0 6 C1 8 1 8 1 8 Z " fill="#727272" transform="translate(99,75)"/>
<path d="M0 0 C1.99954746 -0.04254356 4.00041636 -0.04080783 6 0 C7 1 7 1 7.09765625 3.94140625 C7.08605469 5.13636719 7.07445313 6.33132812 7.0625 7.5625 C7.05347656 8.76003906 7.04445313 9.95757812 7.03515625 11.19140625 C7.02355469 12.11824219 7.01195313 13.04507813 7 14 C5.35 14 3.7 14 2 14 C1.93941406 13.32453125 1.87882812 12.6490625 1.81640625 11.953125 C1.73261719 11.06109375 1.64882812 10.1690625 1.5625 9.25 C1.48128906 8.36828125 1.40007812 7.4865625 1.31640625 6.578125 C1.03761535 4.30649548 0.61209423 2.20148177 0 0 Z " fill="#7A7D80" transform="translate(110,189)"/>
<path d="M0 0 C0.99 0 1.98 0 3 0 C3.05411124 2.41696872 3.09372278 4.83271787 3.125 7.25 C3.15013672 8.27287109 3.15013672 8.27287109 3.17578125 9.31640625 C3.21213482 13.0608235 3.07944349 15.82352727 1 19 C-1.64 19 -4.28 19 -7 19 C-5 16 -5 16 -2.921875 15.2578125 C-2.28765625 14.84273437 -1.6534375 14.42765625 -1 14 C-0.29211565 10.66024628 -0.29211565 10.66024628 -0.25 6.875 C-0.19328125 5.59367188 -0.1365625 4.31234375 -0.078125 2.9921875 C-0.05234375 2.00476563 -0.0265625 1.01734375 0 0 Z " fill="#0E121B" transform="translate(130,8)"/>
<path d="M0 0 C3.57763189 -0.32523926 5.39542581 -0.42956587 8.375 1.6875 C10.27258004 4.38790237 10.35882213 5.77060081 10 9 C7.03 9 4.06 9 1 9 C1.33 9.99 1.66 10.98 2 12 C1.01 12 0.02 12 -1 12 C-0.67 9.36 -0.34 6.72 0 4 C0.33 4.66 0.66 5.32 1 6 C1.99 5.67 2.98 5.34 4 5 C3.34 4.34 2.68 3.68 2 3 C2.66 3 3.32 3 4 3 C4 2.34 4 1.68 4 1 C2.68 0.67 1.36 0.34 0 0 Z " fill="#595D62" transform="translate(123,188)"/>
<path d="M0 0 C0.66 0 1.32 0 2 0 C2 2.97 2 5.94 2 9 C-5.16788767 10.33638584 -5.16788767 10.33638584 -8.9375 8.8125 C-11.16229344 6.85737849 -11.69977741 5.90215168 -12 3 C-8.30769095 2.79487172 -6.23260467 3.27594418 -3 5 C-2.01 5 -1.02 5 0 5 C-0.2784375 4.0409375 -0.2784375 4.0409375 -0.5625 3.0625 C-0.706875 2.381875 -0.85125 1.70125 -1 1 C-0.67 0.67 -0.34 0.34 0 0 Z " fill="#3A3839" transform="translate(34,343)"/>
<path d="M0 0 C2.1796875 1.12890625 2.1796875 1.12890625 4 3 C4.390625 5.91796875 4.390625 5.91796875 4.25 9.1875 C4.21390625 10.27417969 4.1778125 11.36085938 4.140625 12.48046875 C4.07101563 13.72763672 4.07101563 13.72763672 4 15 C3.67 15 3.34 15 3 15 C3 12.03 3 9.06 3 6 C2.34 6 1.68 6 1 6 C1 5.01 1 4.02 1 3 C0.34 4.32 -0.32 5.64 -1 7 C-2.65 7 -4.3 7 -6 7 C-4.68 6.67 -3.36 6.34 -2 6 C-2 5.34 -2 4.68 -2 4 C-4.64 4.33 -7.28 4.66 -10 5 C-7.6853348 -0.12533009 -5.56888064 -0.44551045 0 0 Z " fill="#76787B" transform="translate(59,337)"/>
<path d="M0 0 C0.99 0 1.98 0 3 0 C3 4.62 3 9.24 3 14 C4.32 14.33 5.64 14.66 7 15 C7 15.66 7 16.32 7 17 C2.25 18.125 2.25 18.125 0 17 C0 13.04 0 9.08 0 5 C-0.66 5 -1.32 5 -2 5 C-2 4.34 -2 3.68 -2 3 C-1.34 3 -0.68 3 0 3 C0 2.01 0 1.02 0 0 Z " fill="#040514" transform="translate(78,335)"/>
<path d="M0 0 C2.31 0 4.62 0 7 0 C7.33 0.99 7.66 1.98 8 3 C6.68 3 5.36 3 4 3 C4 6.96 4 10.92 4 15 C2.68 15 1.36 15 0 15 C0 10.05 0 5.1 0 0 Z " fill="#2A2527" transform="translate(95,13)"/>
<path d="M0 0 C0.99 0 1.98 0 3 0 C3.33 2.97 3.66 5.94 4 9 C5.32 9.33 6.64 9.66 8 10 C8 10.66 8 11.32 8 12 C5.36 12 2.72 12 0 12 C-1.95143115 9.13024831 -1.98930952 7.87385237 -1.6875 4.3125 C-1 1 -1 1 0 0 Z " fill="#413836" transform="translate(168,339)"/>
<path d="M0 0 C3.09244792 0.03255208 6.18489583 0.06510417 9.27734375 0.09765625 C9.27734375 5.70765625 9.27734375 11.31765625 9.27734375 17.09765625 C8.94734375 17.09765625 8.61734375 17.09765625 8.27734375 17.09765625 C8.27734375 11.81765625 8.27734375 6.53765625 8.27734375 1.09765625 C7.28734375 1.09765625 6.29734375 1.09765625 5.27734375 1.09765625 C4.11959315 4.57090806 4.20867723 7.45833073 4.27734375 11.09765625 C3.94734375 11.09765625 3.61734375 11.09765625 3.27734375 11.09765625 C2.94734375 9.11765625 2.61734375 7.13765625 2.27734375 5.09765625 C1.61734375 5.09765625 0.95734375 5.09765625 0.27734375 5.09765625 C-0.05265625 7.07765625 -0.38265625 9.05765625 -0.72265625 11.09765625 C-1.05265625 11.09765625 -1.38265625 11.09765625 -1.72265625 11.09765625 C-1.72265625 8.12765625 -1.72265625 5.15765625 -1.72265625 2.09765625 C-2.38265625 1.76765625 -3.04265625 1.43765625 -3.72265625 1.09765625 C-2.72265625 0.09765625 -2.72265625 0.09765625 0 0 Z " fill="#A0ACAA" transform="translate(172.72265625,336.90234375)"/>
<path d="M0 0 C4.62 0 9.24 0 14 0 C14.33 1.32 14.66 2.64 15 4 C9.72 4 4.44 4 -1 4 C-0.67 2.68 -0.34 1.36 0 0 Z " fill="#5B5B5B" transform="translate(95,160)"/>
<path d="M0 0 C1.89213369 2.38573379 3.02391783 4.07175348 4 7 C1.75487738 8.12256131 0.48543351 8.13413762 -2 8.125 C-3.051875 8.12886719 -3.051875 8.12886719 -4.125 8.1328125 C-6 8 -6 8 -8 7 C-7.67 5.02 -7.34 3.04 -7 1 C-3.535 0.505 -3.535 0.505 0 0 Z " fill="#CFCCC6" transform="translate(87,25)"/>
<path d="M0 0 C3.125 -0.1875 3.125 -0.1875 6 0 C6 0.66 6 1.32 6 2 C5.01 2 4.02 2 3 2 C2.67 5.3 2.34 8.6 2 12 C3.32 12 4.64 12 6 12 C6 12.66 6 13.32 6 14 C3.3335118 14.21620175 1.55995679 14.30894168 -0.8125 13 C-2.6712883 9.86940917 -2.55145843 6.55225172 -2 3 C-1.34 2.01 -0.68 1.02 0 0 Z " fill="#443831" transform="translate(72,189)"/>
<path d="M0 0 C0.99 0.33 1.98 0.66 3 1 C3.12375 1.804375 3.2475 2.60875 3.375 3.4375 C3.684375 4.7059375 3.684375 4.7059375 4 6 C4.66 6.33 5.32 6.66 6 7 C6 4.69 6 2.38 6 0 C6.33 0 6.66 0 7 0 C7.48590022 7.28850325 7.48590022 7.28850325 5.25 10.5625 C3 12 3 12 0.75 11.75 C-0.11625 11.37875 -0.11625 11.37875 -1 11 C-0.34 11 0.32 11 1 11 C1 10.34 1 9.68 1 9 C-0.32 8.34 -1.64 7.68 -3 7 C-2.625 4.5625 -2.625 4.5625 -2 2 C-1.34 1.67 -0.68 1.34 0 1 C0 0.67 0 0.34 0 0 Z " fill="#6D7073" transform="translate(144,16)"/>
<path d="M0 0 C0.66 0 1.32 0 2 0 C2 0.99 2 1.98 2 3 C2.66 3 3.32 3 4 3 C4 5.97 4 8.94 4 12 C3.01 12 2.02 12 1 12 C1 9.69 1 7.38 1 5 C-0.99983534 5.79117904 -0.99983534 5.79117904 -3 7 C-3.33 7.99 -3.66 8.98 -4 10 C-5.32 10 -6.64 10 -8 10 C-7.67 8.35 -7.34 6.7 -7 5 C-4.69 4.34 -2.38 3.68 0 3 C0 2.01 0 1.02 0 0 Z " fill="#050310" transform="translate(58,340)"/>
<path d="M0 0 C1.32 0.33 2.64 0.66 4 1 C4 5.62 4 10.24 4 15 C2.68 15 1.36 15 0 15 C0 10.05 0 5.1 0 0 Z " fill="#707070" transform="translate(100,130)"/>
<path d="M0 0 C0.66 0.33 1.32 0.66 2 1 C2 3.97 2 6.94 2 10 C4.97 10.495 4.97 10.495 8 11 C7.67 12.32 7.34 13.64 7 15 C6.67 14.34 6.34 13.68 6 13 C4.88625 13.061875 3.7725 13.12375 2.625 13.1875 C1.42875 13.125625 0.2325 13.06375 -1 13 C-3.46324069 9.30513897 -3.38991688 7.36706908 -3 3 C-1.5 1.0625 -1.5 1.0625 0 0 Z " fill="#1C1314" transform="translate(81,13)"/>
<path d="M0 0 C1.32 0 2.64 0 4 0 C4 4.95 4 9.9 4 15 C2.68 15 1.36 15 0 15 C0 10.05 0 5.1 0 0 Z " fill="#2A272B" transform="translate(71,13)"/>
<path d="M0 0 C0.99 0 1.98 0 3 0 C3 6.27 3 12.54 3 19 C2.01 19 1.02 19 0 19 C0 12.73 0 6.46 0 0 Z " fill="#4F707D" transform="translate(139,333)"/>
<path d="M0 0 C1.5 1 1.5 1 3 3 C3.44286739 5.72533777 3.44286739 8.27466223 3 11 C1.5 13 1.5 13 0 14 C-2 12 -2 12 -2.265625 9.6875 C-2.26046875 8.800625 -2.2553125 7.91375 -2.25 7 C-2.25515625 6.113125 -2.2603125 5.22625 -2.265625 4.3125 C-2 2 -2 2 0 0 Z " fill="#757575" transform="translate(102,235)"/>
<path d="M0 0 C2 3.75 2 3.75 2 6 C5.3 6.99 8.6 7.98 12 9 C11.67 10.32 11.34 11.64 11 13 C8.69 12.67 6.38 12.34 4 12 C4 11.34 4 10.68 4 10 C3.01 10 2.02 10 1 10 C1.99 11.98 2.98 13.96 4 16 C2.0625 15.25 2.0625 15.25 0 14 C-0.75 11.875 -0.75 11.875 -1 10 C-0.01 9.67 0.98 9.34 2 9 C1.67 8.443125 1.34 7.88625 1 7.3125 C-0.1309601 4.69715478 -0.15662974 2.8193354 0 0 Z " fill="#E9E5DB" transform="translate(53,11)"/>
<path d="M0 0 C3.4375 0.1875 3.4375 0.1875 4.4375 1.1875 C4.50929964 2.70678038 4.52142007 4.22917482 4.5 5.75 C4.49097656 6.57628906 4.48195312 7.40257812 4.47265625 8.25390625 C4.46105469 8.89199219 4.44945312 9.53007812 4.4375 10.1875 C3.4475 9.8575 2.4575 9.5275 1.4375 9.1875 C1.1075 7.5375 0.7775 5.8875 0.4375 4.1875 C-1.51249129 4.38221111 -1.51249129 4.38221111 -3.5625 5.1875 C-4.84686734 7.1712767 -4.84686734 7.1712767 -5.5625 9.1875 C-5.6875 5.8125 -5.6875 5.8125 -5.5625 2.1875 C-3.5625 0.1875 -3.5625 0.1875 0 0 Z " fill="#15161C" transform="translate(145.5625,12.8125)"/>
<path d="M0 0 C0.33 0 0.66 0 1 0 C1.66 2.31 2.32 4.62 3 7 C5.97065509 6.65772428 5.97065509 6.65772428 9 6 C9.33 5.34 9.66 4.68 10 4 C11.65 4.33 13.3 4.66 15 5 C14.66260373 7.530472 14.3938922 8.6818563 12.375 10.3125 C8.92359234 11.31159169 6.45741245 10.88006862 3 10 C1.0625 8.3125 1.0625 8.3125 0 6 C-0.1875 2.75 -0.1875 2.75 0 0 Z " fill="#53575C" transform="translate(134,193)"/>
<path d="M0 0 C5.36170213 0.59574468 5.36170213 0.59574468 7.875 2.1875 C9.49664405 4.80014875 9.20031953 6.99520702 9 10 C8.01 10.33 7.02 10.66 6 11 C5.875 5.25 5.875 5.25 7 3 C4.7763932 4.9254644 4.7763932 4.9254644 4 8 C3.5875 7.54625 3.175 7.0925 2.75 6.625 C0.93591905 4.94049626 -0.75285627 4.00734029 -3 3 C-2.34 3 -1.68 3 -1 3 C-0.67 2.01 -0.34 1.02 0 0 Z " fill="#656260" transform="translate(29,340)"/>
<path d="M0 0 C0.99 0 1.98 0 3 0 C4.04976964 3.14930893 4.10131595 5.38814456 4.0625 8.6875 C4.05347656 9.68136719 4.04445313 10.67523438 4.03515625 11.69921875 C4.02355469 12.45847656 4.01195313 13.21773438 4 14 C2.68 14 1.36 14 0 14 C0 9.38 0 4.76 0 0 Z " fill="#21141F" transform="translate(102,338)"/>
<path d="M0 0 C0.99 0 1.98 0 3 0 C3.054138 2.24973447 3.09285491 4.49984383 3.125 6.75 C3.14820313 8.00296875 3.17140625 9.2559375 3.1953125 10.546875 C3.01537302 13.72820492 2.68998582 15.36521896 1 18 C0.34 17.67 -0.32 17.34 -1 17 C-0.98839844 16.16855469 -0.97679687 15.33710938 -0.96484375 14.48046875 C-0.95582031 13.39378906 -0.94679687 12.30710937 -0.9375 11.1875 C-0.92589844 10.10855469 -0.91429687 9.02960938 -0.90234375 7.91796875 C-0.86375234 4.93487831 -0.86375234 4.93487831 -2 2 C-1.34 2 -0.68 2 0 2 C0 1.34 0 0.68 0 0 Z " fill="#050517" transform="translate(178,338)"/>
<path d="M0 0 C0.99 0.66 1.98 1.32 3 2 C3.39935713 5.59421421 3.43544499 8.08072724 1.875 11.375 C-0.63065408 13.54656687 -2.75082115 13.7111841 -6 14 C-5.34 13.67 -4.68 13.34 -4 13 C-4 12.34 -4 11.68 -4 11 C-5.32 11 -6.64 11 -8 11 C-8 8.69 -8 6.38 -8 4 C-6 7.75 -6 7.75 -6 10 C-5.236875 9.67 -4.47375 9.34 -3.6875 9 C-1 8 -1 8 2 8 C1.34 5.36 0.68 2.72 0 0 Z " fill="#69717F" transform="translate(82,190)"/>
<path d="M0 0 C0.66 0.33 1.32 0.66 2 1 C1.34 2.65 0.68 4.3 0 6 C3.465 5.505 3.465 5.505 7 5 C7 3.68 7 2.36 7 1 C7.66 1 8.32 1 9 1 C9.93423645 4.01031744 10.04449911 4.86650268 9 8 C1.57142857 9.28571429 1.57142857 9.28571429 -2 8 C-1.125 1.125 -1.125 1.125 0 0 Z " fill="#807972" transform="translate(50,344)"/>
<path d="M0 0 C0.33 0.66 0.66 1.32 1 2 C1.99 2 2.98 2 4 2 C4 2.66 4 3.32 4 4 C3.01 4 2.02 4 1 4 C1 7.96 1 11.92 1 16 C0.01 15.67 -0.98 15.34 -2 15 C-2 11.37 -2 7.74 -2 4 C-1.34 4 -0.68 4 0 4 C0 2.68 0 1.36 0 0 Z " fill="#04030B" transform="translate(95,336)"/>
<path d="M0 0 C2.4375 0.6875 2.4375 0.6875 5 2 C5.8125 4.625 5.8125 4.625 6 7 C4.35 7 2.7 7 1 7 C0.67 6.01 0.34 5.02 0 4 C-2.31 4.66 -4.62 5.32 -7 6 C-7 4.68 -7 3.36 -7 2 C-4.69 2 -2.38 2 0 2 C0 1.34 0 0.68 0 0 Z " fill="#6A6E77" transform="translate(63,184)"/>
<path d="M0 0 C0.99 0 1.98 0 3 0 C3 1.32 3 2.64 3 4 C3.99 4 4.98 4 6 4 C6 4.66 6 5.32 6 6 C5.01 6 4.02 6 3 6 C3 8.97 3 11.94 3 15 C2.34 15 1.68 15 1 15 C1.0928125 13.6078125 1.0928125 13.6078125 1.1875 12.1875 C1.32377263 9.02056752 1.32377263 9.02056752 -0.5 7.25 C-0.995 6.8375 -1.49 6.425 -2 6 C-2 5.34 -2 4.68 -2 4 C-1.34 4 -0.68 4 0 4 C0 2.68 0 1.36 0 0 Z " fill="#060710" transform="translate(152,185)"/>
<path d="M0 0 C1.670625 0.061875 1.670625 0.061875 3.375 0.125 C2.88 0.516875 2.385 0.90875 1.875 1.3125 C-0.08093143 3.67591715 0.13292027 5.13935003 0.375 8.125 C-1.275 8.125 -2.925 8.125 -4.625 8.125 C-5.25 5.25 -5.25 5.25 -5.625 2.125 C-3.625 0.125 -3.625 0.125 0 0 Z " fill="#443C3A" transform="translate(116.625,343.875)"/>
<path d="M0 0 C1.67542976 0.28604898 3.34385343 0.61781233 5 1 C5 2.98 5 4.96 5 7 C3.34385343 7.38218767 1.67542976 7.71395102 0 8 C-1 7 -1 7 -1.125 4 C-1 1 -1 1 0 0 Z " fill="#EAEAEA" transform="translate(83,16)"/>
<path d="M0 0 C0.66 0 1.32 0 2 0 C2 6.27 2 12.54 2 19 C1.67 18.34 1.34 17.68 1 17 C0.01 17.33 -0.98 17.66 -2 18 C-2.66 17.34 -3.32 16.68 -4 16 C-2.68 16 -1.36 16 0 16 C-0.08378906 15.43152344 -0.16757813 14.86304688 -0.25390625 14.27734375 C-0.91910197 9.23364455 -0.9568837 4.99705931 0 0 Z " fill="#1F0F08" transform="translate(137,333)"/>
<path d="M0 0 C0.99 0 1.98 0 3 0 C3 4.62 3 9.24 3 14 C2.01 14 1.02 14 0 14 C0 9.38 0 4.76 0 0 Z " fill="#02040A" transform="translate(66,338)"/>
<path d="M0 0 C0.99 0 1.98 0 3 0 C3 4.62 3 9.24 3 14 C2.01 14 1.02 14 0 14 C0 9.38 0 4.76 0 0 Z " fill="#02030B" transform="translate(104,189)"/>
<path d="M0 0 C0.99 0.66 1.98 1.32 3 2 C2.67 4.64 2.34 7.28 2 10 C1.01 10 0.02 10 -1 10 C-2.4783226 7.04335481 -2.06032783 4.25770263 -2 1 C-1.34 0.67 -0.68 0.34 0 0 Z " fill="#868686" transform="translate(102,252)"/>
<path d="M0 0 C0.33 0.99 0.66 1.98 1 3 C1.66 3 2.32 3 3 3 C3 4.32 3 5.64 3 7 C2.01 7.495 2.01 7.495 1 8 C1 10.31 1 12.62 1 15 C1.66 15 2.32 15 3 15 C2.67 16.32 2.34 17.64 2 19 C1.01 19 0.02 19 -1 19 C-1 14.71 -1 10.42 -1 6 C-0.01 6 0.98 6 2 6 C2 5.34 2 4.68 2 4 C1.34 4 0.68 4 0 4 C0 2.68 0 1.36 0 0 Z " fill="#697A8A" transform="translate(97,334)"/>
<path d="M0 0 C0.66 0 1.32 0 2 0 C3.04976964 3.14930893 3.10131595 5.38814456 3.0625 8.6875 C3.05347656 9.68136719 3.04445312 10.67523438 3.03515625 11.69921875 C3.02355469 12.45847656 3.01195312 13.21773438 3 14 C2.01 14 1.02 14 0 14 C0 9.38 0 4.76 0 0 Z " fill="#040414" transform="translate(152,338)"/>
<path d="M0 0 C0.66 0 1.32 0 2 0 C2.93619813 3.15506142 3.1057123 5.96586502 3.0625 9.25 C3.05347656 10.14203125 3.04445313 11.0340625 3.03515625 11.953125 C3.02355469 12.62859375 3.01195313 13.3040625 3 14 C2.01 14 1.02 14 0 14 C0 9.38 0 4.76 0 0 Z " fill="#040517" transform="translate(88,189)"/>
<path d="M0 0 C0.99 0.33 1.98 0.66 3 1 C3.125 8.75 3.125 8.75 2 11 C1.34 11 0.68 11 0 11 C-1.62651522 7.74696956 -1.11453156 4.60774398 -1 1 C-0.67 0.67 -0.34 0.34 0 0 Z " fill="#7C7C7C" transform="translate(101,148)"/>
<path d="M0 0 C3.63300168 -0.10380005 6.33418546 0.26683709 10 1 C10 5.29 10 9.58 10 14 C9.67 14 9.34 14 9 14 C8.71125 12.88625 8.4225 11.7725 8.125 10.625 C7.30758671 6.99708908 7.30758671 6.99708908 5 5 C5.33 4.67 5.66 4.34 6 4 C4.35 3.67 2.7 3.34 1 3 C0.67 2.01 0.34 1.02 0 0 Z " fill="#D2D8DC" transform="translate(59,11)"/>
<path d="M0 0 C3.35595828 0.59927826 5.37801226 1.84622436 8 4 C7.42655063 6.86724686 7.1385485 7.8614515 5 10 C4.67 9.34 4.34 8.68 4 8 C4.33 7.01 4.66 6.02 5 5 C2.03 4.505 2.03 4.505 -1 4 C-0.67 2.68 -0.34 1.36 0 0 Z " fill="#1A191D" transform="translate(60,15)"/>
<path d="M0 0 C0.66 0.33 1.32 0.66 2 1 C1.67 4.3 1.34 7.6 1 11 C-1.31 11.33 -3.62 11.66 -6 12 C-5.1875 10.0625 -5.1875 10.0625 -4 8 C-3.01 7.67 -2.02 7.34 -1 7 C-0.67 6.34 -0.34 5.68 0 5 C-2.475 4.01 -2.475 4.01 -5 3 C-5 2.67 -5 2.34 -5 2 C-3.35 2 -1.7 2 0 2 C0 1.34 0 0.68 0 0 Z " fill="#797679" transform="translate(120,341)"/>
<path d="M0 0 C1.2065625 0.0309375 1.2065625 0.0309375 2.4375 0.0625 C2.4375 1.0525 2.4375 2.0425 2.4375 3.0625 C1.4475 3.0625 0.4575 3.0625 -0.5625 3.0625 C-0.8925 5.3725 -1.2225 7.6825 -1.5625 10.0625 C-2.5525 10.0625 -3.5425 10.0625 -4.5625 10.0625 C-4.42200482 8.58281676 -4.27495174 7.10375484 -4.125 5.625 C-4.04378906 4.80128906 -3.96257812 3.97757812 -3.87890625 3.12890625 C-3.4093501 0.06229881 -3.15462671 0.07694211 0 0 Z " fill="#292730" transform="translate(132.5625,336.9375)"/>
<path d="M0 0 C0.66 0 1.32 0 2 0 C2 3.96 2 7.92 2 12 C1.01 12 0.02 12 -1 12 C-1.02687279 10.18757948 -1.04633715 8.37504767 -1.0625 6.5625 C-1.07410156 5.55316406 -1.08570312 4.54382813 -1.09765625 3.50390625 C-1 1 -1 1 0 0 Z " fill="#070205" transform="translate(114,191)"/>
<path d="M0 0 C4.4668008 -0.36217304 4.4668008 -0.36217304 6.65625 1.125 C8.59481574 3.82997545 8.2934299 5.90367323 8.1875 9.1875 C8.16042969 10.27417969 8.13335937 11.36085938 8.10546875 12.48046875 C8.07066406 13.31191406 8.03585938 14.14335937 8 15 C7.67 15 7.34 15 7 15 C6.87882813 14.40832031 6.75765625 13.81664062 6.6328125 13.20703125 C5.38366313 6.91381706 5.38366313 6.91381706 3 1 C2.01 0.67 1.02 0.34 0 0 Z " fill="#707A90" transform="translate(157,337)"/>
<path d="M0 0 C1.65 0 3.3 0 5 0 C5 0.99 5 1.98 5 3 C5.99 3.33 6.98 3.66 8 4 C7.67 4.99 7.34 5.98 7 7 C6.34 7 5.68 7 5 7 C5 9.64 5 12.28 5 15 C4.67 15 4.34 15 4 15 C3.80467039 13.2300132 3.61901118 11.45895721 3.4375 9.6875 C3.33308594 8.70136719 3.22867188 7.71523438 3.12109375 6.69921875 C3 4 3 4 4 1 C3.01 1 2.02 1 1 1 C0.67 1.99 0.34 2.98 0 4 C0 2.68 0 1.36 0 0 Z " fill="#85919D" transform="translate(77,334)"/>
<path d="M0 0 C0.78375 0.04125 1.5675 0.0825 2.375 0.125 C0.89807692 4.80192308 0.89807692 4.80192308 -1.75 6.4375 C-2.36875 6.664375 -2.9875 6.89125 -3.625 7.125 C-3.295 6.135 -2.965 5.145 -2.625 4.125 C-4.605 4.125 -6.585 4.125 -8.625 4.125 C-8.00625 3.83625 -7.3875 3.5475 -6.75 3.25 C-0.67151163 0.03197674 -0.67151163 0.03197674 0 0 Z " fill="#686C73" transform="translate(66.625,195.875)"/>
<path d="M0 0 C3.70293685 -0.33663062 5.39534381 -0.47736015 8.375 1.875 C10 4 10 4 10 6 C8.35 6 6.7 6 5 6 C4.67 5.01 4.34 4.02 4 3 C1.99983534 1.79117904 1.99983534 1.79117904 0 1 C0 0.67 0 0.34 0 0 Z " fill="#66676A" transform="translate(139,188)"/>
<path d="M0 0 C0.66 0 1.32 0 2 0 C2 0.99 2 1.98 2 3 C2.99 3 3.98 3 5 3 C5 3.66 5 4.32 5 5 C4.01 5 3.02 5 2 5 C2 8.3 2 11.6 2 15 C-0.35119399 11.47320901 -0.21443452 9.97120515 -0.125 5.8125 C-0.10695312 4.72582031 -0.08890625 3.63914062 -0.0703125 2.51953125 C-0.04710937 1.68808594 -0.02390625 0.85664063 0 0 Z " fill="#040209" transform="translate(42,335)"/>
<path d="M0 0 C4.55384615 -0.36923077 4.55384615 -0.36923077 6.8125 1.5 C7.204375 1.995 7.59625 2.49 8 3 C7.01 4.485 7.01 4.485 6 6 C3.13275314 5.42655063 2.1385485 5.1385485 0 3 C0 2.01 0 1.02 0 0 Z " fill="#574F4E" transform="translate(22,346)"/>
<path d="M0 0 C0.99 0 1.98 0 3 0 C2.49396008 2.16874252 2.00016187 3.99967627 1 6 C1.66 6 2.32 6 3 6 C2.67 6.99 2.34 7.98 2 9 C0.68 8.34 -0.64 7.68 -2 7 C-1.125 1.125 -1.125 1.125 0 0 Z " fill="#101010" transform="translate(100,51)"/>
<path d="M0 0 C6.48292295 -0.3669579 6.48292295 -0.3669579 8.9375 1.375 C10 3 10 3 10 5 C6.7 4.34 3.4 3.68 0 3 C0 2.01 0 1.02 0 0 Z " fill="#05070A" transform="translate(58,8)"/>
<path d="M0 0 C0.66 0.99 1.32 1.98 2 3 C4.05003955 4.19232613 4.05003955 4.19232613 6 5 C6 5.66 6 6.32 6 7 C1.25 8.125 1.25 8.125 -1 7 C-0.67 4.69 -0.34 2.38 0 0 Z " fill="#3F4049" transform="translate(79,345)"/>
<path d="M0 0 C-1.98 0.99 -1.98 0.99 -4 2 C-3.01 2.66 -2.02 3.32 -1 4 C-5.455 4.495 -5.455 4.495 -10 5 C-7.2178219 -0.5643562 -5.86594058 -0.12752045 0 0 Z " fill="#87847F" transform="translate(121,337)"/>
<path d="M0 0 C1.65 0.33 3.3 0.66 5 1 C4.4375 2.9375 4.4375 2.9375 3 5 C-0.625 5.75 -0.625 5.75 -4 6 C-3.01 5.67 -2.02 5.34 -1 5 C-1 4.34 -1 3.68 -1 3 C-1.66 2.67 -2.32 2.34 -3 2 C-2.01 2 -1.02 2 0 2 C0 1.34 0 0.68 0 0 Z " fill="#6C7277" transform="translate(128,198)"/>
<path d="M0 0 C0.33 3.96 0.66 7.92 1 12 C0.01 12 -0.98 12 -2 12 C-2.33 8.37 -2.66 4.74 -3 1 C-1 0 -1 0 0 0 Z " fill="#0C010B" transform="translate(99,191)"/>
<path d="M0 0 C0.99 0 1.98 0 3 0 C2.67 2.64 2.34 5.28 2 8 C2.99 8.33 3.98 8.66 5 9 C3.35 8.67 1.7 8.34 0 8 C-0.38063221 5.6739143 -0.71269945 3.33944736 -1 1 C-0.67 0.67 -0.34 0.34 0 0 Z " fill="#110A08" transform="translate(136,192)"/>
<path d="M0 0 C2.875 0.3125 2.875 0.3125 6 1 C6.66 1.99 7.32 2.98 8 4 C7.01 4.495 7.01 4.495 6 5 C5.53248212 7.35599235 5.53248212 7.35599235 5.375 10.0625 C5.30023438 10.98160156 5.22546875 11.90070313 5.1484375 12.84765625 C5.09945312 13.55792969 5.05046875 14.26820313 5 15 C4.67 15 4.34 15 4 15 C3.67 10.38 3.34 5.76 3 1 C2.01 0.67 1.02 0.34 0 0 Z " fill="#94A8AC" transform="translate(87,188)"/>
<path d="M0 0 C0.33 0 0.66 0 1 0 C1 3.3 1 6.6 1 10 C0.01 10.495 0.01 10.495 -1 11 C-1 10.34 -1 9.68 -1 9 C-2.98 9 -4.96 9 -7 9 C-7 8.67 -7 8.34 -7 8 C-5.02 8 -3.04 8 -1 8 C-1 7.34 -1 6.68 -1 6 C-2.32 5.67 -3.64 5.34 -5 5 C-3.35 5 -1.7 5 0 5 C0 3.35 0 1.7 0 0 Z " fill="#8B7D70" transform="translate(177,343)"/>
<path d="M0 0 C1.67542976 0.28604898 3.34385343 0.61781233 5 1 C3.75 3.5 3.75 3.5 2 6 C0.68 6 -0.64 6 -2 6 C-1.125 1.125 -1.125 1.125 0 0 Z " fill="#23232D" transform="translate(52,344)"/>
<path d="M0 0 C2.875 0.3125 2.875 0.3125 6 1 C6.66 1.99 7.32 2.98 8 4 C7.01 4.495 7.01 4.495 6 5 C5.53248212 7.35599235 5.53248212 7.35599235 5.375 10.0625 C5.30023438 10.98160156 5.22546875 11.90070313 5.1484375 12.84765625 C5.09945312 13.55792969 5.05046875 14.26820313 5 15 C4.67 15 4.34 15 4 15 C3.67 10.38 3.34 5.76 3 1 C2.01 0.67 1.02 0.34 0 0 Z " fill="#94AFB4" transform="translate(151,337)"/>
<path d="M0 0 C0.33 0 0.66 0 1 0 C1.20625 1.11375 1.4125 2.2275 1.625 3.375 C2.305625 5.169375 2.305625 5.169375 3 7 C5.98395292 8.38401978 5.98395292 8.38401978 9 9 C9.33 9.66 9.66 10.32 10 11 C3.59296098 10.51644989 3.59296098 10.51644989 1.0625 8.3125 C-0.27148038 5.40913094 -0.21536552 3.15869424 0 0 Z " fill="#9E9388" transform="translate(134,193)"/>
<path d="M0 0 C0.30550781 0.62003906 0.61101562 1.24007813 0.92578125 1.87890625 C1.96404506 4.00002477 1.96404506 4.00002477 3.1875 5.9375 C4.24344992 8.61798826 3.75786685 10.27167933 3 13 C0.8245851 10.8245851 0.04054543 9.89848663 -0.09765625 6.8359375 C-0.08605469 6.02382813 -0.07445313 5.21171875 -0.0625 4.375 C-0.05347656 3.55773437 -0.04445313 2.74046875 -0.03515625 1.8984375 C-0.02355469 1.27195312 -0.01195313 0.64546875 0 0 Z " fill="#F9F4ED" transform="translate(76,18)"/>
<path d="M0 0 C0.33 0 0.66 0 1 0 C2.19287411 3.87684087 3 6.91621923 3 11 C2.34 11 1.68 11 1 11 C-0.98362069 8.08291076 -0.9876191 6.87619096 -0.625 3.25 C-0.41875 2.1775 -0.2125 1.105 0 0 Z " fill="#0D0D0D" transform="translate(102,82)"/>
<path d="M0 0 C1.85776765 3.13498292 2.20140476 5.37471432 2 9 C1.01 9 0.02 9 -1 9 C-1.09765625 2.84765625 -1.09765625 2.84765625 -1 1 C-0.67 0.67 -0.34 0.34 0 0 Z " fill="#0A0202" transform="translate(122,343)"/>
<path d="M0 0 C1.32 0.66 2.64 1.32 4 2 C3.67 2.99 3.34 3.98 3 5 C1.35 4.67 -0.3 4.34 -2 4 C-1.34 2.68 -0.68 1.36 0 0 Z " fill="#797379" transform="translate(145,331)"/>
<path d="M0 0 C1.5 1.1875 1.5 1.1875 3 3 C3.1875 5.6875 3.1875 5.6875 3 8 C2.34 8 1.68 8 1 8 C0.67 8.66 0.34 9.32 0 10 C-1.125 2.25 -1.125 2.25 0 0 Z " fill="#060309" transform="translate(81,190)"/>
<path d="M0 0 C6.15234375 0.5859375 6.15234375 0.5859375 8 1 C8.33 1.66 8.66 2.32 9 3 C6.03 3 3.06 3 0 3 C0 2.01 0 1.02 0 0 Z " fill="#1F1B19" transform="translate(79,29)"/>
<path d="M0 0 C0.66 0 1.32 0 2 0 C2 2.31 2 4.62 2 7 C0.68 7.33 -0.64 7.66 -2 8 C-3 6 -3 6 -2.6875 3.9375 C-2 2 -2 2 0 1 C0 0.67 0 0.34 0 0 Z " fill="#F7F7F4" transform="translate(144,16)"/>
<path d="M0 0 C0.66 0 1.32 0 2 0 C1.67 0.99 1.34 1.98 1 3 C0.34 3 -0.32 3 -1 3 C-0.34 5.31 0.32 7.62 1 10 C0.01 9.67 -0.98 9.34 -2 9 C-2.6875 6.75 -2.6875 6.75 -3 4 C-1.6875 1.6875 -1.6875 1.6875 0 0 Z " fill="#A9A18C" transform="translate(25,333)"/>
<path d="M0 0 C1.32 0 2.64 0 4 0 C4 0.66 4 1.32 4 2 C2.68 2.33 1.36 2.66 0 3 C0 4.98 0 6.96 0 9 C-1.4606285 6.35261084 -2 5.10551666 -2 2 C-1.34 2 -0.68 2 0 2 C0 1.34 0 0.68 0 0 Z " fill="#0B0D16" transform="translate(123,189)"/>
<path d="M0 0 C0.5625 1.9375 0.5625 1.9375 1 4 C0 5 0 5 -3.0625 5.0625 C-4.5165625 5.0315625 -4.5165625 5.0315625 -6 5 C-3.9927092 1.9890638 -3.16115776 1.36983503 0 0 Z " fill="#070506" transform="translate(129,22)"/>
<path d="M0 0 C1.98 0 3.96 0 6 0 C5.67 1.32 5.34 2.64 5 4 C3.02 4 1.04 4 -1 4 C-0.67 2.68 -0.34 1.36 0 0 Z " fill="#242223" transform="translate(83,13)"/>
<path d="M0 0 C0.66 0 1.32 0 2 0 C2 1.98 2 3.96 2 6 C1.01 6.33 0.02 6.66 -1 7 C-1.04254356 5.00045254 -1.04080783 2.99958364 -1 1 C-0.67 0.67 -0.34 0.34 0 0 Z " fill="#435367" transform="translate(36,344)"/>
<path d="M0 0 C2.64 0.33 5.28 0.66 8 1 C8 1.33 8 1.66 8 2 C6.02 2 4.04 2 2 2 C2 2.66 2 3.32 2 4 C1.01 3.67 0.02 3.34 -1 3 C-0.67 2.01 -0.34 1.02 0 0 Z " fill="#9E9B98" transform="translate(168,353)"/>
<path d="M0 0 C0.66 0.33 1.32 0.66 2 1 C1.67 3.31 1.34 5.62 1 8 C0.34 7.67 -0.32 7.34 -1 7 C-0.67 6.34 -0.34 5.68 0 5 C-2.475 4.01 -2.475 4.01 -5 3 C-5 2.67 -5 2.34 -5 2 C-3.35 2 -1.7 2 0 2 C0 1.34 0 0.68 0 0 Z " fill="#847A70" transform="translate(120,341)"/>
<path d="M0 0 C0.33 0 0.66 0 1 0 C1.66 3.63 2.32 7.26 3 11 C2.01 10.67 1.02 10.34 0 10 C0 6.7 0 3.4 0 0 Z " fill="#4C2E1F" transform="translate(93,341)"/>
<path d="M0 0 C0.99 0 1.98 0 3 0 C3 1.98 3 3.96 3 6 C2.01 6 1.02 6 0 6 C0 4.02 0 2.04 0 0 Z " fill="#525252" transform="translate(100,224)"/>
<path d="M0 0 C0.66 0 1.32 0 2 0 C3.85776765 3.13498292 4.20140476 5.37471432 4 9 C0 4.5 0 4.5 0 0 Z " fill="#0E0E0E" transform="translate(101,63)"/>
<path d="M0 0 C1.32 0.33 2.64 0.66 4 1 C4 1.66 4 2.32 4 3 C0.78548731 4.60725635 -2.43612536 4.05748185 -6 4 C-6 3.67 -6 3.34 -6 3 C-4.02 2.67 -2.04 2.34 0 2 C0 1.34 0 0.68 0 0 Z " fill="#76797F" transform="translate(87,29)"/>
<path d="M0 0 C0.33 0.66 0.66 1.32 1 2 C1.66 2.33 2.32 2.66 3 3 C2.01 3.66 1.02 4.32 0 5 C-1.19232613 7.05003955 -1.19232613 7.05003955 -2 9 C-2.125 5.625 -2.125 5.625 -2 2 C-1.34 1.34 -0.68 0.68 0 0 Z " fill="#5E6C77" transform="translate(142,13)"/>
<path d="M0 0 C0.33 0 0.66 0 1 0 C1 2.97 1 5.94 1 9 C0.67 9 0.34 9 0 9 C0 6.03 0 3.06 0 0 Z " fill="#FFFFFF" transform="translate(98,134)"/>
<path d="M0 0 C0.33 0 0.66 0 1 0 C1 1.65 1 3.3 1 5 C0.67 5 0.34 5 0 5 C0 3.35 0 1.7 0 0 Z " fill="#FFFFFF" transform="translate(105,137)"/>
<path d="" fill="#FFFFFF" transform="translate(0,0)"/>
<path d="" fill="#FFFFFF" transform="translate(0,0)"/>
<path d="" fill="#FFFFFF" transform="translate(0,0)"/>
<path d="" fill="#FFFFFF" transform="translate(0,0)"/>
<path d="" fill="#FFFFFF" transform="translate(0,0)"/>
</svg>
