<svg width="48" height="55" viewBox="0 0 48 55" fill="none" xmlns="http://www.w3.org/2000/svg">
<path d="M21.4141 11.7373C26.2621 9.33811 29.9675 5.12257 31.7248 0.00676398C31.8373 -0.302488 33.6647 10.0856 39.8216 12.0887C39.8216 12.0887 32.3714 15.6591 30.6073 22.7298C30.6143 22.8282 30.1856 17.114 21.4141 11.7373Z" fill="#231F20"/>
<path d="M32.1641 45.3825C36.1557 43.4045 39.2028 39.9278 40.6404 35.7113C40.7318 35.4583 42.2288 44.0049 47.3174 45.6496C47.3174 45.6496 41.1956 48.5875 39.7407 54.4C39.7197 54.4773 39.3682 49.7823 32.1641 45.3825Z" fill="#231F20"/>
<path d="M0 32.3939C3.85284 30.4814 6.79713 27.128 8.19518 23.0601C8.27953 22.8071 9.73442 31.0585 14.6473 32.647C14.6473 32.647 8.72935 35.4583 7.33068 41.0811C7.29554 41.1725 6.95818 36.6391 0 32.3939Z" fill="#231F20"/>
</svg>
