<svg width="165" height="163" viewBox="0 0 165 163" fill="none" xmlns="http://www.w3.org/2000/svg">
<path d="M16.8622 76.1935C16.8098 76.2524 16.6225 76.1068 16.4417 76.0726C16.2609 76.0383 16.0001 75.9752 15.9738 76.0997C15.9475 76.2241 15.8319 76.5438 15.9194 76.8964C15.9653 77.035 16.0373 77.1636 16.1313 77.2753L16.2138 77.3488L16.367 77.4852C16.5273 77.7325 16.6728 77.989 16.8027 78.2535C18.7421 82.0125 20.9422 85.6311 23.387 89.0828C24.5093 90.5921 25.7387 92.0188 27.0656 93.3518C28.8116 94.9855 30.3912 96.7885 31.7809 98.7344C32.1656 99.3939 31.3222 100.27 29.9654 100.773C28.5435 101.422 26.8983 101.36 25.5295 100.605C21.3005 97.5673 17.8184 93.6065 15.3473 89.023C14.5585 87.6584 13.6761 86.3501 12.7064 85.1075L11.2863 83.1667L10.5926 82.1897C10.3361 81.8134 10.2354 81.618 9.80874 81.0057C9.05657 79.8381 8.38135 78.6227 7.7874 77.3672C7.23695 76.2879 6.8393 75.1373 6.60587 73.9484C6.43677 72.9666 6.4698 71.9606 6.70295 70.992C6.83813 70.4624 7.15018 69.9948 7.58743 69.6667C7.99913 69.4416 8.45005 69.3149 8.86432 69.1345C9.30189 68.9745 9.75756 68.8693 10.221 68.8212L10.951 68.6895C11.2074 68.6145 11.4768 68.5951 11.7413 68.6326C12.7648 68.551 13.77 68.5375 14.77 68.4349C15.77 68.3323 16.8683 68.1904 17.3833 68.2053C20.5136 68.1342 23.6375 67.8899 26.7408 67.4735C29.1079 66.9953 31.4458 66.3823 33.7431 65.6374C34.2451 65.5057 34.754 65.4016 35.2674 65.3256C37.2111 65.1125 37.9025 65.6648 38.6111 67.4792C38.7798 67.883 38.9707 68.2855 39.0949 68.6918C39.4792 70.1141 38.8284 71.6131 37.5268 72.3034C36.5126 72.9265 35.4676 73.498 34.3958 74.0159C33.3222 74.391 32.2224 74.7006 31.1096 74.9774C28.863 75.477 26.589 75.8438 24.2993 76.0759C22.589 76.2643 20.863 76.3754 19.1474 76.4747L17.8435 76.5391L17.5303 76.5349L17.3625 76.5334C17.2873 76.4841 17.2198 76.424 17.1622 76.355L16.8622 76.1935Z" fill="#231F20"/>
<path d="M110.737 79.1987C112.81 77.7239 114.717 76.0282 116.424 74.1415C117.117 73.375 117.703 72.5176 118.165 71.5929C118.236 71.4203 118.316 71.2515 118.404 71.0873C118.429 70.9693 118.467 70.8546 118.518 70.7454C118.592 70.4729 118.565 70.005 118.632 69.6211C118.449 67.8112 117.538 66.1535 116.109 65.0282C114.216 63.49 112.023 62.3645 109.669 61.7238C107.895 61.205 106.046 60.9872 104.2 61.0792C103.39 61.1208 102.585 61.2309 101.794 61.4085C100.953 61.5931 100.13 61.8502 99.3344 62.1768C98.0787 62.6267 96.9403 63.3535 96.0038 64.3033C95.2422 65.1395 94.7671 66.1967 94.6473 67.3214C94.5138 68.736 94.6841 70.1628 95.1467 71.5062C95.6668 73.0091 96.4398 74.4121 97.4323 75.6547C99.6547 78.3842 102.427 80.6153 105.568 82.2028C108.897 83.9357 112.414 85.2809 116.05 86.212C122.657 87.9063 129.477 88.6261 136.292 88.3484C140.623 88.3001 144.943 87.9079 149.212 87.1756C153.535 86.6604 157.795 85.7021 161.922 84.316C164.404 83.3564 164.57 84.0957 162.911 86.1477C160 89.3814 156.314 91.8218 152.201 93.2393C147.533 94.5573 142.743 95.3964 137.905 95.7436C133.072 96.0299 128.224 95.8578 123.423 95.2296C118.548 94.6597 113.75 93.5544 109.116 91.9337C104.252 90.3084 99.7245 87.8093 95.7572 84.5592C90.9489 80.4673 86.6836 74.3658 86.9029 66.7639C87.0085 64.7693 87.5688 62.8253 88.541 61.0805C89.5207 59.3878 90.8347 57.9122 92.4031 56.7438C94.5264 55.1869 96.9255 54.0468 99.4736 53.3837C100.323 53.1513 101.186 52.9744 102.058 52.854C105.676 52.5083 109.326 52.8858 112.797 53.9647C116.333 55.01 119.595 56.825 122.348 59.2796C123.825 60.6291 125.056 62.2258 125.985 63.998C126.452 64.9365 126.813 65.924 127.061 66.9424L127.374 68.489C127.438 69.0107 127.435 69.5361 127.454 70.0604C127.484 70.5905 127.469 71.1221 127.412 71.6499C127.322 72.2251 127.233 72.8004 127.118 73.3323C126.848 74.3207 126.476 75.2786 126.009 76.1908C125.189 77.8444 124.167 79.3903 122.967 80.793C120.214 83.9273 116.997 86.6203 113.426 88.7781C109.983 90.9032 106.344 92.6934 102.559 94.124C91.2129 98.2905 79.053 99.7599 67.041 98.4159C62.4663 97.9307 57.9228 97.1862 53.4324 96.1861C48.9382 95.1292 44.5306 93.7329 40.2476 92.0092C38.3297 91.3155 36.5272 90.4922 34.6672 89.6387C32.1992 88.5983 29.9719 87.0608 28.1242 85.122C27.6079 84.5342 27.1883 83.8681 26.881 83.1486C26.6908 82.489 26.5874 81.8074 26.5736 81.121C26.5388 80.5194 26.3913 79.9021 26.4218 79.4644C26.4807 78.1645 30.1895 77.9385 34.95 79.8536C41.9102 82.9971 49.1407 85.5039 56.5529 87.3432C60.2448 88.1818 63.983 88.8014 67.748 89.1987C71.546 89.5559 75.3645 89.6448 79.1751 89.4647C84.8095 89.143 90.3821 88.122 95.7646 86.4253C101.066 84.788 106.064 82.2937 110.56 79.0412L110.737 79.1987Z" fill="#231F20"/>
</svg>
