<svg width="70" height="86" viewBox="0 0 70 86" fill="none" xmlns="http://www.w3.org/2000/svg">
<path d="M48.6894 54.1457C47.4306 53.8381 46.33 53.0759 45.5994 52.0057C45.4494 51.8057 45.2094 51.5257 45.1194 51.3957L44.7894 50.9557C44.5594 50.6557 44.3794 50.4257 44.1594 50.1657C43.9394 49.9057 43.4294 49.5257 43.0994 49.1657L42.9394 49.0157L42.8194 48.8857C42.7712 48.8274 42.7176 48.7739 42.6594 48.7257C42.5305 48.5928 42.3621 48.5052 42.1794 48.4757C41.7594 48.4757 41.6694 48.9257 41.5894 49.3457C41.5894 49.3957 41.5894 49.6757 41.5894 49.8457C41.5894 50.0157 41.5894 50.2457 41.5894 50.4457C41.591 50.8377 41.6244 51.229 41.6894 51.6157C41.8333 52.5199 42.1061 53.3988 42.4994 54.2257C42.6394 54.4757 42.4994 54.7357 42.0094 54.8457C41.2721 54.9773 40.5186 54.7249 40.0094 54.1757C39.7626 53.8985 39.5354 53.6044 39.3294 53.2957C39.1663 52.9795 39.0453 52.6433 38.9694 52.2957C38.8175 51.6791 38.7238 51.0497 38.6894 50.4157L38.6294 49.4657C38.6152 48.9549 38.6353 48.4438 38.6894 47.9357C38.8372 47.0316 39.3416 46.2247 40.0894 45.6957C41.0113 45.1735 42.1287 45.1288 43.0894 45.5757C43.5965 45.7863 44.0793 46.0512 44.5294 46.3657C44.8839 46.5898 45.2185 46.8441 45.5294 47.1257C46.1326 47.6807 46.691 48.2826 47.1994 48.9257C47.7994 49.6457 47.8094 49.7557 48.0794 50.0557C48.2146 50.2473 48.4128 50.3853 48.6394 50.4457C48.874 50.4518 49.09 50.3183 49.1894 50.1057C49.2903 49.959 49.3742 49.8013 49.4394 49.6357C49.4848 49.5447 49.5249 49.4513 49.5594 49.3557L49.7194 48.9457L50.4994 46.9457C50.8727 45.7877 51.3653 44.6717 51.9694 43.6157C52.1177 43.3666 52.2849 43.1292 52.4694 42.9057C52.7074 42.5781 53.0684 42.3615 53.4694 42.3057C53.8331 42.3836 54.1604 42.5806 54.3994 42.8657C54.5299 42.982 54.6503 43.1091 54.7594 43.2457C54.9155 43.4808 55.0053 43.7537 55.0194 44.0357C55.1142 44.3282 55.1142 44.6431 55.0194 44.9357C54.3194 46.4116 53.6985 47.9237 53.1594 49.4657L52.6894 50.6157C52.5819 50.9588 52.4482 51.2931 52.2894 51.6157C52.1646 51.9414 52 52.2504 51.7994 52.5357C51.6252 52.8138 51.4169 53.0691 51.1794 53.2957L50.8394 53.6157L50.4494 53.8557C49.9057 54.1622 49.28 54.2915 48.6594 54.2257L48.6894 54.1457Z" fill="#231F20" fill-opacity="0.7"/>
<path d="M35.3493 66.2257C31.8964 62.1126 28.7702 57.736 25.9993 53.1357C23.071 48.3604 21.1326 43.0451 20.2993 37.5057C19.6695 33.3134 20.0501 29.0313 21.4093 25.0157C22.7554 21.4331 25.0549 18.2864 28.0593 15.9157C31.0466 13.6193 34.5913 12.1594 38.3293 11.6857C41.9518 11.2101 45.6338 11.4962 49.1393 12.5257C52.6656 13.5751 55.8664 15.5059 58.4393 18.1357C60.6268 20.4543 62.4023 23.1294 63.6893 26.0457C64.9316 28.8615 65.8832 31.7967 66.5293 34.8057C66.9439 36.74 67.218 38.7018 67.3493 40.6757C67.5073 42.6014 67.5607 44.5342 67.5093 46.4657C67.4576 50.295 67.1838 54.1181 66.6893 57.9157C66.3693 60.2657 65.6893 59.9157 64.9493 57.8557C63.9579 54.6094 63.3931 51.2478 63.2693 47.8557C63.1993 45.9557 63.0493 44.0657 62.9293 42.2157C62.8219 40.4085 62.6115 38.6089 62.2993 36.8257C61.6304 33.3119 60.4901 29.9044 58.9093 26.6957C58.121 25.1841 57.1758 23.7596 56.0893 22.4457C55.0133 21.1963 53.7719 20.0995 52.3993 19.1857C50.9802 18.3044 49.459 17.5993 47.8693 17.0857C46.1825 16.5809 44.4455 16.2624 42.6893 16.1357C38.4905 15.7528 34.3051 16.9987 30.9993 19.6157C27.7474 22.3596 25.654 26.2321 25.1393 30.4557C24.8354 32.8355 24.8724 35.2464 25.2493 37.6157C25.6589 40.0344 26.3295 42.4016 27.2493 44.6757C29.3007 49.3155 31.9207 53.6823 35.0493 57.6757C36.6893 59.8557 38.3993 61.9957 40.1593 64.1257L45.0993 70.0557C45.2593 70.2357 45.3893 70.4357 45.5593 70.5957C45.7293 70.7557 46.0193 70.5357 46.2293 70.4557C46.4393 70.3757 46.7793 70.1457 47.0493 69.9757L48.5293 68.9757C49.5293 68.2957 50.5893 67.6057 51.6593 66.9757C52.1893 66.6457 52.7393 66.3157 53.2893 65.9757L54.1693 65.4957C54.5093 65.3157 54.7993 65.1557 55.2293 64.9557C56.7191 64.2141 58.299 63.6695 59.9293 63.3357C61.3029 63.0661 62.7158 63.0661 64.0893 63.3357C65.3894 63.5695 66.5943 64.1737 67.5593 65.0757C68.0486 65.5449 68.2669 66.2299 68.1393 66.8957C67.9942 67.4255 67.7348 67.917 67.3793 68.3357C66.5857 69.3316 65.6488 70.2044 64.5993 70.9257C63.5993 71.6257 62.4293 72.3257 61.2693 73.0257L59.5793 74.0257L58.9393 74.4457L58.3893 74.8257C57.6782 75.3121 57.0092 75.8573 56.3893 76.4557C55.8723 76.9204 55.4599 77.4897 55.1793 78.1257L55.1193 78.3057L53.6793 77.8357C53.6572 77.825 53.6314 77.825 53.6093 77.8357C53.5193 77.8357 53.6093 77.8357 53.6093 77.8357C53.6093 77.8357 53.6093 77.8357 53.6093 77.7657L53.6893 77.6057C53.7294 77.5003 53.7497 77.3885 53.7493 77.2757C53.8065 76.9455 53.8333 76.6108 53.8293 76.2757H54.0393C54.3893 76.2157 54.8193 76.1057 55.2393 75.9957L57.8893 75.2557C60.3993 74.5757 63.7793 73.6357 65.9493 73.8157C66.5464 73.8475 67.1374 73.9516 67.7093 74.1257C68.2473 74.3162 68.7383 74.6197 69.1493 75.0157C69.3062 75.2701 69.4242 75.5465 69.4993 75.8357C69.5383 76.0674 69.5383 76.304 69.4993 76.5357C69.4132 77.1574 69.2204 77.7596 68.9293 78.3157C68.5799 78.9812 68.1427 79.5967 67.6293 80.1457C66.5346 81.2132 65.3577 82.1928 64.1093 83.0757L63.4393 83.5757C63.2793 83.7047 63.1124 83.8249 62.9393 83.9357C62.7093 84.0657 62.4993 84.1757 62.2993 84.2657C61.9269 84.4285 61.5424 84.5623 61.1493 84.6657C60.7896 84.8007 60.4524 84.9896 60.1493 85.2257C59.9093 85.3857 59.6793 85.3757 59.4993 85.0157C59.2994 84.4564 59.2994 83.845 59.4993 83.2857C59.6192 82.9027 59.7732 82.5312 59.9593 82.1757C60.0544 81.9762 60.1612 81.7825 60.2793 81.5957L60.3693 81.4457C60.3693 81.4457 60.3693 81.4457 60.3693 81.3757V81.2557C60.4781 80.9807 60.612 80.7162 60.7693 80.4657C60.8674 80.3208 60.9511 80.1668 61.0193 80.0057C61.0298 79.9428 61.0298 79.8786 61.0193 79.8157C61.0281 79.7701 61.0166 79.7229 60.9878 79.6864C60.959 79.6499 60.9158 79.6278 60.8693 79.6257C60.4867 79.6191 60.1085 79.7085 59.7693 79.8857L59.4093 80.0457L59.2693 80.1257H59.2093L59.0593 80.1857L56.8993 80.7657C56.0414 80.9999 55.1697 81.1803 54.2893 81.3057H53.7493H53.3093C53.0761 81.2936 52.8448 81.2568 52.6193 81.1957C52.4281 81.1509 52.2408 81.0907 52.0593 81.0157L51.7693 80.8857C51.5291 80.7507 51.3044 80.5898 51.0993 80.4057C50.2439 79.6595 49.829 78.528 49.9993 77.4057C49.9993 77.2757 49.9993 77.1357 50.0593 77.0157C50.1193 76.8957 50.1493 76.7157 50.1393 76.7557V76.6957V76.5757L50.2393 76.3257C50.349 76.0157 50.4898 75.7175 50.6593 75.4357C50.796 75.1652 50.9567 74.9075 51.1393 74.6657C51.7307 73.8276 52.4263 73.0682 53.2093 72.4057C53.9093 71.8057 54.5993 71.2757 55.2893 70.7857L56.2893 70.1457L56.5793 69.9457L56.3193 70.0857L55.8993 70.3157C55.5393 70.5157 55.1793 70.7357 54.8193 70.9457C53.3793 71.8257 51.9493 72.8057 50.3993 73.8357L49.8093 74.2257L49.3193 74.5457L48.7493 74.8957C48.022 75.3588 47.2391 75.7284 46.4193 75.9957C45.6568 76.2056 44.8518 76.2056 44.0893 75.9957C43.9037 75.9519 43.7318 75.8625 43.5893 75.7357L43.1093 75.4057L42.1093 74.7457L35.0093 66.3457L35.3493 66.2257Z" fill="#231F20" fill-opacity="0.7"/>
<path d="M44.5501 43.4254C45.4188 43.9888 46.2119 44.6609 46.9101 45.4254L47.3401 45.8954V45.9854L47.4501 46.1854L47.7301 46.6954C47.7801 46.7654 47.8501 46.9754 47.9301 46.8954C47.9783 46.8395 48.0156 46.7751 48.0401 46.7054C48.1301 46.4754 48.1001 46.1254 48.2201 45.8854C48.2201 45.8854 48.2201 45.8854 48.2201 45.7754L48.3301 45.3754L48.5901 44.4954L48.7501 44.0054L49.0101 43.3854C49.1962 42.9543 49.424 42.5423 49.6901 42.1554C50.1281 41.4476 50.7549 40.8762 51.5001 40.5054C52.2386 40.1546 53.0747 40.0665 53.8701 40.2554C54.6757 40.4358 55.4266 40.806 56.0601 41.3354C56.3778 41.6065 56.6815 41.8935 56.9701 42.1954C57.2101 42.5054 57.4001 42.8354 57.6101 43.1954C58.2153 44.3149 58.583 45.5473 58.6901 46.8154C58.7601 47.3454 58.7601 47.8154 58.8101 48.3554C58.8601 48.8954 58.8101 49.3554 58.8101 49.8554C58.8211 50.8202 58.7811 51.7849 58.6901 52.7454C58.5701 53.9654 58.4201 55.1654 58.2301 56.3454C58.1301 56.9354 57.8301 57.4954 57.7201 58.0754C57.6101 58.6554 57.4701 59.2354 57.3701 59.8154C57.2701 60.3954 56.9101 60.4454 56.5301 59.8154C56.2869 59.385 56.0924 58.9289 55.9501 58.4554C55.8401 58.1654 55.8001 57.8654 55.6901 57.5354C55.5505 57.2095 55.4303 56.8755 55.3301 56.5354C55.1901 55.2854 55.2201 54.0954 55.1401 52.9154L55.0301 51.1854C55.0301 50.6254 55.0301 50.0654 54.9501 49.5254C54.901 48.5403 54.74 47.5641 54.4701 46.6154C54.4248 46.4154 54.3577 46.2209 54.2701 46.0354C54.2001 45.8954 54.1201 45.6454 54.0801 45.5854C53.9601 45.3454 53.9401 45.2154 53.8601 45.0554C53.7578 44.844 53.5536 44.7003 53.3201 44.6754C53.089 44.7163 52.8937 44.8702 52.8001 45.0854C52.7431 45.1942 52.6962 45.308 52.6601 45.4254C52.5901 45.6154 52.4801 45.9354 52.3901 46.2554L52.2401 46.7754L52.0201 47.6754L51.6301 49.4854C51.4607 50.5366 51.0537 51.5352 50.4401 52.4054C50.3237 52.5482 50.1967 52.6819 50.0601 52.8054C49.91 52.9487 49.7285 53.0548 49.5301 53.1154C49.36 53.1455 49.1848 53.1098 49.0401 53.0154C48.9001 52.9354 48.7901 52.9054 48.6201 52.7954L48.1301 52.4954L47.5501 52.0454L47.4001 51.9354L47.2401 51.7254L46.9301 51.3054L46.3101 50.4754L45.6901 49.6154L45.0501 48.8754C44.9401 48.7554 44.8401 48.6254 44.7201 48.5154L44.5101 48.2854C44.3701 48.1554 44.2501 48.0054 44.1101 47.8854C43.5929 47.3689 42.9951 46.94 42.3401 46.6154C42.1085 46.5096 41.8489 46.4815 41.6001 46.5354C41.3545 46.6176 41.1387 46.7707 40.9801 46.9754C40.7285 47.3217 40.6177 47.7506 40.6701 48.1754C40.7191 48.8242 40.8675 49.4617 41.1101 50.0654C41.6425 51.4157 42.3448 52.6927 43.2001 53.8654C44.6008 55.6775 46.1713 57.3517 47.8901 58.8654C48.2601 59.2154 48.6501 59.5254 49.0101 59.8654C50.3701 61.1754 50.6301 61.7254 50.2801 62.7154C50.2155 62.9427 50.1387 63.1664 50.0501 63.3854C49.7001 64.0654 48.6701 63.9754 47.4701 63.1054C43.7554 60.3573 40.6331 56.8881 38.2901 52.9054C37.792 52.0347 37.3897 51.1127 37.0901 50.1554C36.9289 49.5926 36.8151 49.0172 36.7501 48.4354C36.7239 48.0525 36.7239 47.6683 36.7501 47.2854C36.7827 46.8806 36.8633 46.4812 36.9901 46.0954C37.0447 45.9014 37.1115 45.711 37.1901 45.5254L37.4801 44.9954C37.672 44.6373 37.9034 44.3019 38.1701 43.9954C38.4501 43.7354 38.7501 43.4754 39.0601 43.2354C39.3794 43.0276 39.7136 42.8438 40.0601 42.6854C41.5891 42.2329 43.2389 42.4587 44.5901 43.3054L44.5501 43.4254Z" fill="#231F20" fill-opacity="0.7"/>
<path d="M16.8916 19.3355C17.2016 19.3355 17.1116 19.7655 16.7716 20.4355C16.5976 20.7428 16.3668 21.0143 16.0916 21.2355C15.8906 21.316 15.6832 21.3796 15.4716 21.4255C15.3716 21.4255 14.1816 21.0355 13.7416 20.9455C13.3467 20.8407 12.9717 20.6718 12.6316 20.4455C11.9316 20.0255 11.2016 19.6355 10.4816 19.2255C10.3182 19.1354 10.1779 19.0088 10.0716 18.8555C9.67305 18.347 9.14928 17.9507 8.55157 17.7055C8.45275 17.6272 8.32084 17.6046 8.20157 17.6455C7.49404 17.4857 6.84175 17.1405 6.31157 16.6455C6.03157 16.0555 5.68157 15.5655 5.36157 15.0255C5.31157 14.9555 5.22157 14.9455 5.25157 14.7655C5.33157 14.3655 5.16157 14.3055 5.04157 14.1655C4.85908 13.9518 4.7381 13.6926 4.69157 13.4155C4.66531 13.2298 4.66531 13.0412 4.69157 12.8555C4.69157 12.6855 4.98157 12.4055 5.04157 12.3855C5.10157 12.3655 5.26157 12.1355 5.36157 11.9955C5.3925 11.9415 5.4294 11.8912 5.47157 11.8455C5.47157 11.8455 5.95157 11.7855 6.47157 11.6955C6.80305 11.6458 7.14009 11.6458 7.47157 11.6955L7.78157 11.8255L8.45157 12.0855L9.60157 12.4955C9.71157 12.4955 9.75157 12.6755 9.82157 12.7955C9.89157 12.9155 11.3016 13.5155 11.3516 13.5655C11.5916 13.7955 11.9416 13.8755 12.0216 14.3455C12.0216 14.4355 12.1016 14.4555 12.1616 14.4955C12.6022 14.8227 13.0048 15.1984 13.3616 15.6155C13.5716 15.8155 13.8416 15.9555 14.0716 16.1355C14.0716 16.1355 14.1316 16.2355 14.1616 16.2855C14.1916 16.3355 14.2316 16.4255 14.2916 16.4555C14.8232 16.9151 15.3844 17.3393 15.9716 17.7255C16.1216 17.8055 16.5316 18.5755 16.7016 18.6555C16.8716 18.7355 16.7716 19.3455 16.8916 19.3355Z" fill="#231F20" fill-opacity="0.7"/>
<path d="M24.1386 12.0455C24.3686 12.2455 23.9886 12.4755 23.2686 12.6755C22.9401 12.7451 22.6036 12.7687 22.2686 12.7455C22.0586 12.6455 21.8586 12.5555 21.7086 12.4655C21.5586 12.3755 21.0986 11.4655 20.8586 11.1155C20.652 10.8119 20.5028 10.473 20.4186 10.1155C20.2186 9.4255 19.9686 8.7455 19.7286 8.0355C19.6932 7.87072 19.6932 7.70029 19.7286 7.5355C19.7942 6.9507 19.6864 6.3595 19.4186 5.8355C19.4186 5.7455 19.4186 5.6455 19.2086 5.5855C18.8083 5.03822 18.5818 4.38318 18.5586 3.7055C18.7586 3.1155 18.8586 2.5455 19.0086 1.9755C19.0086 1.8955 19.0086 1.8255 19.1086 1.7255C19.3215 1.63831 19.44 1.40978 19.3886 1.1855C19.4103 0.923697 19.4999 0.672078 19.6486 0.455504C19.7639 0.317537 19.8948 0.193377 20.0386 0.0855044C20.2206 0.00495871 20.4226 -0.019415 20.6186 0.0155044C20.7686 0.105504 20.9586 0.0155044 21.1286 0.0155044H21.3086C21.3086 0.0155044 21.6886 0.285504 22.0886 0.535504C22.3366 0.69845 22.559 0.897281 22.7486 1.1255C22.7486 1.1255 22.7986 1.2355 22.8686 1.3955L23.1586 1.9655C23.3686 2.3855 23.6386 2.8055 23.6786 2.9055C23.7186 3.0055 23.6786 3.1155 23.6786 3.2255C23.6786 3.3355 24.2386 4.5955 24.2486 4.6555C24.2486 4.9555 24.4586 5.2155 24.1986 5.5855C24.1684 5.6417 24.1684 5.70931 24.1986 5.7655C24.3214 6.28294 24.3785 6.81379 24.3686 7.3455C24.4031 7.61154 24.4532 7.87532 24.5186 8.1355C24.5282 8.18841 24.5282 8.2426 24.5186 8.2955C24.4997 8.36083 24.4997 8.43018 24.5186 8.4955C24.5919 9.14723 24.6987 9.79475 24.8386 10.4355C24.8886 10.5855 24.6286 11.3655 24.6986 11.5355C24.7686 11.7055 24.0586 11.9755 24.1386 12.0455Z" fill="#231F20" fill-opacity="0.7"/>
<path d="M15.0002 29.4753C15.3002 29.3153 15.4802 29.7453 15.5502 30.4753C15.5474 30.8173 15.4831 31.1561 15.3602 31.4753C15.2002 31.6553 15.0502 31.8353 14.9102 31.9653C14.3231 32.1492 13.7457 32.3628 13.1802 32.6053C12.7987 32.778 12.3947 32.8958 11.9802 32.9553C11.1602 33.1253 10.3402 33.3553 9.49024 33.5853C9.29559 33.6252 9.09489 33.6252 8.90024 33.5853C8.23034 33.4627 7.53983 33.5214 6.90024 33.7553C6.78024 33.7553 6.66024 33.7553 6.58024 33.9553C5.87726 34.33 5.09657 34.5354 4.30024 34.5553C3.62024 34.3453 2.95024 34.2453 2.30024 34.0953C2.21024 34.0953 2.12024 34.0953 2.01024 33.9753C1.77024 33.6053 1.58024 33.6953 1.38024 33.6753C1.08214 33.6216 0.792792 33.5274 0.52024 33.3953C0.358005 33.2839 0.21311 33.1491 0.0902402 32.9953C-0.0397598 32.8653 0.000240181 32.4053 0.0302402 32.3453C0.0602402 32.2853 0.0302402 31.9653 0.0302402 31.7753C0.0302402 31.5853 0.0302402 31.6253 0.0302402 31.5653C0.243994 31.3039 0.470956 31.0536 0.71024 30.8153C0.918459 30.5318 1.17587 30.2879 1.47024 30.0953L1.81024 29.9753L2.53024 29.6953L3.69024 29.2053C3.80024 29.1453 3.95024 29.2053 4.08024 29.2053C4.21024 29.2053 5.80024 28.5753 5.88024 28.5753C6.25024 28.5753 6.59024 28.3453 7.02024 28.6253C7.10024 28.6853 7.17024 28.6253 7.25024 28.6253C7.90638 28.4799 8.58142 28.4394 9.25024 28.5053C9.59024 28.5053 9.92024 28.4553 10.2502 28.4453C10.3102 28.4453 10.3802 28.4453 10.4402 28.5053C10.5183 28.5324 10.5986 28.5524 10.6802 28.5653C11.5002 28.4953 12.3202 28.6553 13.1502 28.5653C13.3502 28.5653 14.2602 28.9653 14.4802 28.9553C14.7002 28.9453 14.8902 29.5353 15.0002 29.4753Z" fill="#231F20" fill-opacity="0.7"/>
</svg>
