<svg width="68" height="76" viewBox="0 0 68 76" fill="none" xmlns="http://www.w3.org/2000/svg">
<path d="M48.6539 54.1563C48.6539 54.1563 54.9766 62.2755 55.839 62.0852C57.5409 61.6266 61.0153 57.733 61.2307 56.6494C61.4793 55.2339 54.8233 47.9902 54.9881 47.8411C56.2495 46.2825 58.8559 41.4854 58.7274 39.5209C58.5765 37.1007 32.644 25.7436 28.5488 27.4358C25.9072 28.5386 37.6662 57.1428 39.8238 59.2057C41.0637 60.3732 48.7209 53.9235 48.6539 54.1563Z" fill="#231F20"/>
<path d="M6.28677 31.4722C6.10116 31.6501 5.91354 31.3258 5.71399 30.7379C5.63885 30.4549 5.61896 30.1601 5.65541 29.8696C5.74865 29.7036 5.85541 29.5455 5.97461 29.397C6.04086 29.3174 7.19439 28.876 7.60446 28.6975C7.98287 28.5416 8.38461 28.45 8.79316 28.4264C9.61037 28.3264 10.4343 28.2923 11.257 28.3245C11.4438 28.3413 11.6259 28.3924 11.7942 28.4751C12.3677 28.7481 12.9917 28.8993 13.6266 28.9191C13.7334 28.9172 13.8305 28.9653 13.9569 28.8632C14.0833 28.7612 15.8671 29.0779 16.0484 29.2527C16.5374 29.6892 16.9538 30.0558 17.3958 30.4539C17.4327 30.5245 17.55 30.5081 17.56 30.6647C17.5879 31.0276 17.7593 31.0459 17.9 31.1431C18.0959 31.2944 18.2684 31.4738 18.4121 31.6753C18.4808 31.8236 18.5269 31.9813 18.5489 32.1432C18.6154 32.2702 18.3648 32.599 18.3154 32.6249C18.266 32.6507 18.1563 32.8879 18.0876 33.0317C18.0692 33.0856 18.0451 33.1374 18.0156 33.1862C17.4953 33.3565 16.9629 33.4877 16.423 33.5786L16.1444 33.5445L15.5305 33.488C15.0779 33.482 14.6142 33.4548 14.5215 33.4494C14.4287 33.4439 14.3522 33.3491 14.2689 33.2758C14.1856 33.2025 12.9027 33.1902 12.8526 33.1805C12.5946 33.0996 12.3072 33.169 12.0874 32.8345C12.0504 32.7639 11.9829 32.7723 11.9295 32.7733C11.4465 32.7106 10.9708 32.6011 10.509 32.4464C10.2694 32.4009 10.0268 32.3839 9.78389 32.3491C9.73654 32.3316 9.69265 32.3059 9.65423 32.2731C9.60454 32.2337 9.54689 32.2056 9.48526 32.1907C8.91194 32.1022 8.33147 32.0686 7.75177 32.0904C7.62037 32.1142 6.95525 31.7878 6.78855 31.83C6.62186 31.8723 6.36746 31.403 6.28677 31.4722Z" fill="#231F20"/>
<path d="M15.7184 13.2889C15.4801 13.3147 15.5983 12.9562 15.8655 12.367C15.9989 12.1018 16.1778 11.8622 16.3942 11.659C16.5778 11.5835 16.7692 11.5287 16.9649 11.4954C17.0751 11.4827 18.2049 11.8897 18.6168 12.0069C18.9762 12.1177 19.3036 12.3133 19.5714 12.5774C20.1184 13.0734 20.6756 13.5372 21.1944 14.0479C21.3141 14.1616 21.4036 14.3032 21.4549 14.4601C21.6598 14.9847 22.0002 15.4457 22.4413 15.7961C22.4819 15.8737 22.5262 15.9584 22.7144 15.9229C23.2777 16.2382 23.7388 16.7084 24.0432 17.2776C24.1352 17.8318 24.1812 18.4011 24.2662 18.9589C24.3031 19.0295 24.3326 19.086 24.2566 19.2157C24.038 19.5367 24.1609 19.6343 24.1994 19.7939C24.2151 20.0414 24.2065 20.2897 24.1738 20.5355C24.1072 20.6731 24.0285 20.8045 23.9386 20.9282C23.8253 21.055 23.6698 21.1364 23.501 21.157C23.3615 21.1311 23.2468 21.2899 23.1198 21.3564C23.077 21.3833 23.0321 21.4067 22.9857 21.4265C22.9433 21.4487 22.5848 21.3305 22.1632 21.2634C21.8665 21.2555 21.5745 21.1881 21.3044 21.0652C21.237 21.005 21.1658 20.9491 21.0912 20.8981L20.6287 20.5466C20.4567 20.4383 20.2905 20.3212 20.1306 20.1958C20.0517 20.1106 19.9656 20.0323 19.8733 19.9618C19.7904 19.9063 19.7847 19.7924 19.804 19.6744C19.8232 19.5565 18.8472 18.7904 18.818 18.7517C18.6962 18.5188 18.4479 18.3879 18.5335 18.0015C18.5397 17.9439 18.5106 17.8882 18.4597 17.8604C18.1692 17.5071 17.924 17.119 17.7296 16.705C17.5942 16.5203 17.4458 16.3456 17.2854 16.1821C17.2854 16.1821 17.2411 16.0974 17.2189 16.0551C17.2068 15.9996 17.18 15.9485 17.1414 15.9068C16.8165 15.4658 16.4537 15.0539 16.0572 14.6759C16.0055 14.5771 15.801 13.911 15.6787 13.8491C15.5564 13.7872 15.8145 13.2836 15.7184 13.2889Z" fill="#231F20"/>
<path d="M32.5642 17.5144C32.7919 17.692 32.4292 17.9266 31.7613 18.2309C31.4437 18.3514 31.1066 18.4119 30.7669 18.4094C30.5583 18.3302 30.3583 18.23 30.17 18.1103C30.0581 18.0339 29.4686 16.7691 29.1869 16.368C28.9692 15.978 28.8227 15.5524 28.7543 15.111C28.5667 14.2556 28.4461 13.387 28.3934 12.5129C28.3814 12.3173 28.4106 12.1214 28.4791 11.9377C28.6907 11.2939 28.7454 10.6088 28.6387 9.93947C28.626 9.82925 28.6489 9.71838 28.4763 9.62888C28.2643 8.89683 28.2368 8.12373 28.3961 7.37846C28.7026 6.79566 28.9093 6.21111 29.1983 5.64644C29.236 5.5638 29.188 5.47203 29.3722 5.41167C29.6199 5.37725 29.8044 5.16572 29.805 4.91564C29.8841 4.64339 30.0177 4.39004 30.1976 4.17093C30.3544 4.04029 30.5373 3.94464 30.7341 3.89036C30.9106 3.79807 31.4954 4.02258 31.5498 4.07504C31.7164 4.22166 32.0118 4.20202 32.255 4.2546L32.5161 4.30686C32.7115 4.54124 32.8788 4.79769 33.0146 5.07097C33.1894 5.31659 33.3297 5.58497 33.4317 5.86863L33.4409 6.17846L33.4708 6.83709C33.5155 7.33511 33.5605 7.85094 33.591 7.96084C33.6215 8.07074 33.5273 8.18291 33.4651 8.28737C33.4029 8.39183 33.6788 9.84768 33.6764 9.91186C33.6322 10.2227 33.759 10.5339 33.4228 10.8536C33.3451 10.8942 33.3787 10.9755 33.3833 11.036C33.3995 11.5878 33.3533 12.1396 33.2458 12.6811C33.2342 12.958 33.244 13.2354 33.2752 13.5108C33.2973 13.5531 33.2308 13.6149 33.2069 13.6724C33.183 13.7298 33.1416 13.8054 33.1463 13.8659C33.0788 14.5233 33.0789 15.186 33.1466 15.8434C33.1707 15.9926 32.8497 16.7538 32.9097 16.9202C32.9698 17.0866 32.4739 17.4448 32.5642 17.5144Z" fill="#231F20"/>
</svg>
