<svg width="74" height="70" viewBox="0 0 74 70" fill="none" xmlns="http://www.w3.org/2000/svg">
<path d="M43.6142 38.9631C40.0542 44.1731 36.7842 49.6831 33.6142 55.2831C33.0476 56.3031 32.5076 57.3431 31.9942 58.4031L31.1942 59.9831L30.2642 61.7531C29.6842 62.8231 29.0542 63.9231 28.4442 64.9531C28.1342 65.4931 27.8042 65.9531 27.4442 66.4431C27.1419 66.8743 26.8076 67.2821 26.4442 67.6631C25.8944 68.2826 25.2103 68.7682 24.4442 69.0831C24.0657 69.2007 23.6704 69.2547 23.2742 69.2431H23.2242C23.2242 69.2931 23.2242 69.1331 23.2242 69.3531H23.1242H22.9742L22.7542 69.1731C22.5927 69.1032 22.4357 69.023 22.2842 68.9331C21.6666 68.4242 21.0758 67.8834 20.5142 67.3131C20.2242 66.9031 19.9342 66.5131 19.6642 66.0731L18.8642 64.6731L17.3542 61.7531L16.3542 59.7531C15.2342 57.2831 14.1142 54.8331 12.9642 52.4131C11.4142 49.1031 9.55424 45.9331 7.77424 42.8131C6.62424 40.8131 5.33424 38.9131 4.12424 37.0131C3.53424 36.0131 2.93424 35.0931 2.32424 34.1931C1.77003 33.3077 1.14107 32.4713 0.44424 31.6931C0.286391 31.5364 0.151702 31.3579 0.0442396 31.1631C-0.0147465 31.0155 -0.0147465 30.8508 0.0442396 30.7031C0.13424 30.4331 0.58424 30.1331 1.41424 30.1131C2.51472 30.1226 3.60238 30.3504 4.61424 30.7831C5.89837 31.3282 7.061 32.1237 8.03424 33.1231C8.49424 33.5931 8.92424 34.0531 9.34424 34.5431L10.4942 36.0331C11.2342 37.0331 11.9642 38.0331 12.6542 39.0331C13.3442 40.0331 14.0242 41.0831 14.6542 42.1231C15.2842 43.1631 15.8542 44.2531 16.4342 45.3231C17.5842 47.4731 18.6642 49.6331 19.7042 51.8231C20.2242 52.9131 20.7042 54.0131 21.2242 55.1131L21.9542 56.7631L22.2942 57.6031L22.4642 58.0231C22.5134 58.1251 22.5504 58.2325 22.5742 58.3431C22.6891 59.0079 22.9192 59.6476 23.2542 60.2331C23.2951 60.3037 23.342 60.3706 23.3942 60.4331C23.417 60.4626 23.452 60.4798 23.4892 60.4798C23.5264 60.4798 23.5615 60.4626 23.5842 60.4331C23.6937 60.335 23.791 60.2243 23.8742 60.1031C24.0342 59.8531 24.1842 59.5831 24.3242 59.3131L25.9142 56.2331C28.9142 50.4631 31.8542 44.6231 35.1342 38.9431C37.1342 35.4331 39.2642 31.9931 41.5042 28.6131C44.906 23.4956 48.6162 18.5898 52.6142 13.9231C55.7342 10.2931 58.7842 6.57314 62.7042 3.44314C63.5533 2.71474 64.4522 2.04646 65.3942 1.44314C66.1496 0.980255 66.9464 0.588572 67.7742 0.273137C68.3732 0.072835 69.0031 -0.018608 69.6342 0.00313697C70.6076 0.0292888 71.5224 0.473922 72.1442 1.22314C72.4731 1.52928 72.7743 1.86392 73.0442 2.22314C73.7842 3.44314 72.7242 5.03314 70.8742 6.75314C69.4342 7.93314 68.0442 9.17314 66.6142 10.4331C65.1842 11.6931 63.8042 13.0331 62.4342 14.4331C59.6011 17.3335 56.9304 20.3882 54.4342 23.5831C50.5975 28.5465 47.0226 33.7068 43.7242 39.0431L43.6142 38.9631Z" fill="#231F20" fill-opacity="0.7"/>
</svg>
