<svg width="32" height="38" viewBox="0 0 32 38" fill="none" xmlns="http://www.w3.org/2000/svg">
<path d="M24.1051 28.9525C24.7616 27.9289 25.1043 26.7357 25.091 25.5197C25.0917 25.1227 25.0364 24.7277 24.9267 24.3461C24.7438 23.6129 24.3644 22.9434 23.8293 22.4097C23.2064 21.769 22.4974 21.218 21.7227 20.7725C20.9807 20.3755 20.1923 20.0719 19.3755 19.8688C18.8533 19.728 18.3134 19.6517 17.7853 19.4933C17.2572 19.3348 16.7408 19.0884 16.2068 18.8654C15.8782 18.7128 15.9369 18.5309 16.2713 18.2786C16.4886 18.1175 16.716 17.9705 16.952 17.8385C17.2533 17.6632 17.583 17.542 17.9261 17.4806C18.0846 17.4806 18.243 17.4277 18.3956 17.4219C18.5488 17.4268 18.7016 17.4405 18.8533 17.463L19.7628 17.5744C20.3789 17.6743 20.9883 17.8115 21.5878 17.9852C22.8547 18.3155 24.0369 18.9116 25.0558 19.7339C25.6897 20.2843 26.2784 20.8848 26.8162 21.5295C27.4085 22.2317 27.8356 23.0579 28.0661 23.9471C28.1214 24.189 28.1625 24.4339 28.1893 24.6806L28.2362 25.3378C28.2362 25.5608 28.2714 25.7779 28.2773 25.995L28.2421 26.664C28.2421 26.887 28.2421 27.11 28.201 27.3329L28.0837 28.0019C28.0367 28.2249 28.0132 28.4479 27.9487 28.665L27.7374 29.3163L27.6083 29.7154L27.4323 30.0968C27.3091 30.3491 27.1917 30.6073 27.0568 30.8538C26.7718 31.3366 26.4459 31.794 26.0827 32.221C24.9531 33.4302 23.5565 34.3586 22.0044 34.932C21.4176 35.1491 20.8601 35.4191 20.244 35.601C19.6533 35.7786 19.0487 35.9062 18.4366 35.9824C18.1667 35.9824 17.9027 36.0528 17.6327 36.0469C17.256 36.0789 16.8805 35.9725 16.5765 35.7477C16.371 35.5061 16.2387 35.211 16.1951 34.8968C16.1951 34.7442 16.1246 34.5917 16.1129 34.4567C16.1305 34.2115 16.2419 33.9824 16.4239 33.8171C16.6006 33.5469 16.86 33.341 17.1633 33.2303C18.0088 32.9095 18.8338 32.5372 19.6337 32.1154C20.3756 31.8602 21.0878 31.5257 21.7579 31.1178C22.2122 30.8348 22.6351 30.5043 23.0196 30.132C23.1663 29.9207 23.4069 29.7799 23.5594 29.5452C23.7354 29.3463 23.8908 29.13 24.023 28.8997L24.1051 28.9525Z" fill="#111827"/>
<path d="M25.0892 21.195C23.3816 20.1563 20.9816 19.7162 18.5816 19.6282H17.6662H16.9679L16.0759 19.6693C14.8419 19.7265 13.6129 19.8637 12.3967 20.0801C11.7395 20.1916 10.9708 20.3852 10.3135 20.485L9.83236 20.5554H9.4216C9.29251 20.5554 9.1282 20.5554 9.03431 20.5554L8.72918 20.5202H8.57661H8.45925L8.23627 20.4556C8.08956 20.4145 7.937 20.3852 7.8079 20.3441C7.60212 20.2807 7.40501 20.192 7.2211 20.0801C7.04138 19.9587 6.85529 19.8471 6.66364 19.7456C6.56719 19.7084 6.47313 19.6652 6.38197 19.6165L6.25875 19.5343C6.1953 19.4936 6.14609 19.4341 6.11791 19.3642C6.10127 19.2987 6.10127 19.2301 6.11791 19.1646V19.0297C6.11791 18.9358 6.15312 18.8536 6.18246 18.7539L6.30569 18.4077C6.37555 18.2612 6.45596 18.12 6.54628 17.9852L7.0744 17.1402C7.14069 17.0421 7.22186 16.955 7.31499 16.882L7.61426 16.6003L7.90766 16.3245L8.06022 16.1837L8.25387 16.0311L9.93212 14.8575L10.7595 14.2707L11.6221 13.7133C12.2089 13.3377 12.7429 12.9739 13.2886 12.6042L14.7732 11.589C15.941 10.7868 17.0562 9.91064 18.1121 8.96605C18.606 8.52089 19.0669 8.0404 19.4911 7.52839C19.8551 7.10696 20.1412 6.62412 20.3361 6.10246C20.4645 5.78039 20.4132 5.41442 20.2011 5.1401C20.1601 5.05208 20.0486 4.9758 19.9782 4.88778C19.9077 4.79976 19.7728 4.72348 19.6672 4.63546C19.4054 4.4652 19.1352 4.30851 18.8574 4.16601C17.6305 3.60103 16.3047 3.28205 14.9551 3.22713C13.5542 3.1493 12.1493 3.27181 10.783 3.59095C9.00774 4.00432 7.29086 4.63706 5.67194 5.47458C4.84455 5.87361 4.05824 6.35478 3.25432 6.81836L2.08072 7.5812C1.67583 7.81592 1.34135 8.13866 0.907119 8.37338C-0.131519 8.96018 -0.178463 8.69612 0.267506 7.66335C0.575147 6.97648 0.98683 6.34115 1.48805 5.77972C1.79976 5.39183 2.14539 5.03247 2.52082 4.70587C2.93002 4.32734 3.37183 3.98566 3.84112 3.68484C5.59365 2.53369 7.49738 1.6312 9.49789 1.00316C11.5801 0.331681 13.7685 0.051165 15.9527 0.175767C17.1 0.238732 18.2323 0.465988 19.3151 0.850589C19.8825 1.06005 20.4319 1.31517 20.9581 1.61343C21.5923 1.94935 22.1623 2.39428 22.6422 2.92786C23.2553 3.61581 23.6263 4.48554 23.6985 5.40416C23.7477 6.2103 23.5986 7.01622 23.2642 7.75137C22.7534 8.84756 22.0476 9.84173 21.1811 10.6854C19.9617 11.8943 18.6724 13.0308 17.3199 14.0888L16.827 14.482L16.6686 14.5993L16.3459 14.8282C16.1346 14.9866 15.9058 15.1392 15.7238 15.2859C15.2779 15.5793 14.9141 15.8434 14.3977 16.1544L14.2392 16.2541C14.2392 16.2541 14.1747 16.3128 14.2392 16.3245C14.3038 16.3363 14.2862 16.3245 14.3038 16.3245C14.3976 16.3303 14.4917 16.3303 14.5855 16.3245L15.1723 16.26C15.5771 16.213 16.0231 16.172 16.5102 16.1544C16.7488 16.1544 17.0011 16.1544 17.2671 16.1544H18.1004H19.139C20.5513 16.195 21.9564 16.3718 23.3347 16.6825C25.1279 17.0659 26.8111 17.8503 28.2579 18.9769C29.7364 20.1827 30.7945 21.8262 31.2799 23.6713C31.4573 24.3674 31.5461 25.0831 31.544 25.8014C31.5327 26.5289 31.4221 27.2514 31.2154 27.9491C30.814 29.3037 30.1074 30.5483 29.1499 31.5872C27.3131 33.5115 25.041 34.9664 22.5249 35.8298C18.804 37.1614 14.8816 37.8422 10.9297 37.8425C10.0701 37.8707 9.20964 37.8433 8.35363 37.7604C5.13796 37.3379 4.23428 36.7511 3.78244 35.642C3.66311 35.3993 3.56684 35.1458 3.49491 34.8851C3.43623 34.486 3.74724 34.1926 4.34577 34.0049C4.70436 33.9058 5.07197 33.8429 5.44309 33.8171C5.92653 33.7675 6.41243 33.7459 6.89836 33.7525C7.70814 33.7525 8.5238 33.7525 9.33358 33.7114H11.7571C13.3593 33.6672 14.9579 33.534 16.5454 33.3124C18.099 33.0962 19.6292 32.7367 21.1165 32.2386C22.5354 31.7604 23.8746 31.0721 25.0892 30.1965C25.8823 29.6164 26.5607 28.8942 27.0902 28.0664C27.5439 27.3458 27.7859 26.5121 27.7885 25.6605C27.7803 25.2424 27.7131 24.8276 27.589 24.4283C27.455 23.9969 27.2698 23.5832 27.0374 23.196C26.5628 22.4003 25.892 21.7396 25.0892 21.2771V21.195Z" fill="#111827"/>
</svg>
