<svg width="44" height="40" viewBox="0 0 44 40" fill="none" xmlns="http://www.w3.org/2000/svg">
<path d="M11.1656 23.6324C11.1656 23.6324 13.0643 29.5247 9.81125 30.9297C6.55818 32.3347 12.4188 35.2334 14.8744 32.6828C17.33 30.1322 16.5706 24.2273 14.8744 23.6324C13.6606 23.299 12.3794 23.299 11.1656 23.6324Z" fill="#111827"/>
<path d="M9.40712 30.9489C9.96535 31.2426 10.5685 31.4415 11.1919 31.5375C11.6304 31.6245 12.084 31.5961 12.5083 31.4552C12.7059 31.3693 12.8893 31.2541 13.0526 31.1135C13.2872 30.904 13.4993 30.6707 13.6855 30.4173C14.097 29.8178 14.4229 29.1638 14.6538 28.4743C15.0014 27.343 15.2139 26.1746 15.2867 24.9934C15.4826 22.7857 15.3503 20.5612 14.8943 18.3923C14.4223 16.161 13.6916 13.9924 12.7172 11.9304C11.8248 10.0822 10.6974 8.35696 9.36282 6.79768C8.95144 6.28503 8.49575 5.81669 8.0464 5.33569L6.70466 3.88636C6.24265 3.41802 5.79963 2.92437 5.32495 2.45602C4.85028 1.98768 4.38194 1.4877 3.90727 1.0067C3.33767 0.373803 3.71108 0.0320406 4.64776 0.000395948C6.02615 -0.0147271 7.37444 0.403708 8.50208 1.19657C9.13498 1.6206 9.67927 2.08895 10.2552 2.55729C10.5418 2.79444 10.8124 3.05027 11.0653 3.32309C11.3248 3.5889 11.5906 3.84839 11.8374 4.12686C12.8448 5.22727 13.7712 6.39907 14.6095 7.6331C15.4476 8.88217 16.1841 10.1965 16.812 11.5634C17.4046 12.9531 17.8707 14.3935 18.2043 15.867C18.9828 19.3669 19.7486 23.0884 19.217 26.8857C18.9583 29.0649 18.1813 31.1505 16.9512 32.9678C16.5959 33.4635 16.1885 33.9197 15.7361 34.3286C15.2364 34.7624 14.6701 35.1129 14.0589 35.3665C13.4542 35.6163 12.813 35.7659 12.1602 35.8095C11.5512 35.8648 10.9374 35.8328 10.3375 35.7146C9.00248 35.4468 7.73217 34.9223 6.59707 34.1703C5.51031 33.4579 4.521 32.6068 3.65412 31.6388C2.98753 30.9083 2.41359 30.0984 1.9453 29.2274C1.43474 28.301 1.11819 27.2803 1.01495 26.2275C0.927219 25.1808 1.05649 24.1272 1.39468 23.1327C1.78104 22.0677 2.5029 21.157 3.45159 20.5378C4.1568 20.092 4.93754 19.7789 5.75532 19.6138C6.52473 19.4508 7.31092 19.3807 8.09703 19.4049C9.6624 19.4629 11.1988 19.8443 12.6096 20.5251C13.2585 20.8112 13.8705 21.1746 14.4323 21.6074C14.6804 21.8024 14.9151 22.0139 15.1348 22.2403C15.3063 22.4425 15.4669 22.6538 15.6158 22.8732C15.8457 23.2272 15.9968 23.6265 16.0588 24.044C16.1216 24.625 15.9248 25.204 15.5209 25.6263C15.3785 25.8017 15.2172 25.9609 15.0399 26.1009C14.7614 26.2845 14.407 26.1832 14.0083 25.9933L13.2931 25.6769C13.1621 25.6336 13.0399 25.5672 12.9323 25.4807C12.8121 25.4048 12.6982 25.3225 12.5842 25.2339C12.2108 24.9934 11.8691 24.7212 11.483 24.4871C11.0857 24.2496 10.6735 24.0382 10.2489 23.8542C9.39051 23.505 8.48306 23.2915 7.55907 23.2213C7.14919 23.1922 6.73735 23.2092 6.33126 23.2719C6.02478 23.3359 5.73425 23.4607 5.47685 23.639C5.3065 23.7678 5.17151 23.9376 5.08446 24.1326C4.97428 24.3832 4.90792 24.6508 4.88826 24.9238C4.88826 25.044 4.88826 25.1959 4.88826 25.3288C4.88826 25.4617 4.88826 25.6389 4.88826 25.7908C4.89472 25.9023 4.91383 26.0127 4.94522 26.1199C4.97124 26.2388 5.00723 26.3552 5.05281 26.468C5.29326 27.0709 5.62638 27.6325 6.04013 28.1325C6.95573 29.2845 8.11968 30.2148 9.44509 30.854L9.40712 30.9489Z" fill="#111827"/>
<path d="M37.5287 26.645C39.2501 33.6955 33.3516 34.803 33.3516 34.803C33.3516 34.803 36.9148 37.9675 39.0476 35.7017C41.1805 33.436 41.4463 30.1069 40.6488 28.5057C39.8514 26.9045 37.5287 26.645 37.5287 26.645Z" fill="#111827"/>
<path d="M33.9885 34.7653C34.5454 35.0567 35.1461 35.2555 35.7669 35.3539C36.2076 35.4406 36.6631 35.4122 37.0896 35.2716C37.2844 35.184 37.4655 35.0689 37.6276 34.9299C37.8604 34.7186 38.0724 34.4855 38.2605 34.2337C38.6724 33.6276 38.9983 32.9673 39.2288 32.2717C39.5759 31.1403 39.7883 29.9719 39.8617 28.7908C40.0578 26.5831 39.9255 24.3586 39.4693 22.1897C38.9932 19.9616 38.2627 17.7955 37.2922 15.7342C36.3968 13.8876 35.2696 12.1628 33.9378 10.6014C33.5265 10.0951 33.0708 9.62044 32.6214 9.14577L31.2797 7.69644C30.8177 7.2281 30.3746 6.72811 29.9063 6.2661C29.438 5.80409 28.9823 5.3041 28.5076 4.8231C27.938 4.19021 28.3177 3.84845 29.2481 3.8168C30.6265 3.80168 31.9748 4.22011 33.1024 5.01297C33.7353 5.43701 34.2796 5.90535 34.8619 6.37369C35.1465 6.61083 35.415 6.86666 35.6656 7.13949C35.9251 7.40531 36.1973 7.6648 36.4378 7.94327C37.4399 9.04317 38.3601 10.2151 39.1909 11.4495C40.0266 12.7 40.763 14.0141 41.3933 15.3798C41.982 16.7704 42.4459 18.2106 42.7794 19.6834C43.5641 23.1834 44.33 26.9048 43.7983 30.7021C43.5332 32.8808 42.7544 34.9654 41.5262 36.7842C41.1766 37.2806 40.771 37.7351 40.3174 38.1386C39.325 39.0119 38.0729 39.5345 36.7542 39.6259C36.1452 39.6812 35.5314 39.6492 34.9315 39.531C33.5893 39.2569 32.3128 38.7261 31.1721 37.9678C30.0861 37.2568 29.0987 36.4056 28.2355 35.4362C27.5687 34.7165 26.9966 33.9147 26.533 33.0502C25.4796 31.1932 25.2767 28.9726 25.976 26.9554C26.3644 25.8915 27.0858 24.9815 28.0329 24.3605C28.7371 23.9199 29.5156 23.6111 30.3303 23.4492C31.1018 23.2859 31.8902 23.2158 32.6784 23.2403C34.2351 23.2956 35.7642 23.6682 37.1719 24.3352C37.821 24.6274 38.4347 24.9926 39.001 25.4238C39.2471 25.6188 39.4796 25.8303 39.6972 26.0567C39.887 26.2782 40.0389 26.506 40.1782 26.6896C40.408 27.0379 40.5632 27.4301 40.6339 27.8414C40.6977 28.4244 40.5008 29.0058 40.0959 29.43C39.9552 29.607 39.7937 29.7663 39.6149 29.9047C39.3364 30.0882 38.982 29.9806 38.5833 29.7971L37.8681 29.4806C37.7377 29.436 37.6157 29.3696 37.5074 29.2845C37.3871 29.2085 37.2795 29.1262 37.1593 29.0376C36.7859 28.7908 36.4441 28.525 36.058 28.2908C35.6519 28.0495 35.2289 27.838 34.7922 27.6579C33.9339 27.3088 33.0264 27.0952 32.1024 27.025C31.6947 26.9961 31.2849 27.0131 30.881 27.0756C30.5722 27.1385 30.2793 27.2634 30.0202 27.4427C29.8542 27.5759 29.7201 27.7446 29.6278 27.9364C29.5164 28.1862 29.452 28.4544 29.438 28.7275C29.438 28.8478 29.438 28.9996 29.438 29.1326C29.438 29.2655 29.438 29.4427 29.438 29.5946C29.4444 29.7061 29.4635 29.8165 29.4949 29.9237C29.5248 30.0415 29.5607 30.1577 29.6025 30.2718C29.8454 30.8734 30.1783 31.4346 30.5898 31.9363C31.5064 33.0822 32.6647 34.0115 33.9821 34.6577L33.9885 34.7653Z" fill="#111827"/>
</svg>
