<svg width="19" height="36" viewBox="0 0 19 36" fill="none" xmlns="http://www.w3.org/2000/svg">
<path d="M15.206 12.753L15.2319 11.6416V11.0859V10.7432C15.2701 10.619 15.2995 10.4923 15.32 10.3641C15.3845 9.9531 15.4243 9.53862 15.4392 9.12287C15.4474 8.98648 15.4334 8.84966 15.3977 8.71779C15.3994 8.70573 15.3994 8.6935 15.3977 8.68144C15.3977 8.68144 15.3718 8.70741 15.3666 8.71779L15.3304 8.81127C15.3161 8.85576 15.2951 8.89779 15.2682 8.93591C15.1489 9.11768 14.9364 9.4085 14.5218 9.97457L13.2571 11.6001C12.9617 12.0052 12.6092 12.3635 12.2775 12.7426L11.7592 13.3035L11.2409 13.8228C9.98454 15.1055 8.59441 16.2494 7.09439 17.2348C6.10302 17.8327 5.04767 18.317 3.94824 18.6786C3.39679 18.8605 2.82925 18.9892 2.25337 19.0629C1.6738 19.1097 1.09141 19.1097 0.51184 19.0629C-0.208612 18.9902 -0.0997667 18.637 0.413361 18.1281C0.542939 17.9982 0.693249 17.858 0.864292 17.7126C1.03533 17.5672 1.21674 17.3854 1.4137 17.2192C1.61066 17.0531 1.81798 16.8765 2.03568 16.6999C2.26262 16.5514 2.50193 16.4229 2.75094 16.3156C3.64088 15.9103 4.48967 15.4199 5.28549 14.8511C5.6794 14.5655 6.08887 14.2954 6.49315 14.0202C6.89743 13.7449 7.28098 13.4229 7.65417 13.0906C8.42666 12.4141 9.15711 11.6908 9.84144 10.9249C10.1732 10.5354 10.5463 10.1771 10.8781 9.76165L11.3705 9.16442L11.6192 8.8632L11.6866 8.78011L11.7799 8.62431L11.9717 8.30233C12.2671 7.80896 12.5626 7.30521 12.858 6.80665L13.283 6.06401C13.4282 5.81992 13.5733 5.47197 13.7184 5.18634L14.5736 3.36349L14.9986 2.44427L15.0505 2.33002V2.27289L15.1282 2.20019L15.2837 2.06516L16.4447 1.0265L17.0719 0.507166C17.0933 0.497611 17.1178 0.497611 17.1393 0.507166C17.1818 0.515228 17.2213 0.535009 17.2533 0.564292C17.3001 0.601861 17.3435 0.643576 17.3829 0.688932C17.4577 0.776777 17.5253 0.870565 17.585 0.969371C17.7094 1.1771 17.8286 1.40042 17.953 1.6445C18.2874 2.35976 18.486 3.13111 18.5387 3.91917C18.6424 4.95783 18.6838 6.16788 18.7253 7.33118L18.7771 9.08652V9.96938V10.8055C18.746 12.6595 18.7201 14.5135 18.689 16.3623C18.6579 19.1667 18.5491 21.9815 18.5802 24.7651C18.5802 26.9255 18.8238 29.0496 18.9223 31.1996C18.9223 31.6722 19 32.1396 19 32.6174C19 34.3935 18.7097 34.9648 17.7353 35.2816C17.5176 35.3666 17.2942 35.436 17.0667 35.4893C16.3151 35.5984 15.7606 34.8661 15.5947 33.5938C15.1535 29.6786 14.9631 25.7392 15.0246 21.7997C15.0246 18.8136 15.0608 15.817 15.0764 12.8257L15.206 12.753Z" fill="#111827"/>
</svg>
