<svg width="68" height="78" viewBox="0 0 68 78" fill="none" xmlns="http://www.w3.org/2000/svg">
<path d="M30.4688 16.6996C37.3665 13.2861 42.6384 7.28832 45.1388 0.0096237C45.2987 -0.430376 47.8988 14.3496 56.6588 17.1996C56.6588 17.1996 46.0588 22.2796 43.5487 32.3396C43.5588 32.4796 42.9487 24.3496 30.4688 16.6996Z" fill="#231F20"/>
<path d="M45.7617 64.5696C51.441 61.7554 55.7764 56.8088 57.8217 50.8096C57.9517 50.4496 60.0817 62.6096 67.3217 64.9496C67.3217 64.9496 58.6117 69.1296 56.5417 77.3996C56.5117 77.5096 56.0117 70.8296 45.7617 64.5696Z" fill="#231F20"/>
<path d="M0 46.0896C5.48176 43.3685 9.67087 38.5973 11.66 32.8096C11.78 32.4496 13.85 44.1896 20.84 46.4496C20.84 46.4496 12.42 50.4496 10.43 58.4496C10.38 58.5796 9.9 52.1296 0 46.0896Z" fill="#231F20"/>
</svg>
