<svg width="43" height="40" viewBox="0 0 43 40" fill="none" xmlns="http://www.w3.org/2000/svg">
<path d="M32.8109 23.6324C32.8109 23.6324 30.9122 29.5247 34.1653 30.9297C37.4184 32.3347 31.5578 35.2334 29.1022 32.6828C26.6465 30.1322 27.406 24.2273 29.1022 23.6324C30.3159 23.299 31.5971 23.299 32.8109 23.6324Z" fill="#111827"/>
<path d="M34.5694 30.9489C34.0112 31.2426 33.4081 31.4415 32.7847 31.5375C32.3462 31.6245 31.8925 31.5961 31.4683 31.4552C31.2707 31.3693 31.0872 31.2541 30.924 31.1135C30.6894 30.904 30.4772 30.6707 30.2911 30.4173C29.8796 29.8178 29.5537 29.1638 29.3228 28.4743C28.9751 27.343 28.7627 26.1746 28.6899 24.9934C28.494 22.7857 28.6262 20.5612 29.0823 18.3923C29.5543 16.161 30.2849 13.9924 31.2594 11.9304C32.1517 10.0822 33.2792 8.35696 34.6137 6.79768C35.0251 6.28503 35.4808 5.81669 35.9302 5.33569L37.2719 3.88636C37.7339 3.41802 38.1769 2.92437 38.6516 2.45602C39.1263 1.98768 39.5946 1.4877 40.0693 1.0067C40.6389 0.373803 40.2655 0.0320406 39.3288 0.000395948C37.9504 -0.0147271 36.6021 0.403708 35.4745 1.19657C34.8416 1.6206 34.2973 2.08895 33.7214 2.55729C33.4348 2.79444 33.1641 3.05027 32.9113 3.32309C32.6518 3.5889 32.386 3.84839 32.1391 4.12686C31.1318 5.22727 30.2054 6.39907 29.3671 7.6331C28.529 8.88217 27.7924 10.1965 27.1646 11.5634C26.5719 12.9531 26.1059 14.3935 25.7722 15.867C24.9938 19.3669 24.228 23.0884 24.7596 26.8857C25.0183 29.0649 25.7952 31.1505 27.0253 32.9678C27.3806 33.4635 27.788 33.9197 28.2405 34.3286C28.7402 34.7624 29.3065 35.1129 29.9177 35.3665C30.5223 35.6163 31.1636 35.7659 31.8164 35.8095C32.4254 35.8648 33.0391 35.8328 33.6391 35.7146C34.9741 35.4468 36.2444 34.9223 37.3795 34.1703C38.4663 33.4579 39.4556 32.6068 40.3224 31.6388C40.989 30.9083 41.563 30.0984 42.0313 29.2274C42.5418 28.301 42.8584 27.2803 42.9616 26.2275C43.0493 25.1808 42.9201 24.1272 42.5819 23.1327C42.1955 22.0677 41.4737 21.157 40.525 20.5378C39.8198 20.092 39.039 19.7789 38.2212 19.6138C37.4518 19.4508 36.6656 19.3807 35.8795 19.4049C34.3142 19.4629 32.7777 19.8443 31.367 20.5251C30.7181 20.8112 30.1061 21.1746 29.5443 21.6074C29.2962 21.8024 29.0615 22.0138 28.8418 22.2403C28.6702 22.4425 28.5097 22.6538 28.3608 22.8732C28.1308 23.2272 27.9797 23.6265 27.9177 24.044C27.8549 24.625 28.0518 25.204 28.4557 25.6263C28.598 25.8017 28.7593 25.9609 28.9367 26.1009C29.2152 26.2845 29.5696 26.1832 29.9683 25.9933L30.6835 25.6769C30.8145 25.6336 30.9367 25.5672 31.0442 25.4807C31.1645 25.4048 31.2784 25.3225 31.3923 25.2339C31.7657 24.9934 32.1075 24.7212 32.4936 24.4871C32.8908 24.2496 33.3031 24.0382 33.7277 23.8542C34.5861 23.505 35.4935 23.2915 36.4175 23.2213C36.8274 23.1922 37.2392 23.2092 37.6453 23.2719C37.9518 23.3359 38.2423 23.4607 38.4997 23.639C38.6701 23.7678 38.805 23.9376 38.8921 24.1326C39.0023 24.3832 39.0686 24.6508 39.0883 24.9238C39.0883 25.044 39.0883 25.1959 39.0883 25.3288C39.0883 25.4617 39.0883 25.6389 39.0883 25.7908C39.0818 25.9023 39.0627 26.0127 39.0313 26.1199C39.0053 26.2388 38.9693 26.3552 38.9238 26.468C38.6833 27.0709 38.3502 27.6325 37.9364 28.1325C37.0208 29.2845 35.8569 30.2148 34.5315 30.854L34.5694 30.9489Z" fill="#111827"/>
<path d="M6.4479 26.645C4.72643 33.6955 10.625 34.803 10.625 34.803C10.625 34.803 7.06181 37.9675 4.92896 35.7017C2.7961 33.436 2.53029 30.1069 3.32773 28.5057C4.12518 26.9045 6.4479 26.645 6.4479 26.645Z" fill="#111827"/>
<path d="M9.9881 34.7653C9.43116 35.0567 8.83049 35.2555 8.20967 35.3539C7.769 35.4406 7.31344 35.4122 6.88692 35.2716C6.69219 35.184 6.51102 35.0689 6.34896 34.9299C6.11615 34.7186 5.9042 34.4855 5.71606 34.2337C5.30412 33.6276 4.97824 32.9673 4.74774 32.2717C4.40071 31.1403 4.18828 29.9719 4.11484 28.7908C3.91879 26.5831 4.05102 24.3586 4.50724 22.1897C4.98333 19.9616 5.71384 17.7955 6.68439 15.7342C7.57977 13.8876 8.70698 12.1628 10.0387 10.6014C10.4501 10.0951 10.9058 9.62044 11.3551 9.14577L12.6969 7.69644C13.1589 7.2281 13.6019 6.72811 14.0703 6.2661C14.5386 5.80409 14.9943 5.3041 15.469 4.8231C16.0386 4.19021 15.6588 3.84845 14.7285 3.8168C13.3501 3.80168 12.0018 4.22011 10.8741 5.01297C10.2413 5.43701 9.69697 5.90535 9.11471 6.37369C8.83007 6.61083 8.56155 6.86666 8.31093 7.13949C8.05144 7.40531 7.7793 7.6648 7.5388 7.94327C6.53666 9.04317 5.6165 10.2151 4.78571 11.4495C3.94997 12.7 3.21356 14.0141 2.58324 15.3798C1.99452 16.7704 1.53068 18.2106 1.1972 19.6834C0.412415 23.1834 -0.353388 26.9048 0.178244 30.7021C0.443386 32.8808 1.22211 34.9654 2.45033 36.7842C2.79997 37.2806 3.20558 37.7351 3.65916 38.1386C4.65158 39.0119 5.90363 39.5345 7.22235 39.6259C7.83135 39.6812 8.44512 39.6492 9.04509 39.531C10.3872 39.2569 11.6637 38.7261 12.8045 37.9678C13.8905 37.2568 14.8779 36.4056 15.7411 35.4362C16.4078 34.7165 16.98 33.9147 17.4436 33.0502C18.497 31.1932 18.6999 28.9726 18.0005 26.9554C17.6122 25.8915 16.8908 24.9815 15.9436 24.3605C15.2394 23.9199 14.461 23.6111 13.6462 23.4492C12.8747 23.2859 12.0864 23.2158 11.2982 23.2403C9.74143 23.2956 8.21235 23.6682 6.80464 24.3352C6.15555 24.6274 5.54189 24.9926 4.97558 25.4238C4.72951 25.6188 4.49692 25.8303 4.2794 26.0567C4.08953 26.2782 3.93763 26.506 3.7984 26.6896C3.56852 27.0379 3.41335 27.4301 3.34271 27.8414C3.27886 28.4244 3.47575 29.0058 3.88067 29.43C4.02137 29.607 4.18287 29.7663 4.36167 29.9047C4.64015 30.0882 4.99457 29.9806 5.39329 29.7971L6.10846 29.4806C6.23887 29.436 6.36083 29.3696 6.46921 29.2845C6.58946 29.2085 6.69705 29.1262 6.8173 29.0376C7.19071 28.7908 7.53247 28.525 7.91854 28.2908C8.32461 28.0495 8.74765 27.838 9.18432 27.6579C10.0427 27.3088 10.9501 27.0952 11.8741 27.025C12.2819 26.9961 12.6916 27.0131 13.0956 27.0756C13.4044 27.1385 13.6972 27.2634 13.9563 27.4427C14.1224 27.5759 14.2565 27.7446 14.3487 27.9364C14.4602 28.1862 14.5246 28.4544 14.5386 28.7275C14.5386 28.8478 14.5386 28.9996 14.5386 29.1326C14.5386 29.2655 14.5386 29.4427 14.5386 29.5946C14.5321 29.7061 14.513 29.8165 14.4816 29.9237C14.4518 30.0415 14.4159 30.1577 14.3741 30.2718C14.1312 30.8734 13.7983 31.4346 13.3867 31.9363C12.4702 33.0822 11.3118 34.0115 9.99443 34.6577L9.9881 34.7653Z" fill="#111827"/>
</svg>
