<svg width="26" height="36" viewBox="0 0 26 36" fill="none" xmlns="http://www.w3.org/2000/svg">
<path d="M6.4581 29.3456C6.41454 29.45 6.37656 29.5567 6.34433 29.6652C6.34433 29.7735 6.29016 29.8765 6.25766 29.9848C6.20049 30.2079 6.17137 30.4371 6.17098 30.6674C6.15933 30.8234 6.17028 30.9804 6.20349 31.1333C6.24382 31.2822 6.32442 31.4172 6.43643 31.5233C6.71647 31.7398 7.03165 31.9066 7.3682 32.0163C8.15539 32.3195 8.96993 32.5463 9.80056 32.6935C10.7102 32.8601 11.6293 32.9705 12.5525 33.0239C13.3868 33.0781 14.2319 33.0239 15.0716 33.0239L15.8896 32.9914C16.1605 32.9914 16.4313 32.9914 16.713 33.0293C17.2841 33.076 17.8467 33.1962 18.387 33.3869C18.7391 33.5277 18.6091 33.7932 18.2895 34.0803C17.8964 34.4642 17.4172 34.7484 16.8918 34.9091L16.1117 35.0771C15.8517 35.1312 15.57 35.1421 15.3154 35.18C14.7736 35.2342 14.2319 35.2938 13.6902 35.3317C12.561 35.4244 11.4257 35.4117 10.299 35.2938C8.91755 35.1258 7.41696 35.1908 5.83511 34.5137C5.37702 34.3141 4.95008 34.0495 4.56746 33.7282C4.14889 33.3628 3.80807 32.9169 3.56527 32.4172C3.35668 31.9407 3.23557 31.4306 3.20772 30.9112C3.17334 30.4446 3.19334 29.9755 3.26731 29.5135C3.49243 28.4369 3.9758 27.4311 4.67581 26.5828C5.65517 25.4726 6.76676 24.4866 7.98577 23.6466C8.86879 22.9857 9.67055 22.2435 10.5048 21.6097C10.6998 21.4797 10.8678 21.3388 11.0465 21.2196C11.7616 20.7971 12.0162 20.8242 12.5525 21.1709C12.6717 21.2521 12.8072 21.3172 12.9209 21.3984C13.3164 21.653 13.2676 22.2706 12.8126 22.8448C12.4821 23.2674 12.1463 23.6574 11.7995 24.0258C11.4528 24.3942 11.0574 24.6596 10.689 24.9576C9.94683 25.5535 9.21008 26.1115 8.52208 26.6911C7.56322 27.5633 6.75063 28.4951 6.47977 29.3672L6.4581 29.3456Z" fill="#111827"/>
<path d="M19.8056 17.1838C16.8803 20.4342 13.5324 22.7311 10.2875 24.9901C9.10648 25.8081 7.98511 26.6911 6.85289 27.5037C5.89583 28.174 4.98709 28.9108 4.13341 29.7085C4.03049 29.8061 3.93839 29.8982 3.85171 29.9902L3.71087 30.1365C3.64043 30.2138 3.57698 30.2972 3.52126 30.3857C3.39069 30.575 3.36422 30.8173 3.45084 31.0304C3.61655 31.1904 3.82244 31.3027 4.04674 31.3554L4.32302 31.4367L4.7564 31.5396C5.04894 31.61 5.34689 31.675 5.64484 31.7346C6.84748 31.9784 8.0772 32.1626 9.31776 32.3251C10.4012 32.4497 11.5226 32.5851 12.6277 32.6881C13.7328 32.791 14.8488 32.8614 15.9539 32.921C17.3678 33.0023 18.7872 33.0293 20.2065 33.0348C21.6258 33.0402 23.0452 33.0673 24.4103 32.9752C25.2067 32.8939 25.2608 33.2244 24.562 33.7553C23.4203 34.4826 22.1189 34.9213 20.7699 35.0337C17.8012 35.2829 14.8488 35.5105 11.8693 35.4996C10.3688 35.5044 8.86994 35.403 7.38379 35.1963C6.6362 35.1042 5.88862 34.9904 5.13019 34.8496C4.74557 34.7791 4.37177 34.7087 3.98173 34.6166L3.36416 34.4649C3.04635 34.3923 2.73336 34.3 2.42697 34.1886C1.74505 34.0043 1.13028 33.6283 0.655514 33.1052C0.534166 32.9815 0.428627 32.8432 0.341312 32.6935C0.267852 32.5351 0.204523 32.3723 0.151706 32.2059C0.0499033 31.8723 -0.00122828 31.5254 2.23988e-05 31.1766C0.0291793 30.4537 0.243709 29.7504 0.623011 29.1343L0.926379 28.663L1.26767 28.208C1.38685 28.0509 1.46269 27.975 1.54937 27.8667C1.63604 27.7583 1.72272 27.6771 1.8094 27.5796C3.14284 26.2314 4.59312 25.0041 6.14323 23.912C9.3936 21.5718 12.644 19.4211 15.3851 16.7883C17.0428 15.1631 18.5055 13.3483 19.1231 11.3331C19.5908 9.83218 19.4945 8.21209 18.8522 6.77717C18.3539 5.4225 17.0446 4.53872 15.6018 4.58317C14.3837 4.63322 13.1952 4.97308 12.1347 5.57453C11.028 6.19506 9.99103 6.93241 9.04148 7.77395C8.60809 8.13149 8.22347 8.52695 7.81175 8.91158C6.30033 10.3526 5.81819 10.7643 4.7564 10.6614C4.53037 10.6639 4.30435 10.6549 4.07924 10.6343C3.73795 10.5639 3.57543 10.2713 3.5646 9.71334C3.61272 8.96008 3.86354 8.23384 4.29051 7.61143C5.04099 6.38274 5.93979 5.25105 6.96666 4.24188C8.08946 3.23061 9.34526 2.37761 10.6992 1.70659C11.4294 1.3441 12.1932 1.0538 12.9798 0.839819C13.4005 0.723738 13.8273 0.631498 14.2583 0.563537C14.7204 0.510662 15.1857 0.490748 15.6506 0.503947C16.6768 0.527291 17.6888 0.749918 18.6301 1.15944C19.6259 1.59611 20.504 2.2626 21.1925 3.10425C22.0835 4.19727 22.7035 5.48552 23.0018 6.86384C23.3056 8.16986 23.348 9.52309 23.1264 10.8455C22.9 12.0929 22.4719 13.2951 21.8588 14.4047C21.2971 15.4165 20.6327 16.3678 19.8761 17.2434L19.8056 17.1838Z" fill="#111827"/>
</svg>
