<svg width="57" height="56" viewBox="0 0 57 56" fill="none" xmlns="http://www.w3.org/2000/svg">
<g clip-path="url(#clip0_478_24213)">
<path fill-rule="evenodd" clip-rule="evenodd" d="M27.3576 45.444L17.2636 51.002C15.8916 51.744 14.2116 51.198 13.4836 49.77C13.1813 49.2043 13.0825 48.5519 13.2036 47.922L15.1356 36.162C15.2154 35.7023 15.1847 35.2302 15.0459 34.7847C14.9072 34.3392 14.6644 33.9331 14.3376 33.6L6.16158 25.284C5.62917 24.7308 5.32828 23.9951 5.32047 23.2274C5.31266 22.4596 5.59853 21.7179 6.11958 21.154C6.54437 20.7057 7.10549 20.4103 7.71558 20.314L19.0136 18.592C19.4678 18.519 19.897 18.3351 20.2633 18.0568C20.6296 17.7784 20.9216 17.4141 21.1136 16.996L26.1536 6.30002C26.3695 5.81584 26.7212 5.40459 27.1659 5.116C27.6106 4.82741 28.1294 4.67383 28.6596 4.67383C29.1897 4.67383 29.7085 4.82741 30.1533 5.116C30.598 5.40459 30.9496 5.81584 31.1656 6.30002L36.2056 16.996C36.3976 17.4141 36.6896 17.7784 37.0559 18.0568C37.4221 18.3351 37.8514 18.519 38.3056 18.592L49.6036 20.314C50.3525 20.4444 51.0202 20.8638 51.4627 21.4818C51.9053 22.0999 52.0873 22.867 51.9696 23.618C51.8959 24.2494 51.6095 24.837 51.1576 25.284L42.9816 33.6C42.6505 33.936 42.4052 34.3468 42.2663 34.7976C42.1275 35.2484 42.0991 35.726 42.1836 36.19L44.1016 47.95C44.227 48.6941 44.0614 49.458 43.6393 50.0834C43.2171 50.7089 42.5706 51.148 41.8336 51.31C41.2247 51.4106 40.5997 51.3073 40.0556 51.016L29.9616 45.458C29.5639 45.2348 29.1156 45.1176 28.6596 45.1176C28.2036 45.1176 27.7552 45.2348 27.3576 45.458M25.1176 41.37C26.2047 40.7794 27.4223 40.47 28.6596 40.47C29.8968 40.47 31.1144 40.7794 32.2016 41.37L38.9076 45.052L37.5776 36.932C37.3852 35.7475 37.4724 34.5343 37.8321 33.3895C38.1919 32.2446 38.8143 31.1996 39.6496 30.338L45.4736 24.402L37.6056 23.212C36.3933 23.0261 35.246 22.5427 34.2663 21.8048C33.2866 21.067 32.505 20.0978 31.9916 18.984L28.6596 11.928L25.3276 18.984C24.8105 20.0926 24.0274 21.0562 23.0479 21.7889C22.0685 22.5217 20.923 23.0009 19.7136 23.184L11.8456 24.388L17.6696 30.324C18.507 31.1871 19.1306 32.2344 19.4904 33.3819C19.8502 34.5294 19.9362 35.7453 19.7416 36.932L18.4116 45.052L25.1176 41.37Z" fill="#E2E8F0"/>
</g>
<defs>
<clipPath id="clip0_478_24213">
<rect width="56" height="56" fill="white" transform="translate(0.660156)"/>
</clipPath>
</defs>
</svg>
