<svg width="385" height="56" viewBox="0 0 385 56" fill="none" xmlns="http://www.w3.org/2000/svg">
<rect width="385" height="56" rx="16" fill="white"/>
<g filter="url(#filter0_dd_478_24836)">
<rect x="4" y="4" width="92.02" height="48" rx="16" fill="white"/>
<rect x="4.5" y="4.5" width="91.02" height="47" rx="15.5" stroke="#E5E7EB"/>
<path d="M38 36C37.4696 36 36.9609 35.7893 36.5858 35.4142C36.2107 35.0391 36 34.5304 36 34C36 33.4696 36.2107 32.9609 36.5858 32.5858C36.9609 32.2107 37.4696 32 38 32C38.5304 32 39.0391 32.2107 39.4142 32.5858C39.7893 32.9609 40 33.4696 40 34C40 34.5304 39.7893 35.0391 39.4142 35.4142C39.0391 35.7893 38.5304 36 38 36ZM32 36C31.4696 36 30.9609 35.7893 30.5858 35.4142C30.2107 35.0391 30 34.5304 30 34C30 33.4696 30.2107 32.9609 30.5858 32.5858C30.9609 32.2107 31.4696 32 32 32C32.5304 32 33.0391 32.2107 33.4142 32.5858C33.7893 32.9609 34 33.4696 34 34C34 34.5304 33.7893 35.0391 33.4142 35.4142C33.0391 35.7893 32.5304 36 32 36ZM26 36C25.4696 36 24.9609 35.7893 24.5858 35.4142C24.2107 35.0391 24 34.5304 24 34C24 33.4696 24.2107 32.9609 24.5858 32.5858C24.9609 32.2107 25.4696 32 26 32C26.5304 32 27.0391 32.2107 27.4142 32.5858C27.7893 32.9609 28 33.4696 28 34C28 34.5304 27.7893 35.0391 27.4142 35.4142C27.0391 35.7893 26.5304 36 26 36ZM38 30C37.4696 30 36.9609 29.7893 36.5858 29.4142C36.2107 29.0391 36 28.5304 36 28C36 27.4696 36.2107 26.9609 36.5858 26.5858C36.9609 26.2107 37.4696 26 38 26C38.5304 26 39.0391 26.2107 39.4142 26.5858C39.7893 26.9609 40 27.4696 40 28C40 28.5304 39.7893 29.0391 39.4142 29.4142C39.0391 29.7893 38.5304 30 38 30ZM32 30C31.4696 30 30.9609 29.7893 30.5858 29.4142C30.2107 29.0391 30 28.5304 30 28C30 27.4696 30.2107 26.9609 30.5858 26.5858C30.9609 26.2107 31.4696 26 32 26C32.5304 26 33.0391 26.2107 33.4142 26.5858C33.7893 26.9609 34 27.4696 34 28C34 28.5304 33.7893 29.0391 33.4142 29.4142C33.0391 29.7893 32.5304 30 32 30ZM26 30C25.4696 30 24.9609 29.7893 24.5858 29.4142C24.2107 29.0391 24 28.5304 24 28C24 27.4696 24.2107 26.9609 24.5858 26.5858C24.9609 26.2107 25.4696 26 26 26C26.5304 26 27.0391 26.2107 27.4142 26.5858C27.7893 26.9609 28 27.4696 28 28C28 28.5304 27.7893 29.0391 27.4142 29.4142C27.0391 29.7893 26.5304 30 26 30ZM38 24C37.4696 24 36.9609 23.7893 36.5858 23.4142C36.2107 23.0391 36 22.5304 36 22C36 21.4696 36.2107 20.9609 36.5858 20.5858C36.9609 20.2107 37.4696 20 38 20C38.5304 20 39.0391 20.2107 39.4142 20.5858C39.7893 20.9609 40 21.4696 40 22C40 22.5304 39.7893 23.0391 39.4142 23.4142C39.0391 23.7893 38.5304 24 38 24ZM32 24C31.4696 24 30.9609 23.7893 30.5858 23.4142C30.2107 23.0391 30 22.5304 30 22C30 21.4696 30.2107 20.9609 30.5858 20.5858C30.9609 20.2107 31.4696 20 32 20C32.5304 20 33.0391 20.2107 33.4142 20.5858C33.7893 20.9609 34 21.4696 34 22C34 22.5304 33.7893 23.0391 33.4142 23.4142C33.0391 23.7893 32.5304 24 32 24ZM26 24C25.4696 24 24.9609 23.7893 24.5858 23.4142C24.2107 23.0391 24 22.5304 24 22C24 21.4696 24.2107 20.9609 24.5858 20.5858C24.9609 20.2107 25.4696 20 26 20C26.5304 20 27.0391 20.2107 27.4142 20.5858C27.7893 20.9609 28 21.4696 28 22C28 22.5304 27.7893 23.0391 27.4142 23.4142C27.0391 23.7893 26.5304 24 26 24Z" fill="#111827"/>
<path d="M54.8505 34H52.6005L56.6971 22.3636H59.2994L63.4017 34H61.1517L58.0437 24.75H57.9528L54.8505 34ZM54.9244 29.4375H61.0608V31.1307H54.9244V29.4375ZM66.9003 22.3636V34H64.8434V22.3636H66.9003ZM71.0721 22.3636V34H69.0153V22.3636H71.0721Z" fill="#111827"/>
</g>
<g clip-path="url(#clip0_478_24836)">
<path d="M136.02 37H120.02C119.489 37 118.98 36.7893 118.605 36.4142C118.23 36.0391 118.02 35.5304 118.02 35V21C118.02 19.9 118.92 19 120.02 19H136.02C136.55 19 137.059 19.2107 137.434 19.5858C137.809 19.9609 138.02 20.4696 138.02 21V35C138.02 35.5304 137.809 36.0391 137.434 36.4142C137.059 36.7893 136.55 37 136.02 37ZM120.02 23V35H136.02V23H120.02ZM134.02 33H128.02V31H134.02V33ZM123.43 33L122.02 31.59L124.32 29.29L122.02 27L123.43 25.59L127.14 29.29L123.43 33Z" fill="#111827"/>
</g>
<path d="M148.95 24.1307V22.3636H158.234V24.1307H154.637V34H152.546V24.1307H148.95ZM162.531 34.1705C161.656 34.1705 160.9 33.9886 160.264 33.625C159.631 33.2576 159.144 32.7386 158.803 32.0682C158.462 31.3939 158.292 30.6004 158.292 29.6875C158.292 28.7898 158.462 28.0019 158.803 27.3239C159.148 26.642 159.629 26.1117 160.247 25.733C160.864 25.3504 161.589 25.1591 162.423 25.1591C162.961 25.1591 163.468 25.2462 163.945 25.4205C164.426 25.5909 164.851 25.8561 165.218 26.2159C165.589 26.5758 165.881 27.0341 166.093 27.5909C166.305 28.1439 166.411 28.803 166.411 29.5682V30.1989H159.258V28.8125H164.44C164.436 28.4186 164.351 28.0682 164.184 27.7614C164.017 27.4508 163.784 27.2064 163.485 27.0284C163.19 26.8504 162.845 26.7614 162.451 26.7614C162.031 26.7614 161.661 26.8636 161.343 27.0682C161.025 27.2689 160.777 27.5341 160.599 27.8636C160.425 28.1894 160.336 28.5473 160.332 28.9375V30.1477C160.332 30.6553 160.425 31.0909 160.61 31.4545C160.796 31.8144 161.055 32.0909 161.389 32.2841C161.722 32.4735 162.112 32.5682 162.559 32.5682C162.858 32.5682 163.129 32.5265 163.372 32.4432C163.614 32.3561 163.824 32.2292 164.002 32.0625C164.18 31.8958 164.315 31.6894 164.406 31.4432L166.326 31.6591C166.205 32.1667 165.974 32.6098 165.633 32.9886C165.296 33.3636 164.864 33.6553 164.337 33.8636C163.811 34.0682 163.209 34.1705 162.531 34.1705ZM168.151 34V25.2727H170.146V26.7273H170.237C170.396 26.2235 170.668 25.8352 171.055 25.5625C171.445 25.286 171.89 25.1477 172.39 25.1477C172.504 25.1477 172.631 25.1534 172.771 25.1648C172.915 25.1723 173.034 25.1856 173.129 25.2045V27.0966C173.042 27.0663 172.903 27.0398 172.714 27.017C172.528 26.9905 172.348 26.9773 172.174 26.9773C171.799 26.9773 171.462 27.0587 171.163 27.2216C170.867 27.3807 170.634 27.6023 170.464 27.8864C170.293 28.1705 170.208 28.4981 170.208 28.8693V34H168.151ZM174.495 34V25.2727H176.461V26.7557H176.563C176.745 26.2557 177.046 25.8655 177.467 25.5852C177.887 25.3011 178.389 25.1591 178.972 25.1591C179.563 25.1591 180.061 25.303 180.467 25.5909C180.876 25.875 181.164 26.2633 181.33 26.7557H181.421C181.614 26.2708 181.94 25.8845 182.399 25.5966C182.861 25.3049 183.408 25.1591 184.041 25.1591C184.844 25.1591 185.499 25.4129 186.007 25.9205C186.514 26.428 186.768 27.1686 186.768 28.142V34H184.705V28.4602C184.705 27.9186 184.561 27.5227 184.274 27.2727C183.986 27.0189 183.633 26.892 183.217 26.892C182.721 26.892 182.332 27.0473 182.052 27.358C181.775 27.6648 181.637 28.0644 181.637 28.5568V34H179.62V28.375C179.62 27.9242 179.484 27.5644 179.211 27.2955C178.942 27.0265 178.59 26.892 178.154 26.892C177.859 26.892 177.59 26.9678 177.347 27.1193C177.105 27.267 176.912 27.4773 176.768 27.75C176.624 28.0189 176.552 28.3333 176.552 28.6932V34H174.495ZM188.855 34V25.2727H190.911V34H188.855ZM189.889 24.0341C189.563 24.0341 189.283 23.9261 189.048 23.7102C188.813 23.4905 188.695 23.2273 188.695 22.9205C188.695 22.6098 188.813 22.3466 189.048 22.1307C189.283 21.911 189.563 21.8011 189.889 21.8011C190.218 21.8011 190.498 21.911 190.73 22.1307C190.964 22.3466 191.082 22.6098 191.082 22.9205C191.082 23.2273 190.964 23.4905 190.73 23.7102C190.498 23.9261 190.218 24.0341 189.889 24.0341ZM195.083 28.8864V34H193.026V25.2727H194.992V26.7557H195.095C195.295 26.267 195.615 25.8788 196.055 25.5909C196.498 25.303 197.045 25.1591 197.697 25.1591C198.299 25.1591 198.824 25.2879 199.271 25.5455C199.721 25.803 200.07 26.1761 200.316 26.6648C200.566 27.1534 200.689 27.7462 200.685 28.4432V34H198.629V28.7614C198.629 28.178 198.477 27.7216 198.174 27.392C197.875 27.0625 197.46 26.8977 196.93 26.8977C196.57 26.8977 196.25 26.9773 195.97 27.1364C195.693 27.2917 195.475 27.517 195.316 27.8125C195.161 28.108 195.083 28.4659 195.083 28.8864ZM205.288 34.1761C204.735 34.1761 204.237 34.0777 203.793 33.8807C203.354 33.6799 203.006 33.3845 202.748 32.9943C202.494 32.6042 202.367 32.1231 202.367 31.5511C202.367 31.0587 202.458 30.6515 202.64 30.3295C202.822 30.0076 203.07 29.75 203.384 29.5568C203.699 29.3636 204.053 29.2178 204.447 29.1193C204.845 29.017 205.256 28.9432 205.68 28.8977C206.191 28.8447 206.606 28.7973 206.924 28.7557C207.242 28.7102 207.473 28.642 207.617 28.5511C207.765 28.4564 207.839 28.3106 207.839 28.1136V28.0795C207.839 27.6515 207.712 27.3201 207.458 27.0852C207.204 26.8504 206.839 26.733 206.362 26.733C205.858 26.733 205.458 26.8428 205.163 27.0625C204.871 27.2822 204.674 27.5417 204.572 27.8409L202.651 27.5682C202.803 27.0379 203.053 26.5947 203.401 26.2386C203.75 25.8788 204.176 25.6098 204.68 25.4318C205.184 25.25 205.74 25.1591 206.35 25.1591C206.771 25.1591 207.189 25.2083 207.606 25.3068C208.023 25.4053 208.403 25.5682 208.748 25.7955C209.093 26.0189 209.369 26.3239 209.578 26.7102C209.79 27.0966 209.896 27.5795 209.896 28.1591V34H207.918V32.8011H207.85C207.725 33.0436 207.549 33.2708 207.322 33.483C207.098 33.6913 206.816 33.8598 206.475 33.9886C206.138 34.1136 205.742 34.1761 205.288 34.1761ZM205.822 32.6648C206.235 32.6648 206.593 32.5833 206.896 32.4205C207.199 32.2538 207.432 32.0341 207.595 31.7614C207.761 31.4886 207.845 31.1913 207.845 30.8693V29.8409C207.78 29.8939 207.67 29.9432 207.515 29.9886C207.364 30.0341 207.193 30.0739 207.004 30.108C206.814 30.142 206.627 30.1723 206.441 30.1989C206.256 30.2254 206.095 30.2481 205.958 30.267C205.651 30.3087 205.377 30.3769 205.134 30.4716C204.892 30.5663 204.701 30.6989 204.56 30.8693C204.42 31.036 204.35 31.2519 204.35 31.517C204.35 31.8958 204.489 32.1818 204.765 32.375C205.042 32.5682 205.394 32.6648 205.822 32.6648ZM214.021 22.3636V34H211.964V22.3636H214.021Z" fill="#111827"/>
<g clip-path="url(#clip1_478_24836)">
<path d="M271.059 38C268.406 38 265.863 36.9464 263.988 35.0711C262.112 33.1957 261.059 30.6522 261.059 28C261.059 25.3478 262.112 22.8043 263.988 20.9289C265.863 19.0536 268.406 18 271.059 18C273.711 18 276.254 19.0536 278.13 20.9289C280.005 22.8043 281.059 25.3478 281.059 28C281.059 30.6522 280.005 33.1957 278.13 35.0711C276.254 36.9464 273.711 38 271.059 38ZM270.059 20.06C268.863 20.2119 267.718 20.6318 266.708 21.2884C265.697 21.945 264.849 22.8212 264.224 23.8518C263.6 24.8823 263.217 26.0405 263.103 27.24C262.989 28.4394 263.148 29.6491 263.567 30.7787C263.986 31.9083 264.655 32.9286 265.523 33.7636C266.392 34.5986 267.438 35.2265 268.583 35.6007C269.728 35.9748 270.943 36.0854 272.137 35.9243C273.331 35.7631 274.473 35.3344 275.479 34.67L275.379 34.74L275.479 34.68L275.529 34.64L275.599 34.59L275.609 34.58H275.619L270.489 29.44C270.211 29.1573 270.056 28.7763 270.059 28.38V20.06ZM272.889 29L277.119 33.23V33.22C278.147 32.0288 278.801 30.5609 278.999 29H272.889ZM272.059 20.06V27H278.999C278.777 25.2367 277.975 23.5974 276.718 22.3407C275.461 21.084 273.822 20.2816 272.059 20.06Z" fill="#111827"/>
</g>
<path d="M292.228 34V22.3636H296.591C297.485 22.3636 298.235 22.5303 298.841 22.8636C299.451 23.197 299.911 23.6553 300.222 24.2386C300.536 24.8182 300.693 25.4773 300.693 26.2159C300.693 26.9621 300.536 27.625 300.222 28.2045C299.907 28.7841 299.443 29.2405 298.83 29.5739C298.216 29.9034 297.46 30.0682 296.563 30.0682H293.671V28.3352H296.279C296.801 28.3352 297.229 28.2443 297.563 28.0625C297.896 27.8807 298.142 27.6307 298.301 27.3125C298.464 26.9943 298.546 26.6288 298.546 26.2159C298.546 25.803 298.464 25.4394 298.301 25.125C298.142 24.8106 297.894 24.5663 297.557 24.392C297.224 24.214 296.794 24.125 296.267 24.125H294.335V34H292.228ZM306.115 34.1705C305.263 34.1705 304.524 33.983 303.899 33.608C303.274 33.233 302.79 32.7083 302.445 32.0341C302.104 31.3598 301.934 30.572 301.934 29.6705C301.934 28.7689 302.104 27.9792 302.445 27.3011C302.79 26.6231 303.274 26.0966 303.899 25.7216C304.524 25.3466 305.263 25.1591 306.115 25.1591C306.968 25.1591 307.706 25.3466 308.331 25.7216C308.956 26.0966 309.439 26.6231 309.78 27.3011C310.125 27.9792 310.297 28.7689 310.297 29.6705C310.297 30.572 310.125 31.3598 309.78 32.0341C309.439 32.7083 308.956 33.233 308.331 33.608C307.706 33.983 306.968 34.1705 306.115 34.1705ZM306.127 32.5227C306.589 32.5227 306.975 32.3958 307.286 32.142C307.596 31.8845 307.827 31.5398 307.979 31.108C308.134 30.6761 308.212 30.1951 308.212 29.6648C308.212 29.1307 308.134 28.6477 307.979 28.2159C307.827 27.7803 307.596 27.4337 307.286 27.1761C306.975 26.9186 306.589 26.7898 306.127 26.7898C305.653 26.7898 305.259 26.9186 304.945 27.1761C304.634 27.4337 304.401 27.7803 304.246 28.2159C304.094 28.6477 304.019 29.1307 304.019 29.6648C304.019 30.1951 304.094 30.6761 304.246 31.108C304.401 31.5398 304.634 31.8845 304.945 32.142C305.259 32.3958 305.653 32.5227 306.127 32.5227ZM312.043 34V25.2727H314.037V26.7273H314.128C314.287 26.2235 314.56 25.8352 314.946 25.5625C315.336 25.286 315.782 25.1477 316.282 25.1477C316.395 25.1477 316.522 25.1534 316.662 25.1648C316.806 25.1723 316.925 25.1856 317.02 25.2045V27.0966C316.933 27.0663 316.795 27.0398 316.605 27.017C316.42 26.9905 316.24 26.9773 316.066 26.9773C315.691 26.9773 315.353 27.0587 315.054 27.2216C314.759 27.3807 314.526 27.6023 314.355 27.8864C314.185 28.1705 314.1 28.4981 314.1 28.8693V34H312.043ZM323.213 25.2727V26.8636H318.196V25.2727H323.213ZM319.435 23.1818H321.492V31.375C321.492 31.6515 321.533 31.8636 321.617 32.0114C321.704 32.1553 321.817 32.2538 321.958 32.3068C322.098 32.3598 322.253 32.3864 322.424 32.3864C322.552 32.3864 322.67 32.3769 322.776 32.358C322.886 32.339 322.969 32.322 323.026 32.3068L323.372 33.9148C323.263 33.9527 323.105 33.9943 322.901 34.0398C322.7 34.0852 322.454 34.1117 322.162 34.1193C321.647 34.1345 321.183 34.0568 320.77 33.8864C320.357 33.7121 320.03 33.4432 319.787 33.0795C319.549 32.7159 319.431 32.2614 319.435 31.7159V23.1818ZM329.354 25.2727V26.8636H324.195V25.2727H329.354ZM325.485 34V24.4489C325.485 23.8617 325.606 23.3731 325.848 22.983C326.094 22.5928 326.424 22.3011 326.837 22.108C327.25 21.9148 327.708 21.8182 328.212 21.8182C328.568 21.8182 328.884 21.8466 329.161 21.9034C329.437 21.9602 329.642 22.0114 329.774 22.0568L329.365 23.6477C329.278 23.6212 329.168 23.5947 329.036 23.5682C328.903 23.5379 328.755 23.5227 328.593 23.5227C328.21 23.5227 327.939 23.6155 327.78 23.8011C327.625 23.983 327.547 24.2443 327.547 24.5852V34H325.485ZM334.443 34.1705C333.591 34.1705 332.853 33.983 332.228 33.608C331.603 33.233 331.118 32.7083 330.773 32.0341C330.432 31.3598 330.262 30.572 330.262 29.6705C330.262 28.7689 330.432 27.9792 330.773 27.3011C331.118 26.6231 331.603 26.0966 332.228 25.7216C332.853 25.3466 333.591 25.1591 334.443 25.1591C335.296 25.1591 336.034 25.3466 336.659 25.7216C337.284 26.0966 337.767 26.6231 338.108 27.3011C338.453 27.9792 338.625 28.7689 338.625 29.6705C338.625 30.572 338.453 31.3598 338.108 32.0341C337.767 32.7083 337.284 33.233 336.659 33.608C336.034 33.983 335.296 34.1705 334.443 34.1705ZM334.455 32.5227C334.917 32.5227 335.303 32.3958 335.614 32.142C335.925 31.8845 336.156 31.5398 336.307 31.108C336.462 30.6761 336.54 30.1951 336.54 29.6648C336.54 29.1307 336.462 28.6477 336.307 28.2159C336.156 27.7803 335.925 27.4337 335.614 27.1761C335.303 26.9186 334.917 26.7898 334.455 26.7898C333.981 26.7898 333.587 26.9186 333.273 27.1761C332.962 27.4337 332.729 27.7803 332.574 28.2159C332.423 28.6477 332.347 29.1307 332.347 29.6648C332.347 30.1951 332.423 30.6761 332.574 31.108C332.729 31.5398 332.962 31.8845 333.273 32.142C333.587 32.3958 333.981 32.5227 334.455 32.5227ZM342.428 22.3636V34H340.371V22.3636H342.428ZM344.543 34V25.2727H346.6V34H344.543ZM345.577 24.0341C345.251 24.0341 344.971 23.9261 344.736 23.7102C344.501 23.4905 344.384 23.2273 344.384 22.9205C344.384 22.6098 344.501 22.3466 344.736 22.1307C344.971 21.911 345.251 21.8011 345.577 21.8011C345.907 21.8011 346.187 21.911 346.418 22.1307C346.653 22.3466 346.77 22.6098 346.77 22.9205C346.77 23.2273 346.653 23.4905 346.418 23.7102C346.187 23.9261 345.907 24.0341 345.577 24.0341ZM352.522 34.1705C351.669 34.1705 350.931 33.983 350.306 33.608C349.681 33.233 349.196 32.7083 348.851 32.0341C348.51 31.3598 348.34 30.572 348.34 29.6705C348.34 28.7689 348.51 27.9792 348.851 27.3011C349.196 26.6231 349.681 26.0966 350.306 25.7216C350.931 25.3466 351.669 25.1591 352.522 25.1591C353.374 25.1591 354.112 25.3466 354.737 25.7216C355.362 26.0966 355.845 26.6231 356.186 27.3011C356.531 27.9792 356.703 28.7689 356.703 29.6705C356.703 30.572 356.531 31.3598 356.186 32.0341C355.845 32.7083 355.362 33.233 354.737 33.608C354.112 33.983 353.374 34.1705 352.522 34.1705ZM352.533 32.5227C352.995 32.5227 353.381 32.3958 353.692 32.142C354.003 31.8845 354.234 31.5398 354.385 31.108C354.541 30.6761 354.618 30.1951 354.618 29.6648C354.618 29.1307 354.541 28.6477 354.385 28.2159C354.234 27.7803 354.003 27.4337 353.692 27.1761C353.381 26.9186 352.995 26.7898 352.533 26.7898C352.059 26.7898 351.666 26.9186 351.351 27.1761C351.041 27.4337 350.808 27.7803 350.652 28.2159C350.501 28.6477 350.425 29.1307 350.425 29.6648C350.425 30.1951 350.501 30.6761 350.652 31.108C350.808 31.5398 351.041 31.8845 351.351 32.142C351.666 32.3958 352.059 32.5227 352.533 32.5227Z" fill="#111827"/>
<defs>
<filter id="filter0_dd_478_24836" x="1" y="2" width="98.0195" height="54" filterUnits="userSpaceOnUse" color-interpolation-filters="sRGB">
<feFlood flood-opacity="0" result="BackgroundImageFix"/>
<feColorMatrix in="SourceAlpha" type="matrix" values="0 0 0 0 0 0 0 0 0 0 0 0 0 0 0 0 0 0 127 0" result="hardAlpha"/>
<feMorphology radius="1" operator="erode" in="SourceAlpha" result="effect1_dropShadow_478_24836"/>
<feOffset dy="1"/>
<feGaussianBlur stdDeviation="1"/>
<feComposite in2="hardAlpha" operator="out"/>
<feColorMatrix type="matrix" values="0 0 0 0 0 0 0 0 0 0 0 0 0 0 0 0 0 0 0.1 0"/>
<feBlend mode="normal" in2="BackgroundImageFix" result="effect1_dropShadow_478_24836"/>
<feColorMatrix in="SourceAlpha" type="matrix" values="0 0 0 0 0 0 0 0 0 0 0 0 0 0 0 0 0 0 127 0" result="hardAlpha"/>
<feOffset dy="1"/>
<feGaussianBlur stdDeviation="1.5"/>
<feComposite in2="hardAlpha" operator="out"/>
<feColorMatrix type="matrix" values="0 0 0 0 0 0 0 0 0 0 0 0 0 0 0 0 0 0 0.1 0"/>
<feBlend mode="normal" in2="effect1_dropShadow_478_24836" result="effect2_dropShadow_478_24836"/>
<feBlend mode="normal" in="SourceGraphic" in2="effect2_dropShadow_478_24836" result="shape"/>
</filter>
<clipPath id="clip0_478_24836">
<rect width="99.05" height="24" fill="white" transform="translate(116.02 16)"/>
</clipPath>
<clipPath id="clip1_478_24836">
<rect width="97.45" height="24" fill="white" transform="translate(259.059 16)"/>
</clipPath>
</defs>
</svg>
