<svg width="57" height="56" viewBox="0 0 57 56" fill="none" xmlns="http://www.w3.org/2000/svg">
<g clip-path="url(#clip0_478_24230)">
<path fill-rule="evenodd" clip-rule="evenodd" d="M28.3302 4.66199C34.5198 4.66199 40.4559 7.12081 44.8326 11.4975C49.2094 15.8743 51.6682 21.8104 51.6682 28C51.6682 34.1896 49.2094 40.1257 44.8326 44.5024C40.4559 48.8792 34.5198 51.338 28.3302 51.338C22.1406 51.338 16.2045 48.8792 11.8277 44.5024C7.45101 40.1257 4.99219 34.1896 4.99219 28C4.99219 21.8104 7.45101 15.8743 11.8277 11.4975C16.2045 7.12081 22.1406 4.66199 28.3302 4.66199ZM28.3302 9.33799C23.3807 9.33799 18.634 11.3042 15.1342 14.804C11.6344 18.3038 9.66819 23.0505 9.66819 28C9.66819 32.9495 11.6344 37.6962 15.1342 41.196C18.634 44.6958 23.3807 46.662 28.3302 46.662C33.2797 46.662 38.0264 44.6958 41.5262 41.196C45.026 37.6962 46.9922 32.9495 46.9922 28C46.9922 23.0505 45.026 18.3038 41.5262 14.804C38.0264 11.3042 33.2797 9.33799 28.3302 9.33799ZM28.3302 14C29.5202 14 30.5142 14.896 30.6542 16.058V27.034L34.6442 31.024C35.0368 31.4494 35.2575 32.0054 35.2638 32.5842C35.27 33.1631 35.0613 33.7237 34.678 34.1575C34.2947 34.5913 33.7641 34.8675 33.1889 34.9326C32.6137 34.9977 32.0348 34.8471 31.5642 34.51L31.3402 34.314L26.6782 29.652C26.3201 29.2864 26.0893 28.8151 26.0202 28.308L25.9922 28V16.338C25.9922 15.05 27.0422 14 28.3302 14Z" fill="#E5E7EB"/>
</g>
<defs>
<clipPath id="clip0_478_24230">
<rect width="56" height="56" fill="white" transform="translate(0.332031)"/>
</clipPath>
</defs>
</svg>
