<svg width="57" height="56" viewBox="0 0 57 56" fill="none" xmlns="http://www.w3.org/2000/svg">
<g clip-path="url(#clip0_478_24221)">
<path fill-rule="evenodd" clip-rule="evenodd" d="M17.3127 32.6621H19.6367C21.4501 32.6588 23.2391 33.08 24.8606 33.8919C26.4821 34.7039 27.891 35.8841 28.9747 37.3381C29.9976 35.9655 31.3111 34.8358 32.8213 34.0299C34.3315 33.224 36.0011 32.7617 37.7107 32.6761H40.6367C42.1694 32.6742 43.6874 32.9745 45.1039 33.5597C46.5204 34.145 47.8077 35.0037 48.8921 36.0868C49.9765 37.1699 50.8367 38.4562 51.4237 39.872C52.0106 41.2878 52.3127 42.8054 52.3127 44.3381C52.3193 44.9383 52.0949 45.5181 51.6857 45.9573C51.2766 46.3966 50.7142 46.6617 50.115 46.6977C49.5158 46.7337 48.9258 46.5378 48.467 46.1507C48.0083 45.7635 47.716 45.2148 47.6507 44.6181L47.6227 43.9181C47.5227 42.2056 46.7974 40.5894 45.5844 39.3764C44.3714 38.1634 42.7552 37.4381 41.0427 37.3381H38.3127C36.4562 37.3381 34.6757 38.0756 33.363 39.3883C32.0502 40.7011 31.3127 42.4815 31.3127 44.3381C31.3127 45.5281 30.4027 46.5221 29.2407 46.6481L28.9747 46.6621C27.7707 46.6621 26.7907 45.7661 26.6507 44.6041L26.6227 43.9181C26.5227 42.2056 25.7974 40.5894 24.5844 39.3764C23.3714 38.1634 21.7552 37.4381 20.0427 37.3381H17.3127C15.4562 37.3381 13.6757 38.0756 12.363 39.3883C11.0502 40.7011 10.3127 42.4815 10.3127 44.3381C10.3127 44.9581 10.0664 45.5528 9.62794 45.9913C9.18948 46.4297 8.5948 46.6761 7.97472 46.6761C7.35465 46.6761 6.75997 46.4297 6.32151 45.9913C5.88305 45.5528 5.63672 44.9581 5.63672 44.3381C5.63391 41.3305 6.79316 38.4381 8.87237 36.265C10.9516 34.0919 13.79 32.806 16.7947 32.6761L17.3127 32.6621ZM17.3127 9.33806C18.5685 9.2894 19.8212 9.49473 20.9957 9.94174C22.1702 10.3887 23.2424 11.0682 24.1481 11.9395C25.0538 12.8108 25.7743 13.8559 26.2664 15.0122C26.7586 16.1686 27.0122 17.4123 27.0122 18.6691C27.0122 19.9258 26.7586 21.1696 26.2664 22.3259C25.7743 23.4822 25.0538 24.5274 24.1481 25.3986C23.2424 26.2699 22.1702 26.9494 20.9957 27.3964C19.8212 27.8434 18.5685 28.0487 17.3127 28.0001C14.9005 27.9066 12.6183 26.8826 10.9447 25.1429C9.27108 23.4033 8.33623 21.0831 8.33623 18.6691C8.33623 16.2551 9.27108 13.9348 10.9447 12.1952C12.6183 10.4555 14.9005 9.43151 17.3127 9.33806ZM40.6367 9.33806C41.8925 9.2894 43.1452 9.49473 44.3197 9.94174C45.4942 10.3887 46.5664 11.0682 47.4721 11.9395C48.3778 12.8108 49.0983 13.8559 49.5904 15.0122C50.0826 16.1686 50.3362 17.4123 50.3362 18.6691C50.3362 19.9258 50.0826 21.1696 49.5904 22.3259C49.0983 23.4822 48.3778 24.5274 47.4721 25.3986C46.5664 26.2699 45.4942 26.9494 44.3197 27.3964C43.1452 27.8434 41.8925 28.0487 40.6367 28.0001C38.2245 27.9066 35.9423 26.8826 34.2687 25.1429C32.5951 23.4033 31.6602 21.0831 31.6602 18.6691C31.6602 16.2551 32.5951 13.9348 34.2687 12.1952C35.9423 10.4555 38.2245 9.43151 40.6367 9.33806ZM17.3127 14.0001C16.0744 14.0001 14.8869 14.492 14.0112 15.3676C13.1356 16.2432 12.6437 17.4308 12.6437 18.6691C12.6437 19.9074 13.1356 21.0949 14.0112 21.9705C14.8869 22.8461 16.0744 23.3381 17.3127 23.3381C18.551 23.3381 19.7386 22.8461 20.6142 21.9705C21.4898 21.0949 21.9817 19.9074 21.9817 18.6691C21.9817 17.4308 21.4898 16.2432 20.6142 15.3676C19.7386 14.492 18.551 14.0001 17.3127 14.0001ZM40.6367 14.0001C39.3984 14.0001 38.2108 14.492 37.3352 15.3676C36.4596 16.2432 35.9677 17.4308 35.9677 18.6691C35.9677 19.9074 36.4596 21.0949 37.3352 21.9705C38.2108 22.8461 39.3984 23.3381 40.6367 23.3381C41.875 23.3381 43.0626 22.8461 43.9382 21.9705C44.8138 21.0949 45.3057 19.9074 45.3057 18.6691C45.3057 17.4308 44.8138 16.2432 43.9382 15.3676C43.0626 14.492 41.875 14.0001 40.6367 14.0001Z" fill="#E5E7EB"/>
</g>
<defs>
<clipPath id="clip0_478_24221">
<rect width="56" height="56" fill="white" transform="translate(0.976562)"/>
</clipPath>
</defs>
</svg>
