<svg width="354" height="342" viewBox="0 0 354 342" fill="none" xmlns="http://www.w3.org/2000/svg">
<path d="M333.195 169.149C329.981 172.682 329.699 178.114 325.777 179.737C323.134 186.551 318.186 191.895 315.572 198.524C314.679 198.571 314.028 198.364 312.871 198.869C313.444 204.632 303.734 206.286 305.881 211.823C300.745 216.826 295.548 222.422 291.423 228.499C276.17 244.253 260.519 259.545 242.941 273.994C239.66 273.351 238.326 278.094 235.923 280.083C231.617 283.338 226.278 285.73 222.776 289.916C220.442 291.12 220.093 290.065 218.44 291.08C219.091 291.287 218.801 291.935 218.745 292.525C212.881 295.827 210.627 298.518 204.554 301.688L203.075 300.744C203.786 300.181 205.194 299.417 205.289 298.437C202.53 297.081 200.775 301.561 198.052 302.094L198.613 303.279L191.816 307.017L196.835 303.381C194.291 301.959 190.824 305.758 187.67 306.222C186.83 307.984 184.159 308.123 183.515 310.206C179.421 311.126 175.306 312.412 171.67 315.678C171.668 316.013 171.737 316.162 171.812 316.275C168.859 318.37 166.929 323.248 162.614 322.12L161.381 323.409C141.81 330.571 121.647 334.467 103.925 338.469L104.671 337.686C99.608 339.436 96.467 337.4 91.1153 339.992C89.0196 338.454 82.8305 342.79 82.0548 339.182C78.8969 342.125 75.5911 339.389 71.6062 341.611C68.5383 341.099 64.7798 340.78 62.1997 339.93C59.2192 340.924 54.8329 340.198 51.5966 339.154C50.096 338.603 53.1684 336.636 50.7098 336.727L48.891 339.502L47.4765 337.964L46.9706 338.677C41.8155 339.112 36.4397 337.109 33.9901 334.719C37.1597 331.766 39.7659 337.176 43.4899 335.405C43.6693 335.938 43.3297 337.179 44.9045 336.943L46.1439 335.657L48.7205 336.676C49.7963 332.19 55.1471 336.864 52.1994 332.689C47.7214 328.16 38.3299 331.076 36.4672 324.889C33.8562 324.257 31.6815 323.697 30.7703 321.453C29.9758 322.819 25.5512 324.949 24.9325 322.061L25.5203 320.579C24.4295 317.991 18.1198 321.224 18.487 317.305C18.8519 318.158 19.8212 317.328 20.477 317.345L21.225 316.566C17.3213 313.038 10.8268 318.417 9.37548 312.497L9.85832 311.982L8.81457 311.312L8.31802 311.832L6.87541 311.315C7.11423 311.305 7.39032 311.23 7.72725 311.032L7.64431 307.046C4.7539 309.54 2.93542 307.538 2.4876 305.177C0.951878 305.024 0.825145 308.684 0.174598 306.177C0.246074 305.396 2.1532 303.928 3.16611 302.706C11.4027 297.823 10.4605 308.006 16.0633 307.455C16.5462 309.419 18.9837 309.531 20.9431 307.489C20.7631 309.445 22.3496 306.72 22.4555 308.03C21.9106 309.132 22.9105 310.383 23.2517 311.446C24.5418 314.348 28.3675 309.112 28.9651 312.203C27.5636 317.735 24.7959 311.606 21.8044 315.077C24.1448 318.652 31.6129 317.218 31.4193 321.656C37.8271 319.752 34.1795 325.506 40.3774 323.465C45.4129 326.681 54.1133 326.446 58.9997 328.96L60.0435 329.631C63.398 327.009 66.9806 329.103 70.0849 329.233C87.9017 329.028 106.813 328.905 125.702 324.421C126.056 322.974 127.647 322.547 128.97 322.58C130.558 324.816 135.085 321.509 137.649 320.25C139.981 319.042 137.866 317.901 140.664 316.569C144.102 315.455 141.89 320.066 145.918 317.452C147.182 315.768 146.946 313.548 144.709 313.765C146.946 313.548 148.744 313.442 147.867 315.588C151.995 314.281 154.575 310.543 158.398 310.09L158.491 309.106C161.344 307.006 162.916 311.742 164.638 307.454C166.887 309.525 168.329 303.608 170.195 302.713C169.997 304.865 172.757 303.938 174.576 303.451C178.45 302.409 181.578 297.552 185.694 298.555C186.989 296.679 187.613 294.788 190.346 294.05C193.245 294.041 195.489 293.815 197.131 290.512C199.721 291.347 200.118 287.043 203.191 287.542C202.749 285.183 207.436 282.59 209.167 280.786C210.97 280.49 213.736 279.372 215.257 277.431C214.929 276.184 213.424 275.635 211.796 276.456L211.067 277.027C210.647 276.764 209.793 276.422 210.095 275.575C212.293 273.447 216.114 273.001 216.598 270.203C214.343 268.129 212.196 274.445 209.488 272.488C211.865 270.878 209.719 269.944 209.83 268.764C207.785 271.614 205.952 269.807 203.544 271.798C193.607 275.789 185.166 285.326 174.973 287.305C173.612 289.96 171.414 289.6 169.406 289.746C168.076 289.721 166.864 290.817 166.534 291.854L166.626 290.881L161.643 291.83C161.911 291.37 161.483 291.116 161.282 290.986C159.508 290.871 160.052 292.257 159.562 292.78C157.854 294.385 153.976 295.428 154.188 297.847C152.039 297.082 157.012 293.833 154.175 293.265C152.067 294.404 149.308 295.336 147.889 296.289C148.286 296.761 148.973 296.575 149.652 296.392L149.618 296.78C148.934 296.964 146.18 297.894 146.325 296.337C136.813 298.111 128.828 302.747 120.575 302.866L119.963 304.747L116.863 304.626L118.52 303.421C114.393 302.428 109.602 306.204 106.199 304.443C97.5819 306.186 88.953 305.64 81.529 304.195C80.2039 304.168 80.6381 301.948 79.0688 301.982L78.4894 303.471C70.6973 301.191 54.4556 305.925 58.018 293.893L60.8988 291.781C57.8845 290.674 56.5381 288.373 54.4792 286.631L53.7542 287.21C51.0558 287.55 52.121 283.24 48.1666 285.067C49.2418 283.069 47.1663 281.528 44.6362 282.399C39.8908 278.319 33.586 276.774 31.246 270.898C27.1668 269.324 24.6964 264.838 20.8993 262.608C16.3011 254.676 10.184 248.679 9.84016 238.08C11.447 232.686 5.83527 228.464 8.50608 223.737C7.97344 219.863 9.05648 215.368 6.92797 211.934C6.16629 210.608 9.25791 208.433 6.60982 208.195C6.35086 208.651 5.8663 208.972 6.06294 209.292L4.92462 209.601C8.49556 207.118 8.17277 200.904 10.2551 197.671C6.76272 189.822 17.6562 180.407 16.4128 172.142C18.8393 167.666 21.434 161.245 22.0965 156.487C18.225 159.822 19.9769 167.368 13.8827 165.948C12.3775 165.399 13.6799 163.325 13.0774 162.536C8.12316 168.066 5.89011 175.358 3.79611 181.079C2.33734 179.943 2.20151 179.019 2.62652 176.802L3.31447 176.616C5.36228 171.293 9.79891 164.376 11.2011 158.832L14.1575 155.759L15.8271 156.832C20.7742 149.2 26.2964 142.369 27.85 135.271C28.8589 131.563 20.1956 131.404 26.0753 125.624C26.7633 125.437 24.3095 127.815 26.5456 127.797C28.2724 125.995 28.6928 123.781 27.9496 122.258C30.729 123.423 29.1546 118.882 32.0775 118.474C33.5109 115.038 35.2217 110.949 34.1805 107.795C32.29 109.062 32.9848 111.167 30.7221 111.589C30.2769 109.221 34.4896 106.95 37.1311 104.708C38.8274 103.303 38.881 102.708 37.8493 101.837C41.6853 101.201 41.1248 97.7161 42.214 95.5231C50.6888 88.0877 59.0879 79.1357 66.5865 70.2396C66.1939 69.5871 63.5274 72.023 64.3953 69.8815C66.3805 70.1118 68.6106 67.6035 70.4872 66.5309C69.0906 64.8075 66.3739 67.6318 64.5243 68.5147C61.5256 71.9941 54.323 72.9753 52.9475 78.1135C51.1882 80.3071 44.6758 83.3949 45.7374 86.3573C40.1995 86.1245 37.0719 93.4479 33.0759 95.6698C32.1452 91.3453 41.3304 90.6009 40.4816 85.4695C38.5747 86.7493 35.3794 85.3202 34.8182 88.912C33.3687 90.2499 30.9864 91.8463 29.2573 91.3553L32.9858 87.1051L33.807 87.8495L38.1266 82.0996L39.0962 83.5577C40.9404 82.8769 42.3698 79.4319 44.3365 79.8591L44.8239 79.343C42.3786 81.7274 43.4269 82.3962 42.7621 84.8611C44.4493 83.4594 52.9653 77.9278 47.7855 76.2573C52.0236 76.0799 51.9014 72.6725 55.8077 71.2392C55.3157 71.7573 54.8494 72.0701 55.0415 72.3927L56.0872 73.0681C57.412 70.8066 61.5675 66.8217 63.6011 66.47L64.834 65.1817L65.8816 65.8616L65.1527 66.4325L66.1984 67.1078C68.3494 63.2895 73.3296 62.3197 75.9955 59.8948C76.1551 60.6092 76.0943 61.2127 76.9649 61.542C79.5967 61.7926 78.4707 59.6025 79.2367 58.638C90.433 50.6647 102.024 43.1593 112.569 34.9897C122.756 30.724 129.301 22.4678 138.778 21.0645C141.564 17.2658 147.675 16.1847 152.313 14.1851C161.711 11.0827 169.525 6.12129 179.271 6.5619C184.008 1.08126 189.306 3.86172 195.149 0.952423C195.292 1.67915 194.985 2.71737 193.78 3.61597C194.842 4.27896 197.273 4.38878 198.076 2.84162L198.166 1.86399C199.911 2.3537 199.002 4.87978 201.839 3.16995C202.538 0.306889 203.757 3.99012 205.281 1.86495C207.92 4.58444 213.014 2.4539 217.35 3.57877C220.055 3.24218 220.644 1.738 221.56 3.79117L222.616 4.45154L224.374 2.26903C226.765 2.96804 224.937 8.22423 230.297 7.93948L236.272 5.94526C236.655 4.31331 231.274 4.6124 229.104 4.05094C228.799 2.60529 233.365 6.15213 233.89 2.76502C237.629 3.29215 242.634 2.13922 245.138 3.95014C249.714 4.81564 254.64 6.92931 260.217 6.77299C265.79 11.3843 275.952 5.02452 281.963 9.71278C290.145 10.1747 295.657 15.5785 303.609 16.1225C305.548 16.7504 306.236 19.0414 308.778 17.9814C308.541 20.5114 311.993 19.2182 313.48 19.964L312.996 20.4625C318.52 23.1896 323.109 26.5376 326.283 30.6474C331.066 31.8453 334.614 39.1038 339.614 42.7295C342.326 49.4495 347.328 55.3682 349.154 62.1271L350.068 61.8763C349.061 65.5886 352.929 67.0217 350.336 70.9697C353.293 72.6627 350.857 77.3316 352.888 79.4637C351.916 85.0661 352.601 89.663 352.352 94.692C356.149 96.9215 350.614 101.459 353.707 104.065C352.137 106.588 352.883 108.104 353.141 110.136L352.682 110.251L349.076 125.352C350.105 128.517 348.237 131.885 347.648 135.867C346.106 142.776 341.603 148.173 341.006 154.64C338.742 155.058 340.596 156.651 339.639 157.308C335.115 160.609 335.535 165.66 333.192 169.155L333.195 169.149ZM39.6398 130.568C35.2831 136.711 32.9382 142.68 28.8309 148.749C28.2677 152.336 24.0843 156.711 23.9177 160.96C21.279 163.006 21.8168 164.39 22.3686 165.578C21.9604 162.817 26.358 160.877 25.7299 158.182C29.8554 149.628 35.9295 139.398 39.6398 130.568ZM64.8834 294.335C64.925 291.462 61.0402 294.98 60.8598 292.17L60.7672 293.154C62.055 293.764 63.1982 295.741 64.8834 294.335Z" fill="#F7F7F7"/>
</svg>
