<svg width="1284" height="88" viewBox="0 0 1284 88" fill="none" xmlns="http://www.w3.org/2000/svg">
<path d="M16.0114 1C16.0114 1 6.8538 13.3561 1 13.4466C1 13.4466 11.0696 21.0874 10.8835 30.8597C10.8835 30.8597 15.6485 17.9306 23.317 17.3877C23.3356 17.3877 17.2306 13.9694 16.0114 1ZM38.1516 51.9928C38.1516 51.9928 38.0958 41.3357 41.26 39.6266C41.26 39.6266 35.4062 40.5113 32.9679 35.6051C32.9679 35.6051 32.4281 42.4919 28.7613 45.0758C32.5956 45.9907 35.9646 48.4739 38.1516 51.9928ZM1273.38 70.2504C1273.38 70.2504 1273.5 80.2238 1270.68 82.7975C1270.68 82.7975 1278.41 82.1742 1281.93 87C1281.93 87 1279.47 78.6554 1283 75.0762C1283 75.0762 1278.78 76.0313 1273.38 70.2504Z" stroke="black" stroke-width="2" stroke-linecap="round" stroke-linejoin="round"/>
</svg>
