<svg width="349" height="343" viewBox="0 0 349 343" fill="none" xmlns="http://www.w3.org/2000/svg">
<path d="M191.986 328.646C188.162 325.784 182.728 326.02 180.738 322.271C173.703 320.29 167.912 315.874 161.065 313.904C160.932 313.02 161.077 312.352 160.463 311.248C154.782 312.368 152.209 302.86 146.902 305.525C141.432 300.889 135.366 296.25 128.923 292.722C111.787 279.041 95.0729 264.92 79.0138 248.798C79.3405 245.472 74.4923 244.596 72.2834 242.393C68.6321 238.418 65.7421 233.33 61.2415 230.243C59.821 228.034 60.8376 227.587 59.6701 226.039C59.5258 226.706 58.8532 226.479 58.2601 226.48C54.4144 220.957 51.5203 218.97 47.7865 213.227L48.5845 211.665C49.2127 212.318 50.1078 213.648 51.0919 213.648C52.1794 210.773 47.5526 209.453 46.762 206.793L45.6359 207.464L41.2667 201.055L45.3647 205.704C46.5376 203.037 42.4257 199.947 41.6636 196.852C39.8285 196.184 39.4361 193.538 37.3006 193.096C35.9948 189.108 34.3229 185.134 30.7251 181.826C30.3907 181.856 30.2493 181.939 30.1437 182.025C27.7773 179.285 22.7368 177.829 23.4483 173.426L22.0483 172.321C13.053 153.522 7.25242 133.823 1.57906 116.562L2.42996 117.23C0.205326 112.358 1.9318 109.037 -1.15792 103.957C0.173079 101.724 -4.73384 95.9763 -1.21599 94.8601C-4.44654 91.9972 -2.03764 88.4456 -4.63001 84.6907C-4.4128 81.5879 -4.45336 77.8161 -3.85295 75.1667C-5.12676 72.2946 -4.82289 67.8591 -4.09162 64.538C-3.68626 62.9917 -1.43506 65.8626 -1.75996 63.4238L-4.69565 61.8779L-3.29981 60.3232L-4.05778 59.8875C-4.98194 54.7973 -3.5013 49.2552 -1.35539 46.5889C1.88667 49.4625 -3.25082 52.5726 -1.13288 56.1108C-1.64651 56.3402 -2.9141 56.1205 -2.52868 57.6655L-1.13063 58.7767L-1.89941 61.4387C2.66928 62.082 -1.47314 67.854 2.40108 64.5217C6.48256 59.6324 2.68449 50.5616 8.66613 48.1175C9.04623 45.4581 9.39586 43.24 11.5429 42.119C10.108 41.4583 7.56593 37.2569 10.3812 36.3658L11.9125 36.8096C14.385 35.477 10.565 29.5043 14.5011 29.4962C13.6866 29.9408 14.6054 30.8266 14.6516 31.4808L15.4981 32.1513C18.6377 27.929 12.6637 21.9769 18.4191 19.9677L18.977 20.3994L19.5452 19.2964L18.9802 18.8517L19.3567 17.3664C19.3898 17.6032 19.4908 17.8709 19.7201 18.1874L23.6795 17.7249C20.9214 15.0854 22.7407 13.0843 25.0487 12.4134C25.0543 10.8701 21.3992 11.0929 23.8326 10.2063C24.6166 10.203 26.2605 11.9614 27.5728 12.8533C33.219 20.5869 22.9926 20.6197 24.0749 26.1445C22.1667 26.8124 22.2871 29.2495 24.5063 31.0053C22.5428 31.0126 25.4058 32.3321 24.1125 32.5624C22.9635 32.125 21.8137 33.2396 20.788 33.6806C18.0217 35.2415 23.599 38.5506 20.5793 39.4401C14.9383 38.5725 20.776 35.233 17.0358 32.586C13.6993 35.2567 15.8396 42.554 11.4029 42.7844C13.9093 48.9814 7.83392 45.899 10.4566 51.8741C7.73489 57.1934 8.79804 65.8318 6.76151 70.9356L6.19328 72.0385C9.12335 75.1277 7.37987 78.8937 7.54695 81.9962C9.44943 99.7123 11.3744 118.526 17.6396 136.901C19.1136 137.116 19.69 138.659 19.7828 139.978C17.7093 141.773 21.4329 145.964 22.9305 148.396C24.3554 150.603 25.2894 148.388 26.8819 151.047C28.3185 154.363 23.5178 152.6 26.5036 156.361C28.301 157.458 30.4883 157.012 30.0586 154.806C30.4883 157.012 30.7646 158.792 28.5453 158.123C30.2397 162.108 34.2062 164.32 35.0217 168.082L36.0102 168.08C38.3729 170.721 33.8084 172.736 38.2414 174.043C36.3936 176.478 42.4213 177.35 43.4904 179.122C41.3292 179.13 42.5152 181.789 43.173 183.554C44.5792 187.31 49.7124 189.961 49.1065 194.154C51.0976 195.264 53.0398 195.705 54.0344 198.356C54.3201 201.24 54.7589 203.453 58.2039 204.772C57.6194 207.429 61.9417 207.414 61.738 210.521C64.0439 209.857 67.0716 214.275 69.0323 215.826C69.4991 217.593 70.8757 220.239 72.9527 221.568C74.1626 221.123 74.5656 219.573 73.5938 218.03L72.9561 217.359C73.1775 216.916 73.4361 216.033 74.3083 216.253C76.6359 218.239 77.4447 221.999 80.276 222.214C82.1258 219.772 75.634 218.236 77.3232 215.355C79.1526 217.567 79.8774 215.342 81.0636 215.34C78.0311 213.575 79.655 211.579 77.4437 209.372C72.5232 199.86 62.2253 192.367 59.2833 182.41C56.5105 181.307 56.66 179.085 56.3229 177.1C56.221 175.774 55.0143 174.672 53.9507 174.443L54.9281 174.442L53.5077 169.571C53.9913 169.794 54.2036 169.344 54.3135 169.131C54.2595 167.355 52.9313 168.029 52.3643 167.591C50.6037 166.043 49.1952 162.282 46.8078 162.724C47.3642 160.512 51.0731 165.153 51.3675 162.274C50.0327 160.284 48.8423 157.627 47.7586 156.305C47.326 156.745 47.5771 157.412 47.8234 158.07L47.4347 158.073C47.186 157.41 45.998 154.757 47.5618 154.753C44.8883 145.454 39.5125 137.946 38.6075 129.742L36.6769 129.313L36.5011 126.215L37.8591 127.75C38.4536 123.547 34.2378 119.138 35.6669 115.583C33.1104 107.171 32.8313 98.5291 33.5616 91.0012C33.462 89.6796 35.7138 89.9 35.53 88.3412L33.9924 87.9065C35.5194 79.9324 29.2584 64.216 41.5755 66.6151L43.9525 69.2814C44.7671 66.1753 46.9292 64.6157 48.4674 62.4001L47.8209 61.7337C47.226 59.0799 51.6172 59.7294 49.4222 55.9671C51.5138 56.847 52.8499 54.634 51.741 52.1985C55.35 47.0857 56.2874 40.6623 61.9128 37.7728C63.0913 33.5621 67.3217 30.6753 69.1791 26.6829C76.6364 21.3494 82.0236 14.6884 92.5414 13.3357C98.0638 14.421 101.732 8.43227 106.691 10.6403C110.497 9.74078 115.075 10.3903 118.29 7.94411C119.537 7.0595 121.997 9.92967 121.982 7.27093C121.503 7.05663 121.138 6.60485 120.838 6.83117L120.422 5.72747C123.233 9.04545 129.389 8.13166 132.806 9.89625C140.286 5.67151 150.696 15.6178 158.806 13.5921C163.493 15.5808 170.132 17.5515 174.931 17.7574C171.242 14.2214 163.897 16.6848 164.73 10.483C165.133 8.93233 167.321 10.0311 168.049 9.35607C162.072 4.95166 154.601 3.42393 148.706 1.88488C149.698 0.324489 150.605 0.101172 152.852 0.312928L153.103 0.979977C158.597 2.51096 165.906 6.26793 171.558 7.13517L174.898 9.78519L173.99 11.5494C182.059 15.7464 189.385 20.5922 196.599 21.462C200.386 22.1129 199.718 13.4738 206.033 18.7757C206.284 19.4428 203.684 17.2268 203.914 19.451C205.872 20.9982 208.117 21.2056 209.562 20.3207C208.668 23.1984 213.037 21.1982 213.722 24.069C217.279 25.1682 221.512 26.4815 224.553 25.1443C223.112 23.3831 221.083 24.2754 220.446 22.0633C222.761 21.3944 225.424 25.3714 227.907 27.7872C229.468 29.3417 230.065 29.3383 230.833 28.2283C231.833 31.9862 235.248 31.096 237.535 31.9712C245.744 39.6985 255.456 47.2059 265.027 53.8223C265.639 53.3693 262.96 50.9471 265.175 51.6069C265.135 53.605 267.844 55.5859 269.091 57.3517C270.673 55.797 267.603 53.3621 266.547 51.605C262.798 48.9517 261.135 41.8754 255.889 40.996C253.537 39.4539 249.843 33.2655 246.995 34.6048C246.699 29.0699 239.111 26.6547 236.518 22.8887C240.734 21.5499 242.35 30.6223 247.378 29.2882C245.922 27.512 247.04 24.1951 243.411 23.9789C241.941 22.6634 240.125 20.4442 240.449 18.6762L245.035 21.9825L244.372 22.8709L250.508 26.6227L249.149 27.7269C250.002 29.4977 253.568 30.5922 253.33 32.5907L253.89 33.0266C251.284 30.8198 250.718 31.9271 248.201 31.5004C249.757 33.0462 256.075 40.9961 257.244 35.6806C257.825 39.8825 261.205 39.436 263.004 43.1878C262.442 42.7475 262.086 42.3131 261.783 42.5351L261.21 43.6404C263.588 44.7436 267.951 48.5003 268.495 50.4911L269.895 51.5955L269.318 52.7032L268.68 52.0321L268.107 53.1374C272.113 54.9145 273.554 59.7796 276.222 62.2022C275.526 62.4291 274.919 62.4262 274.674 63.3242C274.676 65.9679 276.749 64.6383 277.782 65.3088C286.786 75.6939 295.362 86.5167 304.5 96.2346C309.718 105.969 318.56 111.697 320.86 120.997C324.908 123.408 326.566 129.388 328.999 133.814C332.983 142.874 338.667 150.179 339.157 159.923C345.065 164.116 342.802 169.655 346.255 175.193C345.545 175.405 344.483 175.198 343.473 174.085C342.915 175.205 343.037 177.635 344.654 178.287L345.635 178.284C345.314 180.067 342.713 179.403 344.686 182.064C347.602 182.488 344.052 184.052 346.313 185.366C343.857 188.252 346.464 193.121 345.757 197.544C346.35 200.204 347.904 200.647 345.947 201.755L345.391 202.869L347.731 204.411C347.263 206.858 341.856 205.54 342.651 210.848L345.206 216.605C346.867 216.831 346.056 211.503 346.408 209.29C347.818 208.848 344.723 213.732 348.144 213.931C347.976 217.703 349.601 222.575 348.037 225.241C347.612 229.879 345.977 234.984 346.665 240.52C342.606 246.507 349.905 256.017 345.811 262.447C346.132 270.636 341.278 276.638 341.494 284.606C341.054 286.596 338.839 287.499 340.137 289.928C337.596 289.934 339.212 293.247 338.611 294.798L338.069 294.364C335.881 300.122 332.986 305.01 329.197 308.561C328.461 313.437 321.574 317.66 318.441 322.983C312.01 326.324 306.595 331.867 300.041 334.329L300.378 335.216C296.587 334.567 295.529 338.553 291.352 336.349C289.948 339.454 285.069 337.474 283.14 339.699C277.47 339.266 272.96 340.386 267.93 340.617C266.072 344.61 261.028 339.532 258.729 342.86C256.068 341.537 254.63 342.424 252.631 342.875L252.473 342.43L237.097 340.279C234.044 341.605 230.514 340.067 226.494 339.86C219.469 338.984 213.667 335.016 207.173 335.039C206.541 332.824 205.132 334.822 204.387 333.932C200.67 329.744 195.682 330.643 191.979 328.644L191.986 328.646ZM202.405 32.7497C195.874 28.9986 189.709 27.2334 183.276 23.7234C179.651 23.5048 174.897 19.7575 170.652 19.9967C168.364 17.5651 167.038 18.2324 165.907 18.895C168.617 18.2255 170.968 22.418 173.59 21.5359C182.499 24.8271 193.261 29.8982 202.405 32.7497ZM41.7898 73.4914C44.6536 73.2589 40.781 69.7272 43.5614 69.2797L42.5729 69.2813C42.0889 70.6214 40.2293 71.948 41.7898 73.4914Z" fill="#F7F7F7"/>
</svg>
