<svg width="841" height="582" viewBox="0 0 841 582" fill="none" xmlns="http://www.w3.org/2000/svg">
<path d="M724.849 431.63C716.109 435.63 711.289 445.47 702.749 445.37C692.469 455.9 679.089 461.88 669.009 472.09C667.319 471.47 666.279 470.57 663.739 470.59C660.239 481.72 640.969 477.09 640.559 489.05C627.099 494.25 613.059 500.5 600.619 508.49C559.939 525.59 518.889 541.52 474.939 554.36C469.379 550.57 463.159 558.3 457.139 560.08C446.599 562.7 434.829 562.9 425.039 567.88C419.769 568.26 419.959 566.03 416.099 566.6C417.139 567.5 416.089 568.47 415.519 569.52C402.059 570.99 395.759 574.19 382.019 575.25L380.029 572.33C381.789 571.85 384.999 571.55 385.949 569.81C381.919 565.11 375.129 572.02 369.669 570.85L369.769 573.49L354.239 575.03L366.399 572.27C362.819 567.62 353.399 571.91 347.199 570.27C344.249 572.87 339.199 571.01 336.359 574.36C328.059 572.82 319.429 571.94 310.119 575.11C309.849 575.73 309.859 576.06 309.909 576.33C302.789 577.87 295.359 585.38 288.269 579.87L284.969 581.28C243.099 579.04 202.719 570.28 166.769 563.65L168.769 562.79C158.019 562.02 153.819 555.76 141.869 556.32C139.209 551.81 124.329 554.94 125.749 547.64C117.579 550.59 113.629 542.9 104.499 543.86C99.2287 540.48 92.5287 536.91 88.4287 533.29C82.1287 532.77 74.5887 527.95 69.4287 523.45C67.0887 521.24 74.3287 520.03 69.7087 518.25L64.1487 521.95L62.7487 517.98L61.2487 518.9C51.3687 515.62 43.0087 507.65 40.3687 501.28C48.5687 498.32 49.1087 510.41 57.3987 510.08C57.3087 511.21 55.6987 513.24 58.7987 514.05L62.1087 512.65L66.0687 516.58C71.6087 509.12 77.8087 522.02 75.6587 511.95C70.9587 500.01 51.2787 497.97 52.7287 485.03C48.3987 481.79 44.8187 479.03 44.9087 474.15C42.3587 476.05 32.4887 476.49 33.6287 470.65L35.8887 468.37C35.9187 462.71 21.6887 463.7 25.4687 456.73C25.4687 458.6 27.9187 457.83 29.1187 458.38L31.1187 457.53C26.6887 447.9 10.4187 452.72 12.4187 440.6L13.7187 440.03L12.3187 437.96L10.9887 438.53L8.72873 436.43C9.17873 436.6 9.74873 436.68 10.5287 436.58L13.5287 429.13C6.20873 431.46 4.42873 426.31 5.46873 421.58C2.74873 420.08 -0.381269 426.76 0.398731 421.6C1.14873 420.21 5.83873 419 8.67873 417.54C27.7787 415.02 17.9787 433.14 28.7787 436.56C28.1187 440.58 32.5387 442.72 37.7787 440.49C35.8987 443.97 40.9887 440.18 40.1487 442.69C38.2687 444.3 39.1287 447.41 38.9187 449.65C39.0087 456.05 50.2287 449.38 48.8887 455.58C41.9187 464.72 41.6487 451.17 33.3687 455.23C34.8687 463.71 49.8187 466.97 45.9487 475.04C59.3087 476.59 48.0087 484.36 61.0887 485.49C67.8587 495.44 84.1387 501.9 91.1887 510.43L92.5887 512.5C100.869 510.3 105.839 517.02 111.479 519.72C144.599 533.46 179.679 548.22 218.169 554.88C219.969 552.48 223.249 552.95 225.669 554.06C226.839 559.46 237.829 556.92 243.569 556.62C248.839 556.23 245.829 552.44 252.059 552.19C259.299 552.85 251.559 559.64 261.079 557.99C264.749 555.87 266.069 551.57 261.759 550.2C266.069 551.57 269.479 552.8 266.159 556.08C274.829 556.93 282.559 552.05 289.989 554.24L290.939 552.49C297.879 550.86 297.039 560.88 303.619 554.3C306.139 559.92 313.489 550.1 317.649 549.92C315.579 553.75 321.419 554.22 325.169 554.76C333.159 555.9 342.789 549.38 349.609 554.5C353.489 552.05 356.139 549.04 361.779 549.84C367.149 552.12 371.479 553.48 377.129 548.66C381.259 552.26 385.399 544.6 390.689 547.96C391.739 543.24 402.459 542.15 407.089 540.18C410.659 541.06 416.659 541.18 421.009 538.79C421.389 536.22 419.039 534.01 415.379 534.24L413.579 534.72C413.009 533.9 411.699 532.59 412.929 531.26C418.679 529.06 426.099 531.26 429.209 526.46C426.679 520.83 417.709 530.83 414.249 525.06C419.919 523.96 416.689 520.53 417.829 518.43C411.789 522.09 409.829 517.29 403.799 519.07C382.259 518.59 359.099 529.57 338.679 525.16C334.059 529 330.279 526.59 326.449 525.27C324.009 524.17 320.899 525.24 319.469 526.9L320.409 525.17L310.439 522.98C311.299 522.34 310.709 521.53 310.439 521.13C307.249 519.51 307.159 522.51 305.839 523.09C301.409 524.71 293.409 523.57 291.889 528.22C288.519 525.1 300.289 523.02 295.489 519.72C290.689 520.16 284.849 519.7 281.469 520.34C281.829 521.53 283.249 521.73 284.649 521.93L284.279 522.62C282.869 522.42 277.039 521.96 278.539 519.19C259.539 514.94 241.099 517.2 225.739 510.88L223.119 513.88L217.479 511.2L221.499 510.28C214.649 505.17 202.799 508.37 197.899 502.41C180.579 498.81 165.049 490.96 152.459 482.4C150.029 481.3 152.589 477.53 149.659 476.35L147.409 478.65C134.799 468.25 101.009 464.15 117.119 444.68L124.119 443.05C119.419 438.61 118.749 433.28 116.319 428.42L114.519 428.92C109.259 427.41 114.639 420.27 105.879 420.52C109.449 417.67 106.829 413.17 101.459 412.78C95.9087 401.46 85.4687 393.6 85.7887 380.86C79.4887 374.71 78.4687 364.44 73.2087 357.3C70.9787 338.96 64.4087 323 72.1587 303.09C79.3987 294.37 72.3587 282.1 81.0387 275.46C83.1187 267.86 88.6787 260.39 87.4587 252.34C87.0987 249.28 94.5387 247.7 89.8287 245.16C88.9887 245.8 87.8387 246.01 87.9487 246.76L85.5987 246.43C94.1687 244.66 98.4887 232.89 104.899 228.55C104.649 211.24 132.249 202.43 136.489 186.13C144.519 179.76 154.399 169.92 159.389 161.63C149.589 164.74 146.859 180.11 136.709 172.65C134.359 170.44 138.409 167.63 137.919 165.69C124.379 172.01 114.479 183.75 106.079 192.69C104.279 189.43 104.759 187.61 107.299 183.84L108.719 184.04C116.719 175.8 130.399 166.5 137.379 157.34L145.279 153.99L147.519 157.3C162.709 147.08 178.329 138.8 186.819 126.88C191.619 120.81 175.719 113.65 191.169 107.6C192.589 107.8 186.169 110.26 190.319 112C194.939 110.03 197.469 106.26 197.299 102.85C201.519 107.21 202.199 97.5496 207.929 99.1096C213.299 93.8796 219.699 87.6596 220.269 80.9896C215.769 81.8396 215.389 86.2896 210.869 85.2796C211.919 80.5396 221.509 79.6696 228.169 77.6096C232.419 76.3496 232.989 75.2896 231.769 72.8596C239.369 74.7196 241.089 67.8196 244.839 64.6196C266.399 57.5596 289.019 47.6296 309.929 37.0896C309.719 35.5696 302.859 37.9696 306.159 34.6896C309.649 36.6896 315.759 33.8096 320.079 33.3096C318.859 29.0096 311.599 32.0896 307.479 32.2596C299.179 36.3296 285.079 32.4396 278.469 40.8696C273.479 43.5396 258.989 44.0996 258.609 50.4296C248.549 45.6096 236.969 56.6996 227.819 57.6496C229.519 48.8996 247.099 54.7996 249.589 44.6196C245.049 45.4796 240.269 40.2996 236.389 46.5096C232.649 47.8396 226.979 48.9096 224.169 46.6296L234.429 41.7096L235.359 43.7396L247.899 36.5096L248.539 39.9796C252.489 40.1796 257.859 34.9296 261.159 37.2796L262.469 36.7096C256.059 39.1896 257.469 41.2596 254.289 45.2996C258.519 44.0396 278.649 40.5396 270.389 33.3396C278.369 36.3696 280.839 29.9596 289.199 30.3996C287.879 30.9696 286.769 31.1796 286.869 31.9296L288.269 34.0096C292.509 30.8696 303.349 26.7796 307.389 27.7396L310.689 26.3296L312.089 28.4196L310.289 28.8996L311.689 30.9796C318.689 25.6096 328.669 27.7596 335.519 25.3796C335.249 26.8296 334.659 27.8996 336.009 29.1996C340.679 31.7496 340.329 26.7996 342.509 25.6196C369.529 19.7196 396.909 14.9996 422.879 8.2196C445.099 8.3896 463.739 -1.7204 482.379 3.1896C490.539 -1.6404 502.699 1.1996 512.859 1.1696C532.699 2.8696 551.079 -0.130404 568.759 8.4096C581.859 2.0096 589.459 11.3596 602.569 10.5996C602.259 12.0596 600.869 13.7396 597.929 14.4496C599.369 16.5196 603.779 18.6496 606.489 16.4196L607.429 14.6796C610.269 16.9696 606.589 20.9296 613.189 20.0096C616.749 15.2596 616.089 23.0496 620.589 20.3196C623.319 27.4496 634.429 27.5396 641.559 33.0596C646.829 34.5796 649.109 32.2596 649.179 36.7896L650.609 38.8496L655.589 36.1996C659.459 39.3896 651.919 47.6796 662.059 51.3996L674.689 52.4396C676.689 49.7196 666.499 46.0096 662.929 43.2496C663.509 40.3296 669.149 50.5196 672.799 44.6596C679.299 48.5996 689.469 50.4296 692.669 55.7696C700.449 60.9996 707.889 68.8196 718.329 72.9496C724.989 85.9096 748.819 82.1796 756.229 95.6296C770.999 102.97 776.919 117.35 791.199 124.66C794.289 127.36 793.749 132.15 799.289 132.2C796.849 136.7 804.259 137.04 806.419 139.6L805.129 140.14C813.189 149.57 819.029 159.41 821.649 169.54C829.549 175.55 830.369 191.81 836.749 202.49C836.449 217.09 841.019 232.02 839.049 245.99L840.939 246.25C836.139 252.33 842.159 258.05 834.239 263.31C838.369 268.79 830.169 275.51 832.239 281.07C826.009 290.68 823.639 299.74 819.199 308.86C824.459 316 810.629 320.02 814.289 327.3C809.389 330.73 809.569 334.13 808.439 338.1L807.499 337.95L788.879 363.07C788.279 369.75 782.159 374.51 777.919 381.42C769.599 393 756.999 399.43 750.779 410.94C746.259 409.92 748.429 414.34 746.139 414.8C735.159 417.33 731.939 427.02 724.839 431.64L724.849 431.63ZM212.349 127.51C199.429 135.44 190.369 144.64 177.969 152.63C174.089 158.83 162.889 163.62 159.219 171.36C152.719 173.06 152.619 176.05 152.699 178.69C154.129 173.25 163.799 173.14 164.769 167.65C179.169 155.07 198.499 140.93 212.349 127.51ZM129.469 450.94C131.819 445.65 121.849 449.09 123.739 443.74L122.789 445.49C124.689 447.64 125.239 452.21 129.469 450.94Z" fill="#F7F7F7"/>
</svg>
