<svg width="70" height="73" viewBox="0 0 70 73" fill="none" xmlns="http://www.w3.org/2000/svg">
<path d="M19.1065 45.2277C19.2424 45.3859 19.3138 45.5894 19.3065 45.7977C19.3031 46.0289 19.283 46.2595 19.2465 46.4877C19.2465 46.6577 18.9765 46.9277 18.8365 46.8577C18.5417 46.7172 18.2606 46.5498 17.9965 46.3577C17.1006 45.4587 16.2591 44.507 15.4765 43.5077C14.9637 42.8199 14.5088 42.0907 14.1165 41.3277L12.9165 39.0277C12.5165 38.2677 12.2065 37.4677 11.9165 36.6677C11.766 36.3145 11.6553 35.9455 11.5865 35.5677C11.3234 34.2844 10.921 33.0337 10.3865 31.8377C10.3306 31.6183 10.2166 31.4179 10.0565 31.2577C9.67999 30.6321 9.38748 29.9597 9.18649 29.2577C8.91432 28.5542 8.73612 27.8179 8.65649 27.0677C8.65649 25.8677 8.52649 24.6977 8.49649 23.4977C8.49649 23.3277 8.41649 23.1577 8.49649 22.9777C8.6662 22.6269 8.71878 22.2308 8.64649 21.8477C8.61466 21.337 8.63476 20.8244 8.70649 20.3177C8.77225 20.049 8.87311 19.7901 9.00649 19.5477C9.10649 19.3277 9.46649 19.4577 9.50649 19.5477C9.54649 19.6377 9.79649 19.5477 9.94649 19.5477C9.99971 19.5427 10.0533 19.5427 10.1065 19.5477C10.1665 19.5477 10.3765 20.1877 10.7365 20.8277C11.0965 21.4677 11.5065 22.1077 11.5665 22.2577C11.6265 22.4077 11.8665 23.2577 12.2865 24.1877C12.7065 25.1177 13.1565 26.1877 13.2865 26.3577C13.3857 26.5742 13.4369 26.8096 13.4365 27.0477C13.4365 27.1677 14.6765 30.0477 14.7265 30.2077C14.9913 30.8214 15.1372 31.4797 15.1565 32.1477C15.1551 32.2843 15.1896 32.4187 15.2565 32.5377C15.6765 33.5377 15.9665 34.6877 16.2565 35.7777C16.4265 36.3377 16.7065 36.8477 16.8765 37.4077C16.882 37.5177 16.882 37.6278 16.8765 37.7377C16.8803 37.8738 16.9038 38.0085 16.9465 38.1377C17.3712 39.4595 17.8652 40.758 18.4265 42.0277C18.5865 42.2877 18.7865 43.8577 18.9565 44.1677C19.1265 44.4777 18.9665 45.1077 19.1065 45.2277Z" fill="#231F20" fill-opacity="0.7"/>
<path d="M1.55514 38.7779C1.3761 38.889 1.1605 38.9249 0.955137 38.8779C0.733375 38.8291 0.515982 38.7622 0.305137 38.6779C0.145137 38.6779 -0.074863 38.3379 0.025137 38.2079C0.20848 37.9488 0.416083 37.7077 0.645137 37.4879C0.705137 37.4279 1.30514 37.0179 1.95514 36.5879C2.60514 36.1579 3.33514 35.6579 3.72514 35.4679C4.44793 35.0765 5.20022 34.7421 5.97514 34.4679L8.29514 33.5379C9.06514 33.2179 9.86514 32.9879 10.6451 32.7279C10.9871 32.596 11.3426 32.5021 11.7051 32.4479C12.9567 32.2737 14.1803 31.9376 15.3451 31.4479C15.5572 31.3991 15.7512 31.2917 15.9051 31.1379C17.1381 30.4971 18.459 30.0422 19.8251 29.7879C20.9312 29.7262 22.0329 29.6026 23.1251 29.4179C23.2751 29.4179 23.4151 29.2979 23.5951 29.4179C23.9308 29.5596 24.3095 29.5596 24.6451 29.4179C25.0951 29.3079 25.5551 29.2179 26.0051 29.1179C26.2545 29.0929 26.5058 29.0929 26.7551 29.1179C26.9851 29.1179 27.0651 29.4879 27.0151 29.5579C26.9651 29.6279 27.1151 29.8279 27.2051 29.9479C27.2392 29.9899 27.2662 30.0372 27.2851 30.0879C26.5307 30.9116 25.715 31.6771 24.8451 32.3779L20.7351 34.4879C20.5152 34.5899 20.2774 34.6477 20.0351 34.6579C19.9151 34.6579 16.9451 35.9079 16.8251 35.9279C16.1901 36.1836 15.5094 36.3061 14.8251 36.2879C14.6912 36.2759 14.5565 36.3 14.4351 36.3579C13.3523 36.6936 12.2503 36.9641 11.1351 37.1679C10.5651 37.2779 10.0351 37.5179 9.46514 37.6279C9.36514 37.6279 9.24514 37.6279 9.14514 37.6279C9.0126 37.6073 8.87767 37.6073 8.74514 37.6279C7.42514 37.9679 6.05514 38.1379 4.74514 38.6279C4.46514 38.7579 2.88514 38.7279 2.55514 38.8479C2.22514 38.9679 1.70514 38.6679 1.55514 38.7779Z" fill="#231F20" fill-opacity="0.7"/>
<path d="M9.20406 45.4278C9.16192 45.6124 9.04143 45.7694 8.87406 45.8578C8.68603 45.9588 8.49238 46.0489 8.29406 46.1278C8.14406 46.1878 7.78406 46.1278 7.75406 45.9978C7.70034 45.704 7.67024 45.4064 7.66406 45.1078C7.66406 45.0378 7.78406 44.3678 7.92406 43.6778C8.06406 42.9878 8.20406 42.1878 8.32406 41.8078C8.53163 41.0881 8.79579 40.3859 9.11406 39.7078L10.0341 37.6478C10.3341 36.9578 10.7141 36.3178 11.0341 35.6478C11.194 35.3579 11.3852 35.0863 11.6041 34.8378C12.3318 33.9696 12.9281 32.9992 13.3741 31.9578C13.4833 31.7956 13.5392 31.6033 13.5341 31.4078C13.8976 30.2191 14.4588 29.1001 15.1941 28.0978C15.8804 27.3844 16.5185 26.626 17.1041 25.8278C17.1841 25.7178 17.2041 25.5678 17.3841 25.5078C17.8141 25.3778 17.9041 25.0978 18.0441 24.8478C18.1841 24.5978 18.4941 24.1378 18.6841 23.8478C18.8261 23.6708 18.987 23.5098 19.1641 23.3678C19.3268 23.2634 19.542 23.2978 19.6641 23.4478C19.7341 23.6578 19.9441 23.5378 20.0941 23.5478C20.1434 23.5363 20.1947 23.5363 20.2441 23.5478C20.3905 24.5811 20.4273 25.6269 20.3541 26.6678L20.1741 27.2778C20.0741 27.6378 19.9341 28.1078 19.7841 28.5778C19.4841 29.5778 19.1641 30.5078 19.1141 30.7078C19.0387 30.9173 18.9194 31.1083 18.7641 31.2678C18.7041 31.3578 17.5641 34.0378 17.4941 34.1278C17.1641 34.6278 16.9841 35.2178 16.4141 35.5778C16.3217 35.6561 16.2496 35.7556 16.2041 35.8678C15.7121 36.7658 15.1574 37.6279 14.5441 38.4478C14.2341 38.8778 14.0441 39.3578 13.7341 39.7878C13.6715 39.8619 13.6011 39.9289 13.5241 39.9878C13.4307 40.0643 13.3468 40.1515 13.2741 40.2478C12.6141 41.2478 11.8141 42.2478 11.2741 43.3178C11.1741 43.5878 10.0941 44.5178 9.95406 44.7878C9.81406 45.0578 9.22406 45.2678 9.20406 45.4278Z" fill="#231F20" fill-opacity="0.7"/>
<path d="M25.3865 39.668C25.5821 39.7524 25.7366 39.9105 25.8165 40.108C25.9122 40.3352 25.95 40.5826 25.9265 40.828C25.8481 41.0132 25.6835 41.1478 25.4865 41.188C25.2365 41.188 25.0665 41.188 24.7965 41.118C24.7165 41.118 24.1865 40.918 23.4965 40.758C22.8065 40.598 22.0465 40.448 21.6865 40.318C20.9686 40.1172 20.2666 39.8632 19.5865 39.558L17.4865 38.698C16.7765 38.418 16.1165 38.068 15.4265 37.698C15.1215 37.549 14.8332 37.368 14.5665 37.158C13.6511 36.4536 12.6412 35.8813 11.5665 35.458C11.3948 35.3554 11.1962 35.3066 10.9965 35.318C9.75269 34.9609 8.57673 34.4 7.51651 33.658C6.75651 32.918 5.93651 32.278 5.13651 31.658C5.02651 31.568 4.86651 31.528 4.81651 31.338C4.68651 30.908 4.40651 30.788 4.14651 30.598C3.79579 30.3394 3.46179 30.0588 3.14651 29.758C2.98199 29.58 2.84085 29.3817 2.72651 29.168C2.60651 28.978 2.86651 28.718 2.93651 28.708C3.16651 28.708 3.10651 28.468 3.15651 28.328C3.17167 28.2777 3.19535 28.2303 3.22651 28.188C3.69158 28.1977 4.1557 28.2344 4.61651 28.298C5.31651 28.368 6.06651 28.418 6.19651 28.458L8.03651 29.098C8.96651 29.408 9.94651 29.718 10.1565 29.768C10.3631 29.8385 10.5511 29.9547 10.7065 30.108C10.7865 30.178 13.5165 31.238 13.6165 31.308C14.1897 31.5215 14.7063 31.8636 15.1265 32.308C15.2098 32.4016 15.3169 32.4707 15.4365 32.508C16.3673 32.9801 17.2689 33.5077 18.1365 34.088C18.5865 34.378 19.1365 34.568 19.5365 34.858C19.6165 34.918 19.6865 35.008 19.7565 35.068C19.8398 35.1619 19.9338 35.2458 20.0365 35.318C21.1365 35.948 22.1365 36.748 23.2765 37.318C23.5565 37.428 24.5265 38.548 24.8065 38.748C25.0865 38.948 25.2265 39.598 25.3865 39.668Z" fill="#231F20" fill-opacity="0.7"/>
<path d="M63.0957 20.1079C63.208 20.2288 63.2562 20.3958 63.2257 20.5579C63.2257 20.7079 63.1457 20.9079 63.0857 21.1479C63.0257 21.3879 62.8057 21.5779 62.6857 21.5279C62.4289 21.4301 62.1812 21.3096 61.9457 21.1679C61.8857 21.1679 61.4257 20.7079 60.9457 20.2579C60.5318 19.8714 60.1411 19.4607 59.7757 19.0279C59.3446 18.503 58.9661 17.9369 58.6457 17.3379L57.7057 15.5279C57.3857 14.9279 57.1357 14.2979 56.8657 13.6779C56.7541 13.3983 56.6769 13.1062 56.6357 12.8079C56.4756 11.7687 56.1657 10.7582 55.7157 9.80792C55.6457 9.65792 55.6157 9.47792 55.4357 9.36792C55.1154 8.91283 54.869 8.40996 54.7057 7.87792C54.48 7.32708 54.3482 6.74232 54.3157 6.14792C54.3157 5.14792 54.3157 4.24792 54.3157 3.28792C54.3157 3.14792 54.2557 3.01792 54.3157 2.86792C54.4937 2.6003 54.5617 2.2744 54.5057 1.95792C54.5236 1.5349 54.5907 1.11541 54.7057 0.707923C54.7807 0.491392 54.885 0.286152 55.0157 0.097923C55.1157 -0.082077 55.4757 0.027923 55.5157 0.097923C55.5557 0.167923 55.8057 0.097923 55.9557 0.097923H56.1157C56.1757 0.097923 56.3857 0.577923 56.7257 1.09792C57.0657 1.61792 57.4357 2.09792 57.4857 2.17792C57.5357 2.25792 57.7457 2.90792 58.1057 3.65792C58.4657 4.40792 58.8457 5.16792 58.9357 5.31792C59.0188 5.48506 59.0534 5.67212 59.0357 5.85792C59.0357 5.94792 60.0357 8.20792 60.0357 8.29792C60.2597 8.77535 60.3595 9.30164 60.3257 9.82792C60.3188 9.93265 60.3432 10.0371 60.3957 10.1279C60.6976 10.9602 60.9546 11.8081 61.1657 12.6679C61.2857 13.1079 61.5157 13.5079 61.6357 13.9479C61.6462 14.0309 61.6462 14.1149 61.6357 14.1979C61.6198 14.304 61.6198 14.4118 61.6357 14.5179C61.9271 15.5388 62.2811 16.5407 62.6957 17.5179C62.8257 17.7179 62.8757 18.9879 63.0057 19.2279C63.1357 19.4679 62.9857 20.0279 63.0957 20.1079Z" fill="#231F20" fill-opacity="0.7"/>
<path d="M49.2966 15.288C49.1458 15.3646 48.9675 15.3646 48.8166 15.288C48.6766 15.288 48.4966 15.138 48.2766 15.028C48.0566 14.918 47.9066 14.678 47.9866 14.558C48.128 14.3306 48.285 14.1134 48.4566 13.908C48.4566 13.858 48.9666 13.498 49.4566 13.128C49.9466 12.758 50.5066 12.308 50.8066 12.128C51.3601 11.7731 51.946 11.4717 52.5566 11.228L54.3566 10.458C54.9566 10.198 55.5766 10.018 56.1866 9.80799C56.4608 9.71388 56.7471 9.65998 57.0366 9.64799C58.0208 9.59982 58.9904 9.39037 59.9066 9.02799C60.0566 8.95799 60.2166 8.92799 60.3266 8.75799C61.2687 8.20855 62.3075 7.84529 63.3866 7.68799C64.2585 7.70056 65.1303 7.65714 65.9966 7.55799C66.1166 7.55799 66.2266 7.46799 66.3766 7.55799C66.63 7.71414 66.9437 7.73655 67.2166 7.61799C67.5766 7.53799 67.9466 7.48799 68.2966 7.43799C68.5052 7.43872 68.7131 7.46219 68.9166 7.50799C69.1066 7.50799 69.2066 7.87799 69.1666 7.94799C69.1266 8.01799 69.2766 8.21799 69.3666 8.33799C69.397 8.38243 69.4238 8.42924 69.4466 8.47799C68.8846 9.19007 68.2695 9.85864 67.6066 10.478L64.4166 12.268C64.2431 12.3546 64.0504 12.3959 63.8566 12.388C63.7666 12.388 61.4566 13.388 61.3566 13.388C60.8695 13.6006 60.3346 13.68 59.8066 13.618C59.7057 13.5865 59.5976 13.5865 59.4966 13.618C58.6462 13.8827 57.7771 14.0833 56.8966 14.218C56.4466 14.298 56.0366 14.498 55.5866 14.568C55.5003 14.5778 55.413 14.5778 55.3266 14.568C55.2238 14.5531 55.1194 14.5531 55.0166 14.568C54.0166 14.818 52.8966 14.908 51.8966 15.258C51.6766 15.368 50.4166 15.258 50.1666 15.328C49.9166 15.398 49.3966 15.188 49.2966 15.288Z" fill="#231F20" fill-opacity="0.7"/>
<path d="M55.3637 20.4081C55.3334 20.5566 55.227 20.6782 55.0838 20.7281L54.5337 20.8881C54.3837 20.8881 54.0238 20.8881 53.9838 20.7681C53.9244 20.5206 53.8777 20.2703 53.8438 20.0181C53.8438 19.9581 53.9038 19.4181 53.9838 18.8481C54.0268 18.3375 54.1003 17.8299 54.2038 17.3281C54.3326 16.7484 54.5168 16.1825 54.7538 15.6381L55.4338 14.0281C55.6538 13.4781 55.9537 12.9781 56.2137 12.4581C56.3341 12.2288 56.4892 12.0197 56.6737 11.8381C57.2773 11.1881 57.7553 10.432 58.0837 9.60807C58.1737 9.4765 58.2095 9.31535 58.1838 9.15807C58.421 8.21643 58.8575 7.33665 59.4637 6.57807C60.0497 6.06103 60.5946 5.49935 61.0938 4.89807C61.1638 4.81807 61.1737 4.69807 61.3438 4.66807C61.7438 4.58807 61.8038 4.36807 61.9237 4.17807C62.0437 3.98807 62.3038 3.64807 62.4838 3.40807C62.6163 3.27464 62.7639 3.15717 62.9237 3.05807C63.0638 2.94807 63.3938 3.05807 63.4237 3.13807C63.4537 3.21807 63.6938 3.22807 63.8438 3.23807C63.8969 3.23148 63.9506 3.23148 64.0037 3.23807C64.1899 4.07909 64.2904 4.9368 64.3038 5.79807C64.3038 5.79807 63.5238 8.69807 63.4338 9.04807C63.3855 9.2187 63.2839 9.36939 63.1438 9.47807C63.1438 9.54807 62.2537 11.6881 62.1438 11.7481C61.8737 12.1381 61.7638 12.6181 61.2537 12.8681C61.1726 12.9187 61.1123 12.9968 61.0837 13.0881C60.6919 13.7899 60.2438 14.4588 59.7438 15.0881C59.4938 15.4181 59.3538 15.8081 59.1038 16.0881C59.0505 16.1457 58.99 16.1961 58.9237 16.2381C58.8444 16.2942 58.7737 16.3616 58.7137 16.4381C58.133 17.1995 57.5923 17.9905 57.0938 18.8081C57.0238 19.0181 56.0938 19.6881 55.9738 19.8981C55.8538 20.1081 55.3637 20.2781 55.3637 20.4081Z" fill="#231F20" fill-opacity="0.7"/>
<path d="M67.9665 15.708C68.13 15.7706 68.253 15.9085 68.2965 16.078C68.3568 16.2905 68.3568 16.5156 68.2965 16.728C68.206 16.8998 68.0515 17.0291 67.8665 17.088C67.6565 17.088 67.5165 17.088 67.2865 17.088C67.2165 17.088 66.7965 16.968 66.2865 16.878C65.7765 16.788 65.1065 16.728 64.8265 16.648C64.2524 16.5198 63.6903 16.3425 63.1465 16.118L61.4865 15.498C60.9265 15.288 60.4065 15.008 59.8665 14.768C59.6255 14.6557 59.4029 14.5073 59.2065 14.328C58.5006 13.7566 57.6979 13.3163 56.8365 13.028C56.6987 12.9444 56.5345 12.9158 56.3765 12.948C55.4021 12.7047 54.4915 12.2545 53.7065 11.628C53.1365 10.988 52.5165 10.448 51.9165 9.88803C51.8265 9.80803 51.7065 9.78803 51.6765 9.61803C51.6165 9.20803 51.3865 9.11803 51.1865 8.95803C50.9067 8.74396 50.6427 8.51002 50.3965 8.25803C50.2782 8.09055 50.1808 7.9092 50.1065 7.71803C50.0265 7.55803 50.2565 7.27803 50.3265 7.26803C50.3965 7.25803 50.4865 7.01803 50.5365 6.88803L50.6065 6.73803C50.9863 6.71816 51.3668 6.71816 51.7465 6.73803C52.1761 6.71232 52.6069 6.71232 53.0365 6.73803L54.5065 7.17803C55.2465 7.39803 56.0265 7.60803 56.1865 7.63803C56.3547 7.68601 56.5046 7.78359 56.6165 7.91803C56.6765 7.96803 58.8465 8.75803 58.9165 8.80803C59.3165 9.06803 59.8065 9.16803 60.0765 9.65803C60.1352 9.73998 60.2197 9.79984 60.3165 9.82803C61.0487 10.1957 61.7509 10.6203 62.4165 11.098C62.7565 11.338 63.1665 11.468 63.5065 11.708C63.5665 11.708 63.6165 11.838 63.6665 11.888C63.7235 11.9699 63.7946 12.0411 63.8765 12.098C64.7365 12.608 65.4965 13.278 66.3965 13.728C66.6165 13.808 67.3265 14.788 67.5565 14.948C67.7865 15.108 67.8265 15.658 67.9665 15.708Z" fill="#231F20" fill-opacity="0.7"/>
<path d="M55.3753 71.0279C55.4749 71.1354 55.516 71.2846 55.4853 71.4279C55.4853 71.5579 55.3953 71.7379 55.3453 71.9579C55.2953 72.1779 55.0753 72.3479 54.9653 72.3079C54.736 72.2219 54.5122 72.1217 54.2953 72.0079C54.2953 72.0079 53.8353 71.6079 53.4353 71.2079C53.0506 70.8768 52.6928 70.5157 52.3653 70.1279C51.9807 69.6748 51.6454 69.1821 51.3653 68.6579L50.4853 67.0979C50.1953 66.5779 49.9853 66.0279 49.7453 65.4879C49.6437 65.2416 49.5764 64.9825 49.5453 64.7179C49.3964 63.8142 49.1133 62.9379 48.7053 62.1179C48.6653 61.9622 48.5736 61.8247 48.4453 61.7279C47.8999 60.8625 47.558 59.8846 47.4453 58.8679C47.5053 58.0179 47.4453 57.1979 47.5053 56.3579C47.5053 56.2379 47.5053 56.1179 47.5053 55.9879C47.6804 55.7608 47.7496 55.4695 47.6953 55.1879C47.6923 54.8178 47.7326 54.4486 47.8153 54.0879C47.8798 53.8924 47.978 53.7097 48.1053 53.5479C48.1953 53.3979 48.5253 53.4879 48.5653 53.5479C48.6053 53.6079 48.8353 53.5479 48.9753 53.5479C49.0252 53.5429 49.0754 53.5429 49.1253 53.5479C49.1253 53.5479 49.3753 53.9679 49.6853 54.3879C49.9953 54.8079 50.3353 55.2179 50.3753 55.3079C50.4153 55.3979 50.6153 55.9479 50.9353 56.5979C51.2553 57.2479 51.5953 57.9079 51.6753 58.0379C51.7497 58.1827 51.7809 58.3459 51.7653 58.5079C51.7653 58.5879 52.6653 60.5079 52.6953 60.6379C52.939 61.0593 53.057 61.5416 53.0353 62.0279C53.0301 62.1217 53.0508 62.2152 53.0953 62.2979C53.3652 63.0231 53.589 63.7645 53.7653 64.5179C53.8553 64.9079 54.0653 65.2479 54.1653 65.6279C54.1755 65.7042 54.1755 65.7816 54.1653 65.8579C54.155 65.951 54.155 66.0449 54.1653 66.1379C54.4115 67.0399 54.7154 67.925 55.0753 68.7879C55.1953 68.9579 55.2153 70.0779 55.3253 70.2879C55.4353 70.4979 55.2753 70.9379 55.3753 71.0279Z" fill="#231F20" fill-opacity="0.7"/>
<path d="M43.2941 66.8579C43.1631 66.9291 43.0051 66.9291 42.8741 66.8579C42.7541 66.8579 42.5941 66.7179 42.3941 66.6179C42.1941 66.5179 42.0641 66.2879 42.1241 66.1779C42.2454 65.971 42.3825 65.7738 42.5341 65.5879C42.5341 65.5879 42.9841 65.2179 43.4141 64.8879C43.7861 64.5653 44.1768 64.2648 44.5841 63.9879C45.0636 63.6726 45.5727 63.4047 46.1041 63.1879L47.7041 62.5279C48.2241 62.2979 48.7641 62.1479 49.2941 61.9579C49.5374 61.8807 49.7893 61.8336 50.0441 61.8179C50.9042 61.7599 51.7472 61.55 52.5341 61.1979C52.6838 61.1688 52.8164 61.0828 52.9041 60.9579C53.7145 60.4698 54.6164 60.1533 55.5541 60.0279C56.3184 60.0518 57.0834 60.025 57.8441 59.9479C57.9541 59.9479 58.0441 59.8679 58.1841 59.9479C58.4024 60.0967 58.6818 60.1231 58.9241 60.0179C59.2341 59.9579 59.5541 59.9079 59.8641 59.8779C60.05 59.8821 60.2347 59.9089 60.4141 59.9579C60.5841 59.9579 60.6741 60.3079 60.6441 60.3579C60.6141 60.4079 60.7541 60.6079 60.8341 60.7279C60.8612 60.7691 60.8847 60.8126 60.9041 60.8579C60.4233 61.503 59.8952 62.1113 59.3241 62.6779L58.0041 63.4179C57.3541 63.7879 56.6641 64.1779 56.5341 64.2679C56.3819 64.3422 56.2133 64.3766 56.0441 64.3679C55.9641 64.3679 53.9441 65.2779 53.8641 65.2979C53.4141 65.3879 53.0141 65.6379 52.5041 65.4779C52.411 65.4622 52.3154 65.4799 52.2341 65.5279C51.4888 65.758 50.7264 65.9285 49.9541 66.0379C49.5641 66.0979 49.2041 66.2779 48.8141 66.3379C48.7377 66.3477 48.6605 66.3477 48.5841 66.3379C48.491 66.3279 48.3972 66.3279 48.3041 66.3379C47.4041 66.5579 46.4541 66.6279 45.5841 66.9279C45.3941 67.0279 44.2841 66.9279 44.0641 66.9279C43.8441 66.9279 43.3841 66.7679 43.2941 66.8579Z" fill="#231F20" fill-opacity="0.7"/>
<path d="M48.6266 71.3079C48.5966 71.4378 48.5023 71.5434 48.3766 71.5879L47.8666 71.7179C47.7366 71.7179 47.3966 71.7179 47.3666 71.5979C47.2971 71.3833 47.2502 71.1621 47.2266 70.9379C47.2266 70.9379 47.2266 70.3979 47.3266 69.9379C47.3525 69.4845 47.4093 69.0335 47.4966 68.5879C47.5941 68.0777 47.7519 67.5809 47.9666 67.1079L48.5466 65.6679C48.7266 65.1879 48.9966 64.7479 49.2166 64.2979C49.3237 64.0972 49.4621 63.9149 49.6266 63.7579C50.1658 63.178 50.587 62.4987 50.8666 61.7579C50.9461 61.6446 50.975 61.5033 50.9466 61.3679C51.1369 60.5419 51.5169 59.7715 52.0566 59.1179C52.5822 58.6755 53.0705 58.1905 53.5166 57.6679C53.5766 57.5979 53.5866 57.4979 53.7366 57.4679C53.9773 57.4443 54.1833 57.285 54.2666 57.0579C54.4166 56.8379 54.6066 56.5979 54.7666 56.3879C54.8891 56.2771 55.0232 56.1799 55.1666 56.0979C55.2966 55.9979 55.6066 56.0979 55.6366 56.1679C55.6666 56.2379 55.8866 56.2479 56.0266 56.2679H56.1766C56.3557 57.0122 56.4596 57.7727 56.4866 58.5379L55.7566 61.3979C55.7078 61.5439 55.6174 61.6725 55.4966 61.7679C55.4966 61.8279 54.7266 63.7079 54.6766 63.7679C54.4466 64.1079 54.3466 64.5279 53.8866 64.7679C53.8129 64.8083 53.7587 64.8768 53.7366 64.9579C53.3957 65.5749 53.0008 66.1606 52.5566 66.7079C52.3366 66.9879 52.2166 67.3279 51.9966 67.6079C51.9966 67.6679 51.8866 67.6979 51.8366 67.7379C51.7644 67.7839 51.7003 67.8413 51.6466 67.9079C51.1289 68.586 50.6514 69.2939 50.2166 70.0279C50.1566 70.2079 49.3166 70.7779 49.2166 70.9579C49.1166 71.1379 48.6266 71.1979 48.6266 71.3079Z" fill="#231F20" fill-opacity="0.7"/>
<path d="M59.5534 67.1181C59.7058 67.1743 59.8214 67.3011 59.8634 67.4581C59.9183 67.6577 59.9183 67.8685 59.8634 68.0681C59.7801 68.2297 59.6363 68.3519 59.4634 68.4081C59.2734 68.4081 59.1434 68.4081 58.9234 68.4081C58.7034 68.4081 58.4534 68.2981 57.9234 68.2081C57.3934 68.1181 56.8034 68.0581 56.5334 67.9781C55.9891 67.8565 55.4569 67.6858 54.9434 67.4681L53.3634 66.8681C52.8334 66.6781 52.3634 66.4081 51.8234 66.1781C51.5972 66.064 51.3857 65.923 51.1934 65.7581C50.5309 65.2015 49.7762 64.765 48.9634 64.4681C48.8362 64.3857 48.6829 64.3537 48.5334 64.3781C47.5915 64.1595 46.708 63.7399 45.9434 63.1481C45.4034 62.5481 44.8134 62.0381 44.2434 61.5081C44.1534 61.4381 44.0434 61.4181 44.0134 61.2481C43.9434 60.8781 43.7334 60.7881 43.5434 60.6381C43.2793 60.4311 43.0288 60.2073 42.7934 59.9681C42.6765 59.8157 42.5822 59.6473 42.5134 59.4681C42.4334 59.3181 42.6534 59.0581 42.7134 59.0481C42.7734 59.0381 42.8634 58.8181 42.9134 58.6981C42.9286 58.6478 42.9522 58.6004 42.9834 58.5581C42.9834 58.5581 43.5134 58.5581 44.0534 58.5581C44.5934 58.5581 45.1834 58.5581 45.2734 58.5581L46.7034 59.0281C47.4134 59.2381 48.1534 59.4481 48.3134 59.4681C48.4691 59.5195 48.6075 59.613 48.7134 59.7381C48.7734 59.7381 50.8234 60.5481 50.9034 60.5981C51.2834 60.8381 51.7334 60.9381 52.0034 61.4081C52.0556 61.4837 52.134 61.5371 52.2234 61.5581C52.9216 61.9068 53.5905 62.3115 54.2234 62.7681C54.5534 62.9981 54.9434 63.1181 55.2234 63.3481C55.2834 63.3481 55.3234 63.4681 55.3834 63.5181C55.4403 63.5939 55.5076 63.6613 55.5834 63.7181C56.3934 64.1981 57.1234 64.8281 57.9734 65.2581C58.1834 65.3381 58.8634 66.2581 59.0834 66.3981C59.3034 66.5381 59.4234 67.0281 59.5534 67.1181Z" fill="#231F20" fill-opacity="0.7"/>
</svg>
