<svg width="78" height="81" viewBox="0 0 78 81" fill="none" xmlns="http://www.w3.org/2000/svg">
<mask id="mask0_478_25093" style="mask-type:luminance" maskUnits="userSpaceOnUse" x="0" y="0" width="78" height="81">
<path d="M78 0H0V80.3437H78V0Z" fill="white"/>
</mask>
<g mask="url(#mask0_478_25093)">
<path d="M38.8179 79.5816C59.775 79.5816 76.7644 62.545 76.7644 41.5296C76.7644 20.514 59.775 3.47754 38.8179 3.47754C17.8604 3.47754 0.871094 20.514 0.871094 41.5296C0.871094 62.545 17.8604 79.5816 38.8179 79.5816Z" fill="#FBD947"/>
<path d="M38.2897 3.50305C38.066 17.1833 33.9975 47.4012 3.33207 55.0115C1.70273 50.7081 0.87278 46.1433 0.883053 41.5418C0.876835 39.8461 0.991234 38.1521 1.22539 36.4727C2.25591 28.6866 5.67452 21.4114 11.0106 15.6485C16.3467 9.88565 23.3379 5.91845 31.0219 4.29305C33.4122 3.78906 35.8469 3.52441 38.2897 3.50305Z" fill="#FBE481"/>
<path opacity="0.5" d="M76.0901 41.0788C76.104 51.1514 72.1196 60.8177 65.0123 67.9547C57.9047 75.0918 48.2553 79.1161 38.1828 79.1442C33.5453 79.1565 28.9459 78.3036 24.6211 76.6291C56.3136 64.9241 63.621 37.3923 62.0147 11.5063C66.4167 15.0748 69.9653 19.5823 72.4006 24.699C74.8361 29.8158 76.0966 35.4122 76.0901 41.0788Z" fill="#F8A547"/>
<path d="M14.9589 34.3636H14.8141C14.7656 34.3448 14.7213 34.3165 14.6838 34.2803C14.6462 34.2443 14.6162 34.2012 14.5954 34.1535C14.5746 34.1056 14.5634 34.0544 14.5626 34.0023C14.5617 33.9503 14.5711 33.8985 14.5902 33.85L16.7364 28.7544C16.7771 28.6591 16.8538 28.5833 16.9499 28.5438C17.0461 28.5043 17.1538 28.5046 17.25 28.5438C17.3433 28.5871 17.4169 28.6643 17.456 28.7594C17.4951 28.8545 17.4967 28.961 17.4606 29.0575L15.3144 34.153C15.2783 34.2157 15.2265 34.268 15.1643 34.3048C15.102 34.3418 15.0313 34.362 14.9589 34.3636Z" fill="#3E3126"/>
<path d="M17.8144 31.901H17.6696C17.6211 31.8822 17.5767 31.8539 17.5392 31.8179C17.5017 31.7817 17.4717 31.7386 17.4509 31.6909C17.4301 31.6433 17.4189 31.5918 17.418 31.5397C17.4172 31.4877 17.4266 31.4362 17.4457 31.3877L18.5912 28.6622C18.6099 28.6137 18.6383 28.5696 18.6746 28.5322C18.711 28.4952 18.7545 28.4658 18.8026 28.4461C18.8507 28.4265 18.9023 28.4167 18.9542 28.4175C19.0062 28.4186 19.0574 28.4301 19.1047 28.4513C19.2003 28.4922 19.276 28.5688 19.3154 28.6649C19.3549 28.7611 19.3549 28.8688 19.3154 28.965L18.1831 31.5983C18.1594 31.68 18.1115 31.7528 18.0457 31.807C17.9799 31.861 17.8992 31.8939 17.8144 31.901Z" fill="#3E3126"/>
<path d="M38.8152 79.6849C31.2578 79.711 23.8625 77.4938 17.5659 73.3141C11.2693 69.1341 6.35473 63.1799 3.44449 56.205C0.534276 49.2301 -0.240699 41.5486 1.21772 34.1331C2.67616 26.7175 6.30236 19.9015 11.6372 14.5483C16.972 9.19504 23.7754 5.54529 31.1858 4.06126C38.5964 2.57724 46.2806 3.32568 53.2653 6.2118C60.25 9.09793 66.2214 13.9919 70.4229 20.274C74.6244 26.5561 76.8672 33.9438 76.8672 41.5012C76.8675 51.6054 72.8625 61.2978 65.7301 68.4548C58.5979 75.612 48.9194 79.6502 38.8152 79.6849ZM38.8152 6.42503C31.8651 6.40418 25.0649 8.44627 19.2761 12.2927C13.4872 16.1392 8.96992 21.617 6.29631 28.0324C3.6227 34.4479 2.913 41.5124 4.25711 48.3317C5.60122 55.1508 8.93864 61.4175 13.8468 66.3386C18.7549 71.2598 25.013 74.6136 31.8286 75.9755C38.6441 77.3376 45.7106 76.6466 52.1329 73.9898C58.5554 71.3331 64.045 66.8302 67.9067 61.0515C71.7684 55.2726 73.8284 48.478 73.8257 41.5277C73.8257 32.2339 70.1403 23.3192 63.5771 16.7389C57.014 10.1585 48.109 6.44941 38.8152 6.42503Z" fill="#F8A547"/>
<path d="M0.86781 42.2896C0.768134 42.2896 0.669454 42.2697 0.577528 42.2313C0.485603 42.1926 0.402276 42.1362 0.33241 42.0651C0.262546 41.994 0.207542 41.9098 0.170608 41.8171C0.133675 41.7245 0.115554 41.6256 0.117303 41.5258C0.117513 38.904 0.377733 36.2886 0.894143 33.7179C0.912953 33.6198 0.951211 33.5264 1.00667 33.443C1.06213 33.3599 1.13366 33.2885 1.21708 33.2332C1.3005 33.1781 1.3941 33.1403 1.4924 33.1217C1.5907 33.1032 1.69171 33.1046 1.78948 33.1256C1.88773 33.1444 1.98121 33.1825 2.06446 33.2381C2.1477 33.2934 2.21902 33.3651 2.27422 33.4485C2.32942 33.5318 2.36739 33.6256 2.3859 33.7239C2.40441 33.822 2.40308 33.9231 2.38199 34.021C1.88084 36.4911 1.62941 39.0053 1.63148 41.5258C1.63148 41.6261 1.61173 41.7256 1.57335 41.8182C1.53497 41.9109 1.47872 41.9951 1.40781 42.0659C1.33689 42.1368 1.25271 42.1932 1.16005 42.2316C1.0674 42.2697 0.968097 42.2896 0.86781 42.2896Z" fill="#3E3126"/>
<path d="M38.8172 80.3185C29.6615 80.3403 20.7959 77.1088 13.802 71.2002C6.80819 65.2915 2.14109 57.0904 0.633391 48.0599C0.622464 47.9593 0.631552 47.8579 0.66013 47.7609C0.688709 47.6642 0.736209 47.574 0.799882 47.4955C0.863557 47.4173 0.94214 47.3522 1.03109 47.3045C1.12003 47.2566 1.21757 47.2269 1.31806 47.2171C1.416 47.1983 1.51674 47.1996 1.61418 47.2209C1.71163 47.2421 1.80375 47.2827 1.88499 47.3405C1.96623 47.3985 2.03488 47.4721 2.0868 47.5574C2.13873 47.6424 2.17284 47.7372 2.18707 47.8359C3.71901 56.6809 8.39135 64.676 15.3456 70.3519C22.2998 76.0281 31.0689 79.004 40.0415 78.7329C49.014 78.4617 57.587 74.9616 64.1859 68.8761C70.7848 62.7904 74.9658 54.5279 75.961 45.6066C76.9558 36.6854 74.698 27.7047 69.6024 20.3145C64.5066 12.9245 56.9151 7.62164 48.2227 5.38023C39.5305 3.13881 30.3212 4.10947 22.2874 8.11384C14.2534 12.1182 7.93436 18.8873 4.49127 27.1773C4.40511 27.3499 4.25682 27.4837 4.07619 27.5512C3.89553 27.6191 3.69593 27.6161 3.5175 27.5425C3.33905 27.4692 3.19501 27.3311 3.1143 27.1558C3.03359 26.9806 3.0222 26.7813 3.08242 26.598C5.79273 20.1365 10.2049 14.5313 15.849 10.3791C21.493 6.22696 28.1577 3.68341 35.1328 3.01944C42.1083 2.35543 49.133 3.59583 55.4592 6.60853C61.7853 9.62122 67.1756 14.2934 71.0564 20.1274C74.9372 25.9614 77.1629 32.7386 77.4964 39.7378C77.83 46.7367 76.2591 53.6949 72.9508 59.8714C69.6425 66.0482 64.7208 71.2119 58.7097 74.8126C52.6988 78.4132 45.8239 80.316 38.8172 80.3185Z" fill="#3E3126"/>
<path d="M0.790006 45.4785C1.22632 45.4785 1.58001 45.1248 1.58001 44.6885C1.58001 44.2523 1.22632 43.8986 0.790006 43.8986C0.353699 43.8986 0 44.2523 0 44.6885C0 45.1248 0.353699 45.4785 0.790006 45.4785Z" fill="#3E3126"/>
<path d="M38.8166 72.3403C32.7188 72.3585 26.753 70.5669 21.6742 67.1927C16.5954 63.8182 12.632 59.0128 10.2859 53.3846C7.93981 47.7563 7.31649 41.5585 8.4949 35.576C9.67328 29.5933 12.6004 24.0948 16.9056 19.7767C21.2108 15.4585 26.7005 12.515 32.6796 11.3187C38.6586 10.1223 44.8582 10.7271 50.4936 13.0563C56.1287 15.3855 60.946 19.3345 64.3358 24.4032C67.7253 29.472 69.5346 35.4324 69.5346 41.5299C69.5346 49.6855 66.3012 57.5081 60.543 63.2835C54.785 69.0589 46.9719 72.3157 38.8166 72.3403ZM38.8166 13.7744C33.3189 13.751 27.9378 15.3599 23.3555 18.3975C18.7731 21.4351 15.1955 25.7645 13.0759 30.8372C10.9564 35.9098 10.3903 41.4978 11.4494 46.8925C12.5085 52.2872 15.1452 57.246 19.0252 61.141C22.9053 65.0359 27.8544 67.6913 33.245 68.7709C38.6357 69.8505 44.2255 69.3058 49.3061 67.2055C54.3869 65.1051 58.7298 61.5442 61.785 56.9732C64.8399 52.4025 66.4693 47.0277 66.4666 41.5299C66.4669 34.1869 63.557 27.1432 58.3745 21.941C53.192 16.7388 46.1594 13.8023 38.8166 13.7744Z" fill="#F8A547"/>
<path d="M17.6036 63.7005C17.5234 63.7021 17.4438 63.6879 17.3692 63.6585C17.2946 63.6291 17.2266 63.5852 17.1691 63.5293C13.489 59.8821 10.7832 55.3697 9.29978 50.4052C7.81635 45.441 7.60272 40.1836 8.67848 35.1153C9.75426 30.047 12.085 25.3298 15.4571 21.3961C18.8292 17.4624 23.1347 14.438 27.979 12.6002C28.1259 12.5573 28.2837 12.5716 28.4205 12.6403C28.5573 12.709 28.663 12.8269 28.7164 12.9704C28.7698 13.1139 28.7668 13.2722 28.7082 13.4136C28.6496 13.555 28.5396 13.669 28.4003 13.7325C23.7432 15.4966 19.6037 18.4023 16.362 22.1829C13.1203 25.9635 10.8803 30.4977 9.84746 35.3695C8.81464 40.2413 9.02217 45.2947 10.451 50.0654C11.8798 54.8361 14.4842 59.1714 18.0249 62.6735C18.1383 62.7871 18.202 62.941 18.202 63.1013C18.202 63.2618 18.1383 63.4157 18.0249 63.5293C17.9695 63.5841 17.9036 63.6274 17.8314 63.6569C17.759 63.6863 17.6817 63.701 17.6036 63.7005Z" fill="#3E3126"/>
<path d="M38.8144 72.4181C33.209 72.4285 27.7083 70.9028 22.9089 68.0073C22.771 67.925 22.6714 67.7915 22.6319 67.6359C22.5924 67.4806 22.6163 67.3158 22.6982 67.1776C22.7828 67.0389 22.9187 66.9392 23.0764 66.8997C23.234 66.8602 23.4009 66.8844 23.5409 66.967C27.4606 69.3139 31.8695 70.7238 36.4239 71.0867C40.978 71.4494 45.5544 70.7557 49.7963 69.0589C54.0384 67.3624 57.8311 64.7086 60.8789 61.3052C63.9267 57.9018 66.147 53.8404 67.3672 49.4375C68.5871 45.0349 68.7738 40.4099 67.9127 35.9231C67.0513 31.4363 65.1652 27.2092 62.4016 23.5712C59.638 19.9332 56.0714 16.9827 51.98 14.9497C47.8886 12.9167 43.3829 11.8562 38.8144 11.8509C37.231 11.8527 35.6505 11.9803 34.0875 12.2327C34.0088 12.2459 33.9281 12.2434 33.8505 12.2254C33.7728 12.2073 33.6995 12.1741 33.6347 12.1276C33.5698 12.0811 33.5148 12.0222 33.4725 11.9544C33.4306 11.8866 33.4025 11.8111 33.3897 11.7324C33.3763 11.6537 33.3791 11.5732 33.397 11.4954C33.415 11.4177 33.4483 11.3443 33.4949 11.2795C33.5412 11.2146 33.6 11.1596 33.6679 11.1176C33.7357 11.0756 33.8112 11.0473 33.89 11.0345C35.5192 10.7821 37.1656 10.6545 38.8144 10.6527C46.8981 10.8196 54.5942 14.148 60.2522 19.9239C65.9102 25.6999 69.0789 33.4631 69.0789 41.5486C69.0789 49.6339 65.9102 57.3972 60.2522 63.1731C54.5942 68.9491 46.8981 72.2775 38.8144 72.4443V72.4181Z" fill="#3E3126"/>
<path d="M31.1259 12.9829C31.5621 12.9829 31.9158 12.6291 31.9158 12.1928C31.9158 11.7565 31.5621 11.4028 31.1259 11.4028C30.6896 11.4028 30.3359 11.7565 30.3359 12.1928C30.3359 12.6291 30.6896 12.9829 31.1259 12.9829Z" fill="#3E3126"/>
<path d="M20.2119 66.3855C20.6482 66.3855 21.0019 66.0318 21.0019 65.5952C21.0019 65.159 20.6482 64.8053 20.2119 64.8053C19.7756 64.8053 19.4219 65.159 19.4219 65.5952C19.4219 66.0318 19.7756 66.3855 20.2119 66.3855Z" fill="#3E3126"/>
<path d="M38.8166 72.3403C32.7188 72.3585 26.753 70.5669 21.6742 67.1927C16.5954 63.8182 12.632 59.0128 10.2859 53.3846C7.93981 47.7563 7.31649 41.5585 8.4949 35.576C9.67328 29.5933 12.6004 24.0948 16.9056 19.7767C21.2108 15.4585 26.7005 12.515 32.6796 11.3187C38.6586 10.1223 44.8582 10.7271 50.4936 13.0563C56.1287 15.3855 60.946 19.3345 64.3358 24.4032C67.7253 29.472 69.5346 35.4324 69.5346 41.5299C69.5346 49.6855 66.3012 57.5081 60.543 63.2835C54.785 69.0589 46.9719 72.3157 38.8166 72.3403ZM38.8166 13.7744C33.3189 13.751 27.9378 15.3599 23.3555 18.3975C18.7731 21.4351 15.1955 25.7645 13.0759 30.8372C10.9564 35.9098 10.3903 41.4978 11.4494 46.8925C12.5085 52.2872 15.1452 57.246 19.0252 61.141C22.9053 65.0359 27.8544 67.6913 33.245 68.7709C38.6357 69.8505 44.2255 69.3058 49.3061 67.2055C54.3869 65.1051 58.7298 61.5442 61.785 56.9732C64.8399 52.4025 66.4693 47.0277 66.4666 41.5299C66.4669 34.1869 63.557 27.1432 58.3745 21.941C53.192 16.7388 46.1594 13.8023 38.8166 13.7744Z" fill="#F8A547"/>
<path d="M17.6036 63.7005C17.5234 63.7021 17.4438 63.6879 17.3692 63.6585C17.2946 63.6291 17.2266 63.5852 17.1691 63.5293C13.489 59.8821 10.7832 55.3697 9.29978 50.4052C7.81635 45.441 7.60272 40.1836 8.67848 35.1153C9.75426 30.047 12.085 25.3298 15.4571 21.3961C18.8292 17.4624 23.1347 14.438 27.979 12.6002C28.1259 12.5573 28.2837 12.5716 28.4205 12.6403C28.5573 12.709 28.663 12.8269 28.7164 12.9704C28.7698 13.1139 28.7668 13.2722 28.7082 13.4136C28.6496 13.555 28.5396 13.669 28.4003 13.7325C23.7432 15.4966 19.6037 18.4023 16.362 22.1829C13.1203 25.9635 10.8803 30.4977 9.84746 35.3695C8.81464 40.2413 9.02217 45.2947 10.451 50.0654C11.8798 54.8361 14.4842 59.1714 18.0249 62.6735C18.1383 62.7871 18.202 62.941 18.202 63.1013C18.202 63.2618 18.1383 63.4157 18.0249 63.5293C17.9695 63.5841 17.9036 63.6274 17.8314 63.6569C17.759 63.6863 17.6817 63.701 17.6036 63.7005Z" fill="#3E3126"/>
<path d="M38.8144 72.4181C33.209 72.4285 27.7083 70.9028 22.9089 68.0073C22.771 67.925 22.6714 67.7915 22.6319 67.6359C22.5924 67.4806 22.6163 67.3158 22.6982 67.1776C22.7828 67.0389 22.9187 66.9392 23.0764 66.8997C23.234 66.8602 23.4009 66.8844 23.5409 66.967C27.4606 69.3139 31.8695 70.7238 36.4239 71.0867C40.978 71.4494 45.5544 70.7557 49.7963 69.0589C54.0384 67.3624 57.8311 64.7086 60.8789 61.3052C63.9267 57.9018 66.147 53.8404 67.3672 49.4375C68.5871 45.0349 68.7738 40.4099 67.9127 35.9231C67.0513 31.4363 65.1652 27.2092 62.4016 23.5712C59.638 19.9332 56.0714 16.9827 51.98 14.9497C47.8886 12.9167 43.3829 11.8562 38.8144 11.8509C37.231 11.8527 35.6505 11.9803 34.0875 12.2327C34.0088 12.2459 33.9281 12.2434 33.8505 12.2254C33.7728 12.2073 33.6995 12.1741 33.6347 12.1276C33.5698 12.0811 33.5148 12.0222 33.4725 11.9544C33.4306 11.8866 33.4025 11.8111 33.3897 11.7324C33.3763 11.6537 33.3791 11.5732 33.397 11.4954C33.415 11.4177 33.4483 11.3443 33.4949 11.2795C33.5412 11.2146 33.6 11.1596 33.6679 11.1176C33.7357 11.0756 33.8112 11.0473 33.89 11.0345C35.5192 10.7821 37.1656 10.6545 38.8144 10.6527C46.8981 10.8196 54.5942 14.148 60.2522 19.9239C65.9102 25.6999 69.0789 33.4631 69.0789 41.5486C69.0789 49.6339 65.9102 57.3972 60.2522 63.1731C54.5942 68.9491 46.8981 72.2775 38.8144 72.4443V72.4181Z" fill="#3E3126"/>
<path d="M31.1259 12.9829C31.5621 12.9829 31.9158 12.6291 31.9158 12.1928C31.9158 11.7565 31.5621 11.4028 31.1259 11.4028C30.6896 11.4028 30.3359 11.7565 30.3359 12.1928C30.3359 12.6291 30.6896 12.9829 31.1259 12.9829Z" fill="#3E3126"/>
<path d="M20.2119 66.3855C20.6482 66.3855 21.0019 66.0318 21.0019 65.5952C21.0019 65.159 20.6482 64.8053 20.2119 64.8053C19.7756 64.8053 19.4219 65.159 19.4219 65.5952C19.4219 66.0318 19.7756 66.3855 20.2119 66.3855Z" fill="#3E3126"/>
<path d="M2.55563 30.9695C2.99193 30.9695 3.34565 30.6158 3.34565 30.1796C3.34565 29.7433 2.99193 29.3896 2.55563 29.3896C2.11932 29.3896 1.76562 29.7433 1.76562 30.1796C1.76562 30.6158 2.11932 30.9695 2.55563 30.9695Z" fill="#3E3126"/>
<path d="M21.3216 14.614C21.9599 14.0737 22.2107 13.3207 21.8818 12.9322C21.5529 12.5437 20.7689 12.6668 20.1306 13.2071C19.4924 13.7474 19.2416 14.5004 19.5705 14.8889C19.8994 15.2774 20.6834 15.1543 21.3216 14.614Z" fill="white"/>
<path d="M11.2314 24.0409C11.0924 24.0437 10.9555 24.0072 10.8364 23.9355C10.6658 23.827 10.5443 23.6563 10.4976 23.4596C10.4509 23.2629 10.4827 23.0558 10.5862 22.8822C12.4823 20.0532 14.8002 17.5311 17.4593 15.4034C17.5352 15.3272 17.6263 15.2678 17.7267 15.2292C17.8271 15.1906 17.9345 15.1737 18.0419 15.1795C18.1493 15.1853 18.2543 15.2137 18.35 15.2629C18.4457 15.3121 18.5298 15.3809 18.597 15.4649C18.6642 15.549 18.7129 15.6462 18.7399 15.7503C18.7669 15.8544 18.7716 15.9631 18.7537 16.0692C18.7358 16.1752 18.6957 16.2763 18.636 16.3658C18.5763 16.4553 18.4984 16.5312 18.4073 16.5884C15.8697 18.608 13.6581 21.0061 11.8502 23.6985C11.7832 23.802 11.6916 23.8874 11.5837 23.9471C11.4757 24.0069 11.3547 24.039 11.2314 24.0409Z" fill="white"/>
<path opacity="0.4" d="M50.0347 58.4187C50.4056 58.4187 50.7061 58.1178 50.7061 57.747C50.7061 57.3761 50.4056 57.0756 50.0347 57.0756C49.6638 57.0756 49.3633 57.3761 49.3633 57.747C49.3633 58.1178 49.6638 58.4187 50.0347 58.4187Z" fill="#F8A547"/>
<path d="M50.44 68.0319C51.7272 68.0319 52.7706 66.9885 52.7706 65.7013C52.7706 64.4143 51.7272 63.371 50.44 63.371C49.1527 63.371 48.1094 64.4143 48.1094 65.7013C48.1094 66.9885 49.1527 68.0319 50.44 68.0319Z" fill="#F8A547"/>
<path d="M51.9956 61.5152C52.4248 61.5152 52.7725 61.1672 52.7725 60.7383C52.7725 60.3091 52.4248 59.9614 51.9956 59.9614C51.5667 59.9614 51.2188 60.3091 51.2188 60.7383C51.2188 61.1672 51.5667 61.5152 51.9956 61.5152Z" fill="#F8A547"/>
<path d="M45.0425 67.5174C45.4714 67.5174 45.8194 67.1697 45.8194 66.7405C45.8194 66.3116 45.4714 65.9636 45.0425 65.9636C44.6133 65.9636 44.2656 66.3116 44.2656 66.7405C44.2656 67.1697 44.6133 67.5174 45.0425 67.5174Z" fill="#F8A547"/>
<path d="M56.2348 64.1872C56.7656 64.1872 57.1959 63.7569 57.1959 63.2258C57.1959 62.695 56.7656 62.2648 56.2348 62.2648C55.7037 62.2648 55.2734 62.695 55.2734 63.2258C55.2734 63.7569 55.7037 64.1872 56.2348 64.1872Z" fill="#F8A547"/>
<path opacity="0.4" d="M45.6756 64.4925C46.0464 64.4925 46.347 64.192 46.347 63.8211C46.347 63.45 46.0464 63.1494 45.6756 63.1494C45.3047 63.1494 45.0039 63.45 45.0039 63.8211C45.0039 64.192 45.3047 64.4925 45.6756 64.4925Z" fill="#F8A547"/>
<path opacity="0.4" d="M47.7017 62.5545C48.087 62.5545 48.3996 62.2422 48.3996 61.8567C48.3996 61.4714 48.087 61.1588 47.7017 61.1588C47.3164 61.1588 47.0039 61.4714 47.0039 61.8567C47.0039 62.2422 47.3164 62.5545 47.7017 62.5545Z" fill="#F8A547"/>
<path opacity="0.4" d="M47.6382 59.2225C47.7837 59.2225 47.9017 59.1048 47.9017 58.9593C47.9017 58.8138 47.7837 58.6958 47.6382 58.6958C47.493 58.6958 47.375 58.8138 47.375 58.9593C47.375 59.1048 47.493 59.2225 47.6382 59.2225Z" fill="#F8A547"/>
<path d="M48.5737 76.7469C49.3373 76.7469 49.9563 76.1281 49.9563 75.3645C49.9563 74.601 49.3373 73.9819 48.5737 73.9819C47.8102 73.9819 47.1914 74.601 47.1914 75.3645C47.1914 76.1281 47.8102 76.7469 48.5737 76.7469Z" fill="#F8A547"/>
<path d="M49.5194 73.4578C49.7739 73.4578 49.9802 73.2516 49.9802 72.9971C49.9802 72.7426 49.7739 72.536 49.5194 72.536C49.2649 72.536 49.0586 72.7426 49.0586 72.9971C49.0586 73.2516 49.2649 73.4578 49.5194 73.4578Z" fill="#F8A547"/>
<path d="M45.3866 77.0269C45.6411 77.0269 45.8473 76.8206 45.8473 76.5661C45.8473 76.3116 45.6411 76.1053 45.3866 76.1053C45.1321 76.1053 44.9258 76.3116 44.9258 76.5661C44.9258 76.8206 45.1321 77.0269 45.3866 77.0269Z" fill="#F8A547"/>
<path d="M52.0467 75.0362C52.3595 75.0362 52.6129 74.7828 52.6129 74.4703C52.6129 74.1575 52.3595 73.9041 52.0467 73.9041C51.7342 73.9041 51.4805 74.1575 51.4805 74.4703C51.4805 74.7828 51.7342 75.0362 52.0467 75.0362Z" fill="#F8A547"/>
<path opacity="0.4" d="M45.7542 75.2188C45.9725 75.2188 46.1493 75.0419 46.1493 74.8237C46.1493 74.6057 45.9725 74.4288 45.7542 74.4288C45.5362 74.4288 45.3594 74.6057 45.3594 74.8237C45.3594 75.0419 45.5362 75.2188 45.7542 75.2188Z" fill="#F8A547"/>
<path opacity="0.4" d="M46.9645 74.0732C47.1969 74.0732 47.3858 73.8843 47.3858 73.6519C47.3858 73.4192 47.1969 73.2303 46.9645 73.2303C46.7318 73.2303 46.543 73.4192 46.543 73.6519C46.543 73.8843 46.7318 74.0732 46.9645 74.0732Z" fill="#F8A547"/>
<path opacity="0.4" d="M46.9276 72.1006C47.0148 72.1006 47.0856 72.03 47.0856 71.9426C47.0856 71.8554 47.0148 71.7848 46.9276 71.7848C46.8404 71.7848 46.7695 71.8554 46.7695 71.9426C46.7695 72.03 46.8404 72.1006 46.9276 72.1006Z" fill="#F8A547"/>
<path d="M40.2501 70.1126C40.7229 70.1126 41.106 69.7295 41.106 69.2567C41.106 68.7842 40.7229 68.4011 40.2501 68.4011C39.7777 68.4011 39.3945 68.7842 39.3945 69.2567C39.3945 69.7295 39.7777 70.1126 40.2501 70.1126Z" fill="#F8A547"/>
<path d="M25.9636 25.0226C27.3356 23.0489 27.365 20.6962 26.0293 19.7677C24.6936 18.8393 22.4986 19.6866 21.1267 21.6603C19.7547 23.634 19.7253 25.9867 21.061 26.9152C22.3967 27.8438 24.5916 26.9963 25.9636 25.0226Z" fill="#FFEFAE"/>
<path d="M48.0604 44.7636C47.6427 43.836 47.053 42.9959 46.3222 42.2883C45.6061 41.6122 44.805 41.0324 43.939 40.5634C43.115 40.1454 42.2613 39.789 41.3847 39.4969C40.226 39.0492 39.1331 38.6015 38.1194 38.1802C37.2036 37.8037 36.3611 37.269 35.6308 36.6001C35.3109 36.2965 35.0597 35.9278 34.894 35.5191C34.728 35.1104 34.6517 34.6709 34.6697 34.2302C34.6509 33.5883 34.8008 32.9528 35.1041 32.3868C35.4084 31.8639 35.8689 31.4495 36.4207 31.2018C37.178 30.8993 37.9892 30.7557 38.8039 30.7805C39.6634 30.7585 40.5116 30.9775 41.2531 31.4124C41.9528 31.8367 42.5651 32.3909 43.0569 33.0452C43.5586 33.7477 43.9992 34.4921 44.3736 35.2703L48.35 32.9136C47.8408 31.8383 47.1753 30.8443 46.375 29.9641C45.4848 28.9963 44.4164 28.2096 43.2281 27.6466C42.4659 27.2744 41.6547 27.0127 40.8184 26.8699V22.2089H36.8684L36.9608 26.8304C35.9398 26.9716 34.9458 27.2646 34.0114 27.6995C32.7198 28.2843 31.5999 29.1911 30.7592 30.3328C29.9799 31.4032 29.5646 32.6953 29.5742 34.0193C29.5374 35.2431 29.7946 36.4578 30.3246 37.5614C30.7987 38.4961 31.4467 39.3315 32.2339 40.0236C32.9784 40.6855 33.8059 41.2476 34.6959 41.6956C35.47 42.0798 36.2657 42.4185 37.0791 42.7096C38.1851 43.1308 39.2255 43.5654 40.213 44.0262C41.1152 44.4418 41.9288 45.0273 42.6092 45.7511C43.2471 46.4764 43.5817 47.4193 43.5441 48.3844C43.5646 49.1278 43.4019 49.8648 43.07 50.5305C42.7441 51.1158 42.2354 51.5783 41.6217 51.8472C40.8413 52.184 39.9955 52.3412 39.1464 52.308C38.1017 52.329 37.0687 52.0843 36.1444 51.5971C35.2226 51.087 34.4125 50.3976 33.7612 49.5695C32.977 48.5692 32.31 47.4825 31.7729 46.3304L28.0469 48.8452C28.6464 50.3025 29.5025 51.6404 30.5748 52.7952C31.6435 53.9473 32.9212 54.8857 34.3406 55.5604C35.1801 55.946 36.0649 56.2247 36.9739 56.3899L36.8684 60.8532H40.8184L40.7397 56.5084C41.9544 56.4068 43.1433 56.0997 44.2551 55.5999C45.6235 54.9702 46.7737 53.9484 47.5598 52.6636C48.3528 51.3218 48.7541 49.7847 48.7187 48.2264C48.7514 47.038 48.5269 45.8568 48.0604 44.7636Z" fill="white"/>
<path d="M61.1051 33.5367C70.2458 33.5367 77.6558 26.1031 77.6558 16.9334C77.6558 7.76364 70.2458 0.330078 61.1051 0.330078C51.9645 0.330078 44.5547 7.76364 44.5547 16.9334C44.5547 26.1031 51.9645 33.5367 61.1051 33.5367Z" fill="#FBD947"/>
<path d="M60.8814 0.340454C60.776 6.30501 58.9985 19.4849 45.6212 22.803C44.9149 20.9257 44.5536 18.9363 44.5547 16.9306C44.5713 16.1891 44.6416 15.4498 44.7653 14.7186C45.2089 11.3288 46.6913 8.15951 49.0088 5.64626C51.3263 3.13299 54.3654 1.3991 57.7083 0.68279C58.7516 0.461328 59.8149 0.346626 60.8814 0.340454Z" fill="#FBE481"/>
<path opacity="0.5" d="M77.3675 16.7363C77.3708 18.9132 76.9454 21.0695 76.1157 23.0821C75.2857 25.0946 74.0677 26.924 72.5308 28.4657C70.994 30.0075 69.1683 31.2315 67.1584 32.0678C65.1486 32.904 62.9937 33.3362 60.8168 33.3398C58.7998 33.3447 56.7995 32.9741 54.918 32.2468C68.7432 27.1381 71.9295 15.13 71.2316 3.83289C73.1497 5.3919 74.6958 7.35922 75.7574 9.59145C76.8187 11.8237 77.3689 14.2646 77.3675 16.7363Z" fill="#F8A547"/>
<path d="M53.483 5.17713C53.7604 4.94221 53.8711 4.61678 53.7302 4.45029C53.5893 4.2838 53.2501 4.33925 52.9724 4.57419C52.695 4.8091 52.5844 5.13454 52.7253 5.30103C52.8661 5.46752 53.2054 5.41207 53.483 5.17713Z" fill="white"/>
<path d="M50.6918 13.7986C50.652 13.7787 50.6207 13.7451 50.6038 13.7039C50.5869 13.6628 50.5853 13.6169 50.5994 13.5748L51.5343 11.3496C51.543 11.3288 51.5556 11.31 51.5717 11.2941C51.5875 11.2783 51.6065 11.2657 51.6273 11.2572C51.648 11.2486 51.6703 11.2442 51.6926 11.2443C51.7153 11.2443 51.7376 11.2488 51.7583 11.2574C51.7981 11.2773 51.8292 11.311 51.8463 11.3521C51.8632 11.3932 51.8646 11.4391 51.8504 11.4813L50.9024 13.7064C50.897 13.728 50.8869 13.7481 50.8725 13.7651C50.8583 13.7821 50.8403 13.7956 50.8199 13.8045C50.7994 13.8134 50.7774 13.8175 50.755 13.8165C50.7329 13.8155 50.7111 13.8094 50.6918 13.7986Z" fill="#3E3126"/>
<path d="M51.9418 12.7318H51.8758C51.8537 12.7248 51.8336 12.7131 51.8167 12.6975C51.7998 12.6819 51.7864 12.6627 51.7774 12.6414C51.7687 12.6201 51.7649 12.5971 51.7657 12.574C51.7668 12.551 51.7731 12.5284 51.7837 12.508L52.284 11.323C52.3014 11.2811 52.335 11.2478 52.3769 11.2305C52.4189 11.2133 52.466 11.2134 52.508 11.2308C52.5497 11.2483 52.5829 11.2817 52.6004 11.3236C52.6175 11.3656 52.6175 11.4127 52.6001 11.4547L52.0998 12.6397C52.0837 12.6675 52.0606 12.6906 52.033 12.7067C52.0053 12.7229 51.9736 12.7315 51.9418 12.7318Z" fill="#3E3126"/>
<path d="M61.1069 33.5739C57.8126 33.587 54.5885 32.6221 51.8429 30.8013C49.0973 28.9803 46.9539 26.3857 45.6843 23.3458C44.4145 20.3059 44.0756 16.9576 44.7102 13.7248C45.3448 10.4921 46.9247 7.52049 49.2496 5.18638C51.5745 2.85223 54.54 1.26062 57.77 0.613096C61.0001 -0.0344231 64.3498 0.291292 67.3949 1.54899C70.4397 2.80667 73.0428 4.93977 74.8745 7.67807C76.7061 10.4164 77.6841 13.6367 77.6841 16.9311C77.6841 21.3337 75.9396 25.5569 72.8327 28.6762C69.7258 31.7953 65.5096 33.5564 61.1069 33.5739ZM61.1069 1.61817C58.0763 1.60775 55.1106 2.49697 52.5854 4.17323C50.0602 5.84951 48.0893 8.23738 46.9223 11.0345C45.7552 13.8317 45.4443 16.9122 46.0293 19.8861C46.6141 22.86 48.0683 25.5934 50.2079 27.7402C52.3472 29.8871 55.0757 31.3506 58.0474 31.946C61.0195 32.5411 64.1011 32.2409 66.9022 31.0833C69.7034 29.9261 72.0981 27.9633 73.7829 25.444C75.4679 22.9247 76.3674 19.962 76.3674 16.9311C76.371 12.8779 74.7657 8.98896 71.9049 6.11799C69.0437 3.24699 65.1602 1.62864 61.1069 1.61817Z" fill="#F8A547"/>
<path d="M44.5559 17.2602C44.4687 17.2602 44.385 17.2255 44.3232 17.1638C44.2613 17.1021 44.2267 17.0184 44.2267 16.9311C44.2221 15.7855 44.3368 14.6426 44.5692 13.5209C44.5752 13.4777 44.5905 13.4364 44.6134 13.3994C44.6363 13.3623 44.6665 13.3305 44.7025 13.3058C44.7384 13.281 44.7788 13.264 44.8215 13.2557C44.8643 13.2474 44.9085 13.248 44.951 13.2575C44.9946 13.2653 45.0363 13.2819 45.0733 13.3062C45.1104 13.3305 45.1423 13.362 45.1668 13.3989C45.1913 13.4358 45.2082 13.4773 45.2164 13.5209C45.2246 13.5645 45.2237 13.6092 45.2142 13.6525C44.9921 14.7311 44.8818 15.8298 44.885 16.9311C44.885 17.0184 44.8504 17.1021 44.7886 17.1638C44.727 17.2255 44.6433 17.2602 44.5559 17.2602Z" fill="#3E3126"/>
<path d="M61.1088 33.8644C57.1108 33.8702 53.2409 32.4535 50.1918 29.8676C47.1429 27.2814 45.1131 23.695 44.4659 19.7497C44.4531 19.705 44.4499 19.658 44.4564 19.612C44.4629 19.566 44.4793 19.5218 44.5041 19.4825C44.5292 19.4432 44.5621 19.4096 44.6008 19.384C44.6395 19.3583 44.6834 19.3412 44.7294 19.3337C44.7752 19.3262 44.8221 19.3285 44.867 19.3405C44.912 19.3525 44.954 19.3739 44.9899 19.4032C45.0262 19.4326 45.0556 19.4692 45.0766 19.5108C45.0973 19.5523 45.1093 19.5979 45.1112 19.6443C45.7864 23.5104 47.8347 27.0027 50.8795 29.4787C53.9243 31.9548 57.761 33.2483 61.6834 33.1214C65.6059 32.9941 69.3505 31.4548 72.2288 28.7869C75.1068 26.1187 76.9246 22.5011 77.348 18.5994C77.7712 14.6978 76.7717 10.7745 74.5327 7.55113C72.2939 4.3278 68.9665 2.02126 65.1626 1.05576C61.3586 0.0902682 57.334 0.530755 53.8289 2.2962C50.3239 4.06163 47.5742 7.03332 46.0856 10.6646C46.0507 10.7452 45.9859 10.8093 45.9052 10.8436C45.8243 10.8779 45.7333 10.8798 45.651 10.8489C45.5703 10.814 45.5063 10.7494 45.472 10.6685C45.4376 10.5876 45.4357 10.4967 45.4668 10.4144C46.6497 7.59683 48.574 5.15249 51.0351 3.34142C53.4965 1.53033 56.4026 0.420215 59.4447 0.12913C62.4865 -0.161956 65.5503 0.376875 68.3104 1.68832C71.0707 2.99974 73.4236 5.03477 75.1193 7.57691C76.815 10.1191 77.79 13.0733 77.9407 16.1254C78.0911 19.1774 77.4118 22.2133 75.9744 24.91C74.537 27.6067 72.3958 29.8635 69.7783 31.4401C67.1607 33.017 64.1647 33.8546 61.1088 33.8644Z" fill="#3E3126"/>
<path d="M44.5183 18.6454C44.7071 18.6454 44.8605 18.4921 44.8605 18.303C44.8605 18.114 44.7071 17.9607 44.5183 17.9607C44.3292 17.9607 44.1758 18.114 44.1758 18.303C44.1758 18.4921 44.3292 18.6454 44.5183 18.6454Z" fill="#3E3126"/>
<path d="M61.1079 30.3641C58.4468 30.372 55.8431 29.5897 53.627 28.1168C51.4108 26.6438 49.6816 24.5462 48.6584 22.0897C47.6352 19.6332 47.3641 16.9283 47.8796 14.3176C48.3949 11.7068 49.6734 9.30783 51.5531 7.42433C53.433 5.5408 55.8295 4.25757 58.4391 3.73714C61.0488 3.21672 63.7543 3.4825 66.2127 4.50082C68.6714 5.51917 70.7723 7.24424 72.2497 9.45756C73.7269 11.6709 74.5141 14.2729 74.5116 16.9339C74.5116 20.4913 73.1004 23.9033 70.5872 26.4211C68.0743 28.9389 64.6652 30.357 61.1079 30.3641ZM61.1079 4.8205C58.7103 4.81268 56.3644 5.51647 54.3673 6.84275C52.37 8.16901 50.8113 10.0582 49.8884 12.2709C48.9655 14.4836 48.72 16.9205 49.1829 19.2728C49.6459 21.6252 50.7964 23.7873 52.4888 25.4854C54.1815 27.1834 56.3396 28.3411 58.6906 28.8117C61.0414 29.2823 63.4791 29.0447 65.6947 28.1291C67.9106 27.2133 69.8046 25.6608 71.1374 23.6679C72.4704 21.675 73.1819 19.3314 73.1819 16.9339C73.1851 13.727 71.9156 10.6499 69.6515 8.37853C67.3877 6.1072 64.3148 4.82748 61.1079 4.8205Z" fill="#F8A547"/>
<path d="M51.8496 26.6073C51.7801 26.6063 51.7139 26.5779 51.6651 26.5283C50.4024 25.2709 49.4027 23.7745 48.7244 22.1265C48.0462 20.4784 47.7032 18.7118 47.7151 16.9297C47.7214 14.1906 48.5577 11.5177 50.1139 9.26352C51.6698 7.00933 53.8726 5.2797 56.4315 4.3028C56.4645 4.29024 56.4994 4.28435 56.5345 4.28555C56.5697 4.28672 56.6043 4.2949 56.6362 4.30964C56.668 4.32436 56.6967 4.34531 56.7204 4.37128C56.7441 4.39725 56.7623 4.42768 56.774 4.46079C56.7958 4.52725 56.7918 4.59954 56.7623 4.66306C56.7329 4.7266 56.6806 4.77663 56.616 4.80312C54.5851 5.57271 52.7802 6.83989 51.3668 8.48842C49.9531 10.137 48.976 12.1141 48.5253 14.2384C48.0743 16.3628 48.1642 18.5663 48.7866 20.6469C49.4087 22.7274 50.5436 24.6185 52.0867 26.1465C52.1357 26.1979 52.163 26.2663 52.163 26.3374C52.163 26.4085 52.1357 26.4769 52.0867 26.5283C52.0567 26.5601 52.0194 26.5839 51.978 26.5977C51.9365 26.6115 51.8924 26.6148 51.8496 26.6073Z" fill="#3E3126"/>
<path d="M61.1058 30.4169C58.6597 30.4164 56.2602 29.7469 54.1669 28.4814C54.1367 28.4651 54.11 28.4425 54.0884 28.4155C54.0672 28.3882 54.0519 28.3572 54.0432 28.3237C54.0345 28.2904 54.0329 28.2555 54.0383 28.2215C54.0437 28.1874 54.056 28.155 54.0748 28.1258C54.0925 28.095 54.116 28.0681 54.1443 28.0468C54.1726 28.0253 54.2051 28.0098 54.2394 28.001C54.274 27.9926 54.3097 27.991 54.3449 27.9967C54.3797 28.0021 54.4135 28.0147 54.4435 28.0337C56.1544 29.046 58.0758 29.6507 60.0581 29.8006C62.0405 29.9504 64.0307 29.6417 65.8747 28.8981C67.7186 28.1544 69.3661 26.9962 70.6901 25.513C72.0139 24.0298 72.9782 22.2616 73.5085 20.3455C74.0385 18.4294 74.1199 16.4169 73.7469 14.4642C73.3736 12.5115 72.5553 10.671 71.3558 9.0855C70.1563 7.50002 68.6077 6.21216 66.8303 5.32185C65.0526 4.43152 63.0939 3.96268 61.1058 3.95164C60.4137 3.95085 59.7227 4.00369 59.0387 4.10966C58.9774 4.12658 58.9123 4.11971 58.8562 4.09037C58.7998 4.06105 58.757 4.01145 58.7357 3.95164C58.7303 3.91701 58.7317 3.88161 58.7398 3.84753C58.7483 3.81344 58.7633 3.78134 58.784 3.75314C58.805 3.72493 58.8311 3.70117 58.8614 3.68324C58.8913 3.66534 58.9248 3.65362 58.9597 3.6488C59.669 3.53196 60.387 3.47468 61.1058 3.47765C64.6817 3.47765 68.111 4.89813 70.6397 7.42667C73.1681 9.95518 74.5886 13.3846 74.5886 16.9604C74.5886 20.5363 73.1681 23.9657 70.6397 26.4942C68.111 29.0226 64.6817 30.4431 61.1058 30.4431V30.4169Z" fill="#3E3126"/>
<path d="M57.7485 4.4602C57.9376 4.4602 58.0907 4.30692 58.0907 4.11787C58.0907 3.92879 57.9376 3.77551 57.7485 3.77551C57.5594 3.77551 57.4062 3.92879 57.4062 4.11787C57.4062 4.30692 57.5594 4.4602 57.7485 4.4602Z" fill="#3E3126"/>
<path d="M52.9829 27.7694C53.172 27.7694 53.3254 27.6163 53.3254 27.4272C53.3254 27.2381 53.172 27.0848 52.9829 27.0848C52.794 27.0848 52.6406 27.2381 52.6406 27.4272C52.6406 27.6163 52.794 27.7694 52.9829 27.7694Z" fill="#3E3126"/>
<path d="M61.1079 30.3641C58.4468 30.372 55.8431 29.5897 53.627 28.1168C51.4108 26.6438 49.6816 24.5462 48.6584 22.0897C47.6352 19.6332 47.3641 16.9283 47.8796 14.3176C48.3949 11.7068 49.6734 9.30783 51.5531 7.42433C53.433 5.5408 55.8295 4.25757 58.4391 3.73714C61.0488 3.21672 63.7543 3.4825 66.2127 4.50082C68.6714 5.51917 70.7723 7.24424 72.2497 9.45756C73.7269 11.6709 74.5141 14.2729 74.5116 16.9339C74.5116 20.4913 73.1004 23.9033 70.5872 26.4211C68.0743 28.9389 64.6652 30.357 61.1079 30.3641ZM61.1079 4.8205C58.7103 4.81268 56.3644 5.51647 54.3673 6.84275C52.37 8.16901 50.8113 10.0582 49.8884 12.2709C48.9655 14.4836 48.72 16.9205 49.1829 19.2728C49.6459 21.6252 50.7964 23.7873 52.4888 25.4854C54.1815 27.1834 56.3396 28.3411 58.6906 28.8117C61.0414 29.2823 63.4791 29.0447 65.6947 28.1291C67.9106 27.2133 69.8046 25.6608 71.1374 23.6679C72.4704 21.675 73.1819 19.3314 73.1819 16.9339C73.1851 13.727 71.9156 10.6499 69.6515 8.37853C67.3877 6.1072 64.3148 4.82748 61.1079 4.8205Z" fill="#F8A547"/>
<path d="M51.8496 26.6073C51.7801 26.6063 51.7139 26.5779 51.6651 26.5283C50.4024 25.2709 49.4027 23.7745 48.7244 22.1265C48.0462 20.4784 47.7032 18.7118 47.7151 16.9297C47.7214 14.1906 48.5577 11.5177 50.1139 9.26352C51.6698 7.00933 53.8726 5.2797 56.4315 4.3028C56.4645 4.29024 56.4994 4.28435 56.5345 4.28555C56.5697 4.28672 56.6043 4.2949 56.6362 4.30964C56.668 4.32436 56.6967 4.34531 56.7204 4.37128C56.7441 4.39725 56.7623 4.42768 56.774 4.46079C56.7958 4.52725 56.7918 4.59954 56.7623 4.66306C56.7329 4.7266 56.6806 4.77663 56.616 4.80312C54.5851 5.57271 52.7802 6.83989 51.3668 8.48842C49.9531 10.137 48.976 12.1141 48.5253 14.2384C48.0743 16.3628 48.1642 18.5663 48.7866 20.6469C49.4087 22.7274 50.5436 24.6185 52.0867 26.1465C52.1357 26.1979 52.163 26.2663 52.163 26.3374C52.163 26.4085 52.1357 26.4769 52.0867 26.5283C52.0567 26.5601 52.0194 26.5839 51.978 26.5977C51.9365 26.6115 51.8924 26.6148 51.8496 26.6073Z" fill="#3E3126"/>
<path d="M61.1058 30.4169C58.6597 30.4164 56.2602 29.7469 54.1669 28.4814C54.1367 28.4651 54.11 28.4425 54.0884 28.4155C54.0672 28.3882 54.0519 28.3572 54.0432 28.3237C54.0345 28.2904 54.0329 28.2555 54.0383 28.2215C54.0437 28.1874 54.056 28.155 54.0748 28.1258C54.0925 28.095 54.116 28.0681 54.1443 28.0468C54.1726 28.0253 54.2051 28.0098 54.2394 28.001C54.274 27.9926 54.3097 27.991 54.3449 27.9967C54.3797 28.0021 54.4135 28.0147 54.4435 28.0337C56.1544 29.046 58.0758 29.6507 60.0581 29.8006C62.0405 29.9504 64.0307 29.6417 65.8747 28.8981C67.7186 28.1544 69.3661 26.9962 70.6901 25.513C72.0139 24.0298 72.9782 22.2616 73.5085 20.3455C74.0385 18.4294 74.1199 16.4169 73.7469 14.4642C73.3736 12.5115 72.5553 10.671 71.3558 9.0855C70.1563 7.50002 68.6077 6.21216 66.8303 5.32185C65.0526 4.43152 63.0939 3.96268 61.1058 3.95164C60.4137 3.95085 59.7227 4.00369 59.0387 4.10966C58.9774 4.12658 58.9123 4.11971 58.8562 4.09037C58.7998 4.06105 58.757 4.01145 58.7357 3.95164C58.7303 3.91701 58.7317 3.88161 58.7398 3.84753C58.7483 3.81344 58.7633 3.78134 58.784 3.75314C58.805 3.72493 58.8311 3.70117 58.8614 3.68324C58.8913 3.66534 58.9248 3.65362 58.9597 3.6488C59.669 3.53196 60.387 3.47468 61.1058 3.47765C64.6817 3.47765 68.111 4.89813 70.6397 7.42667C73.1681 9.95518 74.5886 13.3846 74.5886 16.9604C74.5886 20.5363 73.1681 23.9657 70.6397 26.4942C68.111 29.0226 64.6817 30.4431 61.1058 30.4431V30.4169Z" fill="#3E3126"/>
<path d="M57.7485 4.4602C57.9376 4.4602 58.0907 4.30692 58.0907 4.11787C58.0907 3.92879 57.9376 3.77551 57.7485 3.77551C57.5594 3.77551 57.4062 3.92879 57.4062 4.11787C57.4062 4.30692 57.5594 4.4602 57.7485 4.4602Z" fill="#3E3126"/>
<path d="M52.9829 27.7694C53.172 27.7694 53.3254 27.6163 53.3254 27.4272C53.3254 27.2381 53.172 27.0848 52.9829 27.0848C52.794 27.0848 52.6406 27.2381 52.6406 27.4272C52.6406 27.6163 52.794 27.7694 52.9829 27.7694Z" fill="#3E3126"/>
<path d="M45.2954 12.3091C45.4845 12.3091 45.6379 12.1558 45.6379 11.9667C45.6379 11.7777 45.4845 11.6244 45.2954 11.6244C45.1063 11.6244 44.9531 11.7777 44.9531 11.9667C44.9531 12.1558 45.1063 12.3091 45.2954 12.3091Z" fill="#3E3126"/>
<path d="M49.0719 9.29274C49.0155 9.30484 48.9572 9.30484 48.9008 9.29274C48.8629 9.26988 48.8302 9.23969 48.8046 9.20394C48.7787 9.16819 48.7605 9.12761 48.7507 9.08464C48.7406 9.04164 48.7395 8.99712 48.7474 8.95371C48.755 8.9103 48.7714 8.86889 48.7954 8.83191C49.6136 7.58154 50.6221 6.46651 51.7843 5.52705C51.8481 5.46591 51.9331 5.43176 52.0214 5.43176C52.1096 5.43176 52.1947 5.46591 52.2584 5.52705C52.3186 5.58858 52.3524 5.67131 52.3524 5.75747C52.3524 5.84363 52.3186 5.92636 52.2584 5.98789C51.123 6.89765 50.1444 7.98738 49.3616 9.21375C49.3221 9.24726 49.2755 9.27168 49.2256 9.28533C49.1755 9.29898 49.1232 9.30152 49.0719 9.29274Z" fill="white"/>
<path opacity="0.4" d="M66.0045 24.2899C66.1645 24.2899 66.2942 24.1602 66.2942 24.0002C66.2942 23.8402 66.1645 23.7106 66.0045 23.7106C65.8445 23.7106 65.7148 23.8402 65.7148 24.0002C65.7148 24.1602 65.8445 24.2899 66.0045 24.2899Z" fill="#F8A547"/>
<path d="M66.178 28.491C66.7377 28.491 67.1917 28.0371 67.1917 27.4771C67.1917 26.9172 66.7377 26.4633 66.178 26.4633C65.618 26.4633 65.1641 26.9172 65.1641 27.4771C65.1641 28.0371 65.618 28.491 66.178 28.491Z" fill="#F8A547"/>
<path d="M66.8618 25.6504C67.0509 25.6504 67.2043 25.4971 67.2043 25.3081C67.2043 25.119 67.0509 24.9657 66.8618 24.9657C66.6729 24.9657 66.5195 25.119 66.5195 25.3081C66.5195 25.4971 66.6729 25.6504 66.8618 25.6504Z" fill="#F8A547"/>
<path d="M63.8347 28.2687C64.0235 28.2687 64.177 28.1156 64.177 27.9265C64.177 27.7374 64.0235 27.5842 63.8347 27.5842C63.6456 27.5842 63.4922 27.7374 63.4922 27.9265C63.4922 28.1156 63.6456 28.2687 63.8347 28.2687Z" fill="#F8A547"/>
<path d="M68.7025 26.8217C68.9352 26.8217 69.1241 26.633 69.1241 26.4004C69.1241 26.1676 68.9352 25.979 68.7025 25.979C68.4698 25.979 68.2812 26.1676 68.2812 26.4004C68.2812 26.633 68.4698 26.8217 68.7025 26.8217Z" fill="#F8A547"/>
<path opacity="0.4" d="M64.0943 26.9396C64.2543 26.9396 64.384 26.8099 64.384 26.6499C64.384 26.4899 64.2543 26.3602 64.0943 26.3602C63.9344 26.3602 63.8047 26.4899 63.8047 26.6499C63.8047 26.8099 63.9344 26.9396 64.0943 26.9396Z" fill="#F8A547"/>
<path opacity="0.4" d="M64.9902 26.0962C65.1575 26.0962 65.293 25.9606 65.293 25.7933C65.293 25.6261 65.1575 25.4905 64.9902 25.4905C64.8229 25.4905 64.6875 25.6261 64.6875 25.7933C64.6875 25.9606 64.8229 26.0962 64.9902 26.0962Z" fill="#F8A547"/>
<path opacity="0.4" d="M64.9506 24.6631C65.016 24.6631 65.0691 24.6101 65.0691 24.5447C65.0691 24.4792 65.016 24.4261 64.9506 24.4261C64.8852 24.4261 64.832 24.4792 64.832 24.5447C64.832 24.6101 64.8852 24.6631 64.9506 24.6631Z" fill="#F8A547"/>
<path d="M65.3596 32.2985C65.694 32.2985 65.9651 32.0271 65.9651 31.6928C65.9651 31.3582 65.694 31.087 65.3596 31.087C65.025 31.087 64.7539 31.3582 64.7539 31.6928C64.7539 32.0271 65.025 32.2985 65.3596 32.2985Z" fill="#F8A547"/>
<path d="M65.7796 30.8647C65.8886 30.8647 65.9771 30.7764 65.9771 30.6672C65.9771 30.5582 65.8886 30.4696 65.7796 30.4696C65.6706 30.4696 65.582 30.5582 65.582 30.6672C65.582 30.7764 65.6706 30.8647 65.7796 30.8647Z" fill="#F8A547"/>
<path d="M63.9788 32.4175C64.0878 32.4175 64.1764 32.3293 64.1764 32.22C64.1764 32.111 64.0878 32.0227 63.9788 32.0227C63.8698 32.0227 63.7812 32.111 63.7812 32.22C63.7812 32.3293 63.8698 32.4175 63.9788 32.4175Z" fill="#F8A547"/>
<path d="M66.8751 31.5461C67.0133 31.5461 67.1253 31.4341 67.1253 31.2959C67.1253 31.1578 67.0133 31.0458 66.8751 31.0458C66.737 31.0458 66.625 31.1578 66.625 31.2959C66.625 31.4341 66.737 31.5461 66.8751 31.5461Z" fill="#F8A547"/>
<path opacity="0.4" d="M64.136 31.6242C64.2305 31.6242 64.3071 31.5477 64.3071 31.4531C64.3071 31.3586 64.2305 31.282 64.136 31.282C64.0414 31.282 63.9648 31.3586 63.9648 31.4531C63.9648 31.5477 64.0414 31.6242 64.136 31.6242Z" fill="#F8A547"/>
<path opacity="0.4" d="M64.661 31.1259C64.7627 31.1259 64.8452 31.0433 64.8452 30.9417C64.8452 30.8398 64.7627 30.7572 64.661 30.7572C64.5591 30.7572 64.4766 30.8398 64.4766 30.9417C64.4766 31.0433 64.5591 31.1259 64.661 31.1259Z" fill="#F8A547"/>
<path opacity="0.4" d="M64.6477 30.2564C64.6842 30.2564 64.7136 30.2269 64.7136 30.1904C64.7136 30.1542 64.6842 30.1248 64.6477 30.1248C64.6115 30.1248 64.582 30.1542 64.582 30.1904C64.582 30.2269 64.6115 30.2564 64.6477 30.2564Z" fill="#F8A547"/>
<path d="M61.7398 29.3858C61.9433 29.3858 62.1084 29.2207 62.1084 29.0171C62.1084 28.8136 61.9433 28.6484 61.7398 28.6484C61.5362 28.6484 61.3711 28.8136 61.3711 29.0171C61.3711 29.2207 61.5362 29.3858 61.7398 29.3858Z" fill="#F8A547"/>
<path d="M55.5322 9.76129C56.1358 8.8966 56.151 7.86504 55.5668 7.4572C54.9823 7.04937 54.0193 7.41971 53.416 8.28437C52.8125 9.14906 52.7972 10.1806 53.3814 10.5885C53.9659 10.9963 54.9289 10.626 55.5322 9.76129Z" fill="#FFEFAE"/>
<path d="M65.1371 18.4354C64.9602 18.0298 64.7052 17.6629 64.3866 17.3558C64.0754 17.0596 63.7256 16.8071 63.3465 16.6052C62.9879 16.4042 62.6135 16.2325 62.2271 16.0918C61.7269 15.8942 61.253 15.7099 60.8053 15.5124C60.4045 15.3483 60.035 15.1167 59.7123 14.8277C59.5758 14.6978 59.4685 14.5401 59.3982 14.3652C59.3276 14.1903 59.2957 14.0023 59.3042 13.8139C59.2982 13.5308 59.3616 13.2506 59.4886 12.9976C59.6292 12.7702 59.8361 12.5911 60.081 12.4841C60.4118 12.353 60.7655 12.2903 61.1211 12.2997C61.4961 12.2874 61.8664 12.3834 62.1876 12.5762C62.4925 12.7625 62.7604 13.0035 62.9779 13.2872C63.2054 13.5953 63.4078 13.9211 63.5833 14.2616L65.2687 13.1687C65.0509 12.6895 64.7624 12.2457 64.4131 11.8521C64.0234 11.4264 63.5533 11.0819 63.0304 10.8382C62.6874 10.6849 62.3236 10.5828 61.9508 10.5354V8.50769H60.2786V10.5222C59.8238 10.5784 59.3799 10.7026 58.9619 10.8909C58.394 11.1513 57.9041 11.5552 57.5398 12.0627C57.1973 12.5274 57.0169 13.0918 57.0264 13.6691C57.0082 14.2018 57.1212 14.7308 57.3556 15.2096C57.5605 15.6192 57.842 15.9857 58.185 16.2893C58.5096 16.5795 58.8731 16.8232 59.2646 17.0134C59.602 17.1838 59.9494 17.3333 60.305 17.4611C60.7789 17.6454 61.2396 17.8298 61.6217 18.0404C62.0179 18.2203 62.3757 18.4751 62.6748 18.7909C62.9533 19.106 63.0997 19.5163 63.083 19.9365C63.0958 20.2611 63.0234 20.5835 62.8724 20.8713C62.7345 21.1344 62.5119 21.3432 62.2405 21.4638C61.8991 21.6071 61.5307 21.6745 61.1606 21.6613C60.7037 21.6692 60.2516 21.5652 59.844 21.3585C59.4409 21.1324 59.0875 20.828 58.8039 20.4631C58.4578 20.0308 58.166 19.5576 57.9349 19.0543L56.2891 20.1208C56.5436 20.7653 56.9191 21.3552 57.3951 21.8588C57.8605 22.3649 58.4194 22.7763 59.0409 23.0702C59.4088 23.2417 59.7987 23.3614 60.1996 23.4257V25.3612H61.898V23.4652C62.4307 23.4246 62.9522 23.2909 63.4386 23.0702C64.0392 22.7816 64.5425 22.324 64.8869 21.7535C65.2275 21.1662 65.4005 20.4967 65.3872 19.818C65.3997 19.3448 65.3144 18.8742 65.1371 18.4354Z" fill="white"/>
</g>
</svg>
