<svg width="305" height="305" viewBox="0 0 305 305" fill="none" xmlns="http://www.w3.org/2000/svg">
<path d="M99.4527 192.978C99.4527 192.978 84.377 197.989 82.3945 223.217C88.3826 223.421 94.3165 222.023 99.5828 219.164C104.849 216.308 109.257 212.096 112.35 206.964" fill="#FED55C"/>
<path d="M99.4527 192.978C99.4527 192.978 84.377 197.989 82.3945 223.217C88.3826 223.421 94.3165 222.023 99.5828 219.164C104.849 216.308 109.257 212.096 112.35 206.964" stroke="black" stroke-width="2" stroke-linecap="round" stroke-linejoin="round"/>
<path d="M102.903 180.792L99.6133 185.956L118.305 206.282L123.861 204.125" fill="white"/>
<path d="M102.903 180.792L99.6133 185.956L118.305 206.282L123.861 204.125" stroke="black" stroke-width="2" stroke-linecap="round" stroke-linejoin="round"/>
<path d="M144.84 200.749C144.84 200.749 165.819 221.837 164.904 265.038C164.904 265.038 212.833 236.194 192.572 170.096" fill="#EC5F32"/>
<path d="M144.84 200.749C144.84 200.749 165.819 221.837 164.904 265.038C164.904 265.038 212.833 236.194 192.572 170.096" stroke="black" stroke-width="2" stroke-linecap="round" stroke-linejoin="round"/>
<path d="M106.476 162.275C106.476 162.275 86.5416 140.119 44.8438 140.162C44.8438 140.162 73.7316 91.2536 137.15 113.54" fill="#EC5F32"/>
<path d="M106.476 162.275C106.476 162.275 86.5416 140.119 44.8438 140.162C44.8438 140.162 73.7316 91.2536 137.15 113.54" stroke="black" stroke-width="2" stroke-linecap="round" stroke-linejoin="round"/>
<path d="M126.476 207.023C126.476 207.023 158.349 210.487 211.44 155.282C274.161 89.9247 273.965 43.5211 258.737 35.8307C243.509 28.1404 214.49 33.8482 161.442 83.4107C106.39 134.803 99.6797 177.089 99.6797 177.089L126.476 207.023Z" fill="white" stroke="black" stroke-width="2" stroke-linecap="round" stroke-linejoin="round"/>
<path d="M202.268 123.845C213.518 123.845 222.638 114.413 222.638 102.778C222.638 91.1433 213.518 81.7114 202.268 81.7114C191.018 81.7114 181.898 91.1433 181.898 102.778C181.898 114.413 191.018 123.845 202.268 123.845Z" fill="#513AFD"/>
<path d="M202.266 130.599C217.114 130.599 229.15 118.143 229.15 102.778C229.15 87.4135 217.114 74.958 202.266 74.958C187.419 74.958 175.383 87.4135 175.383 102.778C175.383 118.143 187.419 130.599 202.266 130.599Z" stroke="black" stroke-width="2" stroke-linecap="round" stroke-linejoin="round"/>
<path d="M101.027 203.886C101.027 203.886 133.924 140.925 164.663 132.429L170.132 137.679C170.132 137.679 155.121 179.181 101.027 203.886Z" fill="#EC5F32" stroke="black" stroke-width="2" stroke-linecap="round" stroke-linejoin="round"/>
<path d="M210.176 45.6777L255.948 92.1684" stroke="black" stroke-width="2" stroke-linecap="round" stroke-linejoin="round"/>
<path d="M202.965 49.8389L252.789 100.948" stroke="black" stroke-width="2" stroke-linecap="round" stroke-linejoin="round"/>
<path d="M202.268 121.667C212.351 121.667 220.525 113.21 220.525 102.778C220.525 92.3467 212.351 83.8901 202.268 83.8901C192.186 83.8901 184.012 92.3467 184.012 102.778C184.012 113.21 192.186 121.667 202.268 121.667Z" stroke="black" stroke-width="2" stroke-linecap="round" stroke-linejoin="round"/>
<path d="M109.484 231.161L77.7422 259.504" stroke="black" stroke-width="2" stroke-linecap="round" stroke-linejoin="round"/>
<path d="M130.44 225.301L99.3086 253.644" stroke="black" stroke-width="2" stroke-linecap="round" stroke-linejoin="round"/>
<path d="M148.558 45.9683L117.426 74.3115" stroke="black" stroke-width="2" stroke-linecap="round" stroke-linejoin="round"/>
<path d="M157.71 52.0674L126.578 80.4106" stroke="black" stroke-width="2" stroke-linecap="round" stroke-linejoin="round"/>
</svg>
