<svg width="137" height="137" viewBox="0 0 137 137" fill="none" xmlns="http://www.w3.org/2000/svg">
<path d="M59.0603 63.4373C59.0603 63.4373 45.5823 80.3293 45.9484 91.0151C46.3146 101.701 54.6205 108.158 72.8696 102.059C91.1188 95.9591 99.9912 88.3819 99.0049 78.8371C98.0185 69.2923 74.44 60.4572 72.3939 58.6908" stroke="black" stroke-width="1.42857" stroke-linecap="round" stroke-linejoin="round"/>
<path d="M74.5678 59.9229C74.5678 59.9229 82.6659 51.1417 70.2068 50.0582C57.7477 48.9747 48.8674 58.3361 50.866 63.9346C52.2357 67.7572 56.7514 66.5419 56.7514 66.5419" stroke="black" stroke-width="1.42857" stroke-linecap="round" stroke-linejoin="round"/>
<path d="M53.3361 49.146C53.3361 49.146 55.2529 50.6024 55.7924 48.06C56.332 45.5177 50.3628 38.7458 56.2032 36.1639C62.0437 33.5819 68.7642 33.4146 69.1142 36.8211C69.4643 40.2275 68.9931 42.3414 71.2816 41.4234C73.5702 40.5054 75.5486 43.0905 74.6873 45.8766C74.2131 47.4884 73.4776 49.0114 72.5099 50.3848" stroke="black" stroke-width="1.42857" stroke-linecap="round" stroke-linejoin="round"/>
<path d="M53.0957 56.4835C53.0957 56.4835 45.3808 51.9282 47.1019 49.2851C48.8231 46.6421 55.1725 45.2643 55.1725 45.2643" stroke="black" stroke-width="1.42857" stroke-linecap="round" stroke-linejoin="round"/>
<path d="M54.8743 63.1782C54.8743 63.1782 53.6383 59.234 60.2644 55.7971C69.2834 51.1305 72.2759 55.126 72.9455 56.8527" stroke="black" stroke-width="1.42857" stroke-linecap="round" stroke-linejoin="round"/>
<path d="M67.2871 76.466L60.3476 81.049L62.9012 71.509L64.6648 65.7468L67.2871 76.466Z" fill="#FF5E8D" stroke="black" stroke-width="1.42857" stroke-linecap="round" stroke-linejoin="round"/>
<path d="M71.624 88.6609L78.0932 82.0601L75.2625 92.3864L74.1525 96.2353L71.624 88.6609Z" fill="#FF5E8D" stroke="black" stroke-width="1.42857" stroke-linecap="round" stroke-linejoin="round"/>
<path d="M71.2021 88.9255L74.1609 96.3956L65.6186 89.9335L62.457 87.481L71.2021 88.9255Z" fill="#274AF2" stroke="black" stroke-width="1.42857" stroke-linecap="round" stroke-linejoin="round"/>
<path d="M67.2855 76.4661L64.8743 66.4188L72.7155 72.4255L76.0309 75.9503L67.2855 76.4661Z" fill="#274AF2" stroke="black" stroke-width="1.42857" stroke-linecap="round" stroke-linejoin="round"/>
<path d="M70.034 83.3025L60.3454 81.0489L67.285 76.466L76.0303 75.9502L70.034 83.3025Z" fill="#FED55C" stroke="black" stroke-width="1.42857" stroke-linecap="round" stroke-linejoin="round"/>
<path d="M61.5625 87.0485L71.4369 88.8216L78.4206 81.353L74.1521 96.2354L61.5625 87.0485Z" stroke="black" stroke-width="1.42857" stroke-linecap="round" stroke-linejoin="round"/>
<path d="M71.4352 88.8216L74.1504 96.2354" stroke="black" stroke-width="1.42857" stroke-linecap="round" stroke-linejoin="round"/>
<path d="M60.3476 81.049L64.6648 65.7468L76.0325 75.9502L70.0361 83.3026L60.3476 81.049Z" stroke="black" stroke-width="1.42857" stroke-linecap="round" stroke-linejoin="round"/>
<path d="M76.0303 75.9502L67.285 76.466L60.3454 81.0489" stroke="black" stroke-width="1.42857" stroke-linecap="round" stroke-linejoin="round"/>
<path d="M67.2873 76.466L64.665 65.7467" stroke="black" stroke-width="1.42857" stroke-linecap="round" stroke-linejoin="round"/>
<path d="M30.5211 45.3727C30.5211 45.3727 31.3844 55.5965 35.3569 53.7484C39.3293 51.9003 34.177 46.8333 28.4412 50.813" stroke="black" stroke-width="1.42857" stroke-linecap="round" stroke-linejoin="round"/>
<path d="M88.386 41.8109C88.386 41.8109 78.3455 38.4774 78.7681 42.8523C79.0348 45.6428 85.5447 44.5896 84.2489 37.7167" stroke="black" stroke-width="1.42857" stroke-linecap="round" stroke-linejoin="round"/>
</svg>
