<svg xmlns="http://www.w3.org/2000/svg" viewBox="0 0 1357.28 301.12"><defs><style>.cls-1{fill:none;}.cls-2{fill:#111827;}.cls-3{fill:#fff;}.cls-4{fill:#231f20;}.cls-5{fill:#2563eb;}</style></defs><g id="Layer_2" data-name="Layer 2"><g id="Layer_1-2" data-name="Layer 1"><rect class="cls-1" width="1357.28" height="301.12"/><path class="cls-2" d="M379.11,96.89h20.46V201.45H379.11V158.13H340.27v43.32H319.66V96.89h20.61v41.53h38.84Z"/><path class="cls-2" d="M460.47,126.77h19.26v74.68H460.47v-8.37q-7,10.47-22.26,10.46-12.25,0-20.24-8.21t-8-22.71V126.77h19.27v43.46q0,7.47,4,11.43t10.76,4q7.45,0,11.95-4.63t4.48-13.89Z"/><path class="cls-2" d="M551.24,126.77h18.82v71.09q0,17.32-11.43,26.44t-27.56,9.11a46.63,46.63,0,0,1-21.28-4.63,32.3,32.3,0,0,1-14.12-13.59l5.24-3a17.1,17.1,0,0,1,17.73.74q5.22,3.3,13,3.31,9.11,0,14.34-4.78t5.23-13.6V189.8q-8.52,11.35-23.9,11.35A35.24,35.24,0,0,1,500.83,190a39.55,39.55,0,0,1,.07-54.14,35.2,35.2,0,0,1,26.44-11.2q15.38,0,23.9,11.35Zm-35.92,50.86q5.89,5.75,15,5.75a20.65,20.65,0,0,0,15-5.75,19.69,19.69,0,0,0,5.9-14.72,19.48,19.48,0,0,0-5.9-14.56,20.65,20.65,0,0,0-15-5.75q-9.12,0-15,5.75a19.44,19.44,0,0,0-5.9,14.56A19.65,19.65,0,0,0,515.32,177.63Z"/><path class="cls-2" d="M641.56,126.77h18.82v71.09q0,17.32-11.43,26.44t-27.55,9.11a46.67,46.67,0,0,1-21.29-4.63A32.28,32.28,0,0,1,586,215.19l5.23-3a17.11,17.11,0,0,1,17.74.74c3.47,2.2,7.82,3.31,13,3.31q9.12,0,14.34-4.78t5.23-13.6V189.8q-8.5,11.35-23.9,11.35A35.26,35.26,0,0,1,591.15,190a39.54,39.54,0,0,1,.08-54.14,35.18,35.18,0,0,1,26.43-11.2q15.39,0,23.9,11.35Zm-35.92,50.86q5.9,5.75,15,5.75t15-5.75a19.69,19.69,0,0,0,5.9-14.72,19.48,19.48,0,0,0-5.9-14.56q-5.89-5.74-15-5.75t-15,5.75a19.44,19.44,0,0,0-5.9,14.56A19.65,19.65,0,0,0,605.64,177.63Z"/><path class="cls-2" d="M742,124.68q12.24,0,20.24,8.21t8,22.7v45.86H751V158q0-7.46-4-11.42t-10.76-4q-7.47,0-11.95,4.63t-4.48,13.89v40.33H700.47V126.77h19.27v8.36Q726.76,124.68,742,124.68Z"/><path class="cls-2" d="M841.73,126.77h18.82v71.09q0,17.32-11.42,26.44t-27.56,9.11a46.67,46.67,0,0,1-21.29-4.63,32.28,32.28,0,0,1-14.11-13.59l5.24-3a17.1,17.1,0,0,1,17.73.74q5.21,3.3,13,3.31,9.11,0,14.33-4.78t5.23-13.6V189.8q-8.51,11.35-23.9,11.35A35.26,35.26,0,0,1,791.32,190a39.54,39.54,0,0,1,.08-54.14,35.2,35.2,0,0,1,26.43-11.2q15.39,0,23.9,11.35Zm-35.92,50.86q5.9,5.75,15,5.75t15-5.75a19.69,19.69,0,0,0,5.9-14.72,19.48,19.48,0,0,0-5.9-14.56q-5.9-5.74-15-5.75t-15,5.75a19.44,19.44,0,0,0-5.9,14.56A19.65,19.65,0,0,0,805.81,177.63Z"/><path class="cls-2" d="M947.89,96.89v19.72H919.66v84.84H899.05V116.61H871V96.89Z"/><path class="cls-2" d="M977.57,139.61a20.1,20.1,0,0,1,8.88-10.75,27.13,27.13,0,0,1,13.82-3.59v21.51a22.72,22.72,0,0,0-15.76,3.59q-6.94,4.62-6.94,15.38v35.7H958.3V126.77h19.27Z"/><path class="cls-2" d="M1061.42,126.77h19.27v74.68h-19.27v-8.81q-8.67,10.91-24.35,10.9-14.93,0-25.61-11.43t-10.68-28q0-16.59,10.68-28t25.61-11.42q15.69,0,24.35,10.9Zm-35.55,52.5a19.91,19.91,0,0,0,14.79,5.9,20.18,20.18,0,0,0,14.86-5.9q5.89-5.9,5.9-15.16t-5.9-15.16a20.14,20.14,0,0,0-14.86-5.9,19.87,19.87,0,0,0-14.79,5.9q-5.82,5.9-5.82,15.16T1025.87,179.27Z"/><path class="cls-2" d="M1151.74,96.89h2.61A16.66,16.66,0,0,1,1171,113.55v87.9h-19.27v-8.81q-8.51,10.91-24.19,10.9-15.09,0-25.77-11.43t-10.68-28q0-16.59,10.68-28t25.77-11.42q15.67,0,24.19,10.9Zm-35.47,82.38a20.16,20.16,0,0,0,14.86,5.9,19.92,19.92,0,0,0,14.79-5.9q5.82-5.9,5.82-15.16T1145.92,149a19.88,19.88,0,0,0-14.79-5.9,20.12,20.12,0,0,0-14.86,5.9q-5.91,5.9-5.9,15.16T1116.27,179.27Z"/><path class="cls-2" d="M1201.59,172q3.89,14.05,21.06,14a22.76,22.76,0,0,0,10.79-2.39,16.25,16.25,0,0,1,15.65.53l5.82,3.36q-11.06,16-32.56,16-18.52,0-29.72-11.2t-11.21-28.23q0-16.87,11.06-28.16t28.38-11.27q16.42,0,27.11,11.35t10.68,28.08a44.78,44.78,0,0,1-.75,7.91Zm-.3-14.93h38.09q-1.65-7.62-6.8-11.35a19.46,19.46,0,0,0-11.72-3.74q-7.77,0-12.85,4A18.88,18.88,0,0,0,1201.29,157.09Z"/><rect class="cls-2" x="670.79" y="126.77" width="19.27" height="74.68"/><path class="cls-2" d="M670.79,103.49h17.52a1.75,1.75,0,0,1,1.75,1.75v13a0,0,0,0,1,0,0H670.79a0,0,0,0,1,0,0V103.49A0,0,0,0,1,670.79,103.49Z"/><path class="cls-3" d="M265.21,90.14v1c0-.65,0-1,0-1Z"/><path class="cls-4" d="M265.16,90.14s0,.4,0,1v-1Z"/><path class="cls-2" d="M265.38,90.14h-.05s0,.4.05,1v7.28c-.32,8.87-1.94,23.33-8.4,35.72a46.33,46.33,0,0,1-8.65,11.88c-9.48,9.26-22.85,13.1-39.73,11.4a104.15,104.15,0,0,1-47-17.07,6.65,6.65,0,0,0-8.75,1.17l-1.47,1.7c.9.78,22.46,19.15,56.41,22.56,2.89.29,5.71.44,8.43.44,15.61,0,28.38-4.77,38-14.22.59-.57,1.15-1.15,1.7-1.74a57.08,57.08,0,0,0,9.46-14.09v5.41c0,19.61-13,37.51-33.82,46.73a73.51,73.51,0,0,1-29.4,6.06c-15.25,0-32.13-4.6-48.15-16.65v41.88c0,15-11.76,27.74-26.78,28.18A27.63,27.63,0,0,1,98.8,220.24V161.47A50.41,50.41,0,0,1,114.26,125a49.36,49.36,0,0,1,36.2-14c.5,0,1,0,1.49.07,12.29.68,23.55,5.33,33.48,9.43,9,3.73,17.07,7,24.74,7.31,12.53,1.69,24.29-5.61,24.29-5.61l-.68-1.11-.57-.92a6.7,6.7,0,0,0-8.1-2.71,37.21,37.21,0,0,1-6.54,1.84,21.05,21.05,0,0,1-8.4,0V81.47c0-15,11.75-27.73,26.76-28.18a27.62,27.62,0,0,1,28.45,27.59Z"/><path class="cls-5" d="M265.21,178.82v41.42a27.61,27.61,0,0,1-55.21,0V206.76l3.65-.48c17-2.26,32.8-9.61,44.47-20.71Z"/><path class="cls-5" d="M153.84,80.88V97.62l-4.31-.11c-15.62-.41-31.16,6-43.81,18l-7.09,6.75V80.88a27.61,27.61,0,1,1,55.21,0Z"/></g></g></svg>