<svg width="90" height="72" viewBox="0 0 90 72" fill="none" xmlns="http://www.w3.org/2000/svg">
<path d="M53.9636 1.70077L25.5565 5.21253C22.4252 5.59964 20.2002 8.45457 20.5869 11.5892L27.2756 65.808C27.6623 68.9427 30.5142 71.17 33.6456 70.7829L62.0527 67.2711C65.184 66.884 67.409 64.0291 67.0223 60.8944L60.3336 6.67561C59.9469 3.54098 57.095 1.31367 53.9636 1.70077Z" fill="#4966FF" stroke="#161616" stroke-width="2" stroke-linecap="round" stroke-linejoin="round"/>
<path d="M59.6837 7.22735L21.3438 11.967L27.8758 64.9164L66.2158 60.1767L59.6837 7.22735Z" fill="white"/>
<path d="M20.7188 12.5982C34.1081 10.2079 47.3603 8.54235 60.4651 7.68286" stroke="#161616" stroke-width="2" stroke-linecap="round" stroke-linejoin="round"/>
<path d="M27.1445 64.6835C40.4958 63.8749 53.7454 62.2373 66.8909 59.7682" stroke="#161616" stroke-width="2" stroke-linecap="round" stroke-linejoin="round"/>
<path d="M45.5703 50.4942C41.8845 41.2687 38.6889 38.4945 29.8008 36.6713C37.9777 32.7375 40.401 29.269 41.7346 19.4231C45.423 28.6486 48.616 31.4228 57.5041 33.246C49.3272 37.1798 46.9039 40.6483 45.5703 50.4942Z" fill="#FFE600"/>
<path d="M42.0778 22.1974C43.4647 25.2743 44.9863 27.7586 47.0642 29.6098C49.3021 31.6034 52.0049 32.7121 55.2563 33.5233C52.2995 35.0999 49.9473 36.8341 48.2606 39.3134C46.6959 41.6146 45.822 44.394 45.2251 47.7175C43.8381 44.6406 42.3166 42.1563 40.2387 40.3051C38.0008 38.3115 35.298 37.2028 32.0466 36.3916C35.0034 34.8151 37.3556 33.0808 39.0423 30.6015C40.607 28.3003 41.4809 25.5209 42.0778 22.1974ZM41.5977 17.8059C41.3742 17.8059 41.1532 17.9534 41.1201 18.228C39.8094 28.9716 37.6223 32.1756 28.8459 36.2797C28.3785 36.4984 28.4649 37.185 28.9704 37.2842C38.4809 39.1277 41.3818 41.7036 45.2657 51.8039C45.347 52.0124 45.5274 52.1115 45.7077 52.1115C45.9313 52.1115 46.1523 51.9641 46.1853 51.6894C47.496 40.9459 49.6831 37.7419 58.4595 33.6377C58.9269 33.419 58.8405 32.7325 58.335 32.6333C48.8245 30.7897 45.9236 28.2138 42.0397 18.1136C41.9584 17.9051 41.778 17.8059 41.5977 17.8059Z" fill="#161616"/>
<path d="M2.84766 21.0685L18.6146 30.1515" stroke="#161616" stroke-width="2" stroke-linecap="round" stroke-linejoin="round"/>
<path d="M1 40.4299L18.6162 38.21" stroke="#161616" stroke-width="2" stroke-linecap="round" stroke-linejoin="round"/>
<path d="M5.73438 58.0492L18.6182 46.7971" stroke="#161616" stroke-width="2" stroke-linecap="round" stroke-linejoin="round"/>
<path d="M69.0352 25.61L83.2323 14.8639" stroke="#161616" stroke-width="2" stroke-linecap="round" stroke-linejoin="round"/>
<path d="M69.7734 34.2124L89.0002 31.4" stroke="#161616" stroke-width="2" stroke-linecap="round" stroke-linejoin="round"/>
<path d="M70.5117 41.6149L88.26 48.1297" stroke="#161616" stroke-width="2" stroke-linecap="round" stroke-linejoin="round"/>
</svg>
