<svg width="1440" height="416" viewBox="0 0 1440 416" fill="none" xmlns="http://www.w3.org/2000/svg">
<g clip-path="url(#clip0_478_24457)">
<g opacity="0.3">
<path fill-rule="evenodd" clip-rule="evenodd" d="M1050.54 373.04C1050.58 372.948 1050.59 372.85 1050.59 372.752C1050.58 372.654 1050.55 372.558 1050.51 372.471C1050.46 372.384 1050.4 372.308 1050.32 372.247C1050.24 372.187 1050.15 372.144 1050.06 372.121C1049.96 372.098 1049.86 372.095 1049.77 372.114C1049.67 372.132 1049.58 372.171 1049.5 372.228C1049.42 372.285 1049.35 372.358 1049.3 372.443C1049.25 372.528 1049.22 372.622 1049.21 372.72C1047.96 377.92 1044.54 381.58 1041.38 383.96C1040.06 384.944 1038.67 385.813 1037.2 386.56C1036.65 386.838 1036.1 387.095 1035.53 387.33L1035.44 387.37H1035.42C1035.26 387.433 1035.13 387.553 1035.06 387.707C1034.98 387.861 1034.96 388.038 1035.01 388.203C1035.06 388.367 1035.17 388.509 1035.31 388.599C1035.46 388.689 1035.63 388.721 1035.8 388.69C1035.93 388.65 1036.07 388.6 1036.2 388.54L1036.43 388.44C1036.77 388.3 1037.24 388.083 1037.83 387.79C1039.36 387.004 1040.83 386.087 1042.2 385.05C1045.5 382.57 1049.2 378.65 1050.54 373.05" fill="#111827"/>
<path fill-rule="evenodd" clip-rule="evenodd" d="M1029.93 389.8C1028.23 387.97 1028.2 385.12 1029.2 382.18C1030.23 379.18 1032.4 375.89 1035.44 372.99C1038.48 370.09 1041.87 368.08 1044.92 367.19C1047.92 366.32 1050.8 366.5 1052.55 368.33L1052.59 368.38L1058.59 373.96L1058.62 373.98C1060.51 375.91 1060.57 378.78 1059.51 381.74C1058.44 384.72 1056.2 387.95 1053.16 390.84C1050.13 393.74 1046.89 395.7 1043.92 396.56C1040.95 397.42 1038.15 397.2 1036.12 395.56L1036.09 395.53L1030.34 390.2L1030.04 389.93L1030.01 389.89L1029.93 389.8ZM1030.97 388.91C1029.77 387.64 1029.55 385.41 1030.5 382.63C1031.44 379.88 1033.47 376.77 1036.39 373.98C1039.3 371.2 1042.5 369.32 1045.29 368.51C1048.08 367.7 1050.28 368.01 1051.5 369.22L1051.58 369.32L1051.61 369.34C1052.77 370.62 1052.96 372.82 1052.02 375.56L1051.83 376.09L1051.78 376.21C1051.17 377.698 1050.39 379.109 1049.45 380.41C1048.47 381.777 1047.36 383.049 1046.14 384.21C1044.97 385.328 1043.7 386.339 1042.35 387.23L1042.23 387.3C1040.8 388.242 1039.27 388.999 1037.65 389.55L1037.23 389.68C1034.59 390.44 1032.49 390.22 1031.23 389.16L1031 388.94L1030.97 388.91ZM1050.87 380.76C1051.57 379.743 1052.18 378.669 1052.7 377.55L1057.86 382.17C1057.33 383.364 1056.68 384.502 1055.93 385.57L1050.87 380.76ZM1053.25 376.2L1058.38 380.8C1059.17 378.28 1058.91 376.25 1057.65 374.95L1053.95 371.51C1054.1 372.89 1053.85 374.44 1053.32 376.01L1053.25 376.2ZM1050.07 381.88C1049.3 382.878 1048.47 383.824 1047.58 384.71L1052.46 389.61C1053.41 388.693 1054.29 387.714 1055.11 386.68L1050.07 381.88ZM1042.57 388.72C1041.45 389.417 1040.27 390.013 1039.05 390.5L1043.69 395.2C1044.84 394.86 1046.02 394.337 1047.24 393.63L1042.57 388.72ZM1048.43 392.89C1049.49 392.183 1050.51 391.401 1051.46 390.55L1046.59 385.65C1045.69 386.478 1044.73 387.247 1043.73 387.95L1048.43 392.89ZM1037.61 390.99L1042.12 395.57C1040.04 395.9 1038.28 395.53 1037.01 394.51L1033.74 391.48C1034.94 391.56 1036.26 391.38 1037.61 390.99Z" fill="#111827"/>
</g>
<g opacity="0.3" filter="url(#filter0_f_478_24457)">
<path fill-rule="evenodd" clip-rule="evenodd" d="M1320.8 327.51C1320.16 327.623 1319.49 327.543 1318.9 327.28C1319.2 327.71 1319.48 328.33 1319.49 329.1C1319.49 330.03 1319.1 331.18 1317.85 332.48C1315.98 334.41 1313.03 333.05 1312.01 332.48L1311.66 332.28L1311.02 333.35L1308.74 332L1309.67 330.44C1309.67 330.44 1308.58 329.4 1308.34 329.25C1308.26 329.21 1308.09 329.32 1307.91 329.49C1307.54 329.83 1307.11 330.39 1307.11 330.39L1305.5 328.94L1306.35 327.5L1304.8 325.94L1306.53 323.97L1307.72 325.25L1315.33 316.5L1314.02 315.72L1315.83 313.72L1317.32 315.02L1318.33 313.68L1320.34 315.38L1319.29 316.75L1320.84 318.09L1321.84 316.75L1323.94 318.54L1322.94 320.04C1324.19 320.95 1325.2 323.9 1323.13 326.14C1322.53 326.853 1321.71 327.338 1320.8 327.51ZM1321.09 329.09L1321.07 329.45C1320.99 330.8 1320.34 332.2 1319 333.59C1317.24 335.4 1314.94 335.21 1313.47 334.8C1313.05 334.686 1312.65 334.546 1312.25 334.38C1312.02 334.64 1311.74 334.813 1311.42 334.9C1310.98 335 1310.58 334.943 1310.2 334.73L1307.93 333.38C1307.75 333.273 1307.59 333.132 1307.46 332.964C1307.33 332.796 1307.24 332.604 1307.19 332.4C1307.16 332.262 1307.14 332.121 1307.14 331.98C1306.73 331.99 1306.34 331.848 1306.04 331.58L1304.43 330.13C1304.15 329.883 1303.97 329.55 1303.92 329.185C1303.86 328.821 1303.93 328.448 1304.12 328.13L1304.34 327.75L1303.67 327.06C1303.38 326.773 1303.22 326.388 1303.2 325.984C1303.19 325.579 1303.33 325.185 1303.6 324.88L1305.33 322.92C1305.47 322.754 1305.65 322.62 1305.85 322.526C1306.05 322.433 1306.27 322.381 1306.49 322.376C1306.71 322.37 1306.93 322.41 1307.13 322.494C1307.34 322.577 1307.52 322.702 1307.68 322.86L1312.9 316.86C1312.65 316.619 1312.48 316.303 1312.43 315.96C1312.36 315.48 1312.51 315 1312.83 314.64L1314.64 312.64C1314.92 312.329 1315.31 312.141 1315.73 312.117C1316.15 312.092 1316.56 312.234 1316.88 312.51L1317.08 312.68C1317.21 312.514 1317.38 312.376 1317.57 312.274C1317.75 312.173 1317.96 312.11 1318.17 312.09C1318.38 312.069 1318.6 312.091 1318.8 312.155C1319.01 312.219 1319.19 312.322 1319.36 312.46L1321.38 314.16C1321.69 314.42 1321.87 314.78 1321.93 315.16C1322.28 315.173 1322.6 315.297 1322.88 315.53L1324.98 317.33C1325.6 317.85 1325.73 318.75 1325.28 319.43L1324.96 319.91C1325.68 321.03 1326 322.356 1325.88 323.681C1325.77 325.006 1325.21 326.255 1324.31 327.23C1323.48 328.199 1322.34 328.855 1321.09 329.09ZM1318.15 324.59C1318.55 324.914 1319.07 325.063 1319.59 325.005C1319.84 324.976 1320.09 324.897 1320.31 324.773C1320.54 324.648 1320.74 324.481 1320.9 324.28C1321.06 324.079 1321.18 323.849 1321.25 323.602C1321.32 323.355 1321.34 323.096 1321.31 322.841C1321.28 322.585 1321.2 322.338 1321.08 322.113C1320.96 321.888 1320.79 321.69 1320.59 321.53L1317.17 318.78L1314.69 321.82L1318.15 324.59ZM1316.95 321.58L1319.15 323.34C1319.3 323.46 1319.52 323.44 1319.65 323.29C1319.7 323.212 1319.72 323.12 1319.71 323.029C1319.7 322.938 1319.65 322.854 1319.59 322.79L1317.4 321.03L1316.95 321.58ZM1313.77 330.15L1310.07 327.18L1312.72 323.91L1316.41 326.87C1316.84 327.22 1317.12 327.729 1317.18 328.284C1317.24 328.839 1317.08 329.395 1316.73 329.83C1316.38 330.265 1315.87 330.543 1315.31 330.603C1314.76 330.663 1314.2 330.5 1313.77 330.15ZM1315.4 328.12L1312.96 326.16L1312.33 326.94L1314.78 328.91C1314.88 328.993 1315.01 329.032 1315.14 329.019C1315.27 329.006 1315.39 328.942 1315.48 328.84C1315.52 328.788 1315.55 328.728 1315.57 328.663C1315.59 328.598 1315.6 328.53 1315.59 328.463C1315.58 328.396 1315.56 328.33 1315.53 328.271C1315.5 328.213 1315.45 328.161 1315.4 328.12Z" fill="#111827"/>
<path fill-rule="evenodd" clip-rule="evenodd" d="M1318.2 306.08C1315.7 305.73 1313.15 305.884 1310.7 306.531C1308.26 307.178 1305.97 308.307 1303.97 309.85C1300.67 312.395 1298.29 315.953 1297.2 319.979C1296.11 324.006 1296.37 328.278 1297.95 332.14C1299.52 336.003 1302.32 339.243 1305.91 341.364C1309.5 343.484 1313.69 344.368 1317.83 343.88C1322.71 344.56 1327.85 343.35 1332.05 340.1C1334.1 338.524 1335.8 336.546 1337.06 334.288C1338.31 332.031 1339.1 329.541 1339.36 326.97C1339.37 326.91 1339.38 326.85 1339.37 326.79C1339.54 324.997 1339.46 323.21 1339.12 321.43L1339.1 321.33C1338.53 318.435 1337.29 315.713 1335.48 313.38C1333.48 310.772 1330.83 308.728 1327.8 307.449C1324.77 306.169 1321.47 305.698 1318.2 306.08ZM1324.3 308C1326.8 309.28 1328.98 311.097 1330.69 313.32L1330.76 313.42L1334.07 314.18C1331.61 311.067 1328.17 308.886 1324.3 308ZM1335.42 316.13L1332.06 315.36C1332.92 316.827 1333.56 318.353 1333.99 319.94L1337.27 320.54C1336.85 318.994 1336.23 317.511 1335.42 316.13ZM1337.63 322.23L1334.37 321.63C1334.57 322.737 1334.67 323.85 1334.66 324.97L1337.84 325.79C1337.89 324.59 1337.82 323.4 1337.63 322.22M1337.69 327.39L1334.59 326.59C1334.47 328.017 1334.19 329.407 1333.76 330.76L1336.6 331.52C1337.14 330.195 1337.5 328.807 1337.69 327.39ZM1335.93 332.99L1333.21 332.27C1331.94 335.335 1329.89 338.014 1327.26 340.04C1326.22 340.84 1325.1 341.53 1323.92 342.1C1326.53 341.585 1328.98 340.465 1331.08 338.83C1333.11 337.277 1334.77 335.284 1335.93 333M1317.84 342.27C1320.92 341.881 1323.83 340.672 1326.28 338.77C1328.84 336.805 1330.8 334.162 1331.94 331.14L1331.95 331.12L1332.01 330.95C1333.18 327.731 1333.38 324.242 1332.59 320.91L1332.54 320.74C1331.97 318.396 1330.9 316.201 1329.42 314.3C1328.06 312.382 1326.33 310.758 1324.32 309.526C1322.32 308.294 1320.09 307.48 1317.77 307.131C1315.44 306.783 1313.07 306.909 1310.79 307.5C1308.52 308.091 1306.38 309.136 1304.52 310.573C1302.66 312.009 1301.11 313.806 1299.96 315.857C1298.81 317.908 1298.09 320.171 1297.83 322.508C1297.58 324.846 1297.8 327.21 1298.48 329.46C1299.17 331.71 1300.3 333.798 1301.81 335.6C1303.67 338.009 1306.13 339.891 1308.93 341.061C1311.74 342.23 1314.81 342.647 1317.83 342.27H1317.84Z" fill="#111827"/>
</g>
<g opacity="0.3" filter="url(#filter1_f_478_24457)">
<path fill-rule="evenodd" clip-rule="evenodd" d="M705.021 320.79C704.983 320.737 704.956 320.677 704.943 320.613C704.93 320.549 704.93 320.483 704.945 320.42C704.959 320.356 704.987 320.296 705.026 320.244C705.065 320.192 705.115 320.149 705.172 320.117C705.229 320.086 705.292 320.067 705.357 320.062C705.422 320.057 705.487 320.065 705.549 320.087C705.61 320.109 705.666 320.144 705.713 320.189C705.76 320.235 705.797 320.289 705.821 320.35C707.521 323.48 710.361 325.25 712.811 326.23C713.828 326.64 714.878 326.961 715.951 327.19C716.348 327.275 716.748 327.345 717.151 327.4H717.231C717.353 327.401 717.469 327.451 717.555 327.538C717.64 327.625 717.687 327.743 717.686 327.865C717.685 327.987 717.635 328.103 717.548 328.189C717.46 328.274 717.343 328.321 717.221 328.32C717.121 328.32 717.024 328.31 716.931 328.29C716.539 328.237 716.148 328.17 715.761 328.09C714.634 327.852 713.53 327.518 712.461 327.09C709.911 326.05 706.861 324.17 705.021 320.79Z" fill="#111827"/>
<path fill-rule="evenodd" clip-rule="evenodd" d="M721.189 328.02C721.959 326.55 721.489 324.71 720.339 322.99C718.877 320.961 716.959 319.303 714.739 318.15C712.569 316.904 710.138 316.185 707.639 316.05C705.539 316.01 703.729 316.62 702.919 318.1L702.899 318.14L699.999 322.77L699.989 322.78C699.089 324.35 699.559 326.22 700.749 327.94C701.949 329.67 703.949 331.36 706.409 332.7C708.526 333.935 710.903 334.655 713.349 334.8C715.409 334.83 717.169 334.2 718.189 332.8L718.209 332.78L720.989 328.35L721.129 328.13L721.149 328.09L721.189 328.02ZM720.359 327.63C720.919 326.6 720.679 325.13 719.579 323.5C718.201 321.59 716.392 320.031 714.299 318.95C712.259 317.775 709.97 317.097 707.619 316.97C705.679 316.93 704.319 317.49 703.749 318.49L703.709 318.57L703.699 318.59C703.169 319.61 703.429 321.06 704.499 322.67L704.769 323.04C705.356 323.827 706.099 324.593 706.999 325.34C707.868 326.052 708.803 326.682 709.789 327.22C710.76 327.752 711.777 328.194 712.829 328.54C714.029 328.92 715.143 329.137 716.169 329.19L716.469 329.2C718.299 329.24 719.609 328.73 720.239 327.84L720.349 327.66L720.359 327.63ZM706.139 325.81C705.516 325.275 704.937 324.69 704.409 324.06L701.889 327.93C702.436 328.606 703.049 329.226 703.719 329.78L706.139 325.81ZM703.819 323.29L701.319 327.13C700.369 325.65 700.189 324.3 700.779 323.24L702.569 320.39C702.709 321.3 703.129 322.26 703.749 323.18L703.819 323.29ZM706.849 326.39C707.489 326.89 708.189 327.357 708.949 327.79L706.649 331.79C705.882 331.362 705.144 330.885 704.439 330.36L706.849 326.39ZM712.869 329.51C713.756 329.777 714.609 329.957 715.429 330.05L713.259 333.87C712.393 333.838 711.534 333.704 710.699 333.47L712.869 329.51ZM709.809 333.21C709 332.936 708.211 332.606 707.449 332.22L709.749 328.23C710.496 328.617 711.243 328.943 711.989 329.21L709.809 333.21ZM716.449 330.11L714.329 333.84C715.729 333.69 716.799 333.15 717.439 332.28L719.029 329.76C718.195 330.02 717.323 330.142 716.449 330.12" fill="#111827"/>
</g>
<g opacity="0.4">
<path fill-rule="evenodd" clip-rule="evenodd" d="M384.321 63.3001C384.315 63.0879 384.224 62.887 384.069 62.7417C383.915 62.5963 383.708 62.5184 383.496 62.525C383.284 62.5317 383.083 62.6223 382.938 62.777C382.793 62.9318 382.715 63.1379 382.721 63.35C382.881 69.58 380.131 74.75 377.291 78.38C376.109 79.8913 374.798 81.2967 373.371 82.58C372.831 83.06 372.398 83.4267 372.071 83.68L371.631 84.01L371.611 84.03C371.444 84.1455 371.327 84.3202 371.284 84.5188C371.241 84.7174 371.275 84.925 371.379 85.0993C371.484 85.2737 371.65 85.4018 371.846 85.4577C372.041 85.5135 372.25 85.4929 372.431 85.4C372.578 85.3067 372.711 85.2067 372.831 85.1C373.38 84.676 373.914 84.2324 374.431 83.77C375.929 82.4246 377.307 80.9525 378.551 79.3701C381.521 75.5701 384.501 70.05 384.321 63.31" fill="#111827"/>
<path fill-rule="evenodd" clip-rule="evenodd" d="M366.15 88.4201C363.69 86.8701 362.79 83.6701 363.03 80.0501C363.28 76.3601 364.73 72.0001 367.29 67.8101C369.85 63.6201 373.05 60.3401 376.21 58.4201C379.34 56.5201 382.64 55.8601 385.15 57.4001L385.21 57.4301L393.67 61.9101L393.7 61.9301C396.42 63.5301 397.35 66.7601 397.05 70.4101C396.75 74.0801 395.19 78.4101 392.65 82.5801C390.11 86.7501 387.05 89.9501 383.95 91.8101C380.87 93.68 377.65 94.2801 374.87 93.0401L374.83 93.0201L366.73 88.7401L366.33 88.5301L366.27 88.5001L366.15 88.4201ZM367.05 87.1001C365.31 86.0401 364.4 83.6001 364.63 80.1601C364.86 76.7801 366.21 72.6601 368.65 68.6501C371.1 64.6301 374.14 61.5501 377.05 59.7901C379.95 58.0301 382.5 57.7101 384.25 58.7201L384.36 58.7901L384.41 58.8201C386.1 59.9101 386.98 62.3201 386.75 65.7001L386.69 66.3601L386.68 66.5001C386.447 68.3625 385.987 70.1894 385.31 71.9401C384.619 73.7778 383.755 75.5457 382.73 77.2201C381.754 78.8355 380.632 80.3585 379.38 81.7701L379.26 81.8901C377.942 83.3818 376.436 84.6961 374.78 85.8001L374.68 85.8701L374.34 86.0701C371.6 87.7301 369.17 88.1201 367.44 87.3001L367.1 87.1301L367.05 87.1001ZM387.03 71.9001C387.53 70.4601 387.893 69.0734 388.12 67.7401L395.32 71.3901C395.113 72.7901 394.73 74.2601 394.17 75.8001L387.03 71.9001ZM388.33 66.0501L395.49 69.6801C395.62 66.6101 394.72 64.3901 392.9 63.3101L387.7 60.5501C388.28 62.0601 388.48 63.8801 388.35 65.8101L388.33 66.0501ZM386.45 73.4101C385.892 74.7684 385.243 76.088 384.51 77.3601L391.49 81.4101C392.278 80.0922 392.976 78.7224 393.58 77.3101L386.45 73.4101ZM380.06 83.3901C379.019 84.5123 377.878 85.5366 376.65 86.4501L383.29 90.3501C384.57 89.5401 385.754 88.5874 386.82 87.5101L380.06 83.3901ZM387.94 86.3201C388.924 85.1999 389.826 84.0101 390.64 82.7601L383.67 78.7201C382.902 79.9236 382.057 81.076 381.14 82.1701L387.94 86.3201ZM375.16 87.4501H375.17L381.63 91.2301C379.38 92.2301 377.29 92.3601 375.55 91.59L370.95 89.1601C372.442 88.8416 373.868 88.2628 375.16 87.4501Z" fill="#111827"/>
</g>
<g opacity="0.1">
<path fill-rule="evenodd" clip-rule="evenodd" d="M462.168 273.79C462.209 273.686 462.212 273.57 462.174 273.464C462.136 273.359 462.061 273.271 461.962 273.216C461.864 273.162 461.749 273.146 461.64 273.171C461.53 273.195 461.434 273.259 461.368 273.35C459.668 276.48 456.828 278.25 454.388 279.23C453.368 279.641 452.314 279.962 451.238 280.19C450.841 280.275 450.44 280.345 450.038 280.4H449.958C449.898 280.401 449.838 280.414 449.783 280.439C449.727 280.463 449.677 280.498 449.636 280.542C449.594 280.585 449.561 280.637 449.539 280.693C449.517 280.75 449.507 280.81 449.508 280.87C449.509 280.93 449.522 280.99 449.547 281.045C449.571 281.101 449.606 281.151 449.65 281.192C449.693 281.234 449.745 281.267 449.801 281.289C449.857 281.311 449.918 281.321 449.978 281.32C450.071 281.32 450.165 281.31 450.258 281.29L450.418 281.27L451.428 281.09C452.555 280.852 453.659 280.518 454.728 280.09C457.278 279.05 460.328 277.17 462.168 273.79Z" fill="#111827"/>
<path fill-rule="evenodd" clip-rule="evenodd" d="M445.999 281.02C445.229 279.55 445.699 277.71 446.849 275.99C448.311 273.961 450.229 272.303 452.449 271.15C454.618 269.904 457.05 269.185 459.549 269.05C461.649 269.01 463.459 269.62 464.269 271.1L464.289 271.14L467.189 275.77L467.209 275.78C468.089 277.35 467.629 279.22 466.439 280.94C464.937 282.931 463.005 284.558 460.789 285.7C458.669 286.937 456.288 287.656 453.839 287.8C451.789 287.83 450.019 287.2 448.999 285.8L448.979 285.78L446.199 281.35L446.059 281.13L446.039 281.09L445.999 281.02ZM446.829 280.63C446.269 279.6 446.509 278.13 447.609 276.5C448.987 274.59 450.796 273.031 452.889 271.95C454.929 270.775 457.217 270.097 459.569 269.97C461.509 269.93 462.869 270.49 463.439 271.49L463.479 271.57L463.499 271.59C464.019 272.61 463.759 274.06 462.689 275.67L462.419 276.04C461.832 276.827 461.092 277.593 460.199 278.34C459.326 279.053 458.389 279.682 457.399 280.22C456.456 280.737 455.468 281.169 454.449 281.51L454.349 281.54C453.179 281.92 452.039 282.14 451.019 282.19H450.949L450.719 282.2C448.889 282.24 447.579 281.73 446.959 280.84L446.839 280.66L446.829 280.63ZM461.049 278.81C461.672 278.275 462.251 277.69 462.779 277.06L465.309 280.93C464.759 281.607 464.142 282.227 463.469 282.78L461.049 278.81ZM463.369 276.29L465.869 280.13C466.819 278.65 466.999 277.3 466.419 276.24L464.619 273.39C464.434 274.395 464.031 275.347 463.439 276.18L463.369 276.29ZM460.339 279.39C459.67 279.903 458.969 280.37 458.239 280.79L460.539 284.79C461.306 284.362 462.044 283.885 462.749 283.36L460.339 279.39ZM454.319 282.51C453.439 282.777 452.585 282.957 451.759 283.05L453.929 286.87C454.795 286.838 455.654 286.704 456.489 286.47L454.319 282.51ZM457.379 286.21C458.188 285.936 458.976 285.606 459.739 285.22L457.439 281.23C456.692 281.617 455.945 281.943 455.199 282.21L457.379 286.21ZM450.739 283.11L452.859 286.84C451.459 286.69 450.389 286.15 449.749 285.28L448.159 282.76C448.993 283.02 449.865 283.142 450.739 283.12" fill="#111827"/>
</g>
<g opacity="0.1">
<path fill-rule="evenodd" clip-rule="evenodd" d="M550.562 384.3C550.659 384.31 550.757 384.3 550.851 384.272C550.944 384.244 551.031 384.198 551.107 384.136C551.183 384.075 551.245 383.999 551.292 383.913C551.338 383.826 551.367 383.732 551.377 383.635C551.386 383.538 551.377 383.44 551.349 383.346C551.321 383.253 551.275 383.165 551.213 383.09C551.151 383.014 551.075 382.951 550.989 382.905C550.903 382.859 550.809 382.83 550.712 382.82C544.952 382.25 540.512 379.12 537.502 376.07C536.249 374.804 535.108 373.432 534.092 371.97C533.712 371.425 533.355 370.865 533.022 370.29L532.972 370.19L532.952 370.17C532.865 370.003 532.717 369.875 532.539 369.812C532.361 369.75 532.166 369.758 531.994 369.834C531.822 369.911 531.685 370.05 531.612 370.224C531.539 370.398 531.536 370.593 531.602 370.77C531.662 370.917 531.735 371.053 531.822 371.18L531.962 371.42C532.162 371.753 532.462 372.22 532.862 372.82C533.927 374.355 535.125 375.794 536.442 377.12C539.602 380.29 544.342 383.68 550.562 384.3Z" fill="#111827"/>
<path fill-rule="evenodd" clip-rule="evenodd" d="M529.541 364.64C531.261 362.55 534.321 362.09 537.611 362.74C540.991 363.4 544.841 365.24 548.401 368.09C551.961 370.94 554.611 374.27 556.001 377.41C557.391 380.51 557.621 383.62 555.901 385.76L555.871 385.81L550.761 393.08L550.741 393.11C548.941 395.42 545.861 395.91 542.541 395.21C539.191 394.49 535.391 392.56 531.841 389.73C528.281 386.89 525.701 383.71 524.341 380.65C522.991 377.59 522.811 374.55 524.271 372.13L524.301 372.09L529.181 365.14L529.431 364.78L529.461 364.73L529.541 364.64ZM530.651 365.63C531.841 364.13 534.201 363.58 537.331 364.2C540.431 364.8 544.061 366.52 547.471 369.25C550.881 371.98 553.371 375.13 554.651 378.01C555.931 380.89 555.931 383.28 554.801 384.77L554.711 384.87L554.691 384.91C553.491 386.34 551.151 386.86 548.071 386.26L547.471 386.13L547.351 386.1C545.665 385.664 544.037 385.03 542.501 384.21L542.401 384.16C540.823 383.317 539.327 382.329 537.931 381.21C536.558 380.124 535.286 378.916 534.131 377.6L534.031 377.48C532.806 376.089 531.77 374.543 530.951 372.88L530.751 372.45C529.551 369.74 529.471 367.45 530.421 365.95L530.621 365.66L530.651 365.63ZM542.331 385.79C543.52 386.392 544.758 386.894 546.031 387.29L541.831 393.49C540.471 393.1 539.155 392.574 537.901 391.92L542.331 385.79ZM547.571 387.67L543.391 393.85C546.191 394.33 548.351 393.75 549.551 392.21L552.701 387.73C551.241 388.09 549.551 388.06 547.791 387.72L547.571 387.67ZM541.001 385.1C539.819 384.425 538.684 383.674 537.601 382.85L533.051 388.81C534.176 389.688 535.359 390.49 536.591 391.21L541.001 385.1ZM532.561 378.05C531.652 376.957 530.842 375.786 530.141 374.55L525.771 380.21C526.37 381.481 527.107 382.682 527.971 383.79L532.561 378.05ZM528.941 384.96C529.857 385.996 530.846 386.965 531.901 387.86L536.441 381.92C535.42 381.07 534.454 380.154 533.551 379.18L528.941 384.96ZM529.391 373.06L525.151 378.58C524.481 376.39 524.621 374.45 525.531 372.93L528.301 368.98C528.391 370.28 528.781 371.68 529.401 373.06" fill="#111827"/>
</g>
<mask id="mask0_478_24457" style="mask-type:luminance" maskUnits="userSpaceOnUse" x="760" y="-1" width="46" height="46">
<path d="M782.63 -1L805.25 21.63L782.63 44.26L760 21.63L782.63 -1Z" fill="white"/>
</mask>
<g mask="url(#mask0_478_24457)">
<g opacity="0.1">
<path fill-rule="evenodd" clip-rule="evenodd" d="M789.082 23.18C789.191 23.1605 789.289 23.1025 789.359 23.0166C789.428 22.9306 789.464 22.8225 789.461 22.712C789.457 22.6015 789.414 22.496 789.339 22.4148C789.264 22.3336 789.162 22.2822 789.052 22.27C785.492 22.37 782.552 20.79 780.472 19.17C779.608 18.4908 778.805 17.738 778.072 16.92C777.796 16.6176 777.532 16.304 777.282 15.98L777.252 15.93L777.242 15.92C777.172 15.8343 777.073 15.7767 776.964 15.7577C776.855 15.7388 776.743 15.7599 776.648 15.817C776.554 15.8741 776.483 15.9635 776.448 16.0687C776.414 16.174 776.419 16.288 776.462 16.39C776.502 16.47 776.555 16.5466 776.622 16.62L776.722 16.75L777.392 17.54C777.972 18.18 778.822 19.04 779.912 19.89C782.082 21.59 785.232 23.29 789.082 23.19" fill="#111827"/>
<path fill-rule="evenodd" clip-rule="evenodd" d="M774.732 12.7999C775.612 11.3999 777.442 10.8799 779.512 11.0199C781.612 11.1599 784.112 11.9899 786.512 13.4499C788.902 14.9099 790.782 16.7499 791.872 18.5499C792.952 20.3399 793.332 22.2199 792.462 23.6499L792.432 23.6899L789.882 28.5299L789.872 28.5399C788.952 30.0999 787.112 30.6299 785.022 30.4599C782.545 30.153 780.17 29.2917 778.072 27.9399C775.947 26.7238 774.138 25.0247 772.792 22.9799C771.722 21.2099 771.392 19.3699 772.092 17.7799L772.102 17.7599L774.542 13.1299L774.672 12.8999L774.682 12.8699L774.732 12.7999ZM775.482 13.3199C776.092 12.3199 777.482 11.7999 779.452 11.9299C781.382 12.0599 783.732 12.8299 786.032 14.2299C788.332 15.6299 790.092 17.3699 791.092 19.0299C792.092 20.6899 792.282 22.1399 791.702 23.1399L791.662 23.2099L791.642 23.2299C791.022 24.1999 789.642 24.6999 787.712 24.5699L787.262 24.5299C786.197 24.3993 785.152 24.1373 784.152 23.7499C783.101 23.3519 782.09 22.8564 781.132 22.2699C780.21 21.7124 779.34 21.0731 778.532 20.3599L778.462 20.2899C777.528 19.4499 776.785 18.5966 776.232 17.7299L776.072 17.4799C775.122 15.9099 774.902 14.5199 775.372 13.5299L775.472 13.3399L775.482 13.3199ZM784.172 24.7299C784.947 25.0014 785.743 25.2088 786.552 25.3499L784.462 29.4699C783.602 29.3349 782.758 29.1138 781.942 28.8099L784.172 24.7299ZM787.512 25.4699L785.442 29.5699C787.192 29.6399 788.462 29.1299 789.072 28.0899L790.652 25.1099C789.792 25.4499 788.752 25.5599 787.652 25.4799L787.512 25.4699ZM783.312 24.3999C782.535 24.0803 781.78 23.7095 781.052 23.2899L778.742 27.2799C779.528 27.7466 780.308 28.1466 781.082 28.4799L783.312 24.3999ZM777.612 20.7499C776.969 20.1527 776.38 19.5002 775.852 18.7999L773.632 22.5999C774.045 23.2799 774.585 23.9466 775.252 24.5999L777.612 20.7499ZM775.932 25.2499C776.571 25.8106 777.25 26.3252 777.962 26.7899L780.272 22.8099C779.585 22.3726 778.927 21.8917 778.302 21.3699L775.932 25.2499ZM775.292 17.9499L773.122 21.6499C772.552 20.3599 772.482 19.1699 772.922 18.1699L774.312 15.5399C774.472 16.3399 774.798 17.1433 775.292 17.9499Z" fill="#111827"/>
</g>
</g>
<g opacity="0.4">
<path fill-rule="evenodd" clip-rule="evenodd" d="M1210.03 23.4401C1209.4 23.5401 1208.95 23.3001 1208.95 23.3001C1209.11 23.5501 1209.27 23.9001 1209.28 24.3401C1209.28 24.8801 1209.06 25.5401 1208.34 26.2701C1207.27 27.3701 1205.59 26.6001 1205.01 26.2701C1204.87 26.2034 1204.81 26.1667 1204.81 26.1601L1204.44 26.7701L1203.14 26.0001L1203.67 25.1101C1203.67 25.1101 1203.05 24.5101 1202.91 24.4301C1202.85 24.4101 1202.77 24.4567 1202.66 24.5701C1202.46 24.7601 1202.2 25.0701 1202.2 25.0701L1201.28 24.2501L1201.77 23.4301L1200.89 22.5301L1201.87 21.4101L1202.55 22.1401L1206.9 17.1401L1206.15 16.6901L1207.18 15.5501L1208.04 16.3001L1208.62 15.5301L1209.77 16.5001L1209.17 17.2801L1210.05 18.0501L1210.62 17.2901L1211.82 18.3101L1211.25 19.1701C1211.97 19.6901 1212.55 21.3701 1211.36 22.6601C1210.9 23.1601 1210.43 23.3601 1210.03 23.4401ZM1210.19 24.3401V24.5401C1210.09 25.4487 1209.66 26.2902 1208.99 26.9101C1207.99 27.9401 1206.68 27.8301 1205.84 27.6101C1205.6 27.5413 1205.37 27.4578 1205.14 27.3601C1205 27.5297 1204.81 27.6435 1204.59 27.6803C1204.38 27.7171 1204.15 27.6743 1203.97 27.5601L1202.67 26.7901C1202.53 26.7094 1202.41 26.5925 1202.33 26.4517C1202.25 26.311 1202.21 26.1515 1202.22 25.9901C1201.99 25.9882 1201.77 25.907 1201.59 25.7601L1200.67 24.9301C1200.51 24.7894 1200.4 24.5967 1200.37 24.3862C1200.34 24.1757 1200.39 23.9609 1200.5 23.7801L1200.62 23.5801L1200.24 23.1801C1200.07 23.0175 1199.97 22.7963 1199.97 22.5631C1199.96 22.3299 1200.04 22.103 1200.2 21.9301L1201.19 20.8101C1201.27 20.7134 1201.37 20.635 1201.48 20.58C1201.6 20.5249 1201.72 20.4946 1201.85 20.4908C1201.98 20.487 1202.1 20.5099 1202.22 20.558C1202.34 20.6062 1202.44 20.6784 1202.53 20.7701L1205.51 17.3501C1205.33 17.1867 1205.23 16.9614 1205.23 16.7233C1205.22 16.4853 1205.31 16.254 1205.47 16.0801L1206.51 14.9401C1206.67 14.7611 1206.89 14.6521 1207.13 14.6371C1207.36 14.6221 1207.6 14.7023 1207.78 14.8601L1207.9 14.9601C1207.97 14.8634 1208.07 14.783 1208.17 14.7238C1208.28 14.6645 1208.4 14.6277 1208.52 14.6156C1208.64 14.6034 1208.76 14.6161 1208.88 14.653C1209 14.6899 1209.11 14.7501 1209.2 14.8301L1210.36 15.8001C1210.53 15.9601 1210.63 16.1501 1210.67 16.3701C1210.87 16.3834 1211.06 16.4567 1211.22 16.5901L1212.42 17.6101C1212.77 17.9101 1212.84 18.4301 1212.59 18.8101L1212.4 19.0901C1212.67 19.4901 1212.86 19.9901 1212.92 20.5001C1212.99 20.9981 1212.94 21.5049 1212.79 21.9838C1212.64 22.4628 1212.38 22.9021 1212.04 23.2701C1211.44 23.9301 1210.78 24.2301 1210.19 24.3401ZM1208.51 21.7701C1208.62 21.862 1208.75 21.9304 1208.9 21.9713C1209.04 22.0123 1209.19 22.025 1209.33 22.0088C1209.48 21.9925 1209.62 21.9476 1209.75 21.8766C1209.88 21.8056 1209.99 21.71 1210.08 21.5951C1210.17 21.4802 1210.24 21.3483 1210.28 21.2069C1210.33 21.0656 1210.34 20.9176 1210.32 20.7713C1210.31 20.6251 1210.26 20.4834 1210.19 20.3545C1210.12 20.2256 1210.02 20.112 1209.91 20.0201L1207.95 18.4501L1206.54 20.1801L1208.51 21.7701ZM1207.83 20.0501L1209.08 21.0501C1209.1 21.0679 1209.12 21.0814 1209.15 21.0896C1209.17 21.0978 1209.2 21.1006 1209.23 21.0978C1209.26 21.095 1209.28 21.0866 1209.31 21.0733C1209.33 21.0599 1209.35 21.0418 1209.37 21.0201C1209.39 20.9994 1209.4 20.9753 1209.41 20.9493C1209.42 20.9232 1209.42 20.8957 1209.42 20.8686C1209.41 20.8414 1209.4 20.8151 1209.39 20.7913C1209.38 20.7675 1209.36 20.7466 1209.34 20.7301L1208.09 19.7301L1207.83 20.0501ZM1206.01 24.9501L1203.9 23.2501L1205.41 21.3801L1207.51 23.0801C1208.04 23.4901 1208.11 24.2501 1207.7 24.7801C1207.6 24.9023 1207.48 25.0037 1207.34 25.0784C1207.2 25.1531 1207.05 25.1997 1206.89 25.2155C1206.73 25.2313 1206.57 25.216 1206.42 25.1704C1206.27 25.1249 1206.13 25.05 1206.01 24.9501ZM1206.94 23.7801L1205.54 22.6601L1205.19 23.1101L1206.59 24.2301C1206.71 24.3301 1206.89 24.3101 1206.99 24.1901C1207.03 24.1291 1207.05 24.0544 1207.04 23.9804C1207.03 23.9065 1206.99 23.8386 1206.94 23.7901" fill="#111827"/>
<path fill-rule="evenodd" clip-rule="evenodd" d="M1208.54 11.1901C1207.11 10.9879 1205.65 11.075 1204.26 11.446C1202.86 11.817 1201.55 12.4645 1200.41 13.3501C1198.13 15.1173 1196.64 17.7173 1196.27 20.5799C1195.9 23.4424 1196.69 26.3339 1198.45 28.6201C1199.6 30.1078 1201.11 31.2735 1202.84 32.0041C1204.57 32.7348 1206.46 33.0055 1208.33 32.7901C1211.12 33.1801 1214.05 32.4901 1216.46 30.6301C1217.63 29.7312 1218.6 28.6019 1219.32 27.312C1220.04 26.022 1220.48 24.5988 1220.63 23.1301C1220.74 22.0552 1220.69 20.9702 1220.48 19.9101C1220.15 18.2555 1219.45 16.6987 1218.42 15.3601C1217.27 13.8724 1215.76 12.7066 1214.03 11.976C1212.3 11.2453 1210.41 10.9746 1208.54 11.1901ZM1212.03 12.2901C1213.47 13.0379 1214.73 14.0967 1215.72 15.3901L1217.62 15.8201C1216.21 14.038 1214.23 12.7895 1212.02 12.2801M1218.37 16.9201L1216.45 16.4801C1216.95 17.3201 1217.32 18.1934 1217.55 19.1001L1219.43 19.4401C1219.19 18.5555 1218.84 17.7076 1218.37 16.9201ZM1219.64 20.4001L1217.77 20.0701C1217.88 20.7034 1217.94 21.3367 1217.94 21.9701L1219.76 22.4401C1219.79 21.7601 1219.75 21.0801 1219.64 20.4001ZM1219.67 23.3601L1217.9 22.9101C1217.83 23.7187 1217.67 24.5169 1217.42 25.2901L1219.05 25.7201C1219.35 24.9601 1219.56 24.1734 1219.67 23.3601ZM1218.67 26.5601L1217.11 26.1601C1216.38 27.9046 1215.2 29.4304 1213.71 30.5901C1213.1 31.0567 1212.47 31.4501 1211.81 31.7701C1213.29 31.4639 1214.69 30.8245 1215.89 29.9001C1217.05 29.0068 1218 27.8701 1218.67 26.5701M1208.33 31.8701C1210.08 31.6417 1211.75 30.9516 1213.15 29.8701C1214.61 28.7422 1215.72 27.2333 1216.38 25.5101V25.4901L1216.42 25.4001C1217.09 23.5701 1217.21 21.5701 1216.75 19.6701L1216.73 19.5701C1216.39 18.2331 1215.78 16.9802 1214.94 15.8901C1214.16 14.7878 1213.18 13.8539 1212.03 13.1446C1210.89 12.4354 1209.61 11.9656 1208.28 11.7635C1206.94 11.5614 1205.59 11.6312 1204.28 11.9688C1202.98 12.3064 1201.76 12.9047 1200.69 13.7276C1199.62 14.5506 1198.73 15.5811 1198.08 16.7569C1197.42 17.9327 1197.01 19.2295 1196.87 20.5689C1196.72 21.9084 1196.85 23.2628 1197.25 24.5503C1197.65 25.8378 1198.3 27.0317 1199.17 28.0601C1200.23 29.4337 1201.64 30.5066 1203.24 31.1729C1204.84 31.8392 1206.6 32.0761 1208.32 31.8601" fill="#111827"/>
</g>
<path fill-rule="evenodd" clip-rule="evenodd" d="M1654 214.82C1651.58 210.22 1653.05 204.47 1656.66 199.1C1660.34 193.62 1666.48 188.17 1674.16 183.97C1681.85 179.77 1689.75 177.55 1696.36 177.41C1702.88 177.28 1708.57 179.19 1711.09 183.81L1711.15 183.92L1720.23 198.4L1720.27 198.45C1723.04 203.35 1721.59 209.18 1717.87 214.55C1714.12 219.97 1707.87 225.26 1700.2 229.45C1692.53 233.64 1684.96 235.85 1678.51 235.97C1672.08 236.1 1666.56 234.14 1663.37 229.76L1663.32 229.68L1654.62 215.84L1654.18 215.14L1654.12 215.04L1654 214.82ZM1656.58 213.59C1654.83 210.39 1655.6 205.79 1659.03 200.69C1662.41 195.66 1668.16 190.49 1675.53 186.47C1682.9 182.45 1690.35 180.39 1696.41 180.27C1702.47 180.15 1706.71 181.92 1708.51 185.04L1708.62 185.26L1708.67 185.34C1710.31 188.54 1709.51 193.07 1706.14 198.08C1705.93 198.4 1705.71 198.72 1705.47 199.04C1705.42 199.107 1705.37 199.173 1705.32 199.24C1703.25 201.968 1700.86 204.433 1698.19 206.58C1695.68 208.63 1692.81 210.57 1689.64 212.3C1686.69 213.922 1683.59 215.274 1680.4 216.34L1680.12 216.44C1676.45 217.659 1672.62 218.353 1668.76 218.5C1663.04 218.62 1658.94 217.04 1656.99 214.24L1656.63 213.67L1656.58 213.59ZM1701.04 207.92C1702.99 206.254 1704.8 204.424 1706.44 202.45L1714.33 214.53C1712.61 216.644 1710.7 218.587 1708.61 220.33L1701.04 207.92ZM1708.28 200.02L1716.11 212.04C1719.05 207.41 1719.64 203.17 1717.8 199.89L1712.2 190.96C1711.76 193.82 1710.44 196.8 1708.52 199.67L1708.28 200.02ZM1698.8 209.74C1696.72 211.339 1694.54 212.796 1692.27 214.1L1699.45 226.6C1701.85 225.264 1704.15 223.767 1706.35 222.12L1698.8 209.74ZM1680.01 219.46C1677.39 220.266 1674.71 220.832 1671.99 221.15L1678.79 233.11C1681.26 233.03 1683.95 232.61 1686.78 231.86L1680.01 219.46ZM1689.57 231.02C1692.09 230.17 1694.55 229.14 1696.93 227.94L1689.77 215.47C1687.5 216.641 1685.17 217.666 1682.77 218.54L1689.57 231.02ZM1668.82 221.36L1675.43 233C1671.05 232.54 1667.71 230.85 1665.7 228.11L1660.76 220.25C1663.13 221.07 1665.89 221.42 1668.81 221.36M296.859 264.24C296.939 264.086 296.986 263.918 296.998 263.745C297.009 263.572 296.985 263.398 296.927 263.235C296.869 263.072 296.777 262.923 296.658 262.797C296.54 262.67 296.396 262.57 296.237 262.502C296.078 262.434 295.906 262.399 295.733 262.4C295.56 262.401 295.388 262.438 295.23 262.508C295.072 262.578 294.929 262.68 294.812 262.808C294.695 262.936 294.606 263.086 294.549 263.25C290.709 272.26 283.409 277.84 276.969 281.18C274.291 282.567 271.497 283.718 268.619 284.62C267.548 284.956 266.464 285.249 265.369 285.5L265.189 285.54H265.149C264.831 285.593 264.545 285.767 264.35 286.026C264.156 286.284 264.069 286.607 264.106 286.928C264.143 287.249 264.302 287.543 264.551 287.75C264.799 287.957 265.117 288.061 265.439 288.04C265.699 288.03 265.959 287.94 266.209 287.89L266.659 287.79C267.313 287.623 268.216 287.367 269.369 287.02C272.387 286.074 275.318 284.87 278.129 283.42C284.849 279.92 292.709 273.98 296.859 264.24Z" fill="#111827"/>
<path fill-rule="evenodd" clip-rule="evenodd" d="M254.479 288.26C251.979 284.44 252.779 279.26 255.499 274.26C258.269 269.16 263.189 263.86 269.569 259.55C275.949 255.24 282.689 252.62 288.469 251.95C294.169 251.29 299.319 252.5 301.909 256.33L301.969 256.43L311.129 268.35L311.169 268.39C313.999 272.45 313.229 277.68 310.409 282.7C307.579 287.75 302.539 292.91 296.169 297.22C289.799 301.53 283.359 304.09 277.719 304.74C272.079 305.39 267.089 304.14 263.929 300.56L263.879 300.49L255.109 289.1L254.659 288.52L254.599 288.44L254.479 288.26ZM256.639 286.96C254.839 284.3 255.139 280.21 257.709 275.46C260.249 270.77 264.859 265.76 270.979 261.63C277.099 257.5 283.459 255.07 288.759 254.45C294.049 253.84 297.919 255.05 299.759 257.63C299.779 257.69 299.812 257.75 299.859 257.81L299.919 257.88C301.619 260.54 301.299 264.58 298.759 269.24L298.259 270.14L298.139 270.34C296.586 272.844 294.74 275.154 292.639 277.22L292.509 277.35C290.351 279.473 288.001 281.391 285.489 283.08C283.041 284.744 280.447 286.184 277.739 287.38L277.489 287.49C274.627 288.763 271.612 289.657 268.519 290.15L268.329 290.18L267.719 290.25C262.719 290.83 258.989 289.79 257.049 287.5L256.689 287.03L256.639 286.96ZM295.109 278.29C296.681 276.664 298.113 274.908 299.389 273.04L307.309 282.98C305.987 284.976 304.47 286.835 302.779 288.53L295.109 278.29ZM300.789 270.77L308.659 280.64C310.859 276.34 311.009 272.58 309.119 269.86L303.479 262.51C303.241 265.305 302.387 268.014 300.979 270.44L300.789 270.77ZM293.309 280.07C291.621 281.641 289.83 283.097 287.949 284.43L295.279 294.79C297.267 293.418 299.162 291.915 300.949 290.29L293.309 280.07ZM277.649 290.15C275.425 291.072 273.122 291.792 270.769 292.3L277.719 302.21C279.892 301.943 282.192 301.357 284.619 300.45L277.649 290.15ZM286.999 299.5C289.139 298.543 291.208 297.433 293.189 296.18L285.879 285.85C283.992 287.069 282.028 288.165 279.999 289.13L286.999 299.5ZM267.999 292.75H268.019L274.779 302.39C270.899 302.36 267.829 301.16 265.849 298.93L260.859 292.45C263.009 292.97 265.459 293.05 267.999 292.75Z" fill="#111827"/>
</g>
<defs>
<filter id="filter0_f_478_24457" x="1288.54" y="297.897" width="58.918" height="54.1654" filterUnits="userSpaceOnUse" color-interpolation-filters="sRGB">
<feFlood flood-opacity="0" result="BackgroundImageFix"/>
<feBlend mode="normal" in="SourceGraphic" in2="BackgroundImageFix" result="shape"/>
<feGaussianBlur stdDeviation="4" result="effect1_foregroundBlur_478_24457"/>
</filter>
<filter id="filter1_f_478_24457" x="687.52" y="304.048" width="46.0469" height="42.7528" filterUnits="userSpaceOnUse" color-interpolation-filters="sRGB">
<feFlood flood-opacity="0" result="BackgroundImageFix"/>
<feBlend mode="normal" in="SourceGraphic" in2="BackgroundImageFix" result="shape"/>
<feGaussianBlur stdDeviation="6" result="effect1_foregroundBlur_478_24457"/>
</filter>
<clipPath id="clip0_478_24457">
<rect width="1440" height="416" fill="white"/>
</clipPath>
</defs>
</svg>
