<svg width="61" height="63" viewBox="0 0 61 63" fill="none" xmlns="http://www.w3.org/2000/svg">
<mask id="mask0_478_26222" style="mask-type:luminance" maskUnits="userSpaceOnUse" x="0" y="0" width="61" height="63">
<path d="M61 0H0V62.8329H61V0Z" fill="white"/>
</mask>
<g mask="url(#mask0_478_26222)">
<path d="M30.356 62.237C46.7456 62.237 60.0322 48.9135 60.0322 32.4784C60.0322 16.0431 46.7456 2.71973 30.356 2.71973C13.9662 2.71973 0.679688 16.0431 0.679688 32.4784C0.679688 48.9135 13.9662 62.237 30.356 62.237Z" fill="#FBD947"/>
<path d="M29.9455 2.73962C29.7706 13.4383 26.5888 37.0702 2.60685 43.0219C1.33262 39.6564 0.68356 36.0865 0.691594 32.4879C0.686731 31.1618 0.776197 29.8369 0.959319 28.5236C1.76524 22.4345 4.43877 16.7449 8.61185 12.238C12.785 7.73114 18.2524 4.62859 24.2617 3.35744C26.131 2.96329 28.0351 2.75633 29.9455 2.73962Z" fill="#FBE481"/>
<path opacity="0.5" d="M59.5053 32.1259C59.5162 40.0031 56.4002 47.5627 50.8419 53.1442C45.2834 58.7257 37.7371 61.873 29.8598 61.8949C26.2331 61.9045 22.6362 61.2375 19.2539 59.928C44.0391 50.7741 49.7538 29.2428 48.4976 8.99866C51.9402 11.7894 54.7154 15.3145 56.6199 19.316C58.5246 23.3176 59.5104 27.6942 59.5053 32.1259Z" fill="#F8A547"/>
<path d="M11.6967 26.8742H11.5835C11.5455 26.8595 11.5109 26.8373 11.4816 26.809C11.4522 26.7808 11.4287 26.7472 11.4124 26.7099C11.3962 26.6724 11.3874 26.6323 11.3868 26.5916C11.3861 26.5509 11.3934 26.5104 11.4084 26.4725L13.0869 22.4875C13.1187 22.4129 13.1787 22.3537 13.2538 22.3228C13.329 22.2919 13.4133 22.2921 13.4884 22.3228C13.5615 22.3567 13.619 22.417 13.6496 22.4913C13.6801 22.5657 13.6814 22.649 13.6532 22.7245L11.9748 26.7094C11.9465 26.7585 11.906 26.7994 11.8573 26.8281C11.8086 26.8571 11.7533 26.8729 11.6967 26.8742Z" fill="#3E3126"/>
<path d="M13.9311 24.9483H13.8179C13.7799 24.9336 13.7453 24.9114 13.7159 24.8833C13.6866 24.855 13.6631 24.8213 13.6468 24.784C13.6306 24.7467 13.6218 24.7064 13.6211 24.6657C13.6205 24.625 13.6278 24.5848 13.6428 24.5468L14.5386 22.4154C14.5533 22.3775 14.5754 22.3429 14.6039 22.3138C14.6323 22.2848 14.6664 22.2618 14.7039 22.2464C14.7415 22.2311 14.7819 22.2234 14.8225 22.224C14.8632 22.2249 14.9032 22.2338 14.9402 22.2505C15.015 22.2824 15.0742 22.3423 15.105 22.4175C15.1359 22.4928 15.1359 22.5769 15.105 22.6522L14.2194 24.7116C14.2009 24.7755 14.1635 24.8324 14.112 24.8748C14.0606 24.917 13.9975 24.9428 13.9311 24.9483Z" fill="#3E3126"/>
<path d="M30.3551 62.3177C24.4448 62.3382 18.6613 60.6042 13.737 57.3355C8.81278 54.0665 4.96933 49.41 2.69337 43.9553C0.417431 38.5006 -0.18864 32.4933 0.951921 26.694C2.09249 20.8946 4.92837 15.5641 9.10045 11.3776C13.2725 7.1911 18.5932 4.33681 24.3885 3.17622C30.184 2.01564 36.1934 2.60096 41.6558 4.85805C47.1182 7.11515 51.7881 10.9425 55.0739 15.8554C58.3597 20.7683 60.1137 26.5459 60.1137 32.4562C60.1139 40.3582 56.9818 47.9382 51.4039 53.5352C45.8262 59.1325 38.2571 62.2907 30.3551 62.3177ZM30.3551 5.0248C24.9198 5.0085 19.6017 6.60552 15.0745 9.61364C10.5473 12.6218 7.01454 16.9057 4.92364 21.9229C2.83274 26.9401 2.27772 32.4649 3.32888 37.798C4.38004 43.1308 6.99007 48.0317 10.8285 51.8803C14.6669 55.7289 19.561 58.3517 24.8912 59.4168C30.2213 60.4821 35.7476 59.9417 40.7702 57.8639C45.793 55.7862 50.0861 52.2647 53.1061 47.7455C56.1262 43.2261 57.7372 37.9124 57.7351 32.4769C57.7351 25.2087 54.8529 18.2369 49.7202 13.0908C44.5874 7.94456 37.6233 5.04387 30.3551 5.0248Z" fill="#F8A547"/>
<path d="M0.676869 33.0727C0.598917 33.0727 0.521745 33.0572 0.449853 33.0271C0.377964 32.9969 0.312798 32.9528 0.258159 32.8971C0.203522 32.8415 0.160505 32.7757 0.131621 32.7032C0.102738 32.6308 0.0885666 32.5534 0.0899341 32.4754C0.0900982 30.425 0.293604 28.3796 0.697463 26.3692C0.712173 26.2925 0.742093 26.2194 0.785463 26.1542C0.828835 26.0892 0.884781 26.0334 0.950017 25.9901C1.01525 25.9471 1.08846 25.9175 1.16533 25.903C1.24221 25.8885 1.3212 25.8895 1.39766 25.906C1.4745 25.9207 1.54761 25.9505 1.61271 25.994C1.67781 26.0372 1.73359 26.0933 1.77675 26.1585C1.81992 26.2237 1.84962 26.297 1.86409 26.3739C1.87857 26.4506 1.87753 26.5297 1.86103 26.6062C1.46911 28.538 1.27248 30.5042 1.2741 32.4754C1.2741 32.5538 1.25865 32.6316 1.22864 32.7041C1.19862 32.7765 1.15463 32.8424 1.09917 32.8978C1.04372 32.9532 0.977878 32.9973 0.905419 33.0273C0.832959 33.0572 0.755299 33.0727 0.676869 33.0727Z" fill="#3E3126"/>
<path d="M30.3574 62.8133C23.1972 62.8303 16.2638 60.3032 10.7942 55.6823C5.32471 51.0614 1.67479 44.6477 0.495695 37.5854C0.48715 37.5067 0.494256 37.4275 0.516606 37.3516C0.538956 37.2759 0.576104 37.2054 0.625899 37.144C0.675697 37.0829 0.737153 37.0319 0.806713 36.9947C0.876271 36.9571 0.952555 36.9339 1.03114 36.9262C1.10773 36.9115 1.18652 36.9126 1.26272 36.9292C1.33893 36.9459 1.41098 36.9776 1.47451 37.0228C1.53804 37.0682 1.59173 37.1257 1.63234 37.1924C1.67294 37.2589 1.69962 37.3331 1.71075 37.4102C2.90881 44.3274 6.56282 50.58 12.0014 55.0189C17.44 59.458 24.2978 61.7853 31.3148 61.5732C38.3318 61.3612 45.0364 58.6239 50.197 53.8647C55.3577 49.1054 58.6275 42.6437 59.4057 35.6668C60.1838 28.6899 58.418 21.6666 54.433 15.8871C50.4478 10.1077 44.5108 5.9606 37.7129 4.2077C30.9153 2.4548 23.7131 3.21391 17.4302 6.34553C11.1472 9.47714 6.20543 14.7709 3.51275 21.2541C3.44537 21.3891 3.3294 21.4937 3.18814 21.5466C3.04685 21.5996 2.89076 21.5973 2.75122 21.5398C2.61166 21.4824 2.49901 21.3744 2.43589 21.2373C2.37277 21.1003 2.36387 20.9444 2.41096 20.8011C4.53056 15.7479 7.98111 11.3643 12.3951 8.11707C16.809 4.86989 22.0211 2.88071 27.476 2.36144C32.9312 1.84216 38.4249 2.81222 43.3723 5.1683C48.3196 7.52438 52.5352 11.1782 55.5701 15.7407C58.6051 20.3032 60.3457 25.6034 60.6065 31.0771C60.8674 36.5506 59.6389 41.9923 57.0516 46.8226C54.4643 51.6532 50.6153 55.6914 45.9143 58.5074C41.2135 61.3233 35.837 62.8113 30.3574 62.8133Z" fill="#3E3126"/>
<path d="M0.617825 35.5665C0.959042 35.5665 1.23565 35.2899 1.23565 34.9487C1.23565 34.6075 0.959042 34.3309 0.617825 34.3309C0.276611 34.3309 0 34.6075 0 34.9487C0 35.2899 0.276611 35.5665 0.617825 35.5665Z" fill="#3E3126"/>
<path d="M30.3549 56.5739C25.5861 56.5882 20.9205 55.187 16.9486 52.5482C12.9767 49.9092 9.87716 46.1511 8.04241 41.7495C6.20764 37.3479 5.72017 32.501 6.64174 27.8224C7.5633 23.1435 9.85244 18.8434 13.2193 15.4664C16.5862 12.0894 20.8794 9.78741 25.5554 8.85184C30.2313 7.91626 35.0797 8.3892 39.4869 10.2108C43.8938 12.0323 47.6612 15.1206 50.3122 19.0846C52.9629 23.0487 54.3779 27.7101 54.3779 32.4786C54.3779 38.8567 51.8493 44.9744 47.346 49.4911C42.843 54.0077 36.7328 56.5547 30.3549 56.5739ZM30.3549 10.7724C26.0554 10.754 21.8471 12.0123 18.2635 14.3879C14.6798 16.7634 11.8819 20.1492 10.2243 24.1163C8.56675 28.0834 8.12405 32.4535 8.95233 36.6724C9.78061 40.8914 11.8426 44.7694 14.877 47.8154C17.9115 50.8615 21.7818 52.9382 25.9976 53.7825C30.2134 54.6268 34.5849 54.2008 38.5582 52.5582C42.5317 50.9156 45.928 48.1308 48.3173 44.5561C50.7064 40.9815 51.9807 36.7781 51.9786 32.4786C51.9788 26.736 49.7031 21.2274 45.6502 17.159C41.5972 13.0907 36.0973 10.7942 30.3549 10.7724Z" fill="#F8A547"/>
<path d="M13.7653 49.8171C13.7026 49.8184 13.6403 49.8073 13.5819 49.7843C13.5236 49.7613 13.4704 49.727 13.4255 49.6833C10.5474 46.8309 8.43137 43.302 7.27125 39.4195C6.11113 35.5372 5.94406 31.4257 6.78536 27.462C7.62668 23.4983 9.44944 19.8093 12.0866 16.7329C14.7237 13.6566 18.0909 11.2913 21.8794 9.85407C21.9943 9.82051 22.1176 9.83172 22.2246 9.88544C22.3316 9.93914 22.4143 10.0314 22.456 10.1436C22.4978 10.2558 22.4955 10.3796 22.4496 10.4902C22.4038 10.6008 22.3177 10.6899 22.2088 10.7396C18.5667 12.1192 15.3295 14.3916 12.7943 17.3482C10.2591 20.3048 8.50728 23.8508 7.69956 27.6608C6.89185 31.4709 7.05415 35.4228 8.17156 39.1538C9.28897 42.8847 11.3257 46.2752 14.0948 49.0139C14.1834 49.1028 14.2332 49.2232 14.2332 49.3485C14.2332 49.474 14.1834 49.5944 14.0948 49.6833C14.0514 49.7261 13.9999 49.76 13.9434 49.783C13.8868 49.806 13.8263 49.8175 13.7653 49.8171Z" fill="#3E3126"/>
<path d="M30.3537 56.6348C25.97 56.6429 21.6681 55.4497 17.9147 53.1853C17.807 53.121 17.7291 53.0165 17.6982 52.8949C17.6673 52.7734 17.6859 52.6445 17.75 52.5364C17.8162 52.4279 17.9224 52.35 18.0457 52.3191C18.169 52.2882 18.2995 52.3071 18.409 52.3717C21.4744 54.2071 24.9224 55.3097 28.4842 55.5936C32.0457 55.8772 35.6247 55.3346 38.9421 54.0077C42.2596 52.6809 45.2258 50.6055 47.6093 47.9439C49.9928 45.2823 51.7292 42.106 52.6834 38.6627C53.6375 35.2197 53.7834 31.6027 53.1101 28.0938C52.4364 24.5849 50.9614 21.2791 48.8001 18.434C46.6388 15.5889 43.8496 13.2814 40.6499 11.6915C37.4502 10.1016 33.9265 9.27226 30.3537 9.2681C29.1154 9.26949 27.8794 9.36932 26.657 9.56672C26.5955 9.57701 26.5324 9.57505 26.4716 9.56094C26.4109 9.54684 26.3536 9.52084 26.3029 9.48448C26.2522 9.44813 26.2091 9.4021 26.1761 9.34906C26.1433 9.29602 26.1213 9.23701 26.1113 9.17542C26.1009 9.11388 26.103 9.05091 26.117 8.99011C26.1311 8.92933 26.1571 8.87193 26.1936 8.82123C26.2298 8.77051 26.2758 8.72749 26.3289 8.6946C26.3819 8.66174 26.441 8.63967 26.5025 8.62967C27.7767 8.43226 29.0642 8.33244 30.3537 8.33105C36.6755 8.46158 42.6943 11.0646 47.1192 15.5816C51.544 20.0987 54.0221 26.1699 54.0221 32.4933C54.0221 38.8164 51.544 44.8876 47.1192 49.4047C42.6943 53.9218 36.6755 56.5248 30.3537 56.6552V56.6348Z" fill="#3E3126"/>
<path d="M24.3404 10.1533C24.6816 10.1533 24.9582 9.87664 24.9582 9.53542C24.9582 9.19421 24.6816 8.9176 24.3404 8.9176C23.9993 8.9176 23.7227 9.19421 23.7227 9.53542C23.7227 9.87664 23.9993 10.1533 24.3404 10.1533Z" fill="#3E3126"/>
<path d="M15.8053 51.9169C16.1465 51.9169 16.4231 51.6403 16.4231 51.2989C16.4231 50.9578 16.1465 50.6812 15.8053 50.6812C15.4641 50.6812 15.1875 50.9578 15.1875 51.2989C15.1875 51.6403 15.4641 51.9169 15.8053 51.9169Z" fill="#3E3126"/>
<path d="M30.3549 56.5739C25.5861 56.5882 20.9205 55.187 16.9486 52.5482C12.9767 49.9092 9.87716 46.1511 8.04241 41.7495C6.20764 37.3479 5.72017 32.501 6.64174 27.8224C7.5633 23.1435 9.85244 18.8434 13.2193 15.4664C16.5862 12.0894 20.8794 9.78741 25.5554 8.85184C30.2313 7.91626 35.0797 8.3892 39.4869 10.2108C43.8938 12.0323 47.6612 15.1206 50.3122 19.0846C52.9629 23.0487 54.3779 27.7101 54.3779 32.4786C54.3779 38.8567 51.8493 44.9744 47.346 49.4911C42.843 54.0077 36.7328 56.5547 30.3549 56.5739ZM30.3549 10.7724C26.0554 10.754 21.8471 12.0123 18.2635 14.3879C14.6798 16.7634 11.8819 20.1492 10.2243 24.1163C8.56675 28.0834 8.12405 32.4535 8.95233 36.6724C9.78061 40.8914 11.8426 44.7694 14.877 47.8154C17.9115 50.8615 21.7818 52.9382 25.9976 53.7825C30.2134 54.6268 34.5849 54.2008 38.5582 52.5582C42.5317 50.9156 45.928 48.1308 48.3173 44.5561C50.7064 40.9815 51.9807 36.7781 51.9786 32.4786C51.9788 26.736 49.7031 21.2274 45.6502 17.159C41.5972 13.0907 36.0973 10.7942 30.3549 10.7724Z" fill="#F8A547"/>
<path d="M13.7653 49.8171C13.7026 49.8184 13.6403 49.8073 13.5819 49.7843C13.5236 49.7613 13.4704 49.727 13.4255 49.6833C10.5474 46.8309 8.43137 43.302 7.27125 39.4195C6.11113 35.5372 5.94406 31.4257 6.78536 27.462C7.62668 23.4983 9.44944 19.8093 12.0866 16.7329C14.7237 13.6566 18.0909 11.2913 21.8794 9.85407C21.9943 9.82051 22.1176 9.83172 22.2246 9.88544C22.3316 9.93914 22.4143 10.0314 22.456 10.1436C22.4978 10.2558 22.4955 10.3796 22.4496 10.4902C22.4038 10.6008 22.3177 10.6899 22.2088 10.7396C18.5667 12.1192 15.3295 14.3916 12.7943 17.3482C10.2591 20.3048 8.50728 23.8508 7.69956 27.6608C6.89185 31.4709 7.05415 35.4228 8.17156 39.1538C9.28897 42.8847 11.3257 46.2752 14.0948 49.0139C14.1834 49.1028 14.2332 49.2232 14.2332 49.3485C14.2332 49.474 14.1834 49.5944 14.0948 49.6833C14.0514 49.7261 13.9999 49.76 13.9434 49.783C13.8868 49.806 13.8263 49.8175 13.7653 49.8171Z" fill="#3E3126"/>
<path d="M30.3537 56.6348C25.97 56.6429 21.6681 55.4497 17.9147 53.1853C17.807 53.121 17.7291 53.0165 17.6982 52.8949C17.6673 52.7734 17.6859 52.6445 17.75 52.5364C17.8162 52.4279 17.9224 52.35 18.0457 52.3191C18.169 52.2882 18.2995 52.3071 18.409 52.3717C21.4744 54.2071 24.9224 55.3097 28.4842 55.5936C32.0457 55.8772 35.6247 55.3346 38.9421 54.0077C42.2596 52.6809 45.2258 50.6055 47.6093 47.9439C49.9928 45.2823 51.7292 42.106 52.6834 38.6627C53.6375 35.2197 53.7834 31.6027 53.1101 28.0938C52.4364 24.5849 50.9614 21.2791 48.8001 18.434C46.6388 15.5889 43.8496 13.2814 40.6499 11.6915C37.4502 10.1016 33.9265 9.27226 30.3537 9.2681C29.1154 9.26949 27.8794 9.36932 26.657 9.56672C26.5955 9.57701 26.5324 9.57505 26.4716 9.56094C26.4109 9.54684 26.3536 9.52084 26.3029 9.48448C26.2522 9.44813 26.2091 9.4021 26.1761 9.34906C26.1433 9.29602 26.1213 9.23701 26.1113 9.17542C26.1009 9.11388 26.103 9.05091 26.117 8.99011C26.1311 8.92933 26.1571 8.87193 26.1936 8.82123C26.2298 8.77051 26.2758 8.72749 26.3289 8.6946C26.3819 8.66174 26.441 8.63967 26.5025 8.62967C27.7767 8.43226 29.0642 8.33244 30.3537 8.33105C36.6755 8.46158 42.6943 11.0646 47.1192 15.5816C51.544 20.0987 54.0221 26.1699 54.0221 32.4933C54.0221 38.8164 51.544 44.8876 47.1192 49.4047C42.6943 53.9218 36.6755 56.5248 30.3537 56.6552V56.6348Z" fill="#3E3126"/>
<path d="M24.3404 10.1533C24.6816 10.1533 24.9582 9.87664 24.9582 9.53542C24.9582 9.19421 24.6816 8.9176 24.3404 8.9176C23.9993 8.9176 23.7227 9.19421 23.7227 9.53542C23.7227 9.87664 23.9993 10.1533 24.3404 10.1533Z" fill="#3E3126"/>
<path d="M15.8053 51.9169C16.1465 51.9169 16.4231 51.6403 16.4231 51.2989C16.4231 50.9578 16.1465 50.6812 15.8053 50.6812C15.4641 50.6812 15.1875 50.9578 15.1875 51.2989C15.1875 51.6403 15.4641 51.9169 15.8053 51.9169Z" fill="#3E3126"/>
<path d="M1.99673 24.2198C2.33794 24.2198 2.61457 23.9432 2.61457 23.602C2.61457 23.2609 2.33794 22.9843 1.99673 22.9843C1.65552 22.9843 1.37891 23.2609 1.37891 23.602C1.37891 23.9432 1.65552 24.2198 1.99673 24.2198Z" fill="#3E3126"/>
<path d="M16.6741 11.429C17.1732 11.0064 17.3693 10.4176 17.1121 10.1137C16.8549 9.80989 16.2418 9.90614 15.7426 10.3287C15.2435 10.7513 15.0473 11.3401 15.3046 11.644C15.5618 11.9478 16.1749 11.8515 16.6741 11.429Z" fill="white"/>
<path d="M8.78173 18.8013C8.67304 18.8035 8.56596 18.7749 8.47281 18.7189C8.33944 18.6341 8.24439 18.5005 8.20785 18.3467C8.17132 18.1929 8.19619 18.0309 8.27717 17.8952C9.75998 15.6828 11.5727 13.7104 13.6522 12.0464C13.7116 11.9868 13.7829 11.9403 13.8614 11.9101C13.9399 11.8799 14.0239 11.8667 14.1079 11.8712C14.1919 11.8758 14.274 11.898 14.3488 11.9365C14.4236 11.9749 14.4895 12.0288 14.542 12.0945C14.5946 12.1602 14.6327 12.2363 14.6538 12.3177C14.6749 12.3991 14.6786 12.4841 14.6646 12.567C14.6506 12.65 14.6192 12.729 14.5725 12.799C14.5258 12.869 14.4649 12.9283 14.3936 12.9731C12.4091 14.5525 10.6796 16.4279 9.2657 18.5336C9.21323 18.6145 9.14163 18.6813 9.05722 18.728C8.97281 18.7747 8.87817 18.7999 8.78173 18.8013Z" fill="white"/>
<path opacity="0.4" d="M39.1305 45.6865C39.4206 45.6865 39.6556 45.4512 39.6556 45.1612C39.6556 44.8712 39.4206 44.6361 39.1305 44.6361C38.8405 44.6361 38.6055 44.8712 38.6055 45.1612C38.6055 45.4512 38.8405 45.6865 39.1305 45.6865Z" fill="#F8A547"/>
<path d="M39.4476 53.2045C40.4543 53.2045 41.2703 52.3886 41.2703 51.3819C41.2703 50.3754 40.4543 49.5594 39.4476 49.5594C38.441 49.5594 37.625 50.3754 37.625 51.3819C37.625 52.3886 38.441 53.2045 39.4476 53.2045Z" fill="#F8A547"/>
<path d="M40.6622 48.108C40.9979 48.108 41.2698 47.8359 41.2698 47.5005C41.2698 47.1649 40.9979 46.8929 40.6622 46.8929C40.3268 46.8929 40.0547 47.1649 40.0547 47.5005C40.0547 47.8359 40.3268 48.108 40.6622 48.108Z" fill="#F8A547"/>
<path d="M35.2247 52.8021C35.5602 52.8021 35.8323 52.5302 35.8323 52.1946C35.8323 51.8592 35.5602 51.587 35.2247 51.587C34.8891 51.587 34.6172 51.8592 34.6172 52.1946C34.6172 52.5302 34.8891 52.8021 35.2247 52.8021Z" fill="#F8A547"/>
<path d="M43.9784 50.1978C44.3935 50.1978 44.73 49.8613 44.73 49.4459C44.73 49.0308 44.3935 48.6943 43.9784 48.6943C43.563 48.6943 43.2266 49.0308 43.2266 49.4459C43.2266 49.8613 43.563 50.1978 43.9784 50.1978Z" fill="#F8A547"/>
<path opacity="0.4" d="M35.7206 50.4365C36.0106 50.4365 36.2457 50.2014 36.2457 49.9114C36.2457 49.6212 36.0106 49.3861 35.7206 49.3861C35.4306 49.3861 35.1953 49.6212 35.1953 49.9114C35.1953 50.2014 35.4306 50.4365 35.7206 50.4365Z" fill="#F8A547"/>
<path opacity="0.4" d="M37.3036 48.9208C37.6049 48.9208 37.8493 48.6766 37.8493 48.3751C37.8493 48.0738 37.6049 47.8293 37.3036 47.8293C37.0022 47.8293 36.7578 48.0738 36.7578 48.3751C36.7578 48.6766 37.0022 48.9208 37.3036 48.9208Z" fill="#F8A547"/>
<path opacity="0.4" d="M37.2566 46.3151C37.3704 46.3151 37.4627 46.2231 37.4627 46.1093C37.4627 45.9955 37.3704 45.9032 37.2566 45.9032C37.1431 45.9032 37.0508 45.9955 37.0508 46.1093C37.0508 46.2231 37.1431 46.3151 37.2566 46.3151Z" fill="#F8A547"/>
<path d="M37.9873 60.02C38.5844 60.02 39.0686 59.536 39.0686 58.9389C39.0686 58.3418 38.5844 57.8577 37.9873 57.8577C37.3902 57.8577 36.9062 58.3418 36.9062 58.9389C36.9062 59.536 37.3902 60.02 37.9873 60.02Z" fill="#F8A547"/>
<path d="M38.7275 57.4478C38.9266 57.4478 39.0879 57.2865 39.0879 57.0875C39.0879 56.8885 38.9266 56.7269 38.7275 56.7269C38.5285 56.7269 38.3672 56.8885 38.3672 57.0875C38.3672 57.2865 38.5285 57.4478 38.7275 57.4478Z" fill="#F8A547"/>
<path d="M35.4932 60.239C35.6922 60.239 35.8535 60.0777 35.8535 59.8787C35.8535 59.6796 35.6922 59.5183 35.4932 59.5183C35.2941 59.5183 35.1328 59.6796 35.1328 59.8787C35.1328 60.0777 35.2941 60.239 35.4932 60.239Z" fill="#F8A547"/>
<path d="M40.7045 58.6823C40.9492 58.6823 41.1474 58.4841 41.1474 58.2397C41.1474 57.9951 40.9492 57.7969 40.7045 57.7969C40.4601 57.7969 40.2617 57.9951 40.2617 58.2397C40.2617 58.4841 40.4601 58.6823 40.7045 58.6823Z" fill="#F8A547"/>
<path opacity="0.4" d="M35.7814 58.8251C35.9521 58.8251 36.0904 58.6868 36.0904 58.5161C36.0904 58.3456 35.9521 58.2073 35.7814 58.2073C35.611 58.2073 35.4727 58.3456 35.4727 58.5161C35.4727 58.6868 35.611 58.8251 35.7814 58.8251Z" fill="#F8A547"/>
<path opacity="0.4" d="M36.7281 57.929C36.9099 57.929 37.0576 57.7813 37.0576 57.5996C37.0576 57.4176 36.9099 57.2699 36.7281 57.2699C36.5461 57.2699 36.3984 57.4176 36.3984 57.5996C36.3984 57.7813 36.5461 57.929 36.7281 57.929Z" fill="#F8A547"/>
<path opacity="0.4" d="M36.7017 56.3864C36.7699 56.3864 36.8253 56.3312 36.8253 56.2628C36.8253 56.1946 36.7699 56.1394 36.7017 56.1394C36.6335 56.1394 36.5781 56.1946 36.5781 56.2628C36.5781 56.3312 36.6335 56.3864 36.7017 56.3864Z" fill="#F8A547"/>
<path d="M31.4777 54.8318C31.8475 54.8318 32.1471 54.5322 32.1471 54.1624C32.1471 53.7929 31.8475 53.4933 31.4777 53.4933C31.1082 53.4933 30.8086 53.7929 30.8086 54.1624C30.8086 54.5322 31.1082 54.8318 31.4777 54.8318Z" fill="#F8A547"/>
<path d="M20.3059 19.569C21.3788 18.0255 21.4019 16.1856 20.3573 15.4594C19.3127 14.7333 17.5961 15.396 16.5231 16.9395C15.4502 18.4831 15.4272 20.323 16.4718 21.0491C17.5163 21.7753 19.2329 21.1126 20.3059 19.569Z" fill="#FFEFAE"/>
<path d="M37.5852 35.0075C37.2585 34.2821 36.7974 33.6251 36.2258 33.0717C35.6658 32.543 35.0393 32.0895 34.362 31.7227C33.7176 31.3958 33.05 31.1171 32.3644 30.8887C31.4583 30.5385 30.6036 30.1884 29.8109 29.859C29.0946 29.5645 28.4357 29.1464 27.8646 28.6232C27.6144 28.3858 27.4179 28.0975 27.2884 27.7778C27.1586 27.4582 27.0989 27.1144 27.113 26.7699C27.0983 26.2678 27.2155 25.7708 27.4527 25.3282C27.6907 24.9193 28.0509 24.5952 28.4824 24.4015C29.0746 24.1649 29.709 24.0526 30.3462 24.072C31.0183 24.0547 31.6817 24.2261 32.2615 24.5662C32.8087 24.898 33.2876 25.3314 33.6722 25.8431C34.0646 26.3925 34.4091 26.9747 34.7019 27.5833L37.8117 25.7402C37.4134 24.8993 36.893 24.1219 36.2672 23.4336C35.571 22.6766 34.7354 22.0614 33.8061 21.6211C33.21 21.33 32.5756 21.1254 31.9216 21.0137V17.3685H28.8325L28.9047 20.9828C28.1063 21.0932 27.3289 21.3224 26.5982 21.6625C25.5881 22.1198 24.7122 22.829 24.0548 23.7219C23.4453 24.5589 23.1206 25.5695 23.128 26.6049C23.0993 27.562 23.3004 28.512 23.7149 29.375C24.0857 30.1059 24.5924 30.7593 25.2081 31.3006C25.7903 31.8182 26.4375 32.2578 27.1335 32.6082C27.7389 32.9086 28.3611 33.1735 28.9972 33.4011C29.8622 33.7306 30.6758 34.0705 31.4481 34.4308C32.1537 34.7558 32.79 35.2138 33.3221 35.7797C33.821 36.347 34.0827 37.0843 34.0533 37.8392C34.0692 38.4205 33.942 38.9969 33.6825 39.5175C33.4276 39.9753 33.0297 40.3369 32.5498 40.5472C31.9395 40.8106 31.278 40.9336 30.614 40.9076C29.797 40.924 28.9891 40.7326 28.2663 40.3516C27.5454 39.9527 26.9118 39.4135 26.4025 38.7659C25.7892 37.9836 25.2676 37.1338 24.8475 36.2328L21.9336 38.1995C22.4024 39.3392 23.072 40.3855 23.9105 41.2886C24.7463 42.1896 25.7455 42.9235 26.8556 43.4511C27.5121 43.7527 28.2041 43.9707 28.915 44.0998L28.8325 47.5904H31.9216L31.86 44.1925C32.81 44.113 33.7398 43.8729 34.6092 43.482C35.6794 42.9896 36.5789 42.1904 37.1937 41.1857C37.8138 40.1364 38.1277 38.9343 38.1 37.7156C38.1256 36.7862 37.95 35.8624 37.5852 35.0075Z" fill="white"/>
<path d="M47.787 26.2274C54.9355 26.2274 60.7306 20.414 60.7306 13.2428C60.7306 6.0716 54.9355 0.258179 47.787 0.258179C40.6386 0.258179 34.8438 6.0716 34.8438 13.2428C34.8438 20.414 40.6386 26.2274 47.787 26.2274Z" fill="#FBD947"/>
<path d="M47.6121 0.266357C47.5296 4.93094 46.1396 15.2383 35.6778 17.8332C35.1255 16.3651 34.8429 14.8093 34.8438 13.2407C34.8568 12.6608 34.9117 12.0827 35.0085 11.5108C35.3554 8.85979 36.5147 6.38126 38.3271 4.41577C40.1395 2.45026 42.5162 1.09427 45.1305 0.534082C45.9465 0.360887 46.778 0.271184 47.6121 0.266357Z" fill="#FBE481"/>
<path opacity="0.5" d="M60.5059 13.0887C60.5085 14.7912 60.1758 16.4775 59.5269 18.0514C58.8778 19.6253 57.9253 21.056 56.7234 22.2617C55.5215 23.4674 54.0937 24.4247 52.5219 25.0787C50.9501 25.7327 49.2649 26.0707 47.5624 26.0734C45.985 26.0773 44.4207 25.7875 42.9492 25.2187C53.7613 21.2234 56.2531 11.8325 55.7073 2.99756C57.2073 4.21679 58.4165 5.75533 59.2467 7.50105C60.0767 9.24675 60.507 11.1557 60.5059 13.0887Z" fill="#F8A547"/>
<path d="M41.828 4.04881C42.0449 3.86509 42.1314 3.61059 42.0213 3.48038C41.9111 3.35018 41.6458 3.39354 41.4286 3.57728C41.2117 3.76099 41.1252 4.0155 41.2354 4.1457C41.3455 4.27591 41.6108 4.23254 41.828 4.04881Z" fill="white"/>
<path d="M39.6422 10.7913C39.6111 10.7758 39.5866 10.7495 39.5734 10.7173C39.5602 10.6851 39.5589 10.6493 39.57 10.6163L40.3011 8.87607C40.308 8.85985 40.3178 8.8451 40.3303 8.8327C40.3427 8.8203 40.3576 8.81047 40.3738 8.80378C40.39 8.79709 40.4075 8.79366 40.425 8.7937C40.4426 8.79374 40.4601 8.79724 40.4763 8.80399C40.5074 8.81957 40.5317 8.84587 40.5451 8.87803C40.5583 8.9102 40.5594 8.94609 40.5483 8.97906L39.807 10.7193C39.8027 10.7361 39.7948 10.7518 39.7835 10.7651C39.7724 10.7784 39.7584 10.789 39.7424 10.796C39.7264 10.8029 39.7091 10.8061 39.6917 10.8053C39.6744 10.8045 39.6574 10.7997 39.6422 10.7913Z" fill="#3E3126"/>
<path d="M40.6221 9.957H40.5706C40.5533 9.95152 40.5375 9.94236 40.5243 9.93015C40.5111 9.91794 40.5007 9.90296 40.4936 9.88627C40.4868 9.86959 40.4838 9.8516 40.4845 9.83357C40.4853 9.81557 40.4902 9.79792 40.4985 9.78194L40.8898 8.85521C40.9034 8.82243 40.9296 8.79643 40.9624 8.7829C40.9953 8.76939 41.0321 8.76948 41.0649 8.78311C41.0975 8.79677 41.1235 8.8229 41.1372 8.85572C41.1506 8.88856 41.1506 8.9254 41.137 8.95818L40.7457 9.88491C40.7331 9.90664 40.715 9.92472 40.6935 9.93735C40.6718 9.95001 40.6471 9.95677 40.6221 9.957Z" fill="#3E3126"/>
<path d="M47.7896 26.2565C45.2132 26.2667 42.6918 25.5121 40.5446 24.0882C38.3974 22.6641 36.7211 20.635 35.7283 18.2576C34.7352 15.8803 34.4702 13.2617 34.9665 10.7335C35.4628 8.20538 36.6983 5.88141 38.5165 4.05601C40.3347 2.2306 42.6538 0.985869 45.1799 0.479474C47.706 -0.0269191 50.3257 0.227807 52.7071 1.21139C55.0883 2.19496 57.124 3.86316 58.5565 6.00465C59.9889 8.14616 60.7537 10.6646 60.7537 13.241C60.7537 16.684 59.3895 19.9868 56.9597 22.4262C54.5299 24.8656 51.2326 26.2429 47.7896 26.2565ZM47.7896 1.2655C45.4195 1.25734 43.1001 1.95276 41.1253 3.26368C39.1505 4.57462 37.6091 6.44206 36.6964 8.62958C35.7837 10.8171 35.5406 13.2262 35.9981 15.552C36.4554 17.8777 37.5927 20.0154 39.266 21.6942C40.939 23.3732 43.0728 24.5178 45.3969 24.9834C47.7212 25.4488 50.1311 25.214 52.3218 24.3088C54.5125 23.4037 56.3852 21.8688 57.7028 19.8985C59.0206 17.9283 59.724 15.6113 59.724 13.241C59.7268 10.0712 58.4714 7.02983 56.2341 4.78458C53.9965 2.53931 50.9594 1.27368 47.7896 1.2655Z" fill="#F8A547"/>
<path d="M34.8435 13.4985C34.7753 13.4985 34.7099 13.4713 34.6615 13.4231C34.6131 13.3748 34.586 13.3093 34.586 13.2411C34.5824 12.3452 34.6721 11.4513 34.8539 10.5741C34.8586 10.5404 34.8705 10.508 34.8884 10.4791C34.9063 10.4501 34.93 10.4252 34.9581 10.4059C34.9862 10.3865 35.0178 10.3732 35.0512 10.3667C35.0847 10.3602 35.1192 10.3607 35.1525 10.3682C35.1866 10.3743 35.2192 10.3872 35.2481 10.4062C35.2771 10.4252 35.3021 10.4499 35.3212 10.4788C35.3404 10.5076 35.3536 10.54 35.36 10.5741C35.3664 10.6082 35.3658 10.6432 35.3583 10.6771C35.1846 11.5206 35.0983 12.3798 35.1009 13.2411C35.1009 13.3093 35.0738 13.3748 35.0255 13.4231C34.9773 13.4713 34.9119 13.4985 34.8435 13.4985Z" fill="#3E3126"/>
<path d="M47.7912 26.4838C44.6646 26.4882 41.6381 25.3803 39.2535 23.358C36.8691 21.3355 35.2818 18.5308 34.7756 15.4453C34.7656 15.4103 34.7631 15.3736 34.7682 15.3376C34.7733 15.3016 34.7861 15.2671 34.8055 15.2364C34.8251 15.2056 34.8509 15.1794 34.8811 15.1593C34.9114 15.1392 34.9457 15.1258 34.9817 15.12C35.0175 15.1141 35.0542 15.1159 35.0893 15.1253C35.1245 15.1347 35.1573 15.1514 35.1854 15.1743C35.2138 15.1973 35.2368 15.226 35.2532 15.2585C35.2694 15.291 35.2788 15.3266 35.2803 15.3629C35.8083 18.3864 37.4102 21.1175 39.7914 23.0539C42.1726 24.9904 45.173 26.0019 48.2406 25.9026C51.3082 25.8031 54.2366 24.5993 56.4876 22.5129C58.7384 20.4262 60.16 17.5971 60.4911 14.5458C60.8221 11.4945 60.0404 8.42621 58.2894 5.9054C56.5385 3.3846 53.9364 1.58076 50.9615 0.825695C47.9866 0.0706288 44.8391 0.415112 42.098 1.79578C39.3569 3.17644 37.2065 5.50045 36.0423 8.34029C36.015 8.40333 35.9643 8.45347 35.9012 8.4803C35.838 8.50713 35.7668 8.50862 35.7024 8.48445C35.6393 8.45713 35.5893 8.40661 35.5624 8.34336C35.5356 8.28011 35.5341 8.20896 35.5584 8.14464C36.4834 5.94114 37.9883 4.02955 39.9131 2.61319C41.838 1.19683 44.1107 0.328664 46.4898 0.101021C48.8686 -0.126624 51.2647 0.29477 53.4232 1.32038C55.5819 2.34599 57.422 3.93749 58.7482 5.92556C60.0743 7.91366 60.8368 10.224 60.9546 12.6109C61.0722 14.9978 60.541 17.372 59.4169 19.4809C58.2928 21.5899 56.6182 23.3548 54.5712 24.5878C52.5241 25.821 50.1811 26.4761 47.7912 26.4838Z" fill="#3E3126"/>
<path d="M34.8147 14.5817C34.9624 14.5817 35.0824 14.4619 35.0824 14.314C35.0824 14.1661 34.9624 14.0463 34.8147 14.0463C34.6669 14.0463 34.5469 14.1661 34.5469 14.314C34.5469 14.4619 34.6669 14.5817 34.8147 14.5817Z" fill="#3E3126"/>
<path d="M47.7904 23.7464C45.7093 23.7526 43.6731 23.1407 41.9399 21.9889C40.2068 20.8369 38.8545 19.1965 38.0543 17.2754C37.2541 15.3543 37.042 13.2389 37.4452 11.1972C37.8482 9.15547 38.8481 7.27931 40.318 5.80632C41.7882 4.3333 43.6624 3.32975 45.7033 2.92275C47.7442 2.51575 49.86 2.72361 51.7826 3.51998C53.7054 4.31638 55.3484 5.66548 56.5039 7.39641C57.6591 9.12734 58.2747 11.1622 58.2728 13.2433C58.2728 16.0253 57.1692 18.6937 55.2037 20.6628C53.2385 22.6319 50.5724 23.7408 47.7904 23.7464ZM47.7904 3.76999C45.9153 3.76388 44.0808 4.31427 42.5189 5.3515C40.9569 6.3887 39.738 7.8661 39.0162 9.59656C38.2944 11.327 38.1024 13.2328 38.4645 15.0725C38.8265 16.9121 39.7263 18.603 41.0498 19.931C42.3736 21.2589 44.0614 22.1643 45.9 22.5323C47.7384 22.9004 49.6448 22.7145 51.3775 21.9985C53.1105 21.2823 54.5917 20.0681 55.634 18.5096C56.6765 16.9511 57.2329 15.1183 57.2329 13.2433C57.2354 10.7354 56.2426 8.32885 54.472 6.55255C52.7015 4.77625 50.2984 3.77545 47.7904 3.76999Z" fill="#F8A547"/>
<path d="M40.55 20.8083C40.4957 20.8075 40.4439 20.7853 40.4057 20.7465C39.4182 19.7632 38.6364 18.5929 38.106 17.3041C37.5756 16.0152 37.3073 14.6336 37.3166 13.24C37.3215 11.0978 37.9755 9.00748 39.1926 7.24459C40.4094 5.48169 42.1321 4.12904 44.1333 3.36505C44.1591 3.35522 44.1864 3.35062 44.2139 3.35156C44.2413 3.35248 44.2684 3.35887 44.2933 3.3704C44.3183 3.38191 44.3406 3.39829 44.3592 3.4186C44.3777 3.43891 44.392 3.46271 44.4012 3.4886C44.4182 3.54058 44.415 3.59712 44.392 3.64679C44.369 3.69648 44.3281 3.73561 44.2776 3.75632C42.6893 4.35818 41.2778 5.34918 40.1724 6.63842C39.0668 7.92766 38.3027 9.47387 37.9502 11.1352C37.5975 12.7966 37.6678 14.5198 38.1546 16.1469C38.6411 17.7741 39.5286 19.2529 40.7354 20.4479C40.7738 20.4881 40.7951 20.5416 40.7951 20.5972C40.7951 20.6528 40.7738 20.7063 40.7354 20.7465C40.712 20.7714 40.6828 20.79 40.6504 20.8008C40.618 20.8116 40.5835 20.8142 40.55 20.8083Z" fill="#3E3126"/>
<path d="M47.7875 23.7877C45.8745 23.7873 43.9979 23.2637 42.3609 22.2741C42.3372 22.2613 42.3163 22.2436 42.2995 22.2225C42.2829 22.2012 42.2709 22.1769 42.2641 22.1507C42.2573 22.1247 42.256 22.0974 42.2603 22.0708C42.2645 22.0441 42.2741 22.0188 42.2888 21.996C42.3027 21.9719 42.321 21.9508 42.3432 21.9342C42.3653 21.9173 42.3907 21.9052 42.4175 21.8984C42.4446 21.8918 42.4725 21.8905 42.5 21.895C42.5273 21.8992 42.5537 21.909 42.5772 21.9239C43.9152 22.7156 45.4178 23.1885 46.9681 23.3057C48.5184 23.4229 50.0749 23.1814 51.5169 22.5999C52.959 22.0183 54.2474 21.1125 55.2828 19.9526C56.3181 18.7927 57.0722 17.4098 57.4869 15.9113C57.9014 14.4128 57.9651 12.839 57.6734 11.3118C57.3814 9.78471 56.7415 8.34537 55.8034 7.10544C54.8654 5.86552 53.6543 4.85834 52.2643 4.16208C50.874 3.46579 49.3422 3.09913 47.7875 3.0905C47.2462 3.08988 46.7058 3.1312 46.1709 3.21408C46.1229 3.22731 46.072 3.22194 46.0281 3.19899C45.984 3.17606 45.9505 3.13728 45.9339 3.0905C45.9296 3.06342 45.9307 3.03573 45.9371 3.00907C45.9437 2.98242 45.9554 2.95731 45.9716 2.93526C45.988 2.9132 46.0085 2.89462 46.0321 2.8806C46.0556 2.8666 46.0818 2.85743 46.1091 2.85366C46.6638 2.76228 47.2253 2.71749 47.7875 2.71981C50.584 2.71981 53.2658 3.8307 55.2434 5.80815C57.2208 7.78557 58.3317 10.4675 58.3317 13.264C58.3317 16.0605 57.2208 18.7425 55.2434 20.7199C53.2658 22.6973 50.584 23.8082 47.7875 23.8082V23.7877Z" fill="#3E3126"/>
<path d="M45.1622 3.48822C45.3101 3.48822 45.4298 3.36835 45.4298 3.2205C45.4298 3.07263 45.3101 2.95276 45.1622 2.95276C45.0143 2.95276 44.8945 3.07263 44.8945 3.2205C44.8945 3.36835 45.0143 3.48822 45.1622 3.48822Z" fill="#3E3126"/>
<path d="M41.4356 21.7172C41.5835 21.7172 41.7035 21.5974 41.7035 21.4495C41.7035 21.3016 41.5835 21.1818 41.4356 21.1818C41.2879 21.1818 41.168 21.3016 41.168 21.4495C41.168 21.5974 41.2879 21.7172 41.4356 21.7172Z" fill="#3E3126"/>
<path d="M47.7904 23.7464C45.7093 23.7526 43.6731 23.1407 41.9399 21.9889C40.2068 20.8369 38.8545 19.1965 38.0543 17.2754C37.2541 15.3543 37.042 13.2389 37.4452 11.1972C37.8482 9.15547 38.8481 7.27931 40.318 5.80632C41.7882 4.3333 43.6624 3.32975 45.7033 2.92275C47.7442 2.51575 49.86 2.72361 51.7826 3.51998C53.7054 4.31638 55.3484 5.66548 56.5039 7.39641C57.6591 9.12734 58.2747 11.1622 58.2728 13.2433C58.2728 16.0253 57.1692 18.6937 55.2037 20.6628C53.2385 22.6319 50.5724 23.7408 47.7904 23.7464ZM47.7904 3.76999C45.9153 3.76388 44.0808 4.31427 42.5189 5.3515C40.9569 6.3887 39.738 7.8661 39.0162 9.59656C38.2944 11.327 38.1024 13.2328 38.4645 15.0725C38.8265 16.9121 39.7263 18.603 41.0498 19.931C42.3736 21.2589 44.0614 22.1643 45.9 22.5323C47.7384 22.9004 49.6448 22.7145 51.3775 21.9985C53.1105 21.2823 54.5917 20.0681 55.634 18.5096C56.6765 16.9511 57.2329 15.1183 57.2329 13.2433C57.2354 10.7354 56.2426 8.32885 54.472 6.55255C52.7015 4.77625 50.2984 3.77545 47.7904 3.76999Z" fill="#F8A547"/>
<path d="M40.55 20.8083C40.4957 20.8075 40.4439 20.7853 40.4057 20.7465C39.4182 19.7632 38.6364 18.5929 38.106 17.3041C37.5756 16.0152 37.3073 14.6336 37.3166 13.24C37.3215 11.0978 37.9755 9.00748 39.1926 7.24459C40.4094 5.48169 42.1321 4.12904 44.1333 3.36505C44.1591 3.35522 44.1864 3.35062 44.2139 3.35156C44.2413 3.35248 44.2684 3.35887 44.2933 3.3704C44.3183 3.38191 44.3406 3.39829 44.3592 3.4186C44.3777 3.43891 44.392 3.46271 44.4012 3.4886C44.4182 3.54058 44.415 3.59712 44.392 3.64679C44.369 3.69648 44.3281 3.73561 44.2776 3.75632C42.6893 4.35818 41.2778 5.34918 40.1724 6.63842C39.0668 7.92766 38.3027 9.47387 37.9502 11.1352C37.5975 12.7966 37.6678 14.5198 38.1546 16.1469C38.6411 17.7741 39.5286 19.2529 40.7354 20.4479C40.7738 20.4881 40.7951 20.5416 40.7951 20.5972C40.7951 20.6528 40.7738 20.7063 40.7354 20.7465C40.712 20.7714 40.6828 20.79 40.6504 20.8008C40.618 20.8116 40.5835 20.8142 40.55 20.8083Z" fill="#3E3126"/>
<path d="M47.7875 23.7877C45.8745 23.7873 43.9979 23.2637 42.3609 22.2741C42.3372 22.2613 42.3163 22.2436 42.2995 22.2225C42.2829 22.2012 42.2709 22.1769 42.2641 22.1507C42.2573 22.1247 42.256 22.0974 42.2603 22.0708C42.2645 22.0441 42.2741 22.0188 42.2888 21.996C42.3027 21.9719 42.321 21.9508 42.3432 21.9342C42.3653 21.9173 42.3907 21.9052 42.4175 21.8984C42.4446 21.8918 42.4725 21.8905 42.5 21.895C42.5273 21.8992 42.5537 21.909 42.5772 21.9239C43.9152 22.7156 45.4178 23.1885 46.9681 23.3057C48.5184 23.4229 50.0749 23.1814 51.5169 22.5999C52.959 22.0183 54.2474 21.1125 55.2828 19.9526C56.3181 18.7927 57.0722 17.4098 57.4869 15.9113C57.9014 14.4128 57.9651 12.839 57.6734 11.3118C57.3814 9.78471 56.7415 8.34537 55.8034 7.10544C54.8654 5.86552 53.6543 4.85834 52.2643 4.16208C50.874 3.46579 49.3422 3.09913 47.7875 3.0905C47.2462 3.08988 46.7058 3.1312 46.1709 3.21408C46.1229 3.22731 46.072 3.22194 46.0281 3.19899C45.984 3.17606 45.9505 3.13728 45.9339 3.0905C45.9296 3.06342 45.9307 3.03573 45.9371 3.00907C45.9437 2.98242 45.9554 2.95731 45.9716 2.93526C45.988 2.9132 46.0085 2.89462 46.0321 2.8806C46.0556 2.8666 46.0818 2.85743 46.1091 2.85366C46.6638 2.76228 47.2253 2.71749 47.7875 2.71981C50.584 2.71981 53.2658 3.8307 55.2434 5.80815C57.2208 7.78557 58.3317 10.4675 58.3317 13.264C58.3317 16.0605 57.2208 18.7425 55.2434 20.7199C53.2658 22.6973 50.584 23.8082 47.7875 23.8082V23.7877Z" fill="#3E3126"/>
<path d="M45.1622 3.48822C45.3101 3.48822 45.4298 3.36835 45.4298 3.2205C45.4298 3.07263 45.3101 2.95276 45.1622 2.95276C45.0143 2.95276 44.8945 3.07263 44.8945 3.2205C44.8945 3.36835 45.0143 3.48822 45.1622 3.48822Z" fill="#3E3126"/>
<path d="M41.4356 21.7172C41.5835 21.7172 41.7035 21.5974 41.7035 21.4495C41.7035 21.3016 41.5835 21.1818 41.4356 21.1818C41.2879 21.1818 41.168 21.3016 41.168 21.4495C41.168 21.5974 41.2879 21.7172 41.4356 21.7172Z" fill="#3E3126"/>
<path d="M35.4239 9.6264C35.5718 9.6264 35.6918 9.50653 35.6918 9.35866C35.6918 9.21081 35.5718 9.09094 35.4239 9.09094C35.276 9.09094 35.1562 9.21081 35.1562 9.35866C35.1562 9.50653 35.276 9.6264 35.4239 9.6264Z" fill="#3E3126"/>
<path d="M38.3751 7.26741C38.331 7.27687 38.2853 7.27687 38.2412 7.26741C38.2116 7.24953 38.186 7.22592 38.166 7.19796C38.1458 7.17 38.1315 7.13827 38.1238 7.10466C38.1159 7.07104 38.1151 7.03622 38.1213 7.00227C38.1272 6.96832 38.14 6.93593 38.1588 6.90701C38.7987 5.92916 39.5874 5.05715 40.4963 4.32245C40.5461 4.27463 40.6126 4.24792 40.6817 4.24792C40.7507 4.24792 40.8172 4.27463 40.8671 4.32245C40.9142 4.37056 40.9406 4.43526 40.9406 4.50264C40.9406 4.57003 40.9142 4.63472 40.8671 4.68284C39.9791 5.39432 39.2138 6.24655 38.6016 7.20563C38.5707 7.23184 38.5343 7.25094 38.4953 7.26161C38.456 7.27229 38.4151 7.27427 38.3751 7.26741Z" fill="white"/>
<path opacity="0.4" d="M51.6172 18.996C51.7422 18.996 51.8437 18.8946 51.8437 18.7695C51.8437 18.6444 51.7422 18.543 51.6172 18.543C51.4921 18.543 51.3906 18.6444 51.3906 18.7695C51.3906 18.8946 51.4921 18.996 51.6172 18.996Z" fill="#F8A547"/>
<path d="M51.7539 22.2815C52.1916 22.2815 52.5466 21.9265 52.5466 21.4886C52.5466 21.0507 52.1916 20.6957 51.7539 20.6957C51.316 20.6957 50.9609 21.0507 50.9609 21.4886C50.9609 21.9265 51.316 22.2815 51.7539 22.2815Z" fill="#F8A547"/>
<path d="M52.2911 20.06C52.439 20.06 52.559 19.9401 52.559 19.7923C52.559 19.6444 52.439 19.5245 52.2911 19.5245C52.1434 19.5245 52.0234 19.6444 52.0234 19.7923C52.0234 19.9401 52.1434 20.06 52.2911 20.06Z" fill="#F8A547"/>
<path d="M49.9202 22.1077C50.0679 22.1077 50.1879 21.9879 50.1879 21.84C50.1879 21.6922 50.0679 21.5724 49.9202 21.5724C49.7723 21.5724 49.6523 21.6922 49.6523 21.84C49.6523 21.9879 49.7723 22.1077 49.9202 22.1077Z" fill="#F8A547"/>
<path d="M53.7279 20.976C53.9099 20.976 54.0576 20.8285 54.0576 20.6465C54.0576 20.4645 53.9099 20.317 53.7279 20.317C53.5459 20.317 53.3984 20.4645 53.3984 20.6465C53.3984 20.8285 53.5459 20.976 53.7279 20.976Z" fill="#F8A547"/>
<path opacity="0.4" d="M50.125 21.0682C50.2501 21.0682 50.3515 20.9668 50.3515 20.8417C50.3515 20.7165 50.2501 20.6151 50.125 20.6151C49.9999 20.6151 49.8984 20.7165 49.8984 20.8417C49.8984 20.9668 49.9999 21.0682 50.125 21.0682Z" fill="#F8A547"/>
<path opacity="0.4" d="M50.8266 20.4086C50.9574 20.4086 51.0634 20.3026 51.0634 20.1718C51.0634 20.041 50.9574 19.9349 50.8266 19.9349C50.6958 19.9349 50.5898 20.041 50.5898 20.1718C50.5898 20.3026 50.6958 20.4086 50.8266 20.4086Z" fill="#F8A547"/>
<path opacity="0.4" d="M50.7958 19.2879C50.847 19.2879 50.8885 19.2464 50.8885 19.1952C50.8885 19.144 50.847 19.1025 50.7958 19.1025C50.7447 19.1025 50.7031 19.144 50.7031 19.1952C50.7031 19.2464 50.7447 19.2879 50.7958 19.2879Z" fill="#F8A547"/>
<path d="M51.1143 25.2592C51.3758 25.2592 51.5879 25.047 51.5879 24.7855C51.5879 24.5238 51.3758 24.3118 51.1143 24.3118C50.8527 24.3118 50.6406 24.5238 50.6406 24.7855C50.6406 25.047 50.8527 25.2592 51.1143 25.2592Z" fill="#F8A547"/>
<path d="M51.4436 24.1379C51.5288 24.1379 51.5981 24.0688 51.5981 23.9834C51.5981 23.8981 51.5288 23.8289 51.4436 23.8289C51.3583 23.8289 51.2891 23.8981 51.2891 23.9834C51.2891 24.0688 51.3583 24.1379 51.4436 24.1379Z" fill="#F8A547"/>
<path d="M50.0334 25.3522C50.1186 25.3522 50.1879 25.2832 50.1879 25.1977C50.1879 25.1125 50.1186 25.0435 50.0334 25.0435C49.9482 25.0435 49.8789 25.1125 49.8789 25.1977C49.8789 25.2832 49.9482 25.3522 50.0334 25.3522Z" fill="#F8A547"/>
<path d="M52.3011 24.6707C52.4091 24.6707 52.4967 24.5831 52.4967 24.475C52.4967 24.367 52.4091 24.2794 52.3011 24.2794C52.1931 24.2794 52.1055 24.367 52.1055 24.475C52.1055 24.5831 52.1931 24.6707 52.3011 24.6707Z" fill="#F8A547"/>
<path opacity="0.4" d="M50.1573 24.7319C50.2312 24.7319 50.2911 24.672 50.2911 24.5981C50.2911 24.5241 50.2312 24.4642 50.1573 24.4642C50.0833 24.4642 50.0234 24.5241 50.0234 24.5981C50.0234 24.672 50.0833 24.7319 50.1573 24.7319Z" fill="#F8A547"/>
<path opacity="0.4" d="M50.57 24.342C50.6495 24.342 50.7141 24.2775 50.7141 24.198C50.7141 24.1183 50.6495 24.0537 50.57 24.0537C50.4903 24.0537 50.4258 24.1183 50.4258 24.198C50.4258 24.2775 50.4903 24.342 50.57 24.342Z" fill="#F8A547"/>
<path opacity="0.4" d="M50.5592 23.6621C50.5877 23.6621 50.6107 23.6391 50.6107 23.6106C50.6107 23.5822 50.5877 23.5592 50.5592 23.5592C50.5308 23.5592 50.5078 23.5822 50.5078 23.6106C50.5078 23.6391 50.5308 23.6621 50.5592 23.6621Z" fill="#F8A547"/>
<path d="M48.2844 22.9813C48.4436 22.9813 48.5727 22.8522 48.5727 22.693C48.5727 22.5338 48.4436 22.4047 48.2844 22.4047C48.1252 22.4047 47.9961 22.5338 47.9961 22.693C47.9961 22.8522 48.1252 22.9813 48.2844 22.9813Z" fill="#F8A547"/>
<path d="M43.4271 7.63386C43.8991 6.95763 43.9111 6.1509 43.4542 5.83195C42.9971 5.513 42.244 5.80263 41.7722 6.47884C41.3002 7.15507 41.2882 7.9618 41.7451 8.28075C42.2022 8.5997 42.9553 8.31007 43.4271 7.63386Z" fill="#FFEFAE"/>
<path d="M50.9391 14.4176C50.8008 14.1003 50.6014 13.8134 50.3522 13.5732C50.1089 13.3416 49.8353 13.1442 49.5388 12.9863C49.2584 12.829 48.9656 12.6947 48.6634 12.5847C48.2722 12.4302 47.9016 12.2861 47.5515 12.1316C47.238 12.0032 46.949 11.8221 46.6967 11.5962C46.5899 11.4946 46.506 11.3712 46.451 11.2344C46.3958 11.0976 46.3709 10.9506 46.3775 10.8033C46.3728 10.5819 46.4224 10.3628 46.5218 10.1649C46.6317 9.98707 46.7935 9.84698 46.985 9.7633C47.2437 9.66077 47.5203 9.61174 47.7984 9.61913C48.0917 9.60948 48.3813 9.68456 48.6325 9.83537C48.871 9.98102 49.0805 10.1696 49.2505 10.3914C49.4284 10.6323 49.5868 10.8871 49.724 11.1534L51.042 10.2987C50.8718 9.92397 50.6461 9.5769 50.3729 9.26903C50.0682 8.93617 49.7006 8.66672 49.2916 8.47615C49.0233 8.35624 48.7389 8.27643 48.4473 8.23933V6.65356H47.1395V8.22902C46.7839 8.27294 46.4367 8.37013 46.1098 8.51734C45.6657 8.721 45.2826 9.03686 44.9977 9.43378C44.7298 9.79718 44.5887 10.2386 44.5962 10.69C44.5819 11.1066 44.6703 11.5204 44.8536 11.8948C45.0139 12.2151 45.234 12.5018 45.5023 12.7392C45.7561 12.9661 46.0404 13.1567 46.3466 13.3055C46.6104 13.4387 46.8821 13.5557 47.1602 13.6556C47.5308 13.7998 47.8911 13.9439 48.1899 14.1087C48.4998 14.2493 48.7796 14.4486 49.0135 14.6956C49.2313 14.942 49.3458 15.2629 49.3328 15.5914C49.3428 15.8454 49.2861 16.0975 49.168 16.3225C49.0602 16.5283 48.8861 16.6916 48.6739 16.7859C48.4068 16.898 48.1187 16.9507 47.8293 16.9404C47.472 16.9465 47.1184 16.8652 46.7996 16.7035C46.4845 16.5267 46.2081 16.2887 45.9862 16.0033C45.7156 15.6652 45.4874 15.2952 45.3067 14.9015L44.0195 15.7356C44.2186 16.2397 44.5122 16.701 44.8845 17.0948C45.2485 17.4906 45.6856 17.8123 46.1716 18.0422C46.4593 18.1763 46.7643 18.2699 47.0777 18.3202V19.8338H48.406V18.3511C48.8226 18.3193 49.2305 18.2148 49.6109 18.0422C50.0805 17.8165 50.4741 17.4586 50.7435 17.0124C51.0099 16.5531 51.1452 16.0296 51.1347 15.4988C51.1445 15.1288 51.0778 14.7607 50.9391 14.4176Z" fill="white"/>
</g>
</svg>
