<svg width="95" height="98" viewBox="0 0 95 98" fill="none" xmlns="http://www.w3.org/2000/svg">
<path d="M33.5752 64.6848L33.0329 66.6775L41.0902 71.3519L42.6635 70.1006" fill="white"/>
<path d="M33.5752 64.6848L33.0329 66.6775L41.0902 71.3519L42.6635 70.1006" stroke="black" stroke-width="2" stroke-linecap="round" stroke-linejoin="round"/>
<path d="M49.0828 66.9115C49.0828 66.9115 57.9533 71.6023 61.9868 85.6092C61.9868 85.6092 74.5349 71.5164 61.3866 52.2559" fill="#EC5F32"/>
<path d="M49.0828 66.9115C49.0828 66.9115 57.9533 71.6023 61.9868 85.6092C61.9868 85.6092 74.5349 71.5164 61.3866 52.2559" stroke="black" stroke-linecap="round" stroke-linejoin="round"/>
<path d="M32.8723 58.3624C32.8723 58.3624 24.2317 53.223 10.805 57.4147C10.805 57.4147 15.2098 38.7667 37.87 39.5915" fill="#EC5F32"/>
<path d="M32.8723 58.3624C32.8723 58.3624 24.2317 53.223 10.805 57.4147C10.805 57.4147 15.2098 38.7667 37.87 39.5915" stroke="black" stroke-linecap="round" stroke-linejoin="round"/>
<path d="M43.7988 70.7718C43.7988 70.7718 54.4121 68.6942 65.9822 45.5932C79.6369 18.2574 74.9246 3.33022 69.249 2.37883C63.5735 1.42744 54.7983 6.17331 42.6769 27.4525C30.0932 49.5219 32.1685 63.8147 32.1685 63.8147L43.7988 70.7718Z" fill="white" stroke="black" stroke-linecap="round" stroke-linejoin="round"/>
<path d="M59.8762 36.3866C63.4999 35.2594 65.4924 31.3077 64.3267 27.56C63.161 23.8124 59.2786 21.688 55.6549 22.8151C52.0313 23.9423 50.0387 27.894 51.2044 31.6417C52.3701 35.3893 56.2526 37.5137 59.8762 36.3866Z" fill="#513AFD"/>
<path d="M60.5542 38.5616C65.3367 37.074 67.9656 31.8561 66.4263 26.9071C64.8869 21.958 59.7621 19.1519 54.9796 20.6394C50.1972 22.127 47.5682 27.3449 49.1076 32.2939C50.647 37.243 55.7718 40.0491 60.5542 38.5616Z" stroke="black" stroke-linecap="round" stroke-linejoin="round"/>
<path d="M35.2842 72.3113C35.2842 72.3113 39.5723 48.7355 48.6225 42.919L50.9098 44.0623C50.9098 44.0623 50.233 58.9341 35.2842 72.3113Z" fill="#EC5F32" stroke="black" stroke-linecap="round" stroke-linejoin="round"/>
<path d="M54.5938 10.4161L73.9949 20.8052" stroke="black" stroke-width="2" stroke-linecap="round" stroke-linejoin="round"/>
<path d="M52.6836 12.4795L73.8527 23.9502" stroke="black" stroke-linecap="round" stroke-linejoin="round"/>
<path d="M59.6575 35.6852C62.9051 34.675 64.6907 31.1322 63.6455 27.7721C62.6004 24.412 59.1203 22.507 55.8727 23.5172C52.625 24.5274 50.8394 28.0702 51.8846 31.4303C52.9297 34.7904 56.4098 36.6953 59.6575 35.6852Z" stroke="black" stroke-width="2" stroke-linecap="round" stroke-linejoin="round"/>
</svg>
