<svg width="84" height="46" viewBox="0 0 84 46" fill="none" xmlns="http://www.w3.org/2000/svg">
<path d="M11.1648 38.479C14.7147 37.4098 18.1024 35.8623 21.2348 33.879L31.5548 27.579C34.0348 26.049 36.5548 24.329 38.9248 22.869C39.9248 22.219 41.1048 21.429 42.2648 20.709C43.4666 19.9677 44.7122 19.2998 45.9948 18.709C46.6614 18.3957 47.3514 18.1056 48.0648 17.839C48.9848 17.4908 49.9407 17.246 50.9148 17.109C51.9155 16.9528 52.938 17.0108 53.9148 17.279L54.6248 17.479C54.8605 17.5513 55.0809 17.6665 55.2748 17.819C55.6548 18.1021 55.9916 18.439 56.2748 18.819C56.5731 19.1647 56.8008 19.5656 56.9448 19.999C57.0396 20.4327 57.0899 20.875 57.0948 21.319C57.0221 22.2789 56.7853 23.2191 56.3948 24.099C56.1948 24.559 56.0048 25.039 55.7848 25.469L55.4748 26.079L55.2448 26.519L54.3148 28.219L53.6948 29.329C53.5514 29.579 53.4277 29.8398 53.3248 30.109C53.1876 30.3774 53.1521 30.6864 53.2248 30.979C53.3864 31.2242 53.6734 31.356 53.9648 31.319C54.2339 31.3103 54.5017 31.2768 54.7648 31.219L55.1648 31.119L55.7348 30.939L56.3148 30.759L57.0748 30.489C57.5948 30.299 58.0748 30.109 58.6248 29.889C60.6948 29.039 62.7348 28.029 64.7648 27.009C67.3853 25.5938 70.0791 24.3187 72.8348 23.189C75.674 22.0021 78.7004 21.325 81.7748 21.189C83.7748 21.189 83.4048 21.889 81.9748 22.779L80.7248 23.529C80.2448 23.799 79.7248 24.079 79.1548 24.419C78.0248 25.029 76.7448 25.789 75.2948 26.419L73.3648 27.419C72.7248 27.759 72.0948 28.089 71.4348 28.419C70.1348 29.079 68.8448 29.769 67.5148 30.479C64.8105 31.9649 62.0263 33.3002 59.1748 34.479L58.0548 34.919C57.9048 34.979 57.5448 35.089 57.2948 35.169L56.5248 35.479L55.6948 35.739L55.2848 35.869L54.7648 35.969C54.1116 36.1429 53.4404 36.2402 52.7648 36.259C52.1661 36.3022 51.5644 36.2447 50.9848 36.089C50.4765 35.9206 49.9974 35.6744 49.5648 35.359C49.3427 35.1792 49.1323 34.9854 48.9348 34.779C48.7625 34.5501 48.6119 34.3057 48.4848 34.049C48.2391 33.5644 48.1026 33.032 48.0848 32.489C48.0652 31.2362 48.35 29.9974 48.9148 28.879C49.1748 28.269 49.5548 27.579 49.8248 27.069L50.4848 25.939L51.6248 24.019C51.7503 23.8552 51.8671 23.685 51.9748 23.509C52.1452 23.2721 52.2036 22.9726 52.1348 22.689C51.7599 22.354 51.2227 22.2717 50.7648 22.479L50.5448 22.549C50.3913 22.6038 50.2411 22.6672 50.0948 22.739C49.7848 22.869 49.4748 23.019 49.1548 23.179C48.5348 23.509 47.8948 23.879 47.2648 24.279C46.0148 25.089 44.7348 25.939 43.4348 26.879L42.4348 27.589L41.3648 28.289L39.3648 29.589L28.9448 36.049L23.7448 39.269C21.9548 40.329 20.1148 41.369 18.1748 42.269C15.7417 43.4619 13.1582 44.3197 10.4948 44.819C9.08015 45.0756 7.64001 45.1629 6.20476 45.079C5.31893 45.0134 4.44861 44.811 3.62476 44.479C2.77172 44.1189 2.01485 43.5641 1.41476 42.859C0.975511 42.3205 0.636776 41.7074 0.414755 41.049C0.195343 40.4025 0.0608836 39.7302 0.0147554 39.049C-0.0399451 37.921 0.0575993 36.7909 0.304755 35.689C0.771366 33.7053 1.44159 31.775 2.30476 29.929C3.90826 26.3612 5.8505 22.9556 8.10476 19.759C9.84476 17.299 11.6948 14.969 13.6148 12.759C14.6148 11.649 15.5548 10.539 16.5548 9.46898C17.5548 8.39898 18.5548 7.37898 19.6548 6.35898C20.7548 5.33898 21.4648 4.56898 22.4248 3.71898C25.9748 0.528983 27.3548 -0.161017 28.9348 0.0289835C29.2885 0.0407344 29.6403 0.0876317 29.9848 0.168983C30.4648 0.338983 30.4748 0.898983 30.0948 1.75898C29.488 2.98592 28.7103 4.12056 27.7848 5.12898L17.5348 16.899C14.1996 20.7134 11.3696 24.9415 9.11476 29.479C8.30464 31.1281 7.60315 32.8284 7.01476 34.569C6.75222 35.3391 6.54831 36.1281 6.40476 36.929C6.2911 37.495 6.24079 38.0719 6.25476 38.649C6.25476 38.709 6.25476 38.649 6.25476 38.739C6.25476 38.739 6.25476 38.829 6.25476 38.739H6.31476C6.31476 38.739 6.31476 38.739 6.37476 38.739H6.56476C7.2647 38.801 7.9695 38.7809 8.66476 38.679C9.48238 38.5754 10.2912 38.4116 11.0848 38.189L11.1648 38.479Z" fill="#111827" fill-opacity="0.7"/>
</svg>
