<svg width="80" height="74" viewBox="0 0 80 74" fill="none" xmlns="http://www.w3.org/2000/svg">
<path d="M15.2391 54.9031C19.0691 54.6131 23.1591 52.9931 27.4291 51.2931C28.9891 50.6831 30.5391 49.9131 32.2191 49.3931C32.9691 49.1631 33.7091 48.9331 34.4891 48.7531C35.259 48.5471 36.0403 48.3868 36.8291 48.2731C38.4822 48.0107 40.1604 47.9436 41.8291 48.0731C42.7502 48.1475 43.656 48.3529 44.5191 48.6831C45.4888 49.0488 46.3565 49.6421 47.0491 50.4131C47.3669 50.8183 47.6385 51.2577 47.8591 51.7231C48.0585 52.157 48.2158 52.6091 48.3291 53.0731C48.4475 53.498 48.5245 53.9333 48.5591 54.3731C48.6118 54.7876 48.6351 55.2053 48.6291 55.6231C48.5417 58.3064 48.261 60.98 47.7891 63.6231C47.5553 65.3081 47.2214 66.9777 46.7891 68.6231C46.344 70.3503 45.5847 71.9808 44.5491 73.4331C43.8091 74.3431 43.3191 73.6831 43.1091 72.5831C42.7955 71.1365 42.7955 69.6396 43.1091 68.1931C43.4677 66.6386 43.7448 65.0665 43.9391 63.4831C44.1491 61.8731 44.3591 60.1831 44.5091 58.6231C44.6863 57.24 44.6593 55.8383 44.4291 54.4631C44.349 54.055 44.1743 53.6714 43.9191 53.3431C43.7591 53.0731 43.3791 52.9331 42.9191 52.7131C41.2512 52.4009 39.5315 52.5144 37.9191 53.0431C36.0298 53.5444 34.1785 54.1794 32.3791 54.9431C28.2691 56.5631 24.0591 58.7031 19.2891 59.9431C16.2783 60.7279 13.1445 60.9249 10.0591 60.5231C7.51043 60.2217 5.12807 59.1025 3.26911 57.3331C2.35158 56.3894 1.62793 55.2751 1.13911 54.0531C0.68206 52.9042 0.376168 51.7008 0.229107 50.4731C-0.191201 46.9476 -0.0324412 43.3772 0.699107 39.9031C0.849107 39.1531 0.959107 38.4131 1.16911 37.6831C1.98911 34.9831 2.74911 34.3231 4.47911 34.3831C4.86978 34.3743 5.26061 34.391 5.64911 34.4331C6.91911 34.6731 7.46911 36.0631 7.20911 37.9531C6.83911 40.7631 6.41911 43.5531 6.30911 46.1431C6.19911 48.7331 6.30911 51.1431 7.02911 52.3731C7.27065 52.833 7.61239 53.2328 8.02911 53.5431C8.58327 53.9345 9.19818 54.2318 9.84911 54.4231C11.5963 54.8645 13.41 54.9797 15.1991 54.7631L15.2391 54.9031Z" fill="#111827" fill-opacity="0.7"/>
<path d="M41.8285 25.793C44.6885 24.903 47.7285 23.793 50.8285 22.873C53.9766 21.8489 57.1821 21.0108 60.4285 20.363C62.9755 19.7848 65.5913 19.5694 68.1985 19.723C69.5028 19.8531 70.784 20.1558 72.0085 20.623C72.673 20.8936 73.3093 21.2285 73.9085 21.623C74.2085 21.843 74.5285 22.053 74.7985 22.283L75.5485 22.993C77.3384 24.8741 78.5107 27.2572 78.9085 29.823C79.2471 32.055 79.2774 34.3228 78.9985 36.563C78.7503 38.6803 78.3594 40.7784 77.8285 42.843C76.938 46.4096 75.8632 49.9277 74.6085 53.383C73.1281 57.7876 71.2434 62.0457 68.9785 66.103C68.2485 67.343 67.6085 66.843 67.3285 65.403C67.004 63.2761 67.1926 61.1023 67.8785 59.063C69.3585 54.683 70.6985 50.293 71.7885 45.923C73.0373 41.7544 73.7431 37.4422 73.8885 33.093C73.8885 30.663 73.1085 28.403 71.6585 27.193C71.3345 26.8912 70.9584 26.6506 70.5485 26.483C70.3386 26.3884 70.1212 26.3115 69.8985 26.253C69.6485 26.253 69.4185 26.123 69.1485 26.093C67.9781 25.9347 66.7929 25.9179 65.6185 26.043C62.6747 26.3663 59.7662 26.9554 56.9285 27.803C53.9285 28.653 51.0085 29.673 48.0085 30.733C46.1485 31.373 44.3085 32.043 42.2885 32.623L39.4285 33.423C38.4285 33.693 37.4285 33.953 36.4285 34.153C34.6441 34.554 32.793 34.554 31.0085 34.153C29.9601 33.8749 28.9933 33.3503 28.1885 32.623C27.8163 32.2534 27.4814 31.8482 27.1885 31.413C26.8956 30.9795 26.6413 30.5211 26.4285 30.043C25.7545 28.3556 25.4906 26.5323 25.6585 24.723C25.7908 23.1098 26.0754 21.5127 26.5085 19.953C27.7522 15.4121 29.3401 10.9726 31.2585 6.67302C31.6685 5.74302 32.0285 4.81302 32.4985 3.91302C34.2385 0.573025 35.1885 -0.146975 37.2185 0.0230246C37.6773 0.0401155 38.1347 0.0835202 38.5885 0.153025C40.0685 0.463025 40.3885 2.48302 39.4385 5.08302C38.0485 8.93302 36.4385 12.623 34.9685 16.293C34.2595 18.0692 33.6453 19.8817 33.1285 21.723C32.6632 23.211 32.4403 24.7642 32.4685 26.323C32.4793 26.6634 32.5399 27.0003 32.6485 27.323C32.6485 27.323 32.6485 27.443 32.6485 27.463C32.6485 27.463 32.6485 27.483 32.6485 27.463C32.9775 27.5291 33.3132 27.5559 33.6485 27.543C34.903 27.4397 36.1431 27.2051 37.3485 26.843L39.6985 26.193C40.3685 26.013 41.0085 25.823 41.6985 25.583L41.8285 25.793Z" fill="#111827" fill-opacity="0.7"/>
</svg>
