<svg width="83" height="66" viewBox="0 0 83 66" fill="none" xmlns="http://www.w3.org/2000/svg">
<path d="M39.0796 49.1838C42.7419 48.715 46.2835 47.5616 49.5196 45.7838C52.7204 44.1426 55.4679 41.7385 57.5196 38.7838C58.4037 37.4073 58.9771 35.8546 59.1996 34.2338C59.2946 33.4467 59.2946 32.651 59.1996 31.8638C59.1115 31.0687 58.9302 30.2866 58.6596 29.5338C58.2878 28.2853 57.3998 27.2553 56.2196 26.7038C54.881 26.2401 53.4216 26.2649 52.0996 26.7738C49.7384 27.621 47.6605 29.1101 46.0996 31.0738C44.3914 33.1493 43.0028 35.4682 41.9796 37.9538C41.5044 39.0513 41.1067 40.1807 40.7896 41.3338C40.491 42.4775 40.2705 43.6402 40.1296 44.8138C39.8611 47.1832 39.9454 49.5792 40.3796 51.9238C40.5796 53.0438 40.9154 54.1351 41.3796 55.1738C41.6046 55.6636 41.8618 56.138 42.1496 56.5938C42.4494 57.0206 42.7838 57.422 43.1496 57.7938C43.4951 58.1645 43.877 58.4995 44.2896 58.7938C44.7696 59.0538 45.2896 59.3638 45.7296 59.6038C46.1696 59.8438 46.7296 60.0638 47.2996 60.2138C47.8454 60.3766 48.3995 60.5101 48.9596 60.6138C53.5496 61.4138 58.6296 60.1838 63.0796 58.0238C67.6232 55.9136 71.4478 52.5166 74.0796 48.2538C76.5136 44.4539 78.1343 40.191 78.8396 35.7338C79.6407 31.3529 79.14 26.8332 77.3996 22.7338C76.2148 20.2058 74.3829 18.0359 72.0896 16.4438C69.7488 14.8328 67.1055 13.7135 64.3196 13.1538C58.6354 11.9891 52.7366 12.4749 47.3196 14.5538C45.6396 15.2238 44.8996 15.5538 44.8496 15.3238C44.7996 15.0938 45.4696 14.4738 46.8496 13.5938C48.7607 12.4127 50.8273 11.504 52.9896 10.8938C56.138 9.98895 59.4265 9.67365 62.6896 9.96382C65.9741 10.2592 69.1735 11.1719 72.1196 12.6538C75.1677 14.2261 77.7529 16.5665 79.6196 19.4438C81.3996 22.3571 82.4812 25.6428 82.7796 29.0438C83.0759 32.3362 82.8668 35.6546 82.1596 38.8838C80.8114 45.3647 77.6725 51.3376 73.0996 56.1238C70.7428 58.4937 68.0047 60.4509 64.9996 61.9138C62.0314 63.4155 58.8404 64.4285 55.5496 64.9138C53.5189 65.2365 51.4549 65.2936 49.4096 65.0838C47.2701 64.8705 45.1885 64.2637 43.2696 63.2938C42.7896 63.0338 42.2696 62.7838 41.8296 62.4938C41.3896 62.2038 40.8296 61.8138 40.4396 61.4338C39.5931 60.664 38.8472 59.7904 38.2196 58.8338C37.065 56.9924 36.2457 54.961 35.7996 52.8338C34.9294 48.7867 34.9294 44.6009 35.7996 40.5538C36.6916 36.5423 38.393 32.755 40.7996 29.4238C42.1358 27.5882 43.7365 25.9605 45.5496 24.5938C47.475 23.1376 49.6922 22.1143 52.0496 21.5938C53.3198 21.3358 54.6239 21.2885 55.9096 21.4538C57.2815 21.6394 58.5922 22.139 59.7396 22.9138C60.8553 23.7051 61.7867 24.7286 62.4696 25.9138C63.1015 26.9932 63.5731 28.1587 63.8696 29.3738C64.4297 31.7242 64.4297 34.1734 63.8696 36.5238C63.2901 38.7994 62.2709 40.9396 60.8696 42.8238C58.1275 46.3529 54.601 49.1947 50.5696 51.1238C48.1616 52.3386 45.6214 53.2714 42.9996 53.9038C40.3281 54.5948 37.5616 54.8447 34.8096 54.6438C32.0411 54.3945 29.3355 53.6741 26.8096 52.5138C24.3061 51.297 22.0484 49.6291 20.1496 47.5938C17.2869 44.5305 15.2648 40.7791 14.2796 36.7038C12.7907 30.6234 13.4991 24.2125 16.2796 18.6038L17.0196 17.2438L17.8296 15.9338C18.4279 15.0605 19.0968 14.2378 19.8296 13.4738C21.2321 11.9002 22.8678 10.5512 24.6796 9.47382C25.2063 9.17718 25.7671 8.94549 26.3496 8.78382C27.074 8.56957 27.8403 8.53864 28.5796 8.69382C29.4106 8.90764 30.1441 9.39783 30.6596 10.0838C30.8849 10.3635 31.0762 10.669 31.2296 10.9938C31.2896 11.1438 31.3596 11.2838 31.4296 11.4538C31.4996 11.6238 31.5496 11.8438 31.5896 12.0438C31.7577 13.049 31.6718 14.0803 31.3396 15.0438C31.0727 15.8442 30.7382 16.6203 30.3396 17.3638C29.603 18.7819 28.7252 20.122 27.7196 21.3638C25.7881 24.0077 23.2458 26.1451 20.3096 27.5938C19.4848 27.9564 18.6182 28.2151 17.7296 28.3638C17.2695 28.4373 16.8052 28.4807 16.3396 28.4938C15.8996 28.4938 15.5296 28.4938 15.1196 28.4938C13.4668 28.4651 11.824 28.23 10.2296 27.7938C6.7133 26.9039 3.71 24.6225 1.90956 21.4738C0.400184 18.7291 -0.238097 15.59 0.0795622 12.4738C0.271474 10.0937 0.95233 7.77882 2.07956 5.67382C2.83931 4.21722 3.85559 2.90962 5.07956 1.81382C5.89946 1.06473 6.87169 0.501856 7.92956 0.163819C8.70503 -0.0361811 9.51635 -0.0532976 10.2996 0.113819C10.8795 0.189459 11.4435 0.358301 11.9696 0.613819C12.2596 0.823819 12.2396 1.08382 11.9696 1.44382C11.8317 1.65211 11.6779 1.84937 11.5096 2.03382C11.3296 2.28382 11.0996 2.52382 10.8596 2.83382C10.4196 3.48382 9.80956 4.14382 9.17956 5.02382C8.44551 6.06625 7.82846 7.18633 7.33956 8.36382C6.50194 10.3271 6.10594 12.4505 6.17956 14.5838C6.20473 16.4752 6.87905 18.3004 8.08956 19.7538C9.39316 21.135 11.1217 22.0397 12.9996 22.3238C13.532 22.4277 14.0693 22.5045 14.6096 22.5538C15.1496 22.5538 15.7796 22.6138 16.2696 22.6338C17.1093 22.5944 17.928 22.3581 18.6596 21.9438C20.5944 20.8598 22.2941 19.4015 23.6596 17.6538C24.3796 16.7744 25.022 15.8342 25.5796 14.8438C25.822 14.4215 26.0294 13.98 26.1996 13.5238C26.2312 13.4387 26.2579 13.3519 26.2796 13.2638C26.308 13.2 26.3282 13.1328 26.3396 13.0638C26.4596 12.9238 26.0396 12.9338 26.9996 12.9438C27.1573 12.9337 27.3143 12.9136 27.4696 12.8838C27.6096 12.8838 27.6596 12.8838 27.7696 12.8338H27.9096H27.9796L26.4296 13.4238L26.5296 13.3738C26.6801 13.3076 26.8241 13.2272 26.9596 13.1338L27.1596 12.9838L27.3096 12.8838C27.4044 12.8095 27.4946 12.7293 27.5796 12.6438C27.8196 12.4338 27.8596 12.2438 27.8096 12.4038C27.7186 12.8121 27.7186 13.2355 27.8096 13.6438C27.8096 13.7638 27.8096 14.0138 27.8996 14.1738L27.7796 14.2338C27.6318 14.3056 27.4882 14.3857 27.3496 14.4738C26.9424 14.7428 26.5548 15.0402 26.1896 15.3638C25.3209 16.1349 24.5119 16.9706 23.7696 17.8638C23.436 18.2545 23.1222 18.6616 22.8296 19.0838C22.5496 19.5938 22.2096 20.0838 21.9596 20.6038C20.2968 23.6572 19.3979 27.0676 19.3396 30.5438C19.2658 34.0367 20.118 37.4869 21.8096 40.5438C23.4663 43.5469 25.9845 45.985 29.0396 47.5438C30.5903 48.3117 32.2442 48.8506 33.9496 49.1438L35.2496 49.3238C35.6696 49.3238 36.0596 49.4038 36.4896 49.4038C37.3617 49.416 38.2337 49.3692 39.0996 49.2638L39.0796 49.1838Z" fill="#111827" fill-opacity="0.7"/>
</svg>
