<svg width="86" height="86" viewBox="0 0 86 86" fill="none" xmlns="http://www.w3.org/2000/svg">
<path d="M71.4746 6.22571C71.4746 6.22571 75.2324 14.2088 71.4746 14.5453C67.7261 14.8724 69.3807 8.88049 75.3633 9.38527" stroke="#111827" stroke-width="1.34783" stroke-linecap="round" stroke-linejoin="round"/>
<path d="M72.332 51.357C72.332 51.357 71.0327 56.6853 69.7614 58.8072C68.4901 60.9292 38.3714 73.6516 35.5483 73.932C34.7832 74.0505 34.0002 73.9223 33.3128 73.566C32.6254 73.2097 32.0693 72.6438 31.7251 71.9503C31.7251 71.9503 17.8716 41.9811 17.8716 39.5694C17.8716 37.1576 22.1155 33.1194 22.1155 33.1194" fill="white"/>
<path d="M72.332 51.357C72.332 51.357 71.0327 56.6853 69.7614 58.8072C68.4901 60.9292 38.3714 73.6516 35.5483 73.932C34.7832 74.0505 34.0002 73.9223 33.3128 73.5659C32.6254 73.2096 32.0693 72.6438 31.7251 71.9503C31.7251 71.9503 17.8716 41.9811 17.8716 39.5694C17.8716 37.1576 22.1155 33.1194 22.1155 33.1194M16.5442 72.2307C16.5442 72.2307 10.7205 79.2042 9.04725 75.8203C7.9816 73.6609 13.2351 71.4735 15.3757 77.0916" stroke="#111827" stroke-width="1.34783" stroke-linecap="round" stroke-linejoin="round"/>
<path d="M23.8375 31.8201L53.9843 18.6396C54.5244 18.4038 55.1057 18.2768 55.6949 18.2657C56.2842 18.2546 56.8698 18.3597 57.4184 18.575C57.967 18.7902 58.4679 19.1115 58.8923 19.5204C59.3167 19.9292 59.6565 20.4177 59.8921 20.9579L72.0349 48.749C72.5082 49.8388 72.5299 51.0717 72.0953 52.1775C71.6607 53.2833 70.8053 54.1715 69.7167 54.6475L39.5606 67.8279C38.4708 68.3011 37.2378 68.3228 36.1321 67.8882C35.0263 67.4536 34.138 66.5982 33.6621 65.5096L21.5099 37.7185C21.0367 36.6288 21.015 35.3958 21.4496 34.29C21.8842 33.1842 22.7396 32.296 23.8282 31.8201" fill="#4966FF"/>
<path fill-rule="evenodd" clip-rule="evenodd" d="M22.1918 25.4541C21.5274 23.9388 21.1683 22.3074 21.1348 20.6532C21.1014 18.9989 21.3943 17.3544 21.9967 15.8134C22.5992 14.2725 23.4995 12.8654 24.6461 11.6725C25.7927 10.4797 27.1632 9.52457 28.6791 8.8617L28.8661 8.77757C31.9245 7.4453 35.3866 7.38116 38.4923 8.59923C41.5979 9.81731 44.0933 12.218 45.4305 15.2743L48.1133 21.4158L44.7387 22.9021L42.0465 16.7513C41.1067 14.5921 39.3477 12.8946 37.1565 12.0321C34.9653 11.1696 32.5212 11.2128 30.3618 12.1521L30.2028 12.2269L30.1561 12.2456C29.0832 12.7117 28.113 13.3851 27.3011 14.2273C26.4893 15.0694 25.8518 16.0637 25.4253 17.1529C24.9988 18.2422 24.7917 19.4049 24.8159 20.5744C24.8401 21.7439 25.0951 22.8971 25.5663 23.9678L28.2491 30.1187L24.8746 31.5956L22.1918 25.4541Z" fill="white"/>
<path d="M44.6094 22.3413L42.2444 16.9009C41.7834 15.8389 41.117 14.8785 40.2837 14.0749C39.4503 13.2713 38.4664 12.6402 37.3884 12.2181C36.3104 11.7959 35.1596 11.5909 34.0021 11.6149C32.8446 11.6389 31.7033 11.8914 30.6437 12.3579L30.5129 12.4139C29.452 12.875 28.4927 13.541 27.6898 14.3736C26.887 15.2063 26.2564 16.1893 25.8344 17.2662C25.4123 18.3431 25.207 19.4928 25.2302 20.6492C25.2535 21.8057 25.5048 22.9462 25.9698 24.0053L28.3442 29.4457" stroke="#111827" stroke-width="1.34783" stroke-linecap="round" stroke-linejoin="round"/>
<path d="M48.1133 20.8082L45.4305 14.6667C44.095 11.6111 41.6019 9.21002 38.4983 7.99031C35.3947 6.77059 31.934 6.83183 28.8755 8.1606L28.6885 8.25408C27.1729 8.91612 25.8025 9.87027 24.6557 11.062C23.5089 12.2538 22.6081 13.6598 22.0048 15.1997C21.4015 16.7397 21.1075 18.3834 21.1396 20.037C21.1716 21.6906 21.5292 23.3217 22.1918 24.8371L24.8746 30.9786" stroke="#111827" stroke-width="1.34783" stroke-linecap="round" stroke-linejoin="round"/>
<path d="M50.282 42.9345C50.282 42.9345 52.7405 37.868 48.534 34.5215C44.3275 31.1749 40.6257 34.6149 40.2144 36.9706C39.9807 38.3541 39.8031 42.2708 44.3835 44.6732C44.3835 44.6732 44.6079 53.8808 46.1503 54.8062C47.674 55.7317 56.5077 52.3478 56.087 50.4595C55.6664 48.5806 50.282 42.9345 50.282 42.9345Z" fill="white" stroke="#111827" stroke-width="1.34783" stroke-linecap="round" stroke-linejoin="round"/>
<path d="M43.5044 33.3531C43.5044 33.3531 44.5888 33.1661 46.4023 34.8955C50.1975 38.7 47.9166 43.6824 47.9166 43.6824C47.9166 43.6824 54.4321 51.6 54.4414 52.3666" stroke="#111827" stroke-width="1.34783" stroke-linecap="round" stroke-linejoin="round"/>
<path d="M23.8375 31.8201L53.9843 18.6396C54.5244 18.4038 55.1057 18.2768 55.6949 18.2657C56.2842 18.2546 56.8698 18.3597 57.4184 18.575C57.967 18.7902 58.4679 19.1115 58.8923 19.5204C59.3167 19.9292 59.6565 20.4177 59.8921 20.9579L72.0349 48.749C72.5082 49.8388 72.5299 51.0717 72.0953 52.1775C71.6607 53.2833 70.8053 54.1715 69.7167 54.6475L39.5606 67.8279C38.4708 68.3011 37.2378 68.3228 36.1321 67.8882C35.0263 67.4536 34.138 66.5982 33.6621 65.5096L21.5099 37.7185C21.0367 36.6288 21.015 35.3958 21.4496 34.29C21.8842 33.1842 22.7396 32.296 23.8282 31.8201" stroke="#111827" stroke-width="1.34783" stroke-linecap="round" stroke-linejoin="round"/>
</svg>
