<svg width="1440" height="710" viewBox="0 0 1440 710" fill="none" xmlns="http://www.w3.org/2000/svg">
<path d="M1230.64 526.569C1214.28 531.453 1205.25 543.467 1189.26 543.345C1170.01 556.202 1144.96 563.504 1126.09 575.97C1122.93 575.213 1120.98 574.114 1116.22 574.139C1109.67 587.728 1073.59 582.075 1072.82 596.678C1047.62 603.027 1021.33 610.659 998.04 620.414C921.874 641.293 845.014 660.744 762.725 676.421C752.315 671.794 740.669 681.232 729.398 683.405C709.663 686.604 687.626 686.848 669.296 692.929C659.428 693.393 659.784 690.67 652.557 691.366C654.504 692.465 652.538 693.649 651.471 694.931C626.269 696.726 614.474 700.633 588.748 701.928L585.022 698.362C588.317 697.776 594.327 697.41 596.106 695.286C588.561 689.547 575.847 697.984 565.625 696.555L565.812 699.779L536.734 701.659L559.502 698.289C552.799 692.612 535.162 697.85 523.553 695.847C518.03 699.022 508.574 696.751 503.257 700.841C487.717 698.961 471.558 697.886 454.127 701.757C453.621 702.514 453.64 702.917 453.734 703.246C440.403 705.127 426.491 714.296 413.216 707.569L407.038 709.29C328.643 706.555 253.038 695.859 185.728 687.764L189.472 686.714C169.345 685.774 161.481 678.131 139.107 678.814C134.126 673.308 106.266 677.129 108.924 668.216C93.6275 671.818 86.2318 662.429 69.1374 663.601C59.2702 659.474 46.7255 655.115 39.0489 650.695C27.2532 650.06 13.1358 644.175 3.47456 638.68C-0.9067 635.982 12.649 634.504 3.99884 632.331L-6.41136 636.849L-9.03262 632.001L-11.8411 633.125C-30.3398 629.12 -45.9925 619.389 -50.9355 611.611C-35.5823 607.997 -34.5713 622.759 -19.0496 622.356C-19.2181 623.735 -22.2326 626.214 -16.4283 627.203L-10.2309 625.494L-2.81646 630.292C7.55627 621.183 19.1647 636.934 15.1392 624.639C6.33925 610.06 -30.5083 607.569 -27.7934 591.77C-35.9006 587.814 -42.6036 584.444 -42.4351 578.485C-47.2095 580.805 -65.6895 581.342 -63.555 574.212L-59.3235 571.428C-59.2674 564.517 -85.9107 565.726 -78.8333 557.216C-78.8333 559.499 -74.2461 558.559 -71.9992 559.23L-68.2546 558.192C-76.549 546.434 -107.012 552.319 -103.267 537.521L-100.833 536.825L-103.454 534.298L-105.945 534.994L-110.176 532.429C-109.334 532.637 -108.266 532.735 -106.806 532.613L-101.189 523.516C-114.894 526.361 -118.227 520.073 -116.28 514.298C-121.373 512.466 -127.233 520.622 -125.773 514.322C-124.368 512.625 -115.587 511.148 -110.27 509.365C-74.5082 506.288 -92.8571 528.412 -72.6358 532.588C-73.8716 537.497 -65.5959 540.109 -55.7848 537.387C-59.3048 541.636 -49.7746 537.008 -51.3474 540.073C-54.8674 542.039 -53.2572 545.836 -53.6504 548.571C-53.4819 556.385 -32.4743 548.241 -34.9832 555.811C-48.0334 566.971 -48.5389 550.427 -64.0418 555.384C-61.2333 565.738 -33.2419 569.719 -40.4879 579.572C-15.4735 581.465 -36.6308 590.952 -12.1407 592.331C0.535011 604.48 31.0166 612.368 44.2166 622.783L46.8379 625.31C62.3408 622.624 71.6463 630.829 82.2063 634.126C144.218 650.902 209.9 668.924 281.966 677.056C285.336 674.126 291.477 674.7 296.008 676.055C298.199 682.648 318.776 679.547 329.523 679.181C339.39 678.704 333.755 674.077 345.419 673.772C358.975 674.577 344.483 682.868 362.308 680.853C369.179 678.265 371.651 673.015 363.581 671.342C371.651 673.015 378.035 674.516 371.819 678.521C388.052 679.559 402.525 673.601 416.437 676.275L418.216 674.138C431.21 672.148 429.637 684.382 441.957 676.348C446.675 683.21 460.437 671.22 468.226 671C464.35 675.676 475.284 676.25 482.306 676.91C497.266 678.302 515.296 670.341 528.065 676.592C535.33 673.601 540.292 669.926 550.852 670.902C560.906 673.686 569.013 675.347 579.592 669.461C587.325 673.857 595.076 664.504 604.981 668.607C606.947 662.844 627.018 661.513 635.687 659.107C642.372 660.182 653.606 660.328 661.75 657.41C662.462 654.272 658.062 651.574 651.209 651.855L647.839 652.441C646.771 651.44 644.319 649.84 646.622 648.216C657.388 645.53 671.28 648.216 677.103 642.355C672.366 635.481 655.572 647.691 649.093 640.646C659.709 639.303 653.662 635.115 655.796 632.551C644.487 637.02 640.818 631.159 629.527 633.332C589.197 632.746 545.834 646.153 507.601 640.768C498.951 645.457 491.873 642.514 484.702 640.903C480.134 639.559 474.311 640.866 471.633 642.893L473.393 640.78L454.726 638.106C456.336 637.325 455.232 636.336 454.726 635.848C448.753 633.87 448.585 637.533 446.113 638.241C437.819 640.219 422.84 638.827 419.994 644.504C413.685 640.695 435.722 638.155 426.735 634.126C417.747 634.663 406.813 634.102 400.485 634.883C401.159 636.336 403.817 636.58 406.439 636.824L405.746 637.667C403.106 637.423 392.19 636.861 394.999 633.479C359.424 628.29 324.898 631.049 296.139 623.332L291.234 626.995L280.674 623.723L288.201 622.6C275.375 616.361 253.188 620.268 244.013 612.991C211.585 608.595 182.507 599.01 158.935 588.559C154.385 587.215 159.178 582.612 153.692 581.172L149.479 583.98C125.869 571.281 62.6029 566.275 92.7662 542.503L105.873 540.512C97.0726 535.091 95.8182 528.583 91.2684 522.649L87.8982 523.26C78.0497 521.416 88.1229 512.698 71.7212 513.003C78.4054 509.524 73.4999 504.029 63.4455 503.553C53.054 489.731 33.5068 480.134 34.106 464.579C22.3103 457.07 20.4005 444.53 10.552 435.812C6.37671 413.419 -5.92455 393.932 8.58606 369.622C22.1418 358.975 8.96051 343.993 25.2124 335.886C29.1068 326.607 39.517 317.486 37.2328 307.657C36.5587 303.92 50.4889 301.991 41.6702 298.89C40.0975 299.671 37.9443 299.928 38.1502 300.844L33.7502 300.441C49.7962 298.279 57.8846 283.908 69.8863 278.609C69.4182 257.474 121.095 246.717 129.033 226.815C144.068 219.037 162.567 207.022 171.91 196.9C153.561 200.698 148.45 219.464 129.445 210.356C125.045 207.657 132.628 204.226 131.711 201.858C106.359 209.574 87.8233 223.909 72.0957 234.824C68.7255 230.844 69.6242 228.622 74.3799 224.019L77.0386 224.263C92.0173 214.202 117.631 202.847 130.7 191.662L145.491 187.572L149.685 191.613C178.126 179.135 207.372 169.025 223.268 154.471C232.255 147.059 202.485 138.317 231.413 130.93C234.071 131.174 222.051 134.178 229.821 136.302C238.471 133.897 243.208 129.294 242.89 125.13C250.791 130.454 252.065 118.659 262.793 120.564C272.847 114.178 284.83 106.583 285.898 98.4394C277.472 99.4773 276.761 104.911 268.298 103.678C270.264 97.89 288.219 96.8277 300.689 94.3125C308.647 92.774 309.714 91.4798 307.429 88.5128C321.659 90.7838 324.88 82.359 331.901 78.4518C372.268 69.8316 414.621 57.7071 453.771 44.8378C453.378 42.9819 440.534 45.9123 446.713 41.9074C453.247 44.3494 464.687 40.833 472.775 40.2225C470.491 34.9722 456.898 38.7329 449.184 38.9404C433.644 43.9099 407.244 39.1602 394.868 49.4532C385.525 52.7132 358.394 53.397 357.683 61.1259C338.847 55.2407 317.166 68.7815 300.034 69.9415C303.217 59.2578 336.132 66.4616 340.795 54.0319C332.294 55.082 323.344 48.7572 316.08 56.3396C309.077 57.9635 298.461 59.27 293.2 56.4861L312.41 50.4788L314.151 52.9574L337.63 44.1297L338.829 48.3665C346.224 48.6107 356.279 42.2005 362.457 45.0698L364.91 44.3738C352.909 47.4019 355.549 49.9294 349.595 54.8622C357.514 53.3237 395.205 49.0503 379.739 40.2591C394.68 43.9587 399.305 36.1321 414.958 36.6694C412.486 37.3653 410.408 37.6218 410.595 38.5375L413.216 41.0772C421.155 37.2432 441.451 32.2494 449.016 33.4215L455.194 31.6999L457.815 34.2518L454.445 34.8379L457.067 37.3776C470.173 30.8208 488.859 33.446 501.684 30.54C501.179 32.3104 500.074 33.6169 502.602 35.2042C511.346 38.3177 510.69 32.2738 514.772 30.833C565.362 23.6292 616.627 17.8661 665.251 9.58774C706.855 9.79531 741.755 -2.54893 776.655 3.44614C791.934 -2.45126 814.701 1.01637 833.724 0.979736C870.871 3.05543 905.285 -0.607555 938.388 9.81973C962.915 2.00537 977.145 13.4217 1001.69 12.4937C1001.11 14.2764 998.508 16.3276 993.004 17.1945C995.7 19.722 1003.96 22.3227 1009.03 19.5999L1010.79 17.4754C1016.11 20.2714 1009.22 25.1066 1021.58 23.9833C1028.24 18.1835 1027.01 27.6951 1035.43 24.3618C1040.54 33.0674 1061.34 33.1773 1074.69 39.9172C1084.56 41.7731 1088.83 38.9404 1088.96 44.4715L1091.64 46.9868L1100.96 43.7511C1108.21 47.6461 1094.09 57.7682 1113.08 62.3102L1136.72 63.5801C1140.47 60.259 1121.39 55.7291 1114.71 52.3591C1115.79 48.7938 1126.35 61.2358 1133.19 54.0807C1145.36 58.8915 1164.4 61.1259 1170.39 67.646C1184.96 74.0318 1198.89 83.5799 1218.43 88.6227C1230.9 104.447 1275.52 99.8924 1289.39 116.315C1317.05 125.277 1328.13 142.835 1354.87 151.76C1360.66 155.057 1359.64 160.905 1370.02 160.967C1365.45 166.461 1379.32 166.876 1383.37 170.002L1380.95 170.661C1396.04 182.175 1406.98 194.19 1411.88 206.558C1426.67 213.897 1428.21 233.75 1440.15 246.79C1439.59 264.617 1448.15 282.846 1444.46 299.903L1448 300.221C1439.01 307.645 1450.28 314.629 1435.46 321.051C1443.19 327.742 1427.83 335.947 1431.71 342.736C1420.05 354.47 1415.61 365.532 1407.3 376.667C1417.14 385.385 1391.25 390.294 1398.1 399.182C1388.93 403.37 1389.26 407.522 1387.15 412.369L1385.39 412.186L1350.53 442.857C1349.4 451.014 1337.94 456.826 1330.01 465.263C1314.43 479.402 1290.84 487.253 1279.19 501.306C1270.73 500.061 1274.79 505.458 1270.5 506.019C1249.94 509.108 1243.92 520.94 1230.62 526.581L1230.64 526.569ZM271.069 155.24C246.878 164.923 229.915 176.156 206.698 185.911C199.433 193.482 178.463 199.33 171.592 208.781C159.421 210.856 159.234 214.507 159.384 217.731C162.061 211.088 180.167 210.954 181.983 204.251C208.945 188.891 245.137 171.626 271.069 155.24ZM115.89 550.146C120.29 543.687 101.622 547.887 105.161 541.355L103.382 543.492C106.94 546.117 107.97 551.697 115.89 550.146Z" fill="#F7F7F7"/>
</svg>
