<svg width="32" height="32" viewBox="0 0 32 32" fill="none" xmlns="http://www.w3.org/2000/svg">
<rect width="32" height="32" rx="16" fill="#2563EB"/>
<path d="M9.33345 25V22.1193L16.0643 15.8871C16.6367 15.3331 17.1168 14.8345 17.5046 14.3913C17.8986 13.9482 18.1971 13.5142 18.4002 13.0895C18.6033 12.6586 18.7049 12.1939 18.7049 11.6953C18.7049 11.1413 18.5787 10.6643 18.3263 10.2642C18.074 9.85795 17.7293 9.54711 17.2923 9.33168C16.8552 9.11008 16.3597 8.99929 15.8058 8.99929C15.2272 8.99929 14.7224 9.11624 14.2915 9.35014C13.8607 9.58404 13.5283 9.91951 13.2944 10.3565C13.0605 10.7936 12.9435 11.3137 12.9435 11.9169H9.14879C9.14879 10.6797 9.42886 9.60559 9.98899 8.6946C10.5491 7.78362 11.3339 7.07883 12.3434 6.58025C13.3529 6.08168 14.5162 5.83239 15.8335 5.83239C17.1876 5.83239 18.3664 6.07244 19.3697 6.55256C20.3791 7.02651 21.1639 7.68513 21.7241 8.52841C22.2842 9.37168 22.5643 10.3381 22.5643 11.4276C22.5643 12.1416 22.4227 12.8464 22.1396 13.5419C21.8626 14.2375 21.3671 15.0099 20.6531 15.8594C19.939 16.7027 18.9326 17.7152 17.6339 18.897L14.8732 21.6023V21.7315H22.8136V25H9.33345Z" fill="white"/>
</svg>
