<svg width="32" height="32" viewBox="0 0 32 32" fill="none" xmlns="http://www.w3.org/2000/svg">
<rect width="32" height="32" rx="16" fill="#2563EB"/>
<path d="M16.1119 25.2585C14.7331 25.2585 13.5051 25.0215 12.4279 24.5476C11.3569 24.0675 10.5105 23.4089 9.88885 22.5717C9.27332 21.7285 8.95632 20.7559 8.93786 19.6541H12.9634C12.988 20.1158 13.1388 20.522 13.4158 20.8729C13.699 21.2176 14.0745 21.4853 14.5423 21.6761C15.0101 21.867 15.5363 21.9624 16.1211 21.9624C16.7305 21.9624 17.2691 21.8546 17.7369 21.6392C18.2047 21.4238 18.5709 21.1252 18.8356 20.7436C19.1003 20.362 19.2326 19.9219 19.2326 19.4233C19.2326 18.9186 19.091 18.4723 18.8079 18.0845C18.5309 17.6906 18.1308 17.3828 17.6076 17.1612C17.0906 16.9396 16.475 16.8288 15.761 16.8288H13.9975V13.8928H15.761C16.3642 13.8928 16.8967 13.7881 17.3583 13.5788C17.8261 13.3696 18.1893 13.0803 18.4478 12.7109C18.7063 12.3355 18.8356 11.8984 18.8356 11.3999C18.8356 10.9259 18.7217 10.5104 18.494 10.1534C18.2724 9.79025 17.9585 9.5071 17.5522 9.30398C17.1521 9.10085 16.6843 8.99929 16.1488 8.99929C15.6071 8.99929 15.1116 9.09777 14.6623 9.29474C14.2129 9.48556 13.8529 9.75947 13.582 10.1165C13.3112 10.4735 13.1665 10.892 13.1481 11.3722H9.31641C9.33487 10.2827 9.64572 9.32244 10.2489 8.49148C10.8522 7.66051 11.6647 7.01113 12.6864 6.54332C13.7144 6.06936 14.8746 5.83239 16.1673 5.83239C17.4722 5.83239 18.614 6.06936 19.5927 6.54332C20.5714 7.01728 21.3316 7.65743 21.8732 8.46378C22.421 9.26397 22.6919 10.1626 22.6857 11.1598C22.6919 12.2185 22.3626 13.1018 21.6978 13.8097C21.0392 14.5175 20.1805 14.9669 19.1218 15.1577V15.3054C20.5129 15.4839 21.5716 15.9671 22.2979 16.755C23.0304 17.5367 23.3936 18.5154 23.3874 19.6911C23.3936 20.7682 23.0827 21.7254 22.4549 22.5625C21.8332 23.3996 20.9746 24.0582 19.8789 24.5384C18.7833 25.0185 17.5276 25.2585 16.1119 25.2585Z" fill="white"/>
</svg>
