<svg width="89" height="118" viewBox="0 0 89 118" fill="none" xmlns="http://www.w3.org/2000/svg">
<path d="M38.9553 56.4161C38.9553 56.4161 24.194 73.5743 23.8808 83.8409C23.5675 94.1074 31.5832 99.7771 50.495 92.697C69.4067 85.6169 78.8969 77.7334 78.5076 68.6067C78.1183 59.4799 54.7549 52.5297 52.7916 50.9638" stroke="black" stroke-width="1.42857" stroke-linecap="round" stroke-linejoin="round"/>
<path d="M53.3642 50.6481C53.3642 50.6481 62.0338 41.8283 49.6187 41.6125C37.2036 41.3967 27.7135 50.8151 29.3618 55.9739C30.4924 59.496 35.0938 58.0553 35.0938 58.0553" stroke="black" stroke-width="1.42857" stroke-linecap="round" stroke-linejoin="round"/>
<path d="M31.7244 41.2148C31.7244 41.2148 33.5874 42.4998 34.3021 39.9981C35.0168 37.4965 29.3595 31.326 35.4884 28.4331C41.6172 25.5402 48.4888 24.9306 48.6266 28.2111C48.7644 31.4917 48.1471 33.5732 50.5426 32.5306C52.938 31.4879 54.7911 33.8634 53.7322 36.6229C53.1442 38.2177 52.2952 39.7437 51.2188 41.1402" stroke="black" stroke-width="1.42857" stroke-linecap="round" stroke-linejoin="round"/>
<path d="M31.7062 47.8994C31.7062 47.8994 24.0888 43.9755 26.0252 41.2843C27.9616 38.5931 34.5627 36.8255 34.5627 36.8255" stroke="black" stroke-width="1.42857" stroke-linecap="round" stroke-linejoin="round"/>
<path d="M33.5262 54.9019C33.5262 54.9019 32.5458 51.3186 39.3439 47.7052C48.5961 42.7977 51.3182 46.3168 51.8751 47.8774" stroke="black" stroke-width="1.42857" stroke-linecap="round" stroke-linejoin="round"/>
<path d="M46.1722 67.6678L38.7039 72.634L41.9679 63.1034L44.1679 57.3318L46.1722 67.6678Z" fill="#FF5E8D" stroke="black" stroke-width="1.42857" stroke-linecap="round" stroke-linejoin="round"/>
<path d="M50.4366 80.5605L57.5539 73.6452L53.9509 83.9688L52.5512 87.8204L50.4366 80.5605Z" fill="#FF5E8D" stroke="black" stroke-width="1.42857" stroke-linecap="round" stroke-linejoin="round"/>
<path d="M50.463 80.3432L53.0681 87.5555L44.5393 81.7273L41.3867 79.5099L50.463 80.3432Z" fill="#274AF2" stroke="black" stroke-width="1.42857" stroke-linecap="round" stroke-linejoin="round"/>
<path d="M45.7877 68.1629L43.935 58.3772L51.7329 63.789L54.9645 67.0527L45.7877 68.1629Z" fill="#274AF2" stroke="black" stroke-width="1.42857" stroke-linecap="round" stroke-linejoin="round"/>
<path d="M48.7472 74.6024L39.1986 73.1119L46.4322 68.3456L55.2135 67.2903L48.7472 74.6024Z" fill="#FED55C" stroke="black" stroke-width="1.42857" stroke-linecap="round" stroke-linejoin="round"/>
<path d="M40.4922 79.4504L50.4044 80.5003L57.9781 72.8406L52.6827 87.4607L40.4922 79.4504Z" stroke="black" stroke-width="1.42857" stroke-linecap="round" stroke-linejoin="round"/>
<path d="M50.4491 80.4066L53.0038 87.8204" stroke="black" stroke-width="1.42857" stroke-linecap="round" stroke-linejoin="round"/>
<path d="M38.6893 72.9186L44.135 57.6635L55.1686 66.8716L48.5148 74.4667L38.6893 72.9186Z" stroke="black" stroke-width="1.42857" stroke-linecap="round" stroke-linejoin="round"/>
<path d="M54.9639 67.2004L46.3155 68.2185L39.1913 72.8174" stroke="black" stroke-width="1.42857" stroke-linecap="round" stroke-linejoin="round"/>
<path d="M45.9774 68.051L43.8343 57.3317" stroke="black" stroke-width="1.42857" stroke-linecap="round" stroke-linejoin="round"/>
<path d="M9.68995 37.076C9.68995 37.076 9.96585 47.188 14.1582 45.1041C18.3506 43.0202 13.3592 38.3016 7.22747 42.6142" stroke="black" stroke-width="1.42857" stroke-linecap="round" stroke-linejoin="round"/>
<path d="M67.3157 33.0702C67.3157 33.0702 57.4494 30.4499 57.6178 34.6586C57.7224 37.3434 64.3067 35.9311 63.409 29.3573" stroke="black" stroke-width="1.42857" stroke-linecap="round" stroke-linejoin="round"/>
</svg>
