<svg width="68" height="78" viewBox="0 0 68 78" fill="none" xmlns="http://www.w3.org/2000/svg">
<path d="M30.6328 16.7094C37.5306 13.2959 42.8025 7.29809 45.3028 0.0193893C45.4628 -0.420611 48.0628 14.3594 56.8228 17.2094C56.8228 17.2094 46.2228 22.2894 43.7128 32.3494C43.7228 32.4894 43.1128 24.3594 30.6328 16.7094Z" fill="#231F20"/>
<path d="M45.9258 64.5794C51.605 61.7651 55.9405 56.8186 57.9858 50.8194C58.1158 50.4594 60.2458 62.6194 67.4858 64.9594C67.4858 64.9594 58.7758 69.1394 56.7058 77.4094C56.6758 77.5194 56.1758 70.8394 45.9258 64.5794Z" fill="#231F20"/>
<path d="M0.164062 46.0994C5.64583 43.3782 9.83493 38.6071 11.8241 32.8194C11.9441 32.4594 14.0141 44.1994 21.0041 46.4594C21.0041 46.4594 12.5841 50.4594 10.5941 58.4594C10.5441 58.5894 10.0641 52.1394 0.164062 46.0994Z" fill="#231F20"/>
</svg>
