<svg width="79" height="66" viewBox="0 0 79 66" fill="none" xmlns="http://www.w3.org/2000/svg">
<path d="M44.9426 50.4339C45.8377 50.2307 46.6357 49.7258 47.2026 49.0039C47.8973 48.0322 48.3467 46.9069 48.5126 45.7239C48.931 42.6338 48.877 39.4979 48.3526 36.4239C48.0126 34.0339 47.3526 31.6639 46.8926 29.2339L45.5326 22.7239C45.3026 21.6139 45.0926 20.4939 44.9126 19.3239C44.7926 18.7239 44.7926 18.1339 44.6726 17.5239C44.5526 16.9139 44.5826 16.2439 44.5926 15.6439C44.5257 13.1058 44.9783 10.5808 45.9226 8.22395C46.4517 7.00804 47.1559 5.87607 48.0126 4.86395C48.874 3.8716 49.8865 3.02117 51.0126 2.34395C52.9515 1.21725 55.0975 0.492829 57.3226 0.213946C59.433 -0.0713155 61.5722 -0.0713155 63.6826 0.213946C69.0221 0.772513 74.0739 2.91021 78.1926 6.35395C79.4326 7.49395 78.5426 8.12395 76.8926 8.21395C74.6652 8.30599 72.4411 7.96642 70.3426 7.21395C66.1917 5.54174 61.6758 4.9833 57.2426 5.59395C55.3716 5.85684 53.6264 6.68757 52.2426 7.97395C51.6048 8.62754 51.0779 9.38076 50.6826 10.2039C50.2757 11.142 49.9836 12.1258 49.8126 13.1339C49.6007 14.4571 49.5738 15.8033 49.7326 17.1339C49.9494 18.6156 50.2465 20.0845 50.6226 21.5339C51.3826 24.5339 52.2726 27.6439 52.9626 30.7939C53.7831 34.3194 54.2951 37.9096 54.4926 41.5239C54.5894 43.4447 54.4686 45.3703 54.1326 47.2639C53.7844 49.3727 52.9186 51.3621 51.6126 53.0539C49.8412 55.1423 47.3353 56.4704 44.6126 56.7639C42.1984 57.0258 39.7563 56.8152 37.4226 56.1439C34.0526 55.2639 31.0626 53.9139 28.0926 52.9139C26.6932 52.4035 25.2553 52.0056 23.7926 51.7239C22.3837 51.514 20.9515 51.514 19.5426 51.7239C17.3804 52.0573 15.3373 52.931 13.6026 54.2639C11.8614 55.6228 10.3255 57.226 9.04261 59.0239L8.20261 60.2539C7.94261 60.6739 7.68261 61.1039 7.39261 61.5139C5.39261 64.7039 4.44261 65.6239 2.49261 65.5139C2.05666 65.5495 1.61855 65.5495 1.18261 65.5139C-0.207395 65.174 -0.437395 63.1539 0.842605 60.2239C1.82229 57.9672 3.05698 55.83 4.52261 53.8539C6.14893 51.6908 8.13848 49.8265 10.4026 48.3439C12.8613 46.7701 15.6313 45.7467 18.5226 45.3439C19.2526 45.2539 19.9726 45.2039 20.7026 45.1439C21.4326 45.0839 22.2326 45.1439 22.9726 45.1939C24.3773 45.3204 25.7688 45.5646 27.1326 45.9239C31.0126 46.9239 34.2226 48.4139 37.2426 49.4439C40.2626 50.4739 42.8926 50.9639 44.8926 50.3439L44.9426 50.4339Z" fill="#111827" fill-opacity="0.7"/>
</svg>
