<svg width="140" height="140" viewBox="0 0 140 140" fill="none" xmlns="http://www.w3.org/2000/svg">
<path d="M45.6503 88.58C45.6503 88.58 38.7303 90.88 37.8203 102.46C40.5689 102.554 43.2927 101.912 45.71 100.6C48.1273 99.2887 50.1505 97.3553 51.5703 95" fill="#FED55C"/>
<path d="M45.6503 88.58C45.6503 88.58 38.7303 90.88 37.8203 102.46C40.5689 102.554 43.2927 101.912 45.71 100.6C48.1273 99.2887 50.1505 97.3553 51.5703 95" stroke="black" stroke-width="2" stroke-linecap="round" stroke-linejoin="round"/>
<path d="M49.9006 80.3198L48.3906 82.6898L56.9706 92.0198L59.5206 91.0298" fill="white"/>
<path d="M49.9006 80.3198L48.3906 82.6898L56.9706 92.0198L59.5206 91.0298" stroke="black" stroke-width="2" stroke-linecap="round" stroke-linejoin="round"/>
<path d="M69.1484 89.4799C69.1484 89.4799 78.7784 99.1599 78.3584 118.99C78.3584 118.99 100.358 105.75 91.0584 75.4099" fill="#EC5F32"/>
<path d="M69.1484 89.4799C69.1484 89.4799 78.7784 99.1599 78.3584 118.99C78.3584 118.99 100.358 105.75 91.0584 75.4099" stroke="black" stroke-width="2" stroke-linecap="round" stroke-linejoin="round"/>
<path d="M51.54 71.8199C51.54 71.8199 42.39 61.6499 23.25 61.6699C23.25 61.6699 36.51 39.2199 65.62 49.4499" fill="#EC5F32"/>
<path d="M51.54 71.8199C51.54 71.8199 42.39 61.6499 23.25 61.6699C23.25 61.6699 36.51 39.2199 65.62 49.4499" stroke="black" stroke-width="2" stroke-linecap="round" stroke-linejoin="round"/>
<path d="M60.7219 92.3599C60.7219 92.3599 75.3519 93.9499 99.7219 68.6099C128.512 38.6099 128.422 17.3099 121.432 13.7799C114.442 10.2499 101.122 12.8699 76.7719 35.6199C51.5019 59.2099 48.4219 78.6199 48.4219 78.6199L60.7219 92.3599Z" fill="white" stroke="black" stroke-width="2" stroke-linecap="round" stroke-linejoin="round"/>
<path d="M95.5102 54.1799C100.674 54.1799 104.86 49.8505 104.86 44.5099C104.86 39.1693 100.674 34.8399 95.5102 34.8399C90.3463 34.8399 86.1602 39.1693 86.1602 44.5099C86.1602 49.8505 90.3463 54.1799 95.5102 54.1799Z" fill="#513AFD"/>
<path d="M95.5119 57.2799C102.327 57.2799 107.852 51.5626 107.852 44.5099C107.852 37.4572 102.327 31.7399 95.5119 31.7399C88.6967 31.7399 83.1719 37.4572 83.1719 44.5099C83.1719 51.5626 88.6967 57.2799 95.5119 57.2799Z" stroke="black" stroke-width="2" stroke-linecap="round" stroke-linejoin="round"/>
<path d="M49.0391 90.9199C49.0391 90.9199 64.1391 62.0199 78.2491 58.1199L80.7591 60.5299C80.7591 60.5299 73.8691 79.5799 49.0391 90.9199Z" fill="#EC5F32" stroke="black" stroke-width="2" stroke-linecap="round" stroke-linejoin="round"/>
<path d="M99.1406 18.2999L120.151 39.6399" stroke="black" stroke-width="2" stroke-linecap="round" stroke-linejoin="round"/>
<path d="M95.8281 20.2099L118.698 43.6699" stroke="black" stroke-width="2" stroke-linecap="round" stroke-linejoin="round"/>
<path d="M95.5089 53.1799C100.137 53.1799 103.889 49.2982 103.889 44.5099C103.889 39.7216 100.137 35.8399 95.5089 35.8399C90.8808 35.8399 87.1289 39.7216 87.1289 44.5099C87.1289 49.2982 90.8808 53.1799 95.5089 53.1799Z" stroke="black" stroke-width="2" stroke-linecap="round" stroke-linejoin="round"/>
<path d="M49.7184 106.64L35.1484 119.65" stroke="black" stroke-width="2" stroke-linecap="round" stroke-linejoin="round"/>
<path d="M62.54 100.75L48.25 113.76" stroke="black" stroke-width="2" stroke-linecap="round" stroke-linejoin="round"/>
<path d="M71.3916 17.8999L57.1016 30.9099" stroke="black" stroke-width="2" stroke-linecap="round" stroke-linejoin="round"/>
<path d="M69.1884 27.1001L54.8984 40.1101" stroke="black" stroke-width="2" stroke-linecap="round" stroke-linejoin="round"/>
</svg>
