<svg width="173" height="172" viewBox="0 0 173 172" fill="none" xmlns="http://www.w3.org/2000/svg">
<path d="M148.781 60.6818L152.828 61.7662L150.49 68.9458L146.443 67.8613" fill="white"/>
<path d="M148.781 60.6818L152.828 61.7662L150.49 68.9458L146.443 67.8613" stroke="black" stroke-width="2" stroke-linecap="round" stroke-linejoin="round"/>
<path d="M47.0366 29.9201L42.4774 28.6984L39.9995 36.1303L44.7132 37.3934" fill="white"/>
<path d="M47.0366 29.9201L42.4774 28.6984L39.9995 36.1303L44.7132 37.3934" stroke="black" stroke-width="2" stroke-linecap="round" stroke-linejoin="round"/>
<path d="M47.7776 27.6451L27.3468 93.3459L127.665 124.45L149.394 57.8443L47.7776 27.6451Z" fill="white" stroke="black" stroke-width="2" stroke-linecap="round" stroke-linejoin="round"/>
<path d="M44.4453 38.4611L145.041 69.0701" stroke="black" stroke-width="2" stroke-linecap="round" stroke-linejoin="round"/>
<path d="M73.3797 108.196L66.8039 126.532L37.3681 118.7L35.455 125.889L97.9596 144.973L99.7004 138.431L72.1191 127.946L78.8438 110.023" fill="#513AFD"/>
<path d="M73.3797 108.196L66.8039 126.532L37.3681 118.7L35.455 125.889L97.9596 144.973L99.7004 138.431L72.1191 127.946L78.8438 110.023" stroke="black" stroke-width="2" stroke-linecap="round" stroke-linejoin="round"/>
<path d="M102.543 49.3279L143.102 61.6244" stroke="black" stroke-width="2" stroke-linecap="round" stroke-linejoin="round"/>
<path d="M40.4698 85.1326L70.2152 66.1546L88.1379 94.468L105.856 70.0725L113.965 88.5302L136.965 74.8675" stroke="black" stroke-width="2" stroke-linecap="round" stroke-linejoin="round" stroke-dasharray="150 150"/>
</svg>
