<svg width="140" height="140" viewBox="0 0 140 140" fill="none" xmlns="http://www.w3.org/2000/svg">
<path d="M69.8103 41.03C69.8103 41.03 -4.42969 75.25 38.9103 107.97C65.9103 125.97 99.0703 85.49 105.74 74.97L97.3803 65.43C97.3803 65.43 66.9903 103.62 50.6803 94.34C31.5603 83.46 72.0503 53 79.1903 48.98L69.8103 41.03Z" fill="white" stroke="black" stroke-width="2" stroke-linecap="round" stroke-linejoin="round"/>
<path d="M79.1898 48.98L69.4998 55.86L59.0898 47.2L69.8098 41.03L79.1898 48.98Z" fill="#274AF2" stroke="black" stroke-width="2" stroke-linecap="round" stroke-linejoin="round"/>
<path d="M105.74 74.95L99.68 83.13L89.75 74.31L97.38 65.41L105.74 74.95Z" fill="#274AF2" stroke="black" stroke-width="2" stroke-linecap="round" stroke-linejoin="round"/>
<path d="M25.5092 65.99C31.4794 65.99 36.3192 61.1502 36.3192 55.18C36.3192 49.2098 31.4794 44.37 25.5092 44.37C19.539 44.37 14.6992 49.2098 14.6992 55.18C14.6992 61.1502 19.539 65.99 25.5092 65.99Z" fill="white" stroke="black" stroke-width="2" stroke-linecap="round" stroke-linejoin="round"/>
<path d="M41.5288 51.48C47.499 51.48 52.3388 46.6402 52.3388 40.67C52.3388 34.6998 47.499 29.86 41.5288 29.86C35.5586 29.86 30.7188 34.6998 30.7188 40.67C30.7188 46.6402 35.5586 51.48 41.5288 51.48Z" fill="white" stroke="black" stroke-width="2" stroke-linecap="round" stroke-linejoin="round"/>
<path d="M69.8103 41.03C69.8103 41.03 -4.42969 75.25 38.9103 107.97C65.9103 125.97 99.0703 85.49 105.74 74.97L97.3803 65.43C97.3803 65.43 66.9903 103.62 50.6803 94.34C31.5603 83.46 72.0503 53 79.1903 48.98L69.8103 41.03Z" stroke="black" stroke-width="2" stroke-linecap="round" stroke-linejoin="round"/>
<path d="M79.19 48.98L81.19 56.67C81.19 56.67 52.35 73.98 53.08 94.89" stroke="black" stroke-width="2" stroke-linecap="round" stroke-linejoin="round"/>
<path d="M58.4883 47.12L69.4983 55.86L71.3483 63.86" stroke="black" stroke-width="2" stroke-linecap="round" stroke-linejoin="round"/>
<path d="M63.9102 60.52L66.3802 68.4" stroke="black" stroke-width="2" stroke-linecap="round" stroke-linejoin="round"/>
<path d="M57.0273 67.03L60.4473 75.14" stroke="black" stroke-width="2" stroke-linecap="round" stroke-linejoin="round"/>
<path d="M50.25 74.6899L54.97 84.6399" stroke="black" stroke-width="2" stroke-linecap="round" stroke-linejoin="round"/>
<path d="M46.8398 81.03L53.1498 92.18" stroke="black" stroke-width="2" stroke-linecap="round" stroke-linejoin="round"/>
<path d="M105.74 74.95L107.74 83.65C107.74 83.65 72.6603 137.88 40.8103 117.44C28.5503 110.76 25.5703 88.86 25.5703 88.86" stroke="black" stroke-width="2" stroke-linecap="round" stroke-linejoin="round"/>
<path d="M48.0508 111.92L50.0308 121.38" stroke="black" stroke-width="2" stroke-linecap="round" stroke-linejoin="round"/>
<path d="M60.25 111.8L62.44 121.34" stroke="black" stroke-width="2" stroke-linecap="round" stroke-linejoin="round"/>
<path d="M72.9609 106.73L75.6209 115.93" stroke="black" stroke-width="2" stroke-linecap="round" stroke-linejoin="round"/>
<path d="M80.9609 101.42L84.0109 110.03" stroke="black" stroke-width="2" stroke-linecap="round" stroke-linejoin="round"/>
<path d="M87.0781 96.34L89.9581 104.78" stroke="black" stroke-width="2" stroke-linecap="round" stroke-linejoin="round"/>
<path d="M89.5195 74.3099L99.6795 83.1299L101.01 92.6999" stroke="black" stroke-width="2" stroke-linecap="round" stroke-linejoin="round"/>
<path d="M40.7802 117.44L38.9102 107.97" stroke="black" stroke-width="2" stroke-linecap="round" stroke-linejoin="round"/>
<path d="M28.2994 57.39C31.0277 57.39 33.2394 55.1783 33.2394 52.45C33.2394 49.7217 31.0277 47.51 28.2994 47.51C25.5711 47.51 23.3594 49.7217 23.3594 52.45C23.3594 55.1783 25.5711 57.39 28.2994 57.39Z" fill="black" stroke="black" stroke-width="2" stroke-linecap="round" stroke-linejoin="round"/>
<path d="M44.0181 42.84C46.7464 42.84 48.9581 40.6283 48.9581 37.9C48.9581 35.1717 46.7464 32.96 44.0181 32.96C41.2898 32.96 39.0781 35.1717 39.0781 37.9C39.0781 40.6283 41.2898 42.84 44.0181 42.84Z" fill="black" stroke="black" stroke-width="2" stroke-linecap="round" stroke-linejoin="round"/>
<path d="M84.5197 14.99L80.9297 27.01" stroke="black" stroke-width="2" stroke-linecap="round" stroke-linejoin="round"/>
<path d="M103.078 22.61L97.2383 33.26" stroke="black" stroke-width="2" stroke-linecap="round" stroke-linejoin="round"/>
<path d="M121.56 44.0499L111.91 51.7499" stroke="black" stroke-width="2" stroke-linecap="round" stroke-linejoin="round"/>
<path d="M133.341 58.2699L119.891 60.2199" stroke="black" stroke-width="2" stroke-linecap="round" stroke-linejoin="round"/>
</svg>
